<?xml version="1.0" encoding="UTF-8"?>
<svg width="489px" height="469px" viewBox="0 0 489 469" version="1.1" xmlns="http://www.w3.org/2000/svg" xmlns:xlink="http://www.w3.org/1999/xlink">
    <!-- Generator: Sketch 52.3 (67297) - http://www.bohemiancoding.com/sketch -->
    <title>Artboard</title>
    <desc>Created with Sketch.</desc>
    <g id="Artboard" stroke="none" stroke-width="1" fill="none" fill-rule="evenodd">
        <g id="Group-3" transform="translate(317.000000, 257.000000)" fill="#EAE6DB" fill-rule="nonzero">
            <rect id="Rectangle" x="0" y="26" width="169" height="22" rx="11"></rect>
            <rect id="Rectangle" x="72" y="13" width="75" height="22" rx="11"></rect>
            <rect id="Rectangle" x="35" y="0" width="67" height="22" rx="11"></rect>
        </g>
        <g id="Group-3" transform="translate(111.500000, 301.000000) scale(-1, 1) translate(-111.500000, -301.000000) translate(23.000000, 278.000000)" fill="#EAE6DB" fill-rule="nonzero">
            <rect id="Rectangle" x="0" y="23" width="177" height="23" rx="11.5"></rect>
            <rect id="Rectangle" x="43" y="9" width="79" height="23" rx="11.5"></rect>
            <rect id="Rectangle" x="85" y="0" width="64" height="37" rx="18.5"></rect>
        </g>
        <circle id="Oval" stroke="#F4F4F4" stroke-width="11" fill="#2F2F2F" cx="232" cy="217" r="155"></circle>
        <circle id="Oval" fill="#333333" cx="233.5" cy="219.5" r="122.5"></circle>
        <circle id="Oval" fill="#2B2B2B" cx="232.5" cy="217.5" r="106.5"></circle>
        <circle id="Oval" stroke="#242424" stroke-width="13" fill="#D05555" cx="232" cy="217" r="40"></circle>
        <rect id="Rectangle" fill="#883B3B" x="208" y="206" width="12" height="12" rx="2"></rect>
        <rect id="Rectangle" fill="#883B3B" x="206" y="220" width="16" height="3" rx="1.5"></rect>
        <rect id="Rectangle" fill="#883B3B" x="206" y="224" width="10" height="3" rx="1.5"></rect>
        <g id="Group" transform="translate(150.000000, 133.000000)">
            <ellipse id="Oval" stroke="#484848" stroke-width="17" cx="86" cy="83" rx="72" ry="71"></ellipse>
            <path d="M89,139.939148 L136.287942,117 L156,130.470257 C147.404762,141.432713 140.834075,148.173946 136.287942,150.693957 C135.018225,151.393763 130.014557,160.317098 128.535459,161.255136 C124.107095,164.063585 113.628805,166.645206 97.100588,169 L89,139.939148 Z" id="Rectangle" fill="#2B2B2B"></path>
            <circle id="Oval" fill="#484848" cx="145.5" cy="122.5" r="8.5"></circle>
            <circle id="Oval" fill="#484848" cx="126.5" cy="139.5" r="8.5"></circle>
            <path d="M64.3529895,0 L68,23.6418389 L36.4256603,61 L10,55.113068 C11.4351825,40.8245931 15.1772521,30.1981948 21.2262089,23.2338731 C27.2751657,16.2695514 41.6507592,8.52492706 64.3529895,0 Z" id="Rectangle" fill="#2B2B2B"></path>
            <circle id="Oval" fill="#484848" cx="66.5" cy="14.5" r="8.5"></circle>
            <path d="M48.1563717,19 L52.0181743,42.5651973 C35.5250511,52.8221934 27.0123732,64.3343904 26.4801405,77.1017881 C26.0036595,88.5317949 31.74471,105.251407 43.7032919,127.260624 C44.6361172,128.977446 63.3119708,134.871904 99.7308526,144.943999 C104.255728,153.423836 102.01336,159.252082 93.0037464,162.428737 C83.9941333,165.605392 69.0450084,165.838609 48.1563717,163.128389 C18.6892991,134.151612 3.82945776,118.612379 3.57684766,116.510691 C-1.57119771,73.6795308 -1.16217713,49.0310328 4.80390942,42.5651973 C11.209122,35.6234524 25.6599427,27.7683866 48.1563717,19 Z" id="Rectangle" fill="#2B2B2B"></path>
        </g>
        <path d="M243.135742,205.066406 L243.250977,205.066406 C243.316081,205.364585 243.421223,205.58138 243.566406,205.716797 C243.711589,205.852214 243.877929,205.919922 244.06543,205.919922 C244.247722,205.919922 244.377278,205.873373 244.454102,205.780273 C244.530925,205.687174 244.569336,205.589193 244.569336,205.486328 C244.569336,205.366536 244.528972,205.268881 244.448242,205.193359 C244.394857,205.14388 244.287436,205.079427 244.125977,205 L243.866211,204.871094 C243.608397,204.743489 243.426758,204.617188 243.321289,204.492188 C243.21582,204.367187 243.163086,204.212892 243.163086,204.029297 C243.163086,203.833983 243.233072,203.651694 243.373047,203.482422 C243.513022,203.31315 243.727538,203.228516 244.016602,203.228516 C244.163738,203.228516 244.305989,203.250651 244.443359,203.294922 C244.58073,203.339193 244.65918,203.361328 244.678711,203.361328 C244.722982,203.361328 244.753581,203.348633 244.770508,203.323242 C244.787435,203.297851 244.801107,203.264323 244.811523,203.222656 L244.930664,203.222656 L244.930664,204.09375 L244.819336,204.09375 C244.76595,203.891926 244.671876,203.7181 244.537109,203.572266 C244.402343,203.426432 244.238608,203.353516 244.045898,203.353516 C243.910481,203.353516 243.803386,203.390299 243.724609,203.463867 C243.645833,203.537435 243.606445,203.626953 243.606445,203.732422 C243.606445,203.858725 243.643554,203.953125 243.717773,204.015625 C243.79069,204.079427 243.952798,204.173176 244.204102,204.296875 L244.504883,204.445312 C244.638998,204.511719 244.745768,204.585286 244.825195,204.666016 C244.973634,204.817058 245.047852,205.00065 245.047852,205.216797 C245.047852,205.418621 244.9681,205.609049 244.808594,205.788086 C244.649088,205.967123 244.393556,206.056641 244.041992,206.056641 C243.961263,206.056641 243.879558,206.049154 243.796875,206.03418 C243.714192,206.019206 243.632487,205.996094 243.551758,205.964844 L243.473633,205.935547 C243.455404,205.930339 243.437826,205.926107 243.420898,205.922852 C243.403971,205.919596 243.389648,205.917969 243.37793,205.917969 C243.336263,205.917969 243.307617,205.930013 243.291992,205.954102 C243.276367,205.97819 243.262695,206.01237 243.250977,206.056641 L243.135742,206.056641 L243.135742,205.066406 Z M245.461914,203.546875 C245.461914,203.460937 245.492187,203.387696 245.552734,203.327148 C245.613282,203.266601 245.686523,203.236328 245.772461,203.236328 C245.857097,203.236328 245.929687,203.266601 245.990234,203.327148 C246.050782,203.387696 246.081055,203.460937 246.081055,203.546875 C246.081055,203.632813 246.050782,203.706054 245.990234,203.766602 C245.929687,203.827149 245.857097,203.857422 245.772461,203.857422 C245.686523,203.857422 245.613282,203.827149 245.552734,203.766602 C245.492187,203.706054 245.461914,203.632813 245.461914,203.546875 Z M245.286133,205.904297 C245.356446,205.892578 245.404622,205.875 245.430664,205.851562 C245.469727,205.816406 245.489258,205.753256 245.489258,205.662109 L245.489258,204.486328 C245.489258,204.405599 245.475586,204.350586 245.448242,204.321289 C245.420898,204.291992 245.366862,204.270182 245.286133,204.255859 L245.286133,204.158203 L246.053711,204.158203 L246.053711,205.677734 C246.053711,205.764974 246.066732,205.820963 246.092773,205.845703 C246.118815,205.870443 246.167643,205.889974 246.239258,205.904297 L246.239258,206 L245.286133,206 L245.286133,205.904297 Z M247.34082,205.830078 C247.426758,205.830078 247.503906,205.791667 247.572266,205.714844 C247.640625,205.63802 247.674805,205.583985 247.674805,205.552734 L247.674805,204.580078 C247.674805,204.547526 247.645508,204.499349 247.586914,204.435547 C247.52832,204.371744 247.450847,204.339844 247.354492,204.339844 C247.212564,204.339844 247.116211,204.43815 247.06543,204.634766 C247.038086,204.740235 247.024414,204.889322 247.024414,205.082031 C247.024414,205.287761 247.037435,205.442708 247.063477,205.546875 C247.111654,205.735678 247.204101,205.830078 247.34082,205.830078 Z M246.43457,205.134766 C246.43457,204.818358 246.509765,204.568686 246.660156,204.385742 C246.810548,204.202799 246.99121,204.111328 247.202148,204.111328 C247.307618,204.111328 247.401367,204.13737 247.483398,204.189453 C247.53418,204.220703 247.597981,204.276692 247.674805,204.357422 L247.674805,203.625 C247.674805,203.524739 247.655274,203.462565 247.616211,203.438477 C247.577148,203.414388 247.49642,203.39974 247.374023,203.394531 L247.374023,203.296875 L248.235352,203.296875 L248.235352,205.597656 C248.235352,205.68099 248.250976,205.738607 248.282227,205.770508 C248.313477,205.802409 248.374674,205.822266 248.46582,205.830078 L248.46582,205.921875 C248.241861,205.944011 248.097331,205.960612 248.032227,205.97168 C247.967122,205.982747 247.85254,206.011067 247.688477,206.056641 L247.688477,205.792969 C247.612955,205.871094 247.543946,205.929036 247.481445,205.966797 C247.382486,206.026693 247.275717,206.056641 247.161133,206.056641 C246.965819,206.056641 246.795899,205.973959 246.651367,205.808594 C246.506835,205.643228 246.43457,205.418621 246.43457,205.134766 Z M248.647461,205.082031 C248.647461,204.774738 248.729166,204.536134 248.892578,204.366211 C249.05599,204.196288 249.252929,204.111328 249.483398,204.111328 C249.61491,204.111328 249.738606,204.145833 249.854492,204.214844 C249.970378,204.283855 250.05957,204.379557 250.12207,204.501953 C250.168946,204.594402 250.201497,204.714192 250.219727,204.861328 C250.228841,204.930339 250.233398,204.983073 250.233398,205.019531 L249.213867,205.019531 C249.222982,205.179688 249.249023,205.318359 249.291992,205.435547 C249.370118,205.6556 249.507486,205.765625 249.704102,205.765625 C249.797852,205.765625 249.886393,205.736328 249.969727,205.677734 C250.020508,205.642578 250.083658,205.583334 250.15918,205.5 L250.250977,205.556641 C250.127278,205.759767 249.98405,205.901041 249.821289,205.980469 C249.71582,206.03125 249.594727,206.056641 249.458008,206.056641 C249.261392,206.056641 249.077149,205.979167 248.905273,205.824219 C248.733398,205.66927 248.647461,205.421877 248.647461,205.082031 Z M249.741211,204.871094 C249.738607,204.635415 249.720378,204.470704 249.686523,204.376953 C249.652669,204.283203 249.584961,204.236328 249.483398,204.236328 C249.379231,204.236328 249.307943,204.290364 249.269531,204.398438 C249.23112,204.506511 249.20931,204.664061 249.204102,204.871094 L249.741211,204.871094 Z M252.686523,205.056641 L252.303711,204.130859 L252.270508,204.130859 L251.90918,205.056641 L252.686523,205.056641 Z M251.186523,205.898438 C251.282878,205.891927 251.360351,205.848308 251.418945,205.767578 C251.456706,205.716797 251.510742,205.604819 251.581055,205.431641 L252.469727,203.242188 L252.581055,203.242188 L253.473633,205.34375 C253.573894,205.579428 253.648763,205.731445 253.698242,205.799805 C253.747722,205.868164 253.818033,205.901042 253.90918,205.898438 L253.90918,206 L252.614258,206 L252.614258,205.898438 C252.744467,205.893229 252.830078,205.882162 252.871094,205.865234 C252.91211,205.848307 252.932617,205.805339 252.932617,205.736328 C252.932617,205.705078 252.922201,205.657552 252.901367,205.59375 C252.888346,205.555989 252.870768,205.510417 252.848633,205.457031 L252.74707,205.214844 L251.848633,205.214844 C251.790039,205.373699 251.752279,205.477213 251.735352,205.525391 C251.700195,205.628256 251.682617,205.703125 251.682617,205.75 C251.682617,205.807292 251.721028,205.848958 251.797852,205.875 C251.843425,205.889323 251.911783,205.897135 252.00293,205.898438 L252.00293,206 L251.186523,206 L251.186523,205.898438 Z" id="Side-A" fill="#474747"></path>
        <path d="M240.616943,212.923828 C240.701905,212.921875 240.762939,212.911621 240.800049,212.893066 C240.860596,212.861816 240.890869,212.801758 240.890869,212.712891 L240.890869,211.26123 C240.890869,211.172363 240.862061,211.112793 240.804443,211.08252 C240.769287,211.063965 240.706788,211.052734 240.616943,211.048828 L240.616943,210.972656 L241.665771,210.972656 L241.665771,211.048828 C241.572021,211.052734 241.507569,211.063476 241.472412,211.081055 C241.413818,211.111328 241.384521,211.171386 241.384521,211.26123 L241.384521,212.712891 C241.384521,212.796875 241.407959,212.853027 241.454834,212.881348 C241.501709,212.909668 241.572021,212.923828 241.665771,212.923828 L241.665771,213 L240.616943,213 L240.616943,212.923828 Z M243.501221,212.29248 L243.214111,211.598145 L243.189209,211.598145 L242.918213,212.29248 L243.501221,212.29248 Z M242.376221,212.923828 C242.448487,212.918945 242.506592,212.886231 242.550537,212.825684 C242.578858,212.787597 242.619385,212.703614 242.672119,212.57373 L243.338623,210.931641 L243.422119,210.931641 L244.091553,212.507812 C244.166748,212.684571 244.2229,212.798584 244.26001,212.849854 C244.297119,212.901123 244.349853,212.925781 244.418213,212.923828 L244.418213,213 L243.447021,213 L243.447021,212.923828 C243.544678,212.919922 243.608887,212.911621 243.639648,212.898926 C243.67041,212.88623 243.685791,212.854004 243.685791,212.802246 C243.685791,212.778808 243.677979,212.743164 243.662354,212.695312 C243.652588,212.666992 243.639404,212.632813 243.622803,212.592773 L243.546631,212.411133 L242.872803,212.411133 C242.828857,212.530274 242.800537,212.60791 242.787842,212.644043 C242.761474,212.721192 242.748291,212.777344 242.748291,212.8125 C242.748291,212.855469 242.777099,212.886719 242.834717,212.90625 C242.868897,212.916992 242.920166,212.922852 242.988525,212.923828 L242.988525,213 L242.376221,213 L242.376221,212.923828 Z M245.365967,212.875488 C245.474366,212.875488 245.547607,212.803712 245.585693,212.660156 C245.606201,212.581054 245.616455,212.467286 245.616455,212.318848 C245.616455,212.146972 245.60083,212.01001 245.56958,211.907959 C245.53833,211.805908 245.474854,211.754883 245.37915,211.754883 C245.314697,211.754883 245.25708,211.783203 245.206299,211.839844 C245.155517,211.896485 245.130127,211.9375 245.130127,211.962891 L245.130127,212.692383 C245.130127,212.72168 245.154297,212.759521 245.202637,212.805908 C245.250977,212.852295 245.30542,212.875488 245.365967,212.875488 Z M244.542725,213.546387 C244.607178,213.539551 244.651123,213.524658 244.674561,213.501709 C244.697998,213.47876 244.709717,213.435547 244.709717,213.37207 L244.709717,211.864746 C244.709717,211.802246 244.698731,211.76001 244.676758,211.738037 C244.654785,211.716064 244.612549,211.700684 244.550049,211.691895 L244.550049,211.618652 L245.122803,211.618652 L245.122803,211.816406 C245.163819,211.748047 245.203857,211.697754 245.24292,211.665527 C245.313233,211.608886 245.403076,211.580566 245.512451,211.580566 C245.669679,211.580566 245.800292,211.639648 245.904297,211.757812 C246.008301,211.875977 246.060303,212.052245 246.060303,212.286621 C246.060303,212.504396 246.004395,212.684814 245.892578,212.827881 C245.780761,212.970948 245.644776,213.04248 245.484619,213.04248 C245.402587,213.04248 245.324952,213.018555 245.251709,212.970703 C245.212646,212.945312 245.172119,212.90918 245.130127,212.862305 L245.130127,213.115723 C245.131104,213.250489 245.13208,213.326172 245.133057,213.342773 C245.139893,213.421875 245.160156,213.476074 245.193848,213.505371 C245.227539,213.534668 245.283935,213.551758 245.363037,213.556641 L245.363037,213.618164 L244.542725,213.618164 L244.542725,213.546387 Z M247.034424,212.875488 C247.142823,212.875488 247.216064,212.803712 247.25415,212.660156 C247.274658,212.581054 247.284912,212.467286 247.284912,212.318848 C247.284912,212.146972 247.269287,212.01001 247.238037,211.907959 C247.206787,211.805908 247.143311,211.754883 247.047607,211.754883 C246.983154,211.754883 246.925537,211.783203 246.874756,211.839844 C246.823974,211.896485 246.798584,211.9375 246.798584,211.962891 L246.798584,212.692383 C246.798584,212.72168 246.822754,212.759521 246.871094,212.805908 C246.919434,212.852295 246.973877,212.875488 247.034424,212.875488 Z M246.211182,213.546387 C246.275635,213.539551 246.31958,213.524658 246.343018,213.501709 C246.366455,213.47876 246.378174,213.435547 246.378174,213.37207 L246.378174,211.864746 C246.378174,211.802246 246.367188,211.76001 246.345215,211.738037 C246.323242,211.716064 246.281006,211.700684 246.218506,211.691895 L246.218506,211.618652 L246.79126,211.618652 L246.79126,211.816406 C246.832276,211.748047 246.872314,211.697754 246.911377,211.665527 C246.98169,211.608886 247.071533,211.580566 247.180908,211.580566 C247.338136,211.580566 247.468749,211.639648 247.572754,211.757812 C247.676758,211.875977 247.72876,212.052245 247.72876,212.286621 C247.72876,212.504396 247.672852,212.684814 247.561035,212.827881 C247.449218,212.970948 247.313233,213.04248 247.153076,213.04248 C247.071045,213.04248 246.993409,213.018555 246.920166,212.970703 C246.881103,212.945312 246.840576,212.90918 246.798584,212.862305 L246.798584,213.115723 C246.799561,213.250489 246.800537,213.326172 246.801514,213.342773 C246.80835,213.421875 246.828613,213.476074 246.862305,213.505371 C246.895996,213.534668 246.952392,213.551758 247.031494,213.556641 L247.031494,213.618164 L246.211182,213.618164 L246.211182,213.546387 Z M247.879639,212.928223 C247.937256,212.921387 247.977295,212.907715 247.999756,212.887207 C248.022217,212.866699 248.034424,212.827149 248.036377,212.768555 L248.039307,212.680664 L248.039307,211.864746 C248.039307,211.802246 248.028565,211.759766 248.00708,211.737305 C247.985596,211.714844 247.943116,211.699707 247.879639,211.691895 L247.879639,211.618652 L248.449463,211.618652 L248.449463,211.854492 C248.51294,211.771484 248.575927,211.705567 248.638428,211.656738 C248.700928,211.60791 248.773193,211.583496 248.855225,211.583496 C248.916748,211.583496 248.972168,211.603271 249.021484,211.642822 C249.070801,211.682373 249.095459,211.740234 249.095459,211.816406 C249.095459,211.875 249.078125,211.92334 249.043457,211.961426 C249.008789,211.999512 248.963623,212.018555 248.907959,212.018555 C248.844482,212.018555 248.789551,211.98877 248.743164,211.929199 C248.696777,211.869629 248.664307,211.839844 248.645752,211.839844 C248.605713,211.839844 248.56543,211.864502 248.524902,211.913818 C248.484375,211.963135 248.464111,212.033691 248.464111,212.125488 L248.464111,212.692383 C248.464111,212.791993 248.478515,212.854248 248.507324,212.87915 C248.536133,212.904053 248.593505,212.92041 248.679443,212.928223 L248.679443,213 L247.879639,213 L247.879639,212.928223 Z M249.171631,212.311523 C249.171631,212.081054 249.23291,211.9021 249.355469,211.774658 C249.478028,211.647216 249.625732,211.583496 249.798584,211.583496 C249.897217,211.583496 249.98999,211.609375 250.076904,211.661133 C250.163819,211.712891 250.230713,211.784668 250.277588,211.876465 C250.312744,211.945801 250.337158,212.035644 250.35083,212.145996 C250.357666,212.197754 250.361084,212.237305 250.361084,212.264648 L249.596436,212.264648 C249.603272,212.384766 249.622803,212.488769 249.655029,212.57666 C249.713623,212.7417 249.81665,212.824219 249.964111,212.824219 C250.034424,212.824219 250.10083,212.802246 250.16333,212.758301 C250.201416,212.731933 250.248779,212.6875 250.30542,212.625 L250.374268,212.66748 C250.281494,212.819825 250.174073,212.925781 250.052002,212.985352 C249.9729,213.023438 249.882081,213.04248 249.779541,213.04248 C249.632079,213.04248 249.493897,212.984376 249.36499,212.868164 C249.236083,212.751953 249.171631,212.566408 249.171631,212.311523 Z M249.991943,212.15332 C249.98999,211.976562 249.976318,211.853028 249.950928,211.782715 C249.925537,211.712402 249.874756,211.677246 249.798584,211.677246 C249.720459,211.677246 249.666992,211.717773 249.638184,211.798828 C249.609375,211.879883 249.593018,211.998046 249.589111,212.15332 L249.991943,212.15332 Z M251.209229,211.580566 C251.335206,211.580566 251.444335,211.611328 251.536621,211.672852 C251.628907,211.734375 251.675049,211.813476 251.675049,211.910156 C251.675049,211.961914 251.656738,212.006836 251.620117,212.044922 C251.583496,212.083008 251.536866,212.102051 251.480225,212.102051 C251.442138,212.102051 251.408936,212.093262 251.380615,212.075684 C251.326904,212.044433 251.300049,211.987793 251.300049,211.905762 C251.300049,211.896973 251.300537,211.884033 251.301514,211.866943 C251.30249,211.849853 251.302979,211.831543 251.302979,211.812012 C251.302979,211.759277 251.290772,211.723145 251.266357,211.703613 C251.240967,211.684082 251.212158,211.674316 251.179932,211.674316 C251.087158,211.674316 251.02124,211.725341 250.982178,211.827393 C250.943115,211.929444 250.923584,212.046386 250.923584,212.178223 C250.923584,212.365724 250.960693,212.522949 251.034912,212.649902 C251.109131,212.776856 251.209228,212.840332 251.335205,212.840332 C251.414307,212.840332 251.481689,212.822754 251.537354,212.787598 C251.570557,212.76709 251.611572,212.729492 251.6604,212.674805 L251.716064,212.726074 C251.618408,212.861817 251.504151,212.955078 251.373291,213.005859 C251.303955,213.032227 251.230225,213.04541 251.1521,213.04541 C250.959716,213.04541 250.802491,212.976563 250.68042,212.838867 C250.558349,212.701171 250.497314,212.533204 250.497314,212.334961 C250.497314,212.125976 250.562011,211.947999 250.691406,211.801025 C250.820801,211.654052 250.993407,211.580566 251.209229,211.580566 Z M251.94751,211.160156 C251.94751,211.095703 251.970215,211.040772 252.015625,210.995361 C252.061035,210.949951 252.115966,210.927246 252.18042,210.927246 C252.243897,210.927246 252.29834,210.949951 252.34375,210.995361 C252.38916,211.040772 252.411865,211.095703 252.411865,211.160156 C252.411865,211.22461 252.38916,211.279541 252.34375,211.324951 C252.29834,211.370362 252.243897,211.393066 252.18042,211.393066 C252.115966,211.393066 252.061035,211.370362 252.015625,211.324951 C251.970215,211.279541 251.94751,211.22461 251.94751,211.160156 Z M251.815674,212.928223 C251.868408,212.919434 251.904541,212.90625 251.924072,212.888672 C251.953369,212.862305 251.968018,212.814942 251.968018,212.746582 L251.968018,211.864746 C251.968018,211.804199 251.957764,211.76294 251.937256,211.740967 C251.916748,211.718994 251.876221,211.702637 251.815674,211.691895 L251.815674,211.618652 L252.391357,211.618652 L252.391357,212.758301 C252.391357,212.823731 252.401123,212.865723 252.420654,212.884277 C252.440186,212.902832 252.476806,212.91748 252.530518,212.928223 L252.530518,213 L251.815674,213 L251.815674,212.928223 Z M253.258545,212.828613 C253.307373,212.828613 253.352783,212.813965 253.394775,212.784668 C253.418213,212.76709 253.446045,212.739746 253.478271,212.702637 L253.478271,212.264648 C253.398193,212.28418 253.327881,212.314941 253.267334,212.356934 C253.164794,212.428223 253.113525,212.519042 253.113525,212.629395 C253.113525,212.694825 253.128418,212.744385 253.158203,212.778076 C253.187988,212.811768 253.221435,212.828613 253.258545,212.828613 Z M252.677002,212.720215 C252.677002,212.585449 252.741943,212.478516 252.871826,212.399414 C253.00171,212.320312 253.205321,212.240723 253.482666,212.160645 L253.482666,211.942383 C253.482666,211.853515 253.463867,211.787842 253.42627,211.745361 C253.388672,211.702881 253.322022,211.681641 253.226318,211.681641 C253.172607,211.681641 253.128418,211.69165 253.09375,211.71167 C253.059082,211.73169 253.041748,211.756836 253.041748,211.787109 C253.041748,211.798828 253.043701,211.808594 253.047607,211.816406 C253.051514,211.824219 253.057373,211.832519 253.065186,211.841309 L253.082764,211.861816 C253.096436,211.878418 253.107422,211.896728 253.115723,211.916748 C253.124023,211.936768 253.128174,211.958008 253.128174,211.980469 C253.128174,212.03711 253.109375,212.08081 253.071777,212.111572 C253.034179,212.142334 252.990479,212.157715 252.940674,212.157715 C252.883056,212.157715 252.833985,212.140625 252.793457,212.106445 C252.752929,212.072265 252.732666,212.02295 252.732666,211.958496 C252.732666,211.843261 252.786865,211.751953 252.895264,211.68457 C253.003663,211.617187 253.136962,211.583496 253.295166,211.583496 C253.465089,211.583496 253.607177,211.616211 253.721436,211.681641 C253.834717,211.748047 253.891357,211.870116 253.891357,212.047852 L253.891357,212.774414 C253.891357,212.795899 253.896973,212.814209 253.908203,212.829346 C253.919434,212.844482 253.931885,212.852051 253.945557,212.852051 C253.957275,212.852051 253.967773,212.849854 253.977051,212.845459 C253.986328,212.841064 254.000732,212.829102 254.020264,212.80957 L254.065674,212.872559 C254.00708,212.940918 253.942139,212.988769 253.87085,213.016113 C253.825928,213.033691 253.778565,213.04248 253.72876,213.04248 C253.639892,213.04248 253.574951,213.016602 253.533936,212.964844 C253.510498,212.935547 253.493408,212.89209 253.482666,212.834473 C253.399658,212.917481 253.305909,212.976074 253.201416,213.010254 C253.137939,213.031738 253.07544,213.04248 253.013916,213.04248 C252.931884,213.04248 252.855225,213.016358 252.783936,212.964111 C252.712646,212.911865 252.677002,212.830567 252.677002,212.720215 Z M254.14917,211.750488 L254.14917,211.666992 C254.175537,211.642578 254.208252,211.61377 254.247314,211.580566 C254.299073,211.532715 254.3479,211.483399 254.393799,211.432617 C254.48462,211.333007 254.567138,211.226075 254.641357,211.111816 L254.717529,211.111816 L254.717529,211.618652 L255.003174,211.618652 L255.003174,211.750488 L254.717529,211.750488 L254.717529,212.652832 C254.717529,212.694824 254.723877,212.72998 254.736572,212.758301 C254.756104,212.802246 254.78833,212.824219 254.833252,212.824219 C254.872315,212.824219 254.905029,212.810303 254.931396,212.782471 C254.957764,212.754639 254.984131,212.716309 255.010498,212.66748 L255.082275,212.702637 C255.047119,212.784668 255.005127,212.851562 254.956299,212.90332 C254.870361,212.994141 254.765381,213.039551 254.641357,213.039551 C254.571045,213.039551 254.509522,213.026367 254.456787,213 C254.355224,212.949218 254.304443,212.856934 254.304443,212.723145 L254.304443,211.750488 L254.14917,211.750488 Z M255.167236,212.311523 C255.167236,212.081054 255.228515,211.9021 255.351074,211.774658 C255.473633,211.647216 255.621337,211.583496 255.794189,211.583496 C255.892823,211.583496 255.985595,211.609375 256.07251,211.661133 C256.159424,211.712891 256.226318,211.784668 256.273193,211.876465 C256.30835,211.945801 256.332764,212.035644 256.346436,212.145996 C256.353272,212.197754 256.356689,212.237305 256.356689,212.264648 L255.592041,212.264648 C255.598877,212.384766 255.618408,212.488769 255.650635,212.57666 C255.709229,212.7417 255.812255,212.824219 255.959717,212.824219 C256.03003,212.824219 256.096435,212.802246 256.158936,212.758301 C256.197022,212.731933 256.244384,212.6875 256.301025,212.625 L256.369873,212.66748 C256.277099,212.819825 256.169678,212.925781 256.047607,212.985352 C255.968505,213.023438 255.877686,213.04248 255.775146,213.04248 C255.627685,213.04248 255.489503,212.984376 255.360596,212.868164 C255.231689,212.751953 255.167236,212.566408 255.167236,212.311523 Z M255.987549,212.15332 C255.985596,211.976562 255.971924,211.853028 255.946533,211.782715 C255.921142,211.712402 255.870362,211.677246 255.794189,211.677246 C255.716064,211.677246 255.662598,211.717773 255.633789,211.798828 C255.60498,211.879883 255.588623,211.998046 255.584717,212.15332 L255.987549,212.15332 Z" id="I-Appreciate" fill="#474747"></path>
        <path d="M239.019531,215.972656 L240.825684,215.972656 L240.828613,216.577637 L240.742188,216.577637 C240.713867,216.361815 240.632813,216.215821 240.499023,216.139648 C240.423828,216.097656 240.311524,216.074707 240.162109,216.070801 L240.162109,217.649902 C240.162109,217.760254 240.181396,217.833496 240.219971,217.869629 C240.258545,217.905762 240.338867,217.923828 240.460938,217.923828 L240.460938,218 L239.391602,218 L239.391602,217.923828 C239.50879,217.923828 239.58667,217.905518 239.625244,217.868896 C239.663819,217.832275 239.683105,217.759278 239.683105,217.649902 L239.683105,216.070801 C239.53662,216.074707 239.424317,216.097656 239.346191,216.139648 C239.202636,216.217774 239.121582,216.363768 239.103027,216.577637 L239.016602,216.577637 L239.019531,215.972656 Z M240.989746,217.928223 C241.044434,217.921387 241.084717,217.906494 241.110596,217.883545 C241.136475,217.860596 241.149414,217.814942 241.149414,217.746582 L241.149414,216.21875 C241.149414,216.159179 241.138672,216.117432 241.117188,216.093506 C241.095703,216.06958 241.053223,216.053711 240.989746,216.045898 L240.989746,215.972656 L241.569824,215.972656 L241.569824,216.816406 C241.631348,216.742187 241.696045,216.684815 241.763916,216.644287 C241.831787,216.60376 241.908203,216.583496 241.993164,216.583496 C242.108399,216.583496 242.203613,216.616943 242.278809,216.683838 C242.354004,216.750733 242.391602,216.864745 242.391602,217.025879 L242.391602,217.746582 C242.391602,217.813965 242.403076,217.858154 242.426025,217.87915 C242.448975,217.900147 242.487304,217.916504 242.541016,217.928223 L242.541016,218 L241.836426,218 L241.836426,217.928223 C241.890137,217.91748 241.926758,217.902832 241.946289,217.884277 C241.96582,217.865723 241.975586,217.823731 241.975586,217.758301 L241.975586,217.031738 C241.975586,216.963379 241.96875,216.91211 241.955078,216.87793 C241.931641,216.816406 241.885254,216.785645 241.815918,216.785645 C241.76416,216.785645 241.710694,216.80957 241.655518,216.857422 C241.600342,216.905274 241.572754,216.937988 241.572754,216.955566 L241.572754,217.758301 C241.572754,217.823731 241.582519,217.865723 241.602051,217.884277 C241.621582,217.902832 241.658203,217.91748 241.711914,217.928223 L241.711914,218 L240.989746,218 L240.989746,217.928223 Z M243.267578,217.828613 C243.316406,217.828613 243.361816,217.813965 243.403809,217.784668 C243.427246,217.76709 243.455078,217.739746 243.487305,217.702637 L243.487305,217.264648 C243.407226,217.28418 243.336914,217.314941 243.276367,217.356934 C243.173828,217.428223 243.122559,217.519042 243.122559,217.629395 C243.122559,217.694825 243.137451,217.744385 243.167236,217.778076 C243.197022,217.811768 243.230469,217.828613 243.267578,217.828613 Z M242.686035,217.720215 C242.686035,217.585449 242.750976,217.478516 242.880859,217.399414 C243.010743,217.320312 243.214354,217.240723 243.491699,217.160645 L243.491699,216.942383 C243.491699,216.853515 243.472901,216.787842 243.435303,216.745361 C243.397705,216.702881 243.331055,216.681641 243.235352,216.681641 C243.18164,216.681641 243.137451,216.69165 243.102783,216.71167 C243.068115,216.73169 243.050781,216.756836 243.050781,216.787109 C243.050781,216.798828 243.052734,216.808594 243.056641,216.816406 C243.060547,216.824219 243.066406,216.832519 243.074219,216.841309 L243.091797,216.861816 C243.105469,216.878418 243.116455,216.896728 243.124756,216.916748 C243.133057,216.936768 243.137207,216.958008 243.137207,216.980469 C243.137207,217.03711 243.118408,217.08081 243.080811,217.111572 C243.043213,217.142334 242.999512,217.157715 242.949707,217.157715 C242.89209,217.157715 242.843018,217.140625 242.80249,217.106445 C242.761963,217.072265 242.741699,217.02295 242.741699,216.958496 C242.741699,216.843261 242.795898,216.751953 242.904297,216.68457 C243.012696,216.617187 243.145995,216.583496 243.304199,216.583496 C243.474122,216.583496 243.61621,216.616211 243.730469,216.681641 C243.843751,216.748047 243.900391,216.870116 243.900391,217.047852 L243.900391,217.774414 C243.900391,217.795899 243.906006,217.814209 243.917236,217.829346 C243.928467,217.844482 243.940918,217.852051 243.95459,217.852051 C243.966309,217.852051 243.976807,217.849854 243.986084,217.845459 C243.995361,217.841064 244.009766,217.829102 244.029297,217.80957 L244.074707,217.872559 C244.016113,217.940918 243.951172,217.988769 243.879883,218.016113 C243.834961,218.033691 243.787598,218.04248 243.737793,218.04248 C243.648925,218.04248 243.583985,218.016602 243.542969,217.964844 C243.519531,217.935547 243.502441,217.89209 243.491699,217.834473 C243.408691,217.917481 243.314942,217.976074 243.210449,218.010254 C243.146972,218.031738 243.084473,218.04248 243.022949,218.04248 C242.940918,218.04248 242.864258,218.016358 242.792969,217.964111 C242.721679,217.911865 242.686035,217.830567 242.686035,217.720215 Z M244.158203,216.750488 L244.158203,216.666992 C244.18457,216.642578 244.217285,216.61377 244.256348,216.580566 C244.308106,216.532715 244.356933,216.483399 244.402832,216.432617 C244.493653,216.333007 244.576172,216.226075 244.650391,216.111816 L244.726562,216.111816 L244.726562,216.618652 L245.012207,216.618652 L245.012207,216.750488 L244.726562,216.750488 L244.726562,217.652832 C244.726562,217.694824 244.73291,217.72998 244.745605,217.758301 C244.765137,217.802246 244.797363,217.824219 244.842285,217.824219 C244.881348,217.824219 244.914062,217.810303 244.94043,217.782471 C244.966797,217.754639 244.993164,217.716309 245.019531,217.66748 L245.091309,217.702637 C245.056152,217.784668 245.01416,217.851562 244.965332,217.90332 C244.879394,217.994141 244.774415,218.039551 244.650391,218.039551 C244.580078,218.039551 244.518555,218.026367 244.46582,218 C244.364257,217.949218 244.313477,217.856934 244.313477,217.723145 L244.313477,216.750488 L244.158203,216.750488 Z M245.907227,218.386719 C245.907227,218.318359 245.927002,218.268067 245.966553,218.23584 C246.006104,218.203613 246.053222,218.1875 246.10791,218.1875 C246.155762,218.1875 246.195068,218.20166 246.22583,218.22998 C246.256592,218.258301 246.271973,218.291992 246.271973,218.331055 L246.264648,218.396973 C246.264648,218.409668 246.269531,218.421387 246.279297,218.432129 C246.289063,218.442871 246.301269,218.448242 246.315918,218.448242 C246.364746,218.448242 246.410156,218.408692 246.452148,218.32959 C246.478516,218.280761 246.516601,218.185059 246.566406,218.04248 L246.206055,217.15332 C246.180664,217.09082 246.156006,217.032227 246.13208,216.977539 C246.108154,216.922851 246.083008,216.869629 246.056641,216.817871 C246.029297,216.765136 246.007813,216.731934 245.992188,216.718262 C245.976562,216.70459 245.948242,216.695801 245.907227,216.691895 L245.907227,216.618652 L246.657227,216.618652 L246.657227,216.691895 C246.610351,216.692871 246.572022,216.698242 246.542236,216.708008 C246.512451,216.717773 246.497559,216.738769 246.497559,216.770996 C246.497559,216.777832 246.499268,216.787109 246.502686,216.798828 C246.506104,216.810547 246.513672,216.831543 246.525391,216.861816 L246.76123,217.465332 L246.784668,217.465332 L246.976562,216.924805 C246.986328,216.895508 246.994385,216.869873 247.000732,216.8479 C247.00708,216.825928 247.010254,216.806641 247.010254,216.790039 C247.010254,216.748047 246.996338,216.721436 246.968506,216.710205 C246.940674,216.698975 246.899414,216.692871 246.844727,216.691895 L246.844727,216.618652 L247.298828,216.618652 L247.298828,216.691895 C247.259765,216.694824 247.227783,216.705322 247.202881,216.723389 C247.177978,216.741455 247.152344,216.785156 247.125977,216.854492 L246.677734,218.049805 C246.595703,218.270509 246.525147,218.42041 246.466064,218.499512 C246.406982,218.578614 246.314454,218.618164 246.188477,218.618164 C246.096679,218.618164 246.026856,218.593994 245.979004,218.545654 C245.931152,218.497314 245.907227,218.444336 245.907227,218.386719 Z M247.424805,217.312988 C247.424805,217.104003 247.489013,216.929688 247.617432,216.790039 C247.74585,216.65039 247.907226,216.580566 248.101562,216.580566 C248.299806,216.580566 248.462158,216.651855 248.588623,216.794434 C248.715089,216.937012 248.77832,217.109862 248.77832,217.312988 C248.77832,217.513185 248.715821,217.685302 248.59082,217.829346 C248.46582,217.973389 248.302735,218.04541 248.101562,218.04541 C247.906249,218.04541 247.74463,217.975342 247.616699,217.835205 C247.488769,217.695068 247.424805,217.520997 247.424805,217.312988 Z M247.865723,217.312988 C247.865723,217.52295 247.876465,217.669921 247.897949,217.753906 C247.932129,217.88379 247.999999,217.94873 248.101562,217.94873 C248.198243,217.94873 248.261719,217.898926 248.291992,217.799316 C248.322266,217.699707 248.337402,217.537599 248.337402,217.312988 C248.337402,217.089354 248.321533,216.927491 248.289795,216.827393 C248.258056,216.727294 248.195801,216.677246 248.103027,216.677246 C248.001464,216.677246 247.933594,216.742187 247.899414,216.87207 C247.876953,216.958985 247.865723,217.105956 247.865723,217.312988 Z M249.472656,216.618652 L249.472656,217.636719 C249.472656,217.697266 249.47998,217.741699 249.494629,217.77002 C249.52002,217.819824 249.570312,217.844727 249.645508,217.844727 C249.69336,217.844727 249.740234,217.82959 249.786133,217.799316 C249.8125,217.782715 249.845703,217.754883 249.885742,217.71582 L249.885742,216.864746 C249.885742,216.802246 249.873291,216.758545 249.848389,216.733643 C249.823486,216.70874 249.773438,216.694824 249.698242,216.691895 L249.698242,216.618652 L250.295898,216.618652 L250.295898,217.698242 C250.295898,217.760742 250.307617,217.803955 250.331055,217.827881 C250.354492,217.851807 250.40039,217.866699 250.46875,217.872559 L250.46875,217.941406 C250.283202,217.958984 250.16626,217.971924 250.11792,217.980225 C250.06958,217.988525 249.992188,218.009277 249.885742,218.04248 L249.885742,217.844727 C249.814453,217.90625 249.755371,217.949707 249.708496,217.975098 C249.626464,218.02002 249.541016,218.04248 249.452148,218.04248 C249.355468,218.04248 249.265381,218.011719 249.181885,217.950195 C249.098388,217.888672 249.056641,217.779298 249.056641,217.62207 L249.056641,216.864746 C249.056641,216.801269 249.046387,216.759766 249.025879,216.740234 C249.005371,216.720703 248.965821,216.70459 248.907227,216.691895 L248.907227,216.618652 L249.472656,216.618652 Z M252.162109,215.972656 L252.162109,216.048828 C252.089843,216.055664 252.040283,216.065918 252.013428,216.07959 C251.986572,216.093262 251.973145,216.124511 251.973145,216.17334 C251.973145,216.186035 251.974609,216.200928 251.977539,216.218018 C251.980469,216.235108 251.984863,216.25293 251.990723,216.271484 L252.337891,217.320312 L252.362793,217.320312 L252.707031,216.441406 C252.708984,216.436523 252.695069,216.39209 252.665283,216.308105 C252.635498,216.224121 252.614746,216.172363 252.603027,216.152832 C252.580566,216.117676 252.555908,216.092774 252.529053,216.078125 C252.502197,216.063476 252.453614,216.053711 252.383301,216.048828 L252.383301,215.972656 L253.320801,215.972656 L253.320801,216.048828 C253.234863,216.055664 253.17749,216.064941 253.148682,216.07666 C253.119873,216.088379 253.105469,216.114746 253.105469,216.155762 C253.105469,216.165527 253.108643,216.184326 253.11499,216.212158 C253.121338,216.23999 253.132324,216.27832 253.147949,216.327148 L253.459961,217.29248 L253.480469,217.29248 L253.807129,216.306641 C253.812988,216.289062 253.817871,216.270264 253.821777,216.250244 C253.825684,216.230225 253.827637,216.208008 253.827637,216.183594 C253.827637,216.127929 253.806641,216.09082 253.764648,216.072266 C253.739258,216.060547 253.690918,216.052734 253.619629,216.048828 L253.619629,215.972656 L254.168945,215.972656 L254.168945,216.048828 C254.123047,216.055664 254.087402,216.067383 254.062012,216.083984 C254.018066,216.114258 253.983887,216.166504 253.959473,216.240723 L253.358887,218.049805 L253.279785,218.049805 L252.775879,216.643555 L252.755371,216.643555 L252.206055,218.049805 L252.122559,218.049805 L251.488281,216.240723 C251.460937,216.161621 251.433594,216.111328 251.40625,216.089844 C251.378906,216.068359 251.336426,216.053711 251.278809,216.045898 L251.278809,215.972656 L252.162109,215.972656 Z M254.12793,217.311523 C254.12793,217.081054 254.189208,216.9021 254.311768,216.774658 C254.434327,216.647216 254.58203,216.583496 254.754883,216.583496 C254.853516,216.583496 254.946289,216.609375 255.033203,216.661133 C255.120118,216.712891 255.187011,216.784668 255.233887,216.876465 C255.269043,216.945801 255.293457,217.035644 255.307129,217.145996 C255.313965,217.197754 255.317383,217.237305 255.317383,217.264648 L254.552734,217.264648 C254.55957,217.384766 254.579101,217.488769 254.611328,217.57666 C254.669922,217.7417 254.772948,217.824219 254.92041,217.824219 C254.990723,217.824219 255.057129,217.802246 255.119629,217.758301 C255.157715,217.731933 255.205078,217.6875 255.261719,217.625 L255.330566,217.66748 C255.237793,217.819825 255.130372,217.925781 255.008301,217.985352 C254.929199,218.023438 254.838379,218.04248 254.73584,218.04248 C254.588378,218.04248 254.450196,217.984376 254.321289,217.868164 C254.192382,217.751953 254.12793,217.566408 254.12793,217.311523 Z M254.948242,217.15332 C254.946289,216.976562 254.932617,216.853028 254.907227,216.782715 C254.881836,216.712402 254.831055,216.677246 254.754883,216.677246 C254.676757,216.677246 254.623291,216.717773 254.594482,216.798828 C254.565674,216.879883 254.549316,216.998046 254.54541,217.15332 L254.948242,217.15332 Z M255.44043,217.928223 C255.495117,217.921387 255.5354,217.906494 255.561279,217.883545 C255.587158,217.860596 255.600098,217.814942 255.600098,217.746582 L255.600098,216.864746 C255.600098,216.804199 255.5896,216.762207 255.568604,216.73877 C255.547607,216.715332 255.504883,216.699707 255.44043,216.691895 L255.44043,216.618652 L256.008789,216.618652 L256.008789,216.833984 C256.056641,216.761718 256.117431,216.701905 256.191162,216.654541 C256.264893,216.607177 256.346679,216.583496 256.436523,216.583496 C256.56543,216.583496 256.665283,216.616699 256.736084,216.683105 C256.806885,216.749512 256.842285,216.86621 256.842285,217.033203 L256.842285,217.758301 C256.842285,217.825684 256.85376,217.869141 256.876709,217.888672 C256.899658,217.908203 256.937988,217.921387 256.991699,217.928223 L256.991699,218 L256.287109,218 L256.287109,217.928223 C256.340821,217.91748 256.377441,217.902832 256.396973,217.884277 C256.416504,217.865723 256.42627,217.823731 256.42627,217.758301 L256.42627,217.031738 C256.42627,216.963379 256.419434,216.91211 256.405762,216.87793 C256.382324,216.816406 256.335938,216.785645 256.266602,216.785645 C256.214843,216.785645 256.167237,216.804443 256.123779,216.842041 C256.080322,216.879639 256.046875,216.91748 256.023438,216.955566 L256.023438,217.758301 C256.023438,217.823731 256.033203,217.865723 256.052734,217.884277 C256.072266,217.902832 256.108886,217.91748 256.162598,217.928223 L256.162598,218 L255.44043,218 L255.44043,217.928223 Z M257.108887,216.750488 L257.108887,216.666992 C257.135254,216.642578 257.167969,216.61377 257.207031,216.580566 C257.258789,216.532715 257.307617,216.483399 257.353516,216.432617 C257.444336,216.333007 257.526855,216.226075 257.601074,216.111816 L257.677246,216.111816 L257.677246,216.618652 L257.962891,216.618652 L257.962891,216.750488 L257.677246,216.750488 L257.677246,217.652832 C257.677246,217.694824 257.683594,217.72998 257.696289,217.758301 C257.71582,217.802246 257.748047,217.824219 257.792969,217.824219 C257.832031,217.824219 257.864746,217.810303 257.891113,217.782471 C257.917481,217.754639 257.943848,217.716309 257.970215,217.66748 L258.041992,217.702637 C258.006836,217.784668 257.964844,217.851562 257.916016,217.90332 C257.830078,217.994141 257.725098,218.039551 257.601074,218.039551 C257.530761,218.039551 257.469239,218.026367 257.416504,218 C257.314941,217.949218 257.26416,217.856934 257.26416,217.723145 L257.26416,216.750488 L257.108887,216.750488 Z" id="That-you-Went" fill="#474747"></path>
        <path d="M235.183105,220.972656 L236.989258,220.972656 L236.992188,221.577637 L236.905762,221.577637 C236.877441,221.361815 236.796387,221.215821 236.662598,221.139648 C236.587402,221.097656 236.475098,221.074707 236.325684,221.070801 L236.325684,222.649902 C236.325684,222.760254 236.344971,222.833496 236.383545,222.869629 C236.422119,222.905762 236.502441,222.923828 236.624512,222.923828 L236.624512,223 L235.555176,223 L235.555176,222.923828 C235.672364,222.923828 235.750244,222.905518 235.788818,222.868896 C235.827393,222.832275 235.84668,222.759278 235.84668,222.649902 L235.84668,221.070801 C235.700195,221.074707 235.587891,221.097656 235.509766,221.139648 C235.36621,221.217774 235.285156,221.363768 235.266602,221.577637 L235.180176,221.577637 L235.183105,220.972656 Z M237.15332,222.928223 C237.208008,222.921387 237.248291,222.906494 237.27417,222.883545 C237.300049,222.860596 237.312988,222.814942 237.312988,222.746582 L237.312988,221.21875 C237.312988,221.159179 237.302246,221.117432 237.280762,221.093506 C237.259277,221.06958 237.216797,221.053711 237.15332,221.045898 L237.15332,220.972656 L237.733398,220.972656 L237.733398,221.816406 C237.794922,221.742187 237.859619,221.684815 237.92749,221.644287 C237.995362,221.60376 238.071777,221.583496 238.156738,221.583496 C238.271973,221.583496 238.367187,221.616943 238.442383,221.683838 C238.517579,221.750733 238.555176,221.864745 238.555176,222.025879 L238.555176,222.746582 C238.555176,222.813965 238.56665,222.858154 238.5896,222.87915 C238.612549,222.900147 238.650879,222.916504 238.70459,222.928223 L238.70459,223 L238,223 L238,222.928223 C238.053711,222.91748 238.090332,222.902832 238.109863,222.884277 C238.129395,222.865723 238.13916,222.823731 238.13916,222.758301 L238.13916,222.031738 C238.13916,221.963379 238.132324,221.91211 238.118652,221.87793 C238.095215,221.816406 238.048828,221.785645 237.979492,221.785645 C237.927734,221.785645 237.874268,221.80957 237.819092,221.857422 C237.763916,221.905274 237.736328,221.937988 237.736328,221.955566 L237.736328,222.758301 C237.736328,222.823731 237.746094,222.865723 237.765625,222.884277 C237.785156,222.902832 237.821777,222.91748 237.875488,222.928223 L237.875488,223 L237.15332,223 L237.15332,222.928223 Z M238.827637,222.928223 C238.885254,222.921387 238.925293,222.907715 238.947754,222.887207 C238.970215,222.866699 238.982422,222.827149 238.984375,222.768555 L238.987305,222.680664 L238.987305,221.864746 C238.987305,221.802246 238.976563,221.759766 238.955078,221.737305 C238.933594,221.714844 238.891114,221.699707 238.827637,221.691895 L238.827637,221.618652 L239.397461,221.618652 L239.397461,221.854492 C239.460938,221.771484 239.523925,221.705567 239.586426,221.656738 C239.648926,221.60791 239.721191,221.583496 239.803223,221.583496 C239.864746,221.583496 239.920166,221.603271 239.969482,221.642822 C240.018799,221.682373 240.043457,221.740234 240.043457,221.816406 C240.043457,221.875 240.026123,221.92334 239.991455,221.961426 C239.956787,221.999512 239.911621,222.018555 239.855957,222.018555 C239.79248,222.018555 239.737549,221.98877 239.691162,221.929199 C239.644775,221.869629 239.612305,221.839844 239.59375,221.839844 C239.553711,221.839844 239.513428,221.864502 239.4729,221.913818 C239.432373,221.963135 239.412109,222.033691 239.412109,222.125488 L239.412109,222.692383 C239.412109,222.791993 239.426514,222.854248 239.455322,222.87915 C239.484131,222.904053 239.541503,222.92041 239.627441,222.928223 L239.627441,223 L238.827637,223 L238.827637,222.928223 Z M240.118164,222.312988 C240.118164,222.104003 240.182372,221.929688 240.310791,221.790039 C240.43921,221.65039 240.600585,221.580566 240.794922,221.580566 C240.993165,221.580566 241.155517,221.651855 241.281982,221.794434 C241.408448,221.937012 241.47168,222.109862 241.47168,222.312988 C241.47168,222.513185 241.40918,222.685302 241.28418,222.829346 C241.159179,222.973389 240.996095,223.04541 240.794922,223.04541 C240.599608,223.04541 240.437989,222.975342 240.310059,222.835205 C240.182128,222.695068 240.118164,222.520997 240.118164,222.312988 Z M240.559082,222.312988 C240.559082,222.52295 240.569824,222.669921 240.591309,222.753906 C240.625488,222.88379 240.693359,222.94873 240.794922,222.94873 C240.891602,222.94873 240.955078,222.898926 240.985352,222.799316 C241.015625,222.699707 241.030762,222.537599 241.030762,222.312988 C241.030762,222.089354 241.014893,221.927491 240.983154,221.827393 C240.951416,221.727294 240.889161,221.677246 240.796387,221.677246 C240.694824,221.677246 240.626953,221.742187 240.592773,221.87207 C240.570312,221.958985 240.559082,222.105956 240.559082,222.312988 Z M242.166016,221.618652 L242.166016,222.636719 C242.166016,222.697266 242.17334,222.741699 242.187988,222.77002 C242.213379,222.819824 242.263671,222.844727 242.338867,222.844727 C242.386719,222.844727 242.433594,222.82959 242.479492,222.799316 C242.50586,222.782715 242.539062,222.754883 242.579102,222.71582 L242.579102,221.864746 C242.579102,221.802246 242.566651,221.758545 242.541748,221.733643 C242.516846,221.70874 242.466797,221.694824 242.391602,221.691895 L242.391602,221.618652 L242.989258,221.618652 L242.989258,222.698242 C242.989258,222.760742 243.000976,222.803955 243.024414,222.827881 C243.047852,222.851807 243.09375,222.866699 243.162109,222.872559 L243.162109,222.941406 C242.976562,222.958984 242.859619,222.971924 242.811279,222.980225 C242.762939,222.988525 242.685547,223.009277 242.579102,223.04248 L242.579102,222.844727 C242.507812,222.90625 242.448731,222.949707 242.401855,222.975098 C242.319824,223.02002 242.234375,223.04248 242.145508,223.04248 C242.048828,223.04248 241.958741,223.011719 241.875244,222.950195 C241.791748,222.888672 241.75,222.779298 241.75,222.62207 L241.75,221.864746 C241.75,221.801269 241.739746,221.759766 241.719238,221.740234 C241.69873,221.720703 241.65918,221.70459 241.600586,221.691895 L241.600586,221.618652 L242.166016,221.618652 Z M243.727539,222.066895 C243.727539,222.182129 243.737305,222.267578 243.756836,222.323242 C243.786133,222.411133 243.842285,222.455078 243.925293,222.455078 C244.000489,222.455078 244.052246,222.422119 244.080566,222.356201 C244.108887,222.290283 244.123047,222.193848 244.123047,222.066895 C244.123047,221.932128 244.108154,221.833985 244.078369,221.772461 C244.048584,221.710937 243.997559,221.680176 243.925293,221.680176 C243.846191,221.680176 243.793457,221.713134 243.76709,221.779053 C243.740723,221.844971 243.727539,221.940917 243.727539,222.066895 Z M243.553223,223.32666 C243.553223,223.388184 243.586181,223.436523 243.6521,223.47168 C243.718018,223.506836 243.813476,223.524414 243.938477,223.524414 C244.049805,223.524414 244.141601,223.515625 244.213867,223.498047 C244.34961,223.464844 244.41748,223.403809 244.41748,223.314941 C244.41748,223.263183 244.398194,223.224365 244.359619,223.198486 C244.321045,223.172607 244.250977,223.159668 244.149414,223.159668 L243.657227,223.159668 C243.625976,223.185059 243.603516,223.206543 243.589844,223.224121 C243.56543,223.256348 243.553223,223.290527 243.553223,223.32666 Z M243.289551,223.347168 C243.289551,223.304199 243.307373,223.26001 243.343018,223.2146 C243.378662,223.169189 243.440429,223.139649 243.52832,223.125977 L243.52832,223.105469 C243.469726,223.083008 243.427246,223.060059 243.400879,223.036621 C243.354004,222.994629 243.330566,222.938477 243.330566,222.868164 C243.330566,222.784179 243.367431,222.712403 243.441162,222.652832 C243.514893,222.593261 243.586914,222.551758 243.657227,222.52832 L243.657227,222.507812 C243.555664,222.466797 243.473633,222.408204 243.411133,222.332031 C243.348633,222.255859 243.317383,222.163575 243.317383,222.055176 C243.317383,221.918456 243.37207,221.805665 243.481445,221.716797 C243.590821,221.627929 243.738769,221.583496 243.925293,221.583496 C243.995606,221.583496 244.060058,221.590332 244.118652,221.604004 C244.177246,221.617676 244.222656,221.631836 244.254883,221.646484 L244.650391,221.646484 L244.650391,221.806152 L244.407227,221.806152 C244.446289,221.844238 244.476318,221.888672 244.497314,221.939453 C244.518311,221.990235 244.528809,222.04541 244.528809,222.10498 C244.528809,222.292481 244.439454,222.420898 244.260742,222.490234 C244.166992,222.527344 244.050294,222.545898 243.910645,222.545898 C243.880371,222.545898 243.860596,222.54541 243.851318,222.544434 C243.842041,222.543457 243.828125,222.542969 243.80957,222.542969 C243.780273,222.547852 243.749512,222.563476 243.717285,222.589844 C243.684082,222.617188 243.66748,222.649902 243.66748,222.687988 C243.66748,222.718262 243.675781,222.741699 243.692383,222.758301 C243.708984,222.774902 243.731933,222.785156 243.76123,222.789062 C243.775879,222.791016 243.807129,222.792725 243.85498,222.794189 C243.902832,222.795654 243.939941,222.796387 243.966309,222.796387 L244.161133,222.799316 C244.271485,222.80127 244.364257,222.817383 244.439453,222.847656 C244.583009,222.90625 244.654785,223.01123 244.654785,223.162598 C244.654785,223.357911 244.547364,223.492187 244.33252,223.56543 C244.219238,223.603516 244.076661,223.622559 243.904785,223.622559 C243.764159,223.622559 243.643067,223.608887 243.541504,223.581543 C243.373534,223.535644 243.289551,223.45752 243.289551,223.347168 Z M244.769043,222.928223 C244.823731,222.921387 244.864014,222.906494 244.889893,222.883545 C244.915772,222.860596 244.928711,222.814942 244.928711,222.746582 L244.928711,221.21875 C244.928711,221.159179 244.917969,221.117432 244.896484,221.093506 C244.875,221.06958 244.83252,221.053711 244.769043,221.045898 L244.769043,220.972656 L245.349121,220.972656 L245.349121,221.816406 C245.410645,221.742187 245.475341,221.684815 245.543213,221.644287 C245.611084,221.60376 245.6875,221.583496 245.772461,221.583496 C245.887696,221.583496 245.98291,221.616943 246.058105,221.683838 C246.133301,221.750733 246.170898,221.864745 246.170898,222.025879 L246.170898,222.746582 C246.170898,222.813965 246.182373,222.858154 246.205322,222.87915 C246.228272,222.900147 246.266601,222.916504 246.320312,222.928223 L246.320312,223 L245.615723,223 L245.615723,222.928223 C245.669434,222.91748 245.706055,222.902832 245.725586,222.884277 C245.745117,222.865723 245.754883,222.823731 245.754883,222.758301 L245.754883,222.031738 C245.754883,221.963379 245.748047,221.91211 245.734375,221.87793 C245.710937,221.816406 245.664551,221.785645 245.595215,221.785645 C245.543457,221.785645 245.489991,221.80957 245.434814,221.857422 C245.379638,221.905274 245.352051,221.937988 245.352051,221.955566 L245.352051,222.758301 C245.352051,222.823731 245.361816,222.865723 245.381348,222.884277 C245.400879,222.902832 245.4375,222.91748 245.491211,222.928223 L245.491211,223 L244.769043,223 L244.769043,222.928223 Z M247.1875,221.750488 L247.1875,221.666992 C247.213867,221.642578 247.246582,221.61377 247.285645,221.580566 C247.337403,221.532715 247.38623,221.483399 247.432129,221.432617 C247.52295,221.333007 247.605468,221.226075 247.679688,221.111816 L247.755859,221.111816 L247.755859,221.618652 L248.041504,221.618652 L248.041504,221.750488 L247.755859,221.750488 L247.755859,222.652832 C247.755859,222.694824 247.762207,222.72998 247.774902,222.758301 C247.794434,222.802246 247.82666,222.824219 247.871582,222.824219 C247.910645,222.824219 247.943359,222.810303 247.969727,222.782471 C247.996094,222.754639 248.022461,222.716309 248.048828,222.66748 L248.120605,222.702637 C248.085449,222.784668 248.043457,222.851562 247.994629,222.90332 C247.908691,222.994141 247.803712,223.039551 247.679688,223.039551 C247.609375,223.039551 247.547852,223.026367 247.495117,223 C247.393554,222.949218 247.342773,222.856934 247.342773,222.723145 L247.342773,221.750488 L247.1875,221.750488 Z M248.186523,222.928223 C248.241211,222.921387 248.281494,222.906494 248.307373,222.883545 C248.333252,222.860596 248.346191,222.814942 248.346191,222.746582 L248.346191,221.21875 C248.346191,221.159179 248.335449,221.117432 248.313965,221.093506 C248.29248,221.06958 248.25,221.053711 248.186523,221.045898 L248.186523,220.972656 L248.766602,220.972656 L248.766602,221.816406 C248.828125,221.742187 248.892822,221.684815 248.960693,221.644287 C249.028565,221.60376 249.10498,221.583496 249.189941,221.583496 C249.305176,221.583496 249.40039,221.616943 249.475586,221.683838 C249.550782,221.750733 249.588379,221.864745 249.588379,222.025879 L249.588379,222.746582 C249.588379,222.813965 249.599853,222.858154 249.622803,222.87915 C249.645752,222.900147 249.684082,222.916504 249.737793,222.928223 L249.737793,223 L249.033203,223 L249.033203,222.928223 C249.086914,222.91748 249.123535,222.902832 249.143066,222.884277 C249.162598,222.865723 249.172363,222.823731 249.172363,222.758301 L249.172363,222.031738 C249.172363,221.963379 249.165527,221.91211 249.151855,221.87793 C249.128418,221.816406 249.082032,221.785645 249.012695,221.785645 C248.960937,221.785645 248.907471,221.80957 248.852295,221.857422 C248.797119,221.905274 248.769531,221.937988 248.769531,221.955566 L248.769531,222.758301 C248.769531,222.823731 248.779297,222.865723 248.798828,222.884277 C248.818359,222.902832 248.85498,222.91748 248.908691,222.928223 L248.908691,223 L248.186523,223 L248.186523,222.928223 Z M249.874023,222.311523 C249.874023,222.081054 249.935302,221.9021 250.057861,221.774658 C250.180421,221.647216 250.328124,221.583496 250.500977,221.583496 C250.59961,221.583496 250.692382,221.609375 250.779297,221.661133 C250.866211,221.712891 250.933105,221.784668 250.97998,221.876465 C251.015137,221.945801 251.039551,222.035644 251.053223,222.145996 C251.060059,222.197754 251.063477,222.237305 251.063477,222.264648 L250.298828,222.264648 C250.305664,222.384766 250.325195,222.488769 250.357422,222.57666 C250.416016,222.7417 250.519042,222.824219 250.666504,222.824219 C250.736817,222.824219 250.803222,222.802246 250.865723,222.758301 C250.903809,222.731933 250.951172,222.6875 251.007812,222.625 L251.07666,222.66748 C250.983886,222.819825 250.876465,222.925781 250.754395,222.985352 C250.675293,223.023438 250.584473,223.04248 250.481934,223.04248 C250.334472,223.04248 250.19629,222.984376 250.067383,222.868164 C249.938476,222.751953 249.874023,222.566408 249.874023,222.311523 Z M250.694336,222.15332 C250.692383,221.976562 250.678711,221.853028 250.65332,221.782715 C250.62793,221.712402 250.577149,221.677246 250.500977,221.677246 C250.422851,221.677246 250.369385,221.717773 250.340576,221.798828 C250.311767,221.879883 250.29541,221.998046 250.291504,222.15332 L250.694336,222.15332 Z M251.914551,220.972656 L253.720703,220.972656 L253.723633,221.577637 L253.637207,221.577637 C253.608887,221.361815 253.527833,221.215821 253.394043,221.139648 C253.318847,221.097656 253.206544,221.074707 253.057129,221.070801 L253.057129,222.649902 C253.057129,222.760254 253.076416,222.833496 253.11499,222.869629 C253.153565,222.905762 253.233886,222.923828 253.355957,222.923828 L253.355957,223 L252.286621,223 L252.286621,222.923828 C252.403809,222.923828 252.481689,222.905518 252.520264,222.868896 C252.558838,222.832275 252.578125,222.759278 252.578125,222.649902 L252.578125,221.070801 C252.43164,221.074707 252.319336,221.097656 252.241211,221.139648 C252.097656,221.217774 252.016602,221.363768 251.998047,221.577637 L251.911621,221.577637 L251.914551,220.972656 Z M253.669434,222.928223 C253.727051,222.921387 253.76709,222.907715 253.789551,222.887207 C253.812012,222.866699 253.824219,222.827149 253.826172,222.768555 L253.829102,222.680664 L253.829102,221.864746 C253.829102,221.802246 253.818359,221.759766 253.796875,221.737305 C253.775391,221.714844 253.73291,221.699707 253.669434,221.691895 L253.669434,221.618652 L254.239258,221.618652 L254.239258,221.854492 C254.302735,221.771484 254.365722,221.705567 254.428223,221.656738 C254.490723,221.60791 254.562988,221.583496 254.64502,221.583496 C254.706543,221.583496 254.761963,221.603271 254.811279,221.642822 C254.860596,221.682373 254.885254,221.740234 254.885254,221.816406 C254.885254,221.875 254.86792,221.92334 254.833252,221.961426 C254.798584,221.999512 254.753418,222.018555 254.697754,222.018555 C254.634277,222.018555 254.579346,221.98877 254.532959,221.929199 C254.486572,221.869629 254.454102,221.839844 254.435547,221.839844 C254.395508,221.839844 254.355225,221.864502 254.314697,221.913818 C254.27417,221.963135 254.253906,222.033691 254.253906,222.125488 L254.253906,222.692383 C254.253906,222.791993 254.26831,222.854248 254.297119,222.87915 C254.325928,222.904053 254.3833,222.92041 254.469238,222.928223 L254.469238,223 L253.669434,223 L253.669434,222.928223 Z M254.959961,222.312988 C254.959961,222.104003 255.024169,221.929688 255.152588,221.790039 C255.281007,221.65039 255.442382,221.580566 255.636719,221.580566 C255.834962,221.580566 255.997314,221.651855 256.123779,221.794434 C256.250245,221.937012 256.313477,222.109862 256.313477,222.312988 C256.313477,222.513185 256.250977,222.685302 256.125977,222.829346 C256.000976,222.973389 255.837892,223.04541 255.636719,223.04541 C255.441405,223.04541 255.279786,222.975342 255.151855,222.835205 C255.023925,222.695068 254.959961,222.520997 254.959961,222.312988 Z M255.400879,222.312988 C255.400879,222.52295 255.411621,222.669921 255.433105,222.753906 C255.467285,222.88379 255.535156,222.94873 255.636719,222.94873 C255.733399,222.94873 255.796875,222.898926 255.827148,222.799316 C255.857422,222.699707 255.872559,222.537599 255.872559,222.312988 C255.872559,222.089354 255.85669,221.927491 255.824951,221.827393 C255.793213,221.727294 255.730957,221.677246 255.638184,221.677246 C255.536621,221.677246 255.46875,221.742187 255.43457,221.87207 C255.412109,221.958985 255.400879,222.105956 255.400879,222.312988 Z M257.007812,221.618652 L257.007812,222.636719 C257.007812,222.697266 257.015137,222.741699 257.029785,222.77002 C257.055176,222.819824 257.105468,222.844727 257.180664,222.844727 C257.228516,222.844727 257.27539,222.82959 257.321289,222.799316 C257.347656,222.782715 257.380859,222.754883 257.420898,222.71582 L257.420898,221.864746 C257.420898,221.802246 257.408447,221.758545 257.383545,221.733643 C257.358642,221.70874 257.308594,221.694824 257.233398,221.691895 L257.233398,221.618652 L257.831055,221.618652 L257.831055,222.698242 C257.831055,222.760742 257.842773,222.803955 257.866211,222.827881 C257.889649,222.851807 257.935547,222.866699 258.003906,222.872559 L258.003906,222.941406 C257.818358,222.958984 257.701416,222.971924 257.653076,222.980225 C257.604736,222.988525 257.527344,223.009277 257.420898,223.04248 L257.420898,222.844727 C257.349609,222.90625 257.290528,222.949707 257.243652,222.975098 C257.161621,223.02002 257.076172,223.04248 256.987305,223.04248 C256.890625,223.04248 256.800538,223.011719 256.717041,222.950195 C256.633545,222.888672 256.591797,222.779298 256.591797,222.62207 L256.591797,221.864746 C256.591797,221.801269 256.581543,221.759766 256.561035,221.740234 C256.540527,221.720703 256.500977,221.70459 256.442383,221.691895 L256.442383,221.618652 L257.007812,221.618652 Z M258.693848,222.708496 C258.697754,222.763184 258.708496,222.808105 258.726074,222.843262 C258.761231,222.911621 258.819824,222.945801 258.901855,222.945801 C259.004395,222.945801 259.076904,222.891602 259.119385,222.783203 C259.161865,222.674804 259.183105,222.521485 259.183105,222.323242 C259.183105,222.166015 259.164307,222.030762 259.126709,221.91748 C259.089111,221.804199 259.015626,221.747559 258.90625,221.747559 C258.841797,221.747559 258.790283,221.77124 258.751709,221.818604 C258.713135,221.865967 258.693848,221.899902 258.693848,221.92041 L258.693848,222.708496 Z M258.693848,220.972656 L258.693848,221.750488 C258.740723,221.70459 258.784179,221.669922 258.824219,221.646484 C258.897461,221.604492 258.976562,221.583496 259.061523,221.583496 C259.23047,221.583496 259.366455,221.649413 259.469482,221.78125 C259.57251,221.913087 259.624023,222.075194 259.624023,222.267578 C259.624023,222.515626 259.55835,222.706786 259.427002,222.841064 C259.295654,222.975342 259.132325,223.04248 258.937012,223.04248 C258.856933,223.04248 258.786133,223.026856 258.724609,222.995605 C258.663086,222.964355 258.605469,222.92334 258.551758,222.872559 L258.315918,223.04248 L258.273438,223.04248 L258.273438,221.21875 C258.273438,221.15625 258.262207,221.114014 258.239746,221.092041 C258.217285,221.070068 258.175293,221.054688 258.11377,221.045898 L258.11377,220.972656 L258.693848,220.972656 Z M259.779297,222.928223 C259.832032,222.915527 259.869385,222.898682 259.891357,222.877686 C259.91333,222.856689 259.924316,222.812989 259.924316,222.746582 L259.924316,221.21875 C259.924316,221.155273 259.914063,221.11377 259.893555,221.094238 C259.873047,221.074707 259.834961,221.058594 259.779297,221.045898 L259.779297,220.972656 L260.347656,220.972656 L260.347656,222.746582 C260.347656,222.812989 260.358398,222.856445 260.379883,222.876953 C260.401367,222.897461 260.439453,222.914551 260.494141,222.928223 L260.494141,223 L259.779297,223 L259.779297,222.928223 Z M260.631836,222.311523 C260.631836,222.081054 260.693115,221.9021 260.815674,221.774658 C260.938233,221.647216 261.085937,221.583496 261.258789,221.583496 C261.357422,221.583496 261.450195,221.609375 261.537109,221.661133 C261.624024,221.712891 261.690918,221.784668 261.737793,221.876465 C261.772949,221.945801 261.797363,222.035644 261.811035,222.145996 C261.817871,222.197754 261.821289,222.237305 261.821289,222.264648 L261.056641,222.264648 C261.063477,222.384766 261.083008,222.488769 261.115234,222.57666 C261.173828,222.7417 261.276855,222.824219 261.424316,222.824219 C261.494629,222.824219 261.561035,222.802246 261.623535,222.758301 C261.661621,222.731933 261.708984,222.6875 261.765625,222.625 L261.834473,222.66748 C261.741699,222.819825 261.634278,222.925781 261.512207,222.985352 C261.433105,223.023438 261.342286,223.04248 261.239746,223.04248 C261.092284,223.04248 260.954102,222.984376 260.825195,222.868164 C260.696288,222.751953 260.631836,222.566408 260.631836,222.311523 Z M261.452148,222.15332 C261.450195,221.976562 261.436524,221.853028 261.411133,221.782715 C261.385742,221.712402 261.334961,221.677246 261.258789,221.677246 C261.180664,221.677246 261.127197,221.717773 261.098389,221.798828 C261.06958,221.879883 261.053223,221.998046 261.049316,222.15332 L261.452148,222.15332 Z" id="Through-the-Trouble" fill="#474747"></path>
        <path d="M240.518066,225.972656 L242.324219,225.972656 L242.327148,226.577637 L242.240723,226.577637 C242.212402,226.361815 242.131348,226.215821 241.997559,226.139648 C241.922363,226.097656 241.810059,226.074707 241.660645,226.070801 L241.660645,227.649902 C241.660645,227.760254 241.679931,227.833496 241.718506,227.869629 C241.75708,227.905762 241.837402,227.923828 241.959473,227.923828 L241.959473,228 L240.890137,228 L240.890137,227.923828 C241.007325,227.923828 241.085205,227.905518 241.123779,227.868896 C241.162354,227.832275 241.181641,227.759278 241.181641,227.649902 L241.181641,226.070801 C241.035156,226.074707 240.922852,226.097656 240.844727,226.139648 C240.701171,226.217774 240.620117,226.363768 240.601562,226.577637 L240.515137,226.577637 L240.518066,225.972656 Z M242.230469,227.312988 C242.230469,227.104003 242.294677,226.929688 242.423096,226.790039 C242.551514,226.65039 242.71289,226.580566 242.907227,226.580566 C243.10547,226.580566 243.267822,226.651855 243.394287,226.794434 C243.520753,226.937012 243.583984,227.109862 243.583984,227.312988 C243.583984,227.513185 243.521485,227.685302 243.396484,227.829346 C243.271484,227.973389 243.108399,228.04541 242.907227,228.04541 C242.711913,228.04541 242.550294,227.975342 242.422363,227.835205 C242.294433,227.695068 242.230469,227.520997 242.230469,227.312988 Z M242.671387,227.312988 C242.671387,227.52295 242.682129,227.669921 242.703613,227.753906 C242.737793,227.88379 242.805664,227.94873 242.907227,227.94873 C243.003907,227.94873 243.067383,227.898926 243.097656,227.799316 C243.12793,227.699707 243.143066,227.537599 243.143066,227.312988 C243.143066,227.089354 243.127197,226.927491 243.095459,226.827393 C243.063721,226.727294 243.001465,226.677246 242.908691,226.677246 C242.807128,226.677246 242.739258,226.742187 242.705078,226.87207 C242.682617,226.958985 242.671387,227.105956 242.671387,227.312988 Z M244.46875,227.928223 C244.526367,227.921387 244.566406,227.907715 244.588867,227.887207 C244.611328,227.866699 244.623535,227.827149 244.625488,227.768555 L244.628418,227.680664 L244.628418,226.864746 C244.628418,226.802246 244.617676,226.759766 244.596191,226.737305 C244.574707,226.714844 244.532227,226.699707 244.46875,226.691895 L244.46875,226.618652 L245.038574,226.618652 L245.038574,226.854492 C245.102051,226.771484 245.165039,226.705567 245.227539,226.656738 C245.290039,226.60791 245.362304,226.583496 245.444336,226.583496 C245.50586,226.583496 245.561279,226.603271 245.610596,226.642822 C245.659912,226.682373 245.68457,226.740234 245.68457,226.816406 C245.68457,226.875 245.667237,226.92334 245.632568,226.961426 C245.5979,226.999512 245.552735,227.018555 245.49707,227.018555 C245.433593,227.018555 245.378662,226.98877 245.332275,226.929199 C245.285888,226.869629 245.253418,226.839844 245.234863,226.839844 C245.194824,226.839844 245.154541,226.864502 245.114014,226.913818 C245.073486,226.963135 245.053223,227.033691 245.053223,227.125488 L245.053223,227.692383 C245.053223,227.791993 245.067627,227.854248 245.096436,227.87915 C245.125244,227.904053 245.182617,227.92041 245.268555,227.928223 L245.268555,228 L244.46875,228 L244.46875,227.928223 Z M245.760742,227.311523 C245.760742,227.081054 245.822021,226.9021 245.94458,226.774658 C246.067139,226.647216 246.214843,226.583496 246.387695,226.583496 C246.486329,226.583496 246.579101,226.609375 246.666016,226.661133 C246.75293,226.712891 246.819824,226.784668 246.866699,226.876465 C246.901856,226.945801 246.926269,227.035644 246.939941,227.145996 C246.946777,227.197754 246.950195,227.237305 246.950195,227.264648 L246.185547,227.264648 C246.192383,227.384766 246.211914,227.488769 246.244141,227.57666 C246.302735,227.7417 246.405761,227.824219 246.553223,227.824219 C246.623536,227.824219 246.689941,227.802246 246.752441,227.758301 C246.790528,227.731933 246.83789,227.6875 246.894531,227.625 L246.963379,227.66748 C246.870605,227.819825 246.763184,227.925781 246.641113,227.985352 C246.562011,228.023438 246.471192,228.04248 246.368652,228.04248 C246.221191,228.04248 246.083008,227.984376 245.954102,227.868164 C245.825195,227.751953 245.760742,227.566408 245.760742,227.311523 Z M246.581055,227.15332 C246.579102,226.976562 246.56543,226.853028 246.540039,226.782715 C246.514648,226.712402 246.463868,226.677246 246.387695,226.677246 C246.30957,226.677246 246.256104,226.717773 246.227295,226.798828 C246.198486,226.879883 246.182129,226.998046 246.178223,227.15332 L246.581055,227.15332 Z M247.682617,227.828613 C247.731446,227.828613 247.776855,227.813965 247.818848,227.784668 C247.842285,227.76709 247.870117,227.739746 247.902344,227.702637 L247.902344,227.264648 C247.822265,227.28418 247.751953,227.314941 247.691406,227.356934 C247.588867,227.428223 247.537598,227.519042 247.537598,227.629395 C247.537598,227.694825 247.55249,227.744385 247.582275,227.778076 C247.612061,227.811768 247.645508,227.828613 247.682617,227.828613 Z M247.101074,227.720215 C247.101074,227.585449 247.166015,227.478516 247.295898,227.399414 C247.425782,227.320312 247.629393,227.240723 247.906738,227.160645 L247.906738,226.942383 C247.906738,226.853515 247.88794,226.787842 247.850342,226.745361 C247.812744,226.702881 247.746094,226.681641 247.650391,226.681641 C247.596679,226.681641 247.55249,226.69165 247.517822,226.71167 C247.483154,226.73169 247.46582,226.756836 247.46582,226.787109 C247.46582,226.798828 247.467773,226.808594 247.47168,226.816406 C247.475586,226.824219 247.481445,226.832519 247.489258,226.841309 L247.506836,226.861816 C247.520508,226.878418 247.531494,226.896728 247.539795,226.916748 C247.548096,226.936768 247.552246,226.958008 247.552246,226.980469 C247.552246,227.03711 247.533447,227.08081 247.49585,227.111572 C247.458252,227.142334 247.414551,227.157715 247.364746,227.157715 C247.307129,227.157715 247.258057,227.140625 247.217529,227.106445 C247.177002,227.072265 247.156738,227.02295 247.156738,226.958496 C247.156738,226.843261 247.210937,226.751953 247.319336,226.68457 C247.427735,226.617187 247.561034,226.583496 247.719238,226.583496 C247.889161,226.583496 248.031249,226.616211 248.145508,226.681641 C248.25879,226.748047 248.31543,226.870116 248.31543,227.047852 L248.31543,227.774414 C248.31543,227.795899 248.321045,227.814209 248.332275,227.829346 C248.343506,227.844482 248.355957,227.852051 248.369629,227.852051 C248.381348,227.852051 248.391846,227.849854 248.401123,227.845459 C248.4104,227.841064 248.424805,227.829102 248.444336,227.80957 L248.489746,227.872559 C248.431152,227.940918 248.366211,227.988769 248.294922,228.016113 C248.25,228.033691 248.202637,228.04248 248.152832,228.04248 C248.063964,228.04248 247.999024,228.016602 247.958008,227.964844 C247.93457,227.935547 247.917481,227.89209 247.906738,227.834473 C247.82373,227.917481 247.729981,227.976074 247.625488,228.010254 C247.562011,228.031738 247.499512,228.04248 247.437988,228.04248 C247.355957,228.04248 247.279297,228.016358 247.208008,227.964111 C247.136718,227.911865 247.101074,227.830567 247.101074,227.720215 Z M249.280762,227.872559 C249.345215,227.872559 249.403076,227.84375 249.454346,227.786133 C249.505615,227.728515 249.53125,227.687988 249.53125,227.664551 L249.53125,226.935059 C249.53125,226.910644 249.509278,226.874512 249.465332,226.82666 C249.421386,226.778808 249.363282,226.754883 249.291016,226.754883 C249.18457,226.754883 249.112305,226.828613 249.074219,226.976074 C249.053711,227.055176 249.043457,227.166991 249.043457,227.311523 C249.043457,227.465821 249.053223,227.582031 249.072754,227.660156 C249.108887,227.801759 249.178222,227.872559 249.280762,227.872559 Z M248.601074,227.351074 C248.601074,227.113768 248.65747,226.926514 248.770264,226.789307 C248.883057,226.652099 249.018554,226.583496 249.176758,226.583496 C249.25586,226.583496 249.326172,226.603027 249.387695,226.64209 C249.425781,226.665527 249.473633,226.707519 249.53125,226.768066 L249.53125,226.21875 C249.53125,226.143554 249.516602,226.096924 249.487305,226.078857 C249.458008,226.060791 249.397461,226.049805 249.305664,226.045898 L249.305664,225.972656 L249.95166,225.972656 L249.95166,227.698242 C249.95166,227.760742 249.963379,227.803955 249.986816,227.827881 C250.010254,227.851807 250.056152,227.866699 250.124512,227.872559 L250.124512,227.941406 C249.956542,227.958008 249.848145,227.970459 249.799316,227.97876 C249.750488,227.987061 249.664551,228.008301 249.541504,228.04248 L249.541504,227.844727 C249.484863,227.903321 249.433106,227.946777 249.38623,227.975098 C249.312011,228.02002 249.231934,228.04248 249.145996,228.04248 C248.999511,228.04248 248.872071,227.980469 248.763672,227.856445 C248.655273,227.732421 248.601074,227.563966 248.601074,227.351074 Z M250.969727,225.972656 L252.775879,225.972656 L252.778809,226.577637 L252.692383,226.577637 C252.664062,226.361815 252.583008,226.215821 252.449219,226.139648 C252.374023,226.097656 252.261719,226.074707 252.112305,226.070801 L252.112305,227.649902 C252.112305,227.760254 252.131592,227.833496 252.170166,227.869629 C252.20874,227.905762 252.289062,227.923828 252.411133,227.923828 L252.411133,228 L251.341797,228 L251.341797,227.923828 C251.458985,227.923828 251.536865,227.905518 251.575439,227.868896 C251.614014,227.832275 251.633301,227.759278 251.633301,227.649902 L251.633301,226.070801 C251.486816,226.074707 251.374512,226.097656 251.296387,226.139648 C251.152831,226.217774 251.071777,226.363768 251.053223,226.577637 L250.966797,226.577637 L250.969727,225.972656 Z M252.939941,227.928223 C252.994629,227.921387 253.034912,227.906494 253.060791,227.883545 C253.08667,227.860596 253.099609,227.814942 253.099609,227.746582 L253.099609,226.21875 C253.099609,226.159179 253.088867,226.117432 253.067383,226.093506 C253.045898,226.06958 253.003418,226.053711 252.939941,226.045898 L252.939941,225.972656 L253.52002,225.972656 L253.52002,226.816406 C253.581543,226.742187 253.64624,226.684815 253.714111,226.644287 C253.781983,226.60376 253.858398,226.583496 253.943359,226.583496 C254.058594,226.583496 254.153808,226.616943 254.229004,226.683838 C254.3042,226.750733 254.341797,226.864745 254.341797,227.025879 L254.341797,227.746582 C254.341797,227.813965 254.353271,227.858154 254.376221,227.87915 C254.39917,227.900147 254.4375,227.916504 254.491211,227.928223 L254.491211,228 L253.786621,228 L253.786621,227.928223 C253.840332,227.91748 253.876953,227.902832 253.896484,227.884277 C253.916016,227.865723 253.925781,227.823731 253.925781,227.758301 L253.925781,227.031738 C253.925781,226.963379 253.918945,226.91211 253.905273,226.87793 C253.881836,226.816406 253.83545,226.785645 253.766113,226.785645 C253.714355,226.785645 253.660889,226.80957 253.605713,226.857422 C253.550537,226.905274 253.522949,226.937988 253.522949,226.955566 L253.522949,227.758301 C253.522949,227.823731 253.532715,227.865723 253.552246,227.884277 C253.571777,227.902832 253.608398,227.91748 253.662109,227.928223 L253.662109,228 L252.939941,228 L252.939941,227.928223 Z M254.740234,226.160156 C254.740234,226.095703 254.762939,226.040772 254.80835,225.995361 C254.85376,225.949951 254.908691,225.927246 254.973145,225.927246 C255.036621,225.927246 255.091064,225.949951 255.136475,225.995361 C255.181885,226.040772 255.20459,226.095703 255.20459,226.160156 C255.20459,226.22461 255.181885,226.279541 255.136475,226.324951 C255.091064,226.370362 255.036621,226.393066 254.973145,226.393066 C254.908691,226.393066 254.85376,226.370362 254.80835,226.324951 C254.762939,226.279541 254.740234,226.22461 254.740234,226.160156 Z M254.608398,227.928223 C254.661133,227.919434 254.697266,227.90625 254.716797,227.888672 C254.746094,227.862305 254.760742,227.814942 254.760742,227.746582 L254.760742,226.864746 C254.760742,226.804199 254.750488,226.76294 254.72998,226.740967 C254.709473,226.718994 254.668946,226.702637 254.608398,226.691895 L254.608398,226.618652 L255.184082,226.618652 L255.184082,227.758301 C255.184082,227.823731 255.193848,227.865723 255.213379,227.884277 C255.23291,227.902832 255.269531,227.91748 255.323242,227.928223 L255.323242,228 L254.608398,228 L254.608398,227.928223 Z M255.469727,227.545898 L255.553223,227.545898 C255.58252,227.689454 255.637207,227.790771 255.717285,227.849854 C255.797364,227.908936 255.879394,227.938477 255.963379,227.938477 C256.040528,227.938477 256.097168,227.921143 256.133301,227.886475 C256.169434,227.851806 256.1875,227.806153 256.1875,227.749512 C256.1875,227.695801 256.167969,227.649903 256.128906,227.611816 C256.107422,227.591308 256.072754,227.569336 256.024902,227.545898 L255.802246,227.4375 C255.685058,227.379883 255.601074,227.317383 255.550293,227.25 C255.498535,227.182617 255.472656,227.103028 255.472656,227.01123 C255.472656,226.895019 255.513183,226.794678 255.594238,226.710205 C255.675293,226.625732 255.788573,226.583496 255.934082,226.583496 C255.997559,226.583496 256.064941,226.593994 256.13623,226.61499 C256.20752,226.635986 256.251953,226.646484 256.269531,226.646484 C256.293945,226.646484 256.311279,226.641357 256.321533,226.631104 C256.331787,226.62085 256.340332,226.606445 256.347168,226.587891 L256.413086,226.587891 L256.413086,227.021484 L256.336914,227.021484 C256.308594,226.919921 256.262207,226.838379 256.197754,226.776855 C256.1333,226.715332 256.058106,226.68457 255.972168,226.68457 C255.905761,226.68457 255.856201,226.703125 255.823486,226.740234 C255.790771,226.777344 255.774414,226.817383 255.774414,226.860352 C255.774414,226.895508 255.789062,226.930664 255.818359,226.96582 C255.84668,227.001953 255.90039,227.039062 255.979492,227.077148 L256.143555,227.15625 C256.245118,227.205078 256.319336,227.252441 256.366211,227.29834 C256.444336,227.376465 256.483398,227.472656 256.483398,227.586914 C256.483398,227.698243 256.443116,227.802001 256.362549,227.898193 C256.281982,227.994385 256.161134,228.04248 256,228.04248 C255.959961,228.04248 255.919678,228.03833 255.87915,228.030029 C255.838623,228.021728 255.788575,228.007324 255.729004,227.986816 L255.677734,227.969238 C255.65918,227.962402 255.647705,227.958496 255.643311,227.95752 C255.638916,227.956543 255.633301,227.956055 255.626465,227.956055 C255.609863,227.956055 255.595459,227.962646 255.583252,227.97583 C255.571045,227.989014 255.557129,228.01123 255.541504,228.04248 L255.469727,228.04248 L255.469727,227.545898 Z" id="To-read-This" fill="#474747"></path>
        <g id="Group-3" transform="translate(249.000000, 51.000000)" fill="#EAE6DB" fill-rule="nonzero">
            <rect id="Rectangle" x="0" y="23" width="177" height="23" rx="11.5"></rect>
            <rect id="Rectangle" x="43" y="9" width="79" height="23" rx="11.5"></rect>
            <rect id="Rectangle" x="85" y="0" width="64" height="37" rx="18.5"></rect>
        </g>
        <path d="M185.739,420.44 L183.993,418.064 L183.255,420.89 L182.301,420.548 L183.489,417.866 L180.645,418.64 L180.465,417.632 L183.381,417.326 L181.311,415.256 L182.067,414.59 L183.813,416.984 L184.569,414.14 L185.505,414.482 L184.317,417.164 L187.161,416.39 L187.341,417.398 L184.425,417.686 L186.513,419.774 L185.739,420.44 Z M191.591,424.382 L191.717,424.382 C193.535,420.656 194.975,418.28 196.235,418.28 C196.973,418.28 197.243,418.838 197.243,419.378 C197.243,420.134 196.829,420.53 196.145,420.854 L195.875,420.854 C195.875,420.512 195.803,420.188 195.371,420.188 C194.453,420.188 192.095,423.536 190.997,428 L189.359,428 L191.393,419.828 L190.025,419.27 L190.133,418.892 L192.851,418.28 L193.301,418.28 L192.545,421.268 L191.591,424.382 Z M204.785,420.26 C204.785,422.438 201.563,423.374 198.935,424.076 L198.935,424.544 C198.935,426.11 199.673,427.118 200.879,427.118 C201.941,427.118 202.895,426.434 203.723,425.444 L204.173,425.804 C202.841,427.568 201.725,428.18 200.285,428.18 C198.179,428.18 197.333,426.416 197.333,424.58 C197.333,421.484 199.763,418.28 202.679,418.28 C204.137,418.28 204.785,419.144 204.785,420.26 Z M202.193,419.18 C200.753,419.18 199.331,421.052 199.007,423.5 C201.833,422.654 203.273,421.826 203.273,420.404 C203.273,419.72 202.895,419.18 202.193,419.18 Z M210.599,419.09 C208.925,419.09 207.485,422.006 207.485,424.562 C207.485,425.876 207.845,427.136 209.177,427.136 C210.329,427.136 211.067,426.542 211.985,425.48 L212.399,425.822 C211.643,427.01 210.383,428.18 208.673,428.18 C206.639,428.18 205.829,426.776 205.829,424.868 C205.829,421.718 208.169,418.28 211.229,418.28 C212.597,418.28 213.299,418.91 213.299,419.864 C213.299,420.548 212.777,420.926 212.291,421.124 L212.003,421.124 C211.931,420.026 211.499,419.09 210.599,419.09 Z M217.313,427.46 C219.275,427.46 220.535,424.022 220.535,421.466 C220.535,419.9 219.995,419 219.077,419 C217.115,419 215.855,422.438 215.855,424.994 C215.855,426.56 216.395,427.46 217.313,427.46 Z M217.259,428.18 C215.387,428.18 214.163,426.866 214.163,424.562 C214.163,421.574 216.197,418.28 219.131,418.28 C221.003,418.28 222.227,419.594 222.227,421.898 C222.227,424.886 220.193,428.18 217.259,428.18 Z M226.025,424.382 L226.151,424.382 C227.969,420.656 229.409,418.28 230.669,418.28 C231.407,418.28 231.677,418.838 231.677,419.378 C231.677,420.134 231.263,420.53 230.579,420.854 L230.309,420.854 C230.309,420.512 230.237,420.188 229.805,420.188 C228.887,420.188 226.529,423.536 225.431,428 L223.793,428 L225.827,419.828 L224.459,419.27 L224.567,418.892 L227.285,418.28 L227.735,418.28 L226.979,421.268 L226.025,424.382 Z M234.341,427.01 C235.709,427.01 237.869,423.986 238.787,419.792 C238.463,419.216 237.959,419.018 237.419,419.018 C235.025,419.018 233.297,422.402 233.279,425.336 C233.279,426.326 233.639,427.01 234.341,427.01 Z M239.651,415.976 L238.319,415.418 L238.409,415.058 L241.253,414.302 L241.667,414.302 L238.967,425.912 C238.895,426.254 238.823,426.56 238.823,426.704 C238.823,426.884 238.913,426.974 239.075,426.974 C239.417,426.974 239.957,426.614 240.731,425.624 L241.109,426.002 C240.029,427.64 239.219,428.18 238.319,428.18 C237.635,428.18 237.311,427.694 237.311,427.046 C237.311,426.416 237.653,424.922 237.959,423.914 L237.833,423.914 C236.771,426.218 235.205,428.18 233.675,428.18 C232.379,428.18 231.623,427.172 231.623,425.48 C231.623,421.592 234.539,418.28 237.347,418.28 C238.049,418.28 238.607,418.514 239.021,418.892 L239.651,415.976 Z M248.975,427.352 C249.893,427.352 250.379,426.866 250.379,426.02 C250.379,424.616 247.121,423.05 247.121,420.998 C247.121,419.486 248.453,418.28 250.217,418.28 C251.603,418.28 252.467,418.946 252.467,419.882 C252.467,420.314 252.053,420.638 251.693,420.818 L251.513,420.818 C251.009,419.792 250.397,419.18 249.515,419.18 C248.687,419.18 248.273,419.612 248.273,420.35 C248.273,421.61 251.621,423.338 251.621,425.282 C251.621,427.082 250.055,428.18 248.417,428.18 C246.761,428.18 245.681,427.334 245.681,426.272 C245.681,425.75 245.987,425.318 246.473,425.102 L246.617,425.102 C247.103,426.398 247.895,427.352 248.975,427.352 Z M258.389,419.09 C256.715,419.09 255.275,422.006 255.275,424.562 C255.275,425.876 255.635,427.136 256.967,427.136 C258.119,427.136 258.857,426.542 259.775,425.48 L260.189,425.822 C259.433,427.01 258.173,428.18 256.463,428.18 C254.429,428.18 253.619,426.776 253.619,424.868 C253.619,421.718 255.959,418.28 259.019,418.28 C260.387,418.28 261.089,418.91 261.089,419.864 C261.089,420.548 260.567,420.926 260.081,421.124 L259.793,421.124 C259.721,420.026 259.289,419.09 258.389,419.09 Z M264.419,424.382 L264.545,424.382 C266.363,420.656 267.803,418.28 269.063,418.28 C269.801,418.28 270.071,418.838 270.071,419.378 C270.071,420.134 269.657,420.53 268.973,420.854 L268.703,420.854 C268.703,420.512 268.631,420.188 268.199,420.188 C267.281,420.188 264.923,423.536 263.825,428 L262.187,428 L264.221,419.828 L262.853,419.27 L262.961,418.892 L265.679,418.28 L266.129,418.28 L265.373,421.268 L264.419,424.382 Z M272.627,426.974 C273.959,426.974 275.921,424.292 277.055,419.846 C276.731,419.27 276.227,419.018 275.633,419.018 C273.329,419.018 271.673,422.402 271.655,425.336 C271.655,426.326 271.997,426.974 272.627,426.974 Z M277.523,419 L278.585,418.136 L279.215,418.136 L278.585,420.152 L277.181,425.912 C277.091,426.254 277.019,426.56 277.019,426.704 C277.019,426.884 277.109,426.974 277.271,426.974 C277.613,426.974 278.153,426.614 278.927,425.624 L279.305,426.002 C278.225,427.64 277.415,428.18 276.515,428.18 C275.831,428.18 275.507,427.694 275.507,426.956 C275.507,426.416 275.867,424.886 276.209,423.932 L276.083,423.932 C275.021,426.236 273.491,428.18 272.015,428.18 C270.755,428.18 270.017,427.172 270.017,425.48 C270.017,421.592 272.879,418.28 275.579,418.28 C276.407,418.28 277.037,418.514 277.523,419 Z M284.435,419.324 L283.031,425.552 C282.923,426.056 282.869,426.344 282.869,426.614 C282.869,426.866 282.977,427.028 283.265,427.028 C283.931,427.028 284.669,426.452 285.749,425.3 L286.163,425.732 C284.939,427.298 283.517,428.18 282.509,428.18 C281.591,428.18 281.249,427.658 281.249,426.794 C281.249,426.398 281.321,425.966 281.447,425.426 L282.833,419.324 L281.519,419.324 L281.663,418.802 C282.959,418.37 283.679,417.65 284.579,416.408 L285.137,416.408 L284.651,418.46 L286.901,418.46 L286.685,419.324 L284.435,419.324 Z M292.481,419.09 C290.807,419.09 289.367,422.006 289.367,424.562 C289.367,425.876 289.727,427.136 291.059,427.136 C292.211,427.136 292.949,426.542 293.867,425.48 L294.281,425.822 C293.525,427.01 292.265,428.18 290.555,428.18 C288.521,428.18 287.711,426.776 287.711,424.868 C287.711,421.718 290.051,418.28 293.111,418.28 C294.479,418.28 295.181,418.91 295.181,419.864 C295.181,420.548 294.659,420.926 294.173,421.124 L293.885,421.124 C293.813,420.026 293.381,419.09 292.481,419.09 Z M299.195,420.746 L298.583,422.762 L298.709,422.762 C299.735,420.98 301.931,418.28 303.677,418.28 C304.595,418.28 304.901,418.766 304.901,419.558 C304.901,419.792 304.847,420.116 304.793,420.35 L303.317,425.912 C303.227,426.254 303.155,426.56 303.155,426.704 C303.155,426.884 303.245,426.974 303.407,426.974 C303.749,426.974 304.271,426.614 305.081,425.624 L305.441,426.002 C304.343,427.64 303.551,428.18 302.651,428.18 C301.967,428.18 301.535,427.694 301.535,426.956 C301.535,426.542 301.607,426.092 301.787,425.408 L303.137,420.404 C303.191,420.17 303.227,419.954 303.227,419.81 C303.227,419.558 303.137,419.432 302.903,419.432 C301.787,419.432 298.997,422.132 298.151,425.498 L297.521,428 L295.883,428 L298.637,415.976 L297.305,415.418 L297.395,415.058 L300.275,414.302 L300.689,414.302 L299.195,420.746 Z M313.669,420.44 L311.923,418.064 L311.185,420.89 L310.231,420.548 L311.419,417.866 L308.575,418.64 L308.395,417.632 L311.311,417.326 L309.241,415.256 L309.997,414.59 L311.743,416.984 L312.499,414.14 L313.435,414.482 L312.247,417.164 L315.091,416.39 L315.271,417.398 L312.355,417.686 L314.443,419.774 L313.669,420.44 Z" id="*record-scratch*" fill="#342E2C"></path>
    </g>
</svg>