<?xml version="1.0" encoding="UTF-8"?>
<svg width="394px" height="304px" viewBox="0 0 394 304" version="1.1" xmlns="http://www.w3.org/2000/svg" xmlns:xlink="http://www.w3.org/1999/xlink">
    <!-- Generator: Sketch 55.2 (78181) - https://sketchapp.com -->
    <title>Group 2</title>
    <desc>Created with Sketch.</desc>
    <defs>
        <linearGradient x1="75.1419412%" y1="21.871242%" x2="13.9566761%" y2="72.7237593%" id="linearGradient-1">
            <stop stop-color="#FDFDFD" stop-opacity="0.169771635" offset="0%"></stop>
            <stop stop-color="#E6E6E6" stop-opacity="0.97653727" offset="83.9709297%"></stop>
            <stop stop-color="#E5E5E5" offset="100%"></stop>
        </linearGradient>
        <linearGradient x1="19.0665057%" y1="75.2705596%" x2="53.6580974%" y2="46.1530444%" id="linearGradient-2">
            <stop stop-color="#FF7373" offset="1.58889358%"></stop>
            <stop stop-color="#FE6F6F" offset="100%"></stop>
        </linearGradient>
        <path d="M67.7650843,2.92166212 C97.0932093,-12.6213066 102.108581,38.3799641 78.3588343,49.5642402 C54.6090875,60.7485164 -14.4243688,75.1794746 2.69867804,39.0056465 C19.8217249,2.83181837 38.4369593,18.4646309 67.7650843,2.92166212 Z" id="path-3"></path>
    </defs>
    <g id="Page-1" stroke="none" stroke-width="1" fill="none" fill-rule="evenodd">
        <g id="small/art+des" transform="translate(0.000000, -1532.000000)">
            <g id="Group-2" transform="translate(-4.099694, 1526.736564)">
                <path d="M43.9921088,66.9251809 C113.660082,9.13456463 165.938225,-4.44956802 200.826538,26.1727829 C241.828109,62.1608941 123.512499,159.423815 224.936112,174.232893 C235.222481,175.734828 296.707254,130.895345 335.219069,164.625725 C357.506824,184.146343 320.983656,215.154612 325.127757,247.970652 C326.425244,258.245107 357.667873,284.717684 397.538793,307.944699 C360.623098,308.332814 297.023886,308.332814 206.741157,307.944699 L49.0996941,307.944699 C44.6814161,307.944699 41.0996941,304.362977 41.0996941,299.944699 L41.0996941,73.0824974 C41.0996957,70.7019393 42.1598772,68.4450441 43.9921088,66.9251809 Z" id="Rectangle" fill="url(#linearGradient-1)"></path>
                <path d="M55.0690495,32.7625682 C55.0690495,32.7625682 55.0690495,32.7625682 55.0690495,32.7625682 C107.354212,38.5171617 122.692353,12.3034905 146.306725,6.99536961 C155.81848,4.85728423 178.21579,6.69195612 187.096762,14.4771685 C229.938993,52.0334074 110.673033,198.435604 212.288673,168.988775 C239.797329,161.017141 253.751766,143.386294 275.74569,139.917733 C290.677803,137.562858 315.13768,142.231945 327.522502,158.962989 C351.705293,191.632278 310.810758,238.864711 330.640209,262.62248 C337.958114,271.390099 353.423586,284.287774 395.084409,308.526872 C365.559551,308.351248 298.290382,308.351248 193.276902,308.526872 L22.1729664,308.526872 C21.0787695,308.526872 20.1876941,307.647569 20.1731433,306.553468 L16.991742,67.338135 C16.7396454,48.382562 31.9018091,32.8116695 50.8573822,32.5595732 C52.2641047,32.5408648 53.6706469,32.6086576 55.0690495,32.7625682 Z" id="Rectangle" fill="#D66969"></path>
                <path d="M38.9693554,32.4991322 C38.9693554,32.4991322 38.9693554,32.4991322 38.9693554,32.4991322 C112.314728,40.5716481 140.06774,-12.8994491 170.997067,14.2137325 C213.839299,51.7699714 94.5733391,198.172168 196.188979,168.725339 C242.373809,155.341604 280.796037,117.324889 311.422808,158.699553 C335.605599,191.368842 294.711064,238.601275 314.540515,262.359044 C321.85842,271.126663 339.804384,284.024338 381.465207,308.263436 C313.369208,308.263436 245.273208,308.263436 177.177208,308.263436 L6.07327232,308.263436 C4.97907538,308.263436 4.08799996,307.384132 4.07344917,306.290032 L0.89204789,67.074699 C0.63995129,48.119126 15.802115,32.5482335 34.7576881,32.2961372 C36.1644106,32.2774288 37.5709528,32.3452216 38.9693554,32.4991322 Z" id="Rectangle" fill="url(#linearGradient-2)"></path>
                <g id="Rectangle" transform="translate(73.132897, 160.775155) rotate(-32.000000) translate(-73.132897, -160.775155) translate(26.132897, 129.275155)">
                    <mask id="mask-4" fill="white">
                        <use xlink:href="#path-3"></use>
                    </mask>
                    <use id="Mask" fill="#D66969" xlink:href="#path-3"></use>
                    <path d="M73.9992201,16.3634544 C64.9254662,21.1722539 59.0496117,22.7217888 44.8409766,25.1321477 C35.2028958,26.7671558 30.6722963,28.0578232 25.7165679,31.1736243 C19.4405945,35.1194993 14.1470635,41.6641424 9.15060458,52.219568 C5.181256,60.6051395 5.75007917,66.4717491 10.2699342,70.0990979 C14.3308218,73.3581085 21.5616952,74.8020377 31.1880821,74.5444114 C47.6920441,74.102724 70.8406998,68.3775581 84.1458122,62.1118891 C94.9052912,57.0450146 100.600476,42.61129 98.4724299,29.2991611 C96.2825356,15.6001384 86.9682626,9.49027642 73.9992201,16.3634544 Z" stroke="#FFA1A1" fill="#FFF9D8" mask="url(#mask-4)"></path>
                </g>
            </g>
        </g>
    </g>
</svg>