<?xml version="1.0" standalone="no"?>
<!DOCTYPE svg PUBLIC "-//W3C//DTD SVG 1.1//EN" "http://www.w3.org/Graphics/SVG/1.1/DTD/svg11.dtd" >
<svg xmlns="http://www.w3.org/2000/svg" xmlns:xlink="http://www.w3.org/1999/xlink" version="1.1">
<metadata>
Created by FontForge 20170731 at Fri Jun 29 19:39:53 2018
 By Aleksey,,,
Copyright (c) 2013 by Luzi Type. All rights reserved.
</metadata>
<defs>
<font id="CadizTrial-Bold" horiz-adv-x="610" >
  <font-face 
    font-family="Cadiz Trial"
    font-weight="700"
    font-stretch="normal"
    units-per-em="1000"
    panose-1="0 0 8 0 0 0 0 0 0 0"
    ascent="757"
    descent="-243"
    x-height="507"
    cap-height="702"
    bbox="-15 -227 1029 752"
    underline-thickness="50"
    underline-position="-200"
    unicode-range="U+000D-007A"
  />
<missing-glyph horiz-adv-x="188" 
 />
    <glyph glyph-name=".notdef" horiz-adv-x="188" 
 />
    <glyph glyph-name=".null" horiz-adv-x="0" 
 />
    <glyph glyph-name="nonmarkingreturn" horiz-adv-x="333" 
 />
    <glyph glyph-name="CR" unicode="&#xd;" horiz-adv-x="207" 
 />
    <glyph glyph-name="space" unicode=" " horiz-adv-x="250" 
 />
    <glyph glyph-name="comma" unicode="," horiz-adv-x="240" 
d="M118 156q38 0 60 -34.5t22 -84.5q0 -67 -39.5 -129.5t-120.5 -82.5v83q39 12 63 39.5t25 64.5q-2 0 -7.5 -0.5t-8.5 -0.5q-31 0 -50.5 17t-19.5 52t22 55.5t54 20.5z" />
    <glyph glyph-name="hyphen" unicode="-" horiz-adv-x="382" 
d="M322 363h-262v-121h262v121z" />
    <glyph glyph-name="period" unicode="." horiz-adv-x="234" 
d="M117 -7q-32 0 -54.5 22.5t-22.5 54.5q0 33 22 54.5t55 21.5t55 -21.5t22 -54.5q0 -32 -22 -54.5t-55 -22.5z" />
    <glyph glyph-name="zero" unicode="0" horiz-adv-x="628" 
d="M314 702q131 0 202.5 -99.5t71.5 -260.5q0 -160 -71.5 -259t-202.5 -99t-202.5 99t-71.5 259q0 161 71.5 260.5t202.5 99.5zM314 99q70 0 109.5 62t39.5 181q0 120 -39.5 182.5t-109.5 62.5t-109.5 -62.5t-39.5 -182.5q0 -119 39.5 -181t109.5 -62z" />
    <glyph glyph-name="one" unicode="1" horiz-adv-x="396" 
d="M40 482q77 0 129 31v-513h127v691h-105q-54 -83 -151 -83v-126z" />
    <glyph glyph-name="two" unicode="2" horiz-adv-x="570" 
d="M216 123h314v-124h-490v112q31 25 86 68.5t83 66t66.5 57.5t57 60t32.5 55.5t14 60.5q0 50 -30.5 79t-73.5 29q-45 0 -79.5 -32t-34.5 -86q0 -10 2 -26l-117 -11q-1 12 -1 28q0 111 74 176.5t170 65.5q88 0 151 -56.5t63 -152.5q0 -39 -13.5 -77t-30.5 -65.5t-51.5 -62.5
t-57.5 -54.5t-68.5 -56.5t-65.5 -54z" />
    <glyph glyph-name="three" unicode="3" horiz-adv-x="588" 
d="M328 417q100 0 155 -57t55 -140q0 -93 -68 -164.5t-182 -71.5q-86 0 -152.5 45.5t-95.5 130.5l115 41q14 -49 50.5 -76t82.5 -27q58 0 91 36t33 82q0 44 -31.5 74t-90.5 30q-50 0 -95 -24l-53 86l201 185h-279v124h438v-115z" />
    <glyph glyph-name="four" unicode="4" 
d="M287 691l-257 -425v-107h316v-159h126v159h108v119h-108v159h-126v-159h-166l253 413h-146z" />
    <glyph glyph-name="five" unicode="5" horiz-adv-x="603" 
d="M333 468q105 0 162.5 -65.5t57.5 -159.5q0 -103 -66.5 -181t-184.5 -78q-84 0 -151.5 43.5t-100.5 130.5l115 39q13 -42 50.5 -68t84.5 -26q59 0 93.5 40t34.5 93q0 49 -31.5 84t-88.5 35q-86 0 -134 -78l-91 39v375h428v-124h-314v-145q68 46 136 46z" />
    <glyph glyph-name="six" unicode="6" 
d="M570 231q0 -113 -74 -180t-177 -67q-116 0 -197.5 89t-81.5 258q0 181 84.5 276t218.5 95q122 0 208 -93l-89 -79q-47 57 -121 57q-75 0 -122.5 -47.5t-52.5 -142.5q67 70 174 70q93 0 161.5 -63.5t68.5 -172.5zM447 229q0 59 -38.5 92t-93.5 33q-45 0 -85.5 -21.5
t-60.5 -57.5q0 -82 45.5 -129.5t103.5 -47.5q52 0 90.5 35.5t38.5 95.5z" />
    <glyph glyph-name="seven" unicode="7" horiz-adv-x="545" 
d="M285 0q1 83 10.5 149t33.5 144t74.5 152t126.5 142v104h-515v-124h364q-217 -241 -223 -567h129z" />
    <glyph glyph-name="eight" unicode="8" horiz-adv-x="577" 
d="M180 360q-56 15 -90 56t-34 100q0 83 66.5 134.5t165.5 51.5q100 0 166.5 -51.5t66.5 -134.5q0 -59 -34 -100t-90 -56q61 -21 100.5 -65.5t39.5 -112.5q0 -94 -72 -146t-177 -52q-104 0 -176 52t-72 146q0 68 39.5 112.5t100.5 65.5zM288 588q-52 0 -82 -22t-30 -62
t29 -65t83 -25t83.5 25t29.5 65t-30.5 62t-82.5 22zM288 99q58 0 92 25.5t34 72.5q0 46 -33 71.5t-92 25.5q-60 0 -92.5 -25.5t-32.5 -71.5q0 -47 33 -72.5t91 -25.5z" />
    <glyph glyph-name="nine" unicode="9" 
d="M30 455q0 113 74 180t177 67q116 0 197.5 -89t81.5 -258q0 -181 -84.5 -276t-218.5 -95q-122 0 -208 93l89 79q47 -57 121 -57q75 0 122.5 47.5t52.5 142.5q-67 -70 -174 -70q-93 0 -161.5 63.5t-68.5 172.5zM153 457q0 -59 38.5 -92t93.5 -33q45 0 85.5 21.5t60.5 57.5
q0 82 -45.5 129.5t-103.5 47.5q-52 0 -90.5 -35.5t-38.5 -95.5z" />
    <glyph glyph-name="A" unicode="A" horiz-adv-x="759" 
d="M595 0l-63 157h-304l-63 -157h-145l296 702h129l294 -702h-144zM276 277h208l-104 261z" />
    <glyph glyph-name="B" unicode="B" horiz-adv-x="644" 
d="M490 379q55 -17 84.5 -63t29.5 -103q0 -87 -62 -150t-174 -63h-288v702h272q106 0 161.5 -53t55.5 -127q0 -43 -21 -83t-58 -60zM210 423h137q41 0 63.5 24t22.5 57t-24 57.5t-66 24.5h-133v-163zM363 118q48 0 76.5 29t28.5 67q0 39 -27.5 67t-78.5 28h-152v-191h153z
" />
    <glyph glyph-name="C" unicode="C" horiz-adv-x="701" 
d="M671 189q-36 -96 -121 -150.5t-184 -54.5q-62 0 -119.5 23.5t-104 67.5t-74.5 115.5t-28 160.5q0 90 28.5 162t76 115.5t105.5 66t120 22.5q95 0 171 -51t107 -144l-119 -45q-15 54 -58.5 84.5t-98.5 30.5q-79 0 -137.5 -61t-58.5 -178q0 -116 57.5 -178.5t138.5 -62.5
q61 0 113.5 37t73.5 102z" />
    <glyph glyph-name="D" unicode="D" horiz-adv-x="689" 
d="M279 0q88 0 160 31.5t117 84t69 117.5t24 134q0 65 -21.5 124t-62 106.5t-106.5 76t-149 28.5h-230v-702h199zM303 586q101 0 155.5 -65.5t54.5 -157.5q0 -98 -63 -171.5t-173 -73.5h-67v468h93z" />
    <glyph glyph-name="E" unicode="E" horiz-adv-x="587" 
d="M210 118h317v-118h-447v702h447v-116h-317v-174h256v-116h-256v-178z" />
    <glyph glyph-name="F" unicode="F" horiz-adv-x="537" 
d="M210 296h246v116h-246v174h307v116h-437v-702h130v296z" />
    <glyph glyph-name="G" unicode="G" horiz-adv-x="718" 
d="M658 375v-375h-96l-20 74q-66 -90 -190 -90q-57 0 -111 21.5t-100 63.5t-73.5 113t-27.5 161q0 173 95 273.5t234 100.5q98 0 173 -51t106 -144l-119 -45q-15 55 -58.5 85t-99.5 30q-84 0 -139.5 -65t-55.5 -179q0 -119 58.5 -178.5t135.5 -59.5q64 0 111 41t52 108h-184
v116h309z" />
    <glyph glyph-name="H" unicode="H" horiz-adv-x="729" 
d="M519 410h-309v292h-130v-702h130v294h309v-294h130v702h-130v-292z" />
    <glyph glyph-name="I" unicode="I" horiz-adv-x="290" 
d="M210 702v-702h-130v702h130z" />
    <glyph glyph-name="J" unicode="J" horiz-adv-x="552" 
d="M472 702v-499q0 -103 -63 -161t-155 -58q-86 0 -152 49t-72 132l132 24q1 -35 27 -57t62 -22q40 0 64.5 27t24.5 72v377h-220v116h352z" />
    <glyph glyph-name="K" unicode="K" horiz-adv-x="709" 
d="M689 702l-289 -267l278 -435h-167l-213 342l-88 -82v-260h-130v702h130v-284l291 284h188z" />
    <glyph glyph-name="L" unicode="L" horiz-adv-x="531" 
d="M210 118v584h-130v-702h416v118h-286z" />
    <glyph glyph-name="M" unicode="M" horiz-adv-x="860" 
d="M376 92h107l166 321v-413h131v702h-126l-224 -438l-224 438h-126v-702h130v413z" />
    <glyph glyph-name="N" unicode="N" horiz-adv-x="718" 
d="M80 0h130v440l308 -440h120v702h-132v-445l-308 445h-118v-702z" />
    <glyph glyph-name="O" unicode="O" horiz-adv-x="766" 
d="M384 717q-154 0 -249 -104.5t-95 -260.5q0 -158 95 -263t249 -105t248 105t94 263q0 156 -94 260.5t-248 104.5zM384 110q-93 0 -150.5 69.5t-57.5 172.5q0 101 58 170.5t150 69.5t149 -69.5t57 -170.5q0 -103 -57 -172.5t-149 -69.5z" />
    <glyph glyph-name="P" unicode="P" horiz-adv-x="644" 
d="M393 702h-313v-702h130v282h179q108 0 169 63t61 149q0 84 -60 146t-166 62zM386 398h-176v188h177q45 0 70.5 -28t25.5 -65q0 -38 -26 -66.5t-71 -28.5z" />
    <glyph glyph-name="Q" unicode="Q" horiz-adv-x="784" 
d="M598 57q23 -13 63 -13q41 0 78 14v-106q-50 -28 -102 -28q-89 0 -131 81q-55 -21 -122 -21q-154 0 -249 105t-95 263q0 156 95 260.5t249 104.5t248 -104.5t94 -260.5q0 -91 -33 -168t-95 -127zM525 169q65 70 65 183q0 101 -57.5 170.5t-148.5 69.5q-92 0 -150 -69.5
t-58 -170.5q0 -120 73 -191q-11 25 -11 53q0 48 33.5 84.5t90.5 36.5q40 0 68.5 -13.5t46.5 -41.5t27 -50t21 -61zM387 106q31 0 64 12q-27 99 -90 99q-23 0 -36 -17t-13 -38q0 -28 21 -42t54 -14z" />
    <glyph glyph-name="R" unicode="R" horiz-adv-x="683" 
d="M653 0h-150l-168 282h-125v-282h-130v702h310q104 0 161.5 -58.5t57.5 -139.5q0 -63 -39 -116.5t-109 -74.5zM363 398q51 0 80.5 29.5t29.5 68.5q0 37 -26 63.5t-74 26.5h-163v-188h153z" />
    <glyph glyph-name="S" unicode="S" horiz-adv-x="561" 
d="M516 203q0 -104 -70 -161.5t-166 -57.5q-91 0 -162.5 51.5t-87.5 144.5l130 32q5 -53 42 -80.5t84 -27.5q42 0 71 21.5t29 60.5t-29.5 62t-88.5 46q-96 37 -130 61q-78 56 -78 157q0 99 63.5 152t151.5 53q71 0 131.5 -35t83.5 -100l-113 -50q-10 34 -37.5 50.5
t-58.5 16.5q-36 0 -61.5 -21t-25.5 -57q0 -39 28.5 -61t86.5 -44q95 -35 128 -58q79 -54 79 -155z" />
    <glyph glyph-name="T" unicode="T" horiz-adv-x="582" 
d="M226 586h-211v116h552v-116h-211v-586h-130v586z" />
    <glyph glyph-name="U" unicode="U" horiz-adv-x="688" 
d="M618 702v-441q0 -122 -72 -199.5t-201 -77.5q-130 0 -202.5 77.5t-72.5 199.5v441h132v-432q0 -67 36 -113.5t107 -46.5q70 0 106 46.5t36 113.5v432h131z" />
    <glyph glyph-name="V" unicode="V" horiz-adv-x="648" 
d="M324 204l-174 498h-140l254 -702h121l253 702h-140z" />
    <glyph glyph-name="W" unicode="W" horiz-adv-x="1039" 
d="M886 702h143l-285 -702h-135l-87 221l-90 -221h-137l-285 702h143l216 -552l85 216l-131 336h132l67 -177l70 177h136l-138 -341l81 -211z" />
    <glyph glyph-name="X" unicode="X" horiz-adv-x="652" 
d="M471 0h161l-229 354l229 348h-151l-153 -232l-150 232h-158l228 -355l-228 -347h158l147 228z" />
    <glyph glyph-name="Y" unicode="Y" horiz-adv-x="665" 
d="M655 702h-155l-167 -284l-168 284h-155l259 -410v-292h129v292z" />
    <glyph glyph-name="Z" unicode="Z" horiz-adv-x="615" 
d="M564 118v-118h-524v91l364 495h-337v116h498v-100l-355 -484h354z" />
    <glyph glyph-name="a" unicode="a" horiz-adv-x="548" 
d="M500 95q12 0 23 4v-94q-23 -17 -56 -17q-41 0 -72 27t-35 72q-18 -48 -61 -73.5t-94 -25.5q-67 0 -116 41.5t-49 115.5q0 19 4.5 36.5t9.5 30t18 24.5t20 19.5t25.5 15.5t26 11.5t29 8.5t26.5 6.5t28 5.5l23 4q52 10 70.5 23t18.5 34q0 27 -21.5 40.5t-55.5 13.5
q-42 0 -72 -18.5t-41 -48.5l-94 46q25 60 82 91.5t130 31.5q87 0 139.5 -44.5t52.5 -134.5v-195q0 -51 41 -51zM337 246q-30 -15 -82 -26t-73 -24t-21 -44q0 -57 67 -57q44 0 76.5 27t32.5 80v44z" />
    <glyph glyph-name="b" unicode="b" horiz-adv-x="605" 
d="M336 520q95 0 162 -69.5t67 -192.5q0 -113 -58 -191.5t-167 -78.5q-107 0 -153 75l-13 -63h-104v717h123v-265q41 68 143 68zM318 104q53 0 87.5 38.5t34.5 111.5q0 72 -34 110t-88 38q-56 0 -90.5 -39.5t-34.5 -108.5t35 -109.5t90 -40.5z" />
    <glyph glyph-name="c" unicode="c" horiz-adv-x="526" 
d="M506 124q-33 -64 -92.5 -100t-129.5 -36q-100 0 -172 70t-72 194q0 127 74 197.5t174 70.5q66 0 120.5 -34t80.5 -96l-103 -53q-10 32 -38 50.5t-63 18.5q-51 0 -86.5 -38.5t-35.5 -109.5q0 -74 37 -113.5t89 -39.5q41 0 71 21t43 61z" />
    <glyph glyph-name="d" unicode="d" horiz-adv-x="606" 
d="M414 717h122v-717h-104l-12 63q-46 -75 -154 -75q-109 0 -167.5 78.5t-58.5 191.5q0 123 67 192.5t165 69.5t142 -59v256zM288 104q56 0 91 40.5t35 109.5q0 68 -35 107.5t-91 39.5q-54 0 -88.5 -38t-34.5 -110t34.5 -110.5t88.5 -38.5z" />
    <glyph glyph-name="e" unicode="e" horiz-adv-x="539" 
d="M496 107q-37 -59 -93 -89t-118 -30q-100 0 -172.5 70.5t-72.5 196.5q0 125 71.5 195t171.5 70q90 0 153 -61.5t63 -196.5v-56h-332q6 -48 40.5 -75t79.5 -27q73 0 112 70zM278 412q-45 0 -76 -30t-35 -79h207q0 54 -26.5 81.5t-69.5 27.5z" />
    <glyph glyph-name="f" unicode="f" horiz-adv-x="337" 
d="M100 507h-80v-111h80v-396h122v396h95v111h-95v29q0 65 45 65q22 0 50 -15v114q-37 17 -78 17q-58 0 -98.5 -38.5t-40.5 -119.5v-52z" />
    <glyph glyph-name="g" unicode="g" horiz-adv-x="553" 
d="M375 70q82 0 122.5 -40t40.5 -98q0 -65 -48.5 -112t-137.5 -47h-157q-77 0 -121 40.5t-44 92.5q0 38 21 65.5t57 34.5q-49 31 -49 91q0 32 19 59t55 40q-58 45 -58 129t58 139.5t139 55.5q32 0 64.5 -11.5t38.5 -11.5q37 0 37 88h126q0 -54 -29 -93.5t-77 -45.5
q45 -55 45 -122q0 -82 -57.5 -136.5t-148.5 -54.5q-50 0 -81 22q-33 -19 -33 -46q0 -16 12.5 -27.5t35.5 -11.5h170zM278 413q-37 0 -60.5 -24t-23.5 -62t23.5 -62.5t60.5 -24.5q36 0 59 23.5t23 63.5q0 39 -23 62.5t-59 23.5zM350 -125q36 0 52.5 14t16.5 36q0 39 -53 39
h-116q-42 0 -68 3q-32 -11 -32 -37q0 -22 20.5 -38.5t54.5 -16.5h125z" />
    <glyph glyph-name="h" unicode="h" horiz-adv-x="565" 
d="M319 520q74 0 127.5 -47t53.5 -140v-333h-122v304q0 49 -25 75.5t-60 26.5q-46 0 -73.5 -28.5t-27.5 -81.5v-296h-122v717h122v-257q16 28 50.5 44t76.5 16z" />
    <glyph glyph-name="i" unicode="i" horiz-adv-x="288" 
d="M145 584q34 0 58.5 24.5t24.5 58.5q0 35 -24.5 60t-58.5 25q-35 0 -60 -25t-25 -60q0 -34 25 -58.5t60 -24.5zM205 507v-507h-122v507h122z" />
    <glyph glyph-name="j" unicode="j" horiz-adv-x="286" 
d="M143 584q-35 0 -60 24.5t-25 58.5q0 35 25 60t60 25q33 0 58 -25.5t25 -59.5t-25 -58.5t-58 -24.5zM81 507h121v-568q0 -81 -40 -119.5t-98 -38.5q-42 0 -79 17v114q30 -15 50 -15q46 0 46 65v545z" />
    <glyph glyph-name="k" unicode="k" horiz-adv-x="551" 
d="M526 0l-200 333l163 174h-164l-132 -148v358h-123v-717h123v193l46 48l138 -241h149z" />
    <glyph glyph-name="l" unicode="l" horiz-adv-x="262" 
d="M192 717h-122v-717h122v717z" />
    <glyph glyph-name="m" unicode="m" horiz-adv-x="814" 
d="M749 340v-340h-122v326q0 39 -21.5 59.5t-53.5 20.5q-36 0 -59 -24.5t-23 -70.5v-311h-122v326q0 39 -21 59.5t-53 20.5q-36 0 -59 -25t-23 -70v-311h-122v507h104l12 -60q14 35 49 54t76 19q44 0 80 -22t50 -63q17 40 55.5 62.5t86.5 22.5q69 0 117.5 -46t48.5 -134z
" />
    <glyph glyph-name="n" unicode="n" horiz-adv-x="565" 
d="M70 507v-507h122v296q0 52 28 81t73 29q35 0 60 -26.5t25 -75.5v-304h122v333q0 93 -53.5 140t-127.5 47q-47 0 -83.5 -19t-49.5 -53l-12 59h-104z" />
    <glyph glyph-name="o" unicode="o" horiz-adv-x="583" 
d="M40 254q0 -112 70 -189t182 -77q111 0 181 77t70 189q0 111 -70 188.5t-181 77.5t-181.5 -77t-70.5 -189zM418 254q0 -63 -34 -106.5t-92 -43.5q-59 0 -93 43.5t-34 106.5t34 107t93 44q58 0 92 -44t34 -107z" />
    <glyph glyph-name="p" unicode="p" horiz-adv-x="604" 
d="M336 520q93 0 160.5 -69.5t67.5 -189.5q0 -110 -58.5 -188.5t-164.5 -78.5q-98 0 -148 64v-261h-123v710h104l13 -64q41 77 149 77zM317 111q53 0 87.5 38t34.5 108t-34.5 107t-87.5 37q-54 0 -89 -39t-35 -106q0 -66 34.5 -105.5t89.5 -39.5z" />
    <glyph glyph-name="q" unicode="q" horiz-adv-x="606" 
d="M432 507h104v-710h-122v261q-52 -64 -149 -64q-109 0 -167 77.5t-58 188.5q0 121 67.5 190.5t161.5 69.5q108 0 150 -76zM288 111q56 0 91 39.5t35 105.5t-35 105.5t-91 39.5q-54 0 -88.5 -38t-34.5 -107t34.5 -107t88.5 -38z" />
    <glyph glyph-name="r" unicode="r" horiz-adv-x="363" 
d="M348 504v-123q-26 18 -63 18q-40 0 -66 -32.5t-26 -93.5v-273h-123v507h104l11 -56q30 62 103 62q33 0 60 -9z" />
    <glyph glyph-name="s" unicode="s" horiz-adv-x="469" 
d="M281 301q38 -11 58 -19t46 -24.5t37.5 -42t11.5 -61.5q0 -79 -55 -122.5t-134 -43.5q-73 0 -134 37.5t-86 107.5l110 44q13 -41 44.5 -62.5t66.5 -21.5q28 0 48 13.5t20 34.5t-19.5 32.5t-60.5 24.5q-2 1 -3.5 1.5t-3.5 0.5q-23 7 -30 9.5t-30 11.5t-33 16t-27.5 20.5
t-25.5 27t-14.5 34t-6.5 44.5q0 72 50.5 114.5t120.5 42.5q50 0 97 -20.5t76 -57.5l-83 -69q-15 21 -39 31.5t-46 10.5q-24 0 -39.5 -14.5t-15.5 -34.5q0 -17 16 -30t32 -18.5t52 -16.5z" />
    <glyph glyph-name="t" unicode="t" horiz-adv-x="357" 
d="M222 169q0 -64 45 -64q22 0 50 15v-113q-35 -19 -78 -19q-58 0 -98.5 38.5t-40.5 119.5v250h-80v111h80v105l122 48v-153h95v-111h-95v-227z" />
    <glyph glyph-name="u" unicode="u" horiz-adv-x="568" 
d="M376 507h122v-507h-104l-12 59q-39 -71 -134 -71q-79 0 -131 47t-52 139v333h121v-304q0 -102 89 -102q45 0 73 29t28 82v295z" />
    <glyph glyph-name="v" unicode="v" horiz-adv-x="523" 
d="M262 167l-119 340h-128l190 -507h112l191 507h-126z" />
    <glyph glyph-name="w" unicode="w" horiz-adv-x="774" 
d="M631 507h123l-165 -507h-112l-90 300l-90 -300h-112l-165 507h123l98 -320l92 320h108l92 -320z" />
    <glyph glyph-name="x" unicode="x" horiz-adv-x="534" 
d="M20 507l178 -253l-178 -254h148l97 150l98 -150h151l-178 254l178 253h-147l-98 -151l-96 151h-153z" />
    <glyph glyph-name="y" unicode="y" horiz-adv-x="538" 
d="M407 507h121l-223 -589q-22 -58 -67 -89.5t-98 -31.5q-62 0 -114 42l44 100q40 -26 72 -26q48 0 68 55l9 26l-199 513h128l126 -363z" />
    <glyph glyph-name="z" unicode="z" horiz-adv-x="513" 
d="M463 116v-116h-413v116l248 276h-242v115h400v-115l-252 -276h259z" />
    <glyph glyph-name="W.ss01" horiz-adv-x="1007" 
d="M858 702h139l-223 -702h-121l-149 466l-149 -466h-121l-224 702h139l145 -498l144 498h131l144 -498z" />
    <glyph glyph-name="Z.ss02" horiz-adv-x="615" 
d="M565 702v-100l-143 -191h108v-115h-194l-133 -178h361v-118h-524v91l153 205h-118v115h204l131 175h-343v116h498z" />
    <glyph glyph-name="NULL" horiz-adv-x="0" 
 />
    </font>
</defs>
</svg>
