<svg width="2223" height="351" viewBox="0 0 2223 351" fill="none" xmlns="http://www.w3.org/2000/svg">
<path fill-rule="evenodd" clip-rule="evenodd" d="M2134.35 14.6006H2222.07C2212.35 21.3407 2206.52 29.5955 2206.52 40.8938V310.927C2206.52 322.211 2212.58 330.243 2222.07 336.983H2134.35C2143.82 330.243 2149.65 322.002 2149.65 310.927V40.8938C2149.65 29.5955 2144.07 21.3407 2134.35 14.6006" fill="#010101"/>
<path fill-rule="evenodd" clip-rule="evenodd" d="M1418.47 130.205C1406.42 101.439 1392.25 76.1988 1367.47 55.3266C1340.79 32.9375 1308.32 18.8917 1272.37 18.8917C1179.61 18.8917 1132.08 95.7365 1132.08 175.447C1132.08 255.578 1181.46 331.328 1273.07 331.328C1341.25 331.328 1389.94 285.875 1418.47 231.195V290.482C1376.04 330.232 1321.3 350.416 1261.47 350.416C1150.62 350.416 1067.6 282.574 1067.6 174.323C1067.6 69.1758 1147.39 0 1256.14 0C1316.43 0 1374.88 19.7625 1418.47 59.0628V130.205Z" fill="#010101"/>
<path fill-rule="evenodd" clip-rule="evenodd" d="M1951.84 130.205C1939.8 101.439 1925.64 76.1988 1900.84 55.3266C1874.16 32.9375 1841.69 18.8917 1805.74 18.8917C1712.97 18.8917 1665.68 95.7365 1665.68 175.447C1665.68 255.578 1714.83 331.328 1806.44 331.328C1874.62 331.328 1923.56 285.875 1951.84 231.195V290.482C1909.41 330.232 1854.91 350.416 1794.85 350.416C1684 350.416 1600.98 282.574 1600.98 174.323C1600.98 69.1758 1680.75 0 1789.51 0C1849.8 0 1908.25 19.7625 1951.84 59.0628V130.205Z" fill="#010101"/>
<path fill-rule="evenodd" clip-rule="evenodd" d="M548.849 14.6006H638.196C626.016 23.2711 621.887 33.0502 621.887 47.4915V249.001C621.887 304.322 688.945 331.456 738.093 331.456C786.329 331.456 849.259 304.108 849.259 250.138V47.4915C849.259 33.9315 845.806 24.6072 836.402 14.6006H885.094C875.206 24.3798 871.533 34.1589 871.533 47.4915V250.138C871.533 323.013 782.656 351 721.108 351C657.708 351 565.158 323.894 565.158 249.001V47.4915C565.158 33.7183 559.413 23.4843 548.849 14.6006" fill="#010101"/>
<path fill-rule="evenodd" clip-rule="evenodd" d="M350.06 128.917C336.536 101.123 321.633 73.7629 296.638 53.838C270.045 32.3868 236.338 19.4769 201.487 19.4769C108.858 19.4769 67.3619 99.3727 67.3619 177.924C67.3619 253.9 107.024 330.729 196.441 330.729C232.906 330.729 268.446 315.621 290.903 288.247V226.96C290.903 210.339 285.183 199.614 271.644 189.77H366.341C356.249 200.706 350.06 211.865 350.06 226.96V288.247C306.73 326.78 252.854 350.416 192.994 350.416C87.2958 350.416 0.856934 276.219 0.856934 172.912C0.856934 70.2624 86.1517 0 190.486 0C255.363 0 307.874 22.7534 350.06 68.5122V128.917Z" fill="#010101"/>
</svg>
