<?xml version="1.0" encoding="UTF-8"?>
<svg width="37px" height="9px" viewBox="0 0 37 9" version="1.1" xmlns="http://www.w3.org/2000/svg" xmlns:xlink="http://www.w3.org/1999/xlink">
    <!-- Generator: Sketch 57.1 (83088) - https://sketch.com -->
    <title>linkedin</title>
    <desc>Created with Sketch.</desc>
    <g id="Page-1" stroke="none" stroke-width="1" fill="none" fill-rule="evenodd">
        <g id="A" transform="translate(-25.000000, -428.000000)" fill="#323232" fill-rule="nonzero">
            <path d="M26.36,428.44 C26.7742136,428.44 27.11,428.775786 27.11,429.19 L27.11,435.25 C27.11,435.664214 26.7742136,436 26.36,436 C25.9457864,436 25.61,435.664214 25.61,435.25 L25.61,429.19 C25.61,428.775786 25.9457864,428.44 26.36,428.44 Z M28.96,431.14 C29.3742136,431.14 29.71,431.475786 29.71,431.89 L29.71,435.25 C29.71,435.664214 29.3742136,436 28.96,436 C28.5457864,436 28.21,435.664214 28.21,435.25 L28.21,431.89 C28.21,431.475786 28.5457864,431.14 28.96,431.14 Z M28.09,429.61 C28.09,429.369999 28.1749991,429.165001 28.345,428.995 C28.5150008,428.824999 28.7199988,428.74 28.96,428.74 C29.2000012,428.74 29.4049991,428.824999 29.575,428.995 C29.7450008,429.165001 29.83,429.369999 29.83,429.61 C29.83,429.850001 29.7450008,430.054999 29.575,430.225 C29.4049991,430.395001 29.2000012,430.48 28.96,430.48 C28.7199988,430.48 28.5150008,430.395001 28.345,430.225 C28.1749991,430.054999 28.09,429.850001 28.09,429.61 Z M31.51,431.14 L31.57,431.14 C31.9345079,431.14 32.23,431.435492 32.23,431.8 L32.23,431.8 L32.23,431.8 L32.25,431.8 C32.2966669,431.706666 32.3633329,431.613334 32.45,431.52 C32.5366671,431.426666 32.6399994,431.343334 32.76,431.27 C32.8800006,431.196666 33.0166659,431.136667 33.17,431.09 C33.3233341,431.043333 33.4899991,431.02 33.67,431.02 C34.0500019,431.02 34.3566655,431.078333 34.59,431.195 C34.8233345,431.311667 35.0049993,431.473332 35.135,431.68 C35.2650006,431.886668 35.3533331,432.129999 35.4,432.41 C35.4466669,432.690001 35.47,432.993332 35.47,433.32 L35.47,435.25 C35.47,435.664214 35.1342136,436 34.72,436 C34.3057864,436 33.97,435.664214 33.97,435.25 L33.97,433.62 L33.97,433.62 C33.97,433.479999 33.9650001,433.335001 33.955,433.185 C33.9449999,433.034999 33.9150002,432.896667 33.865,432.77 C33.8149997,432.643333 33.7383338,432.54 33.635,432.46 C33.5316661,432.38 33.3833343,432.34 33.19,432.34 C32.9966657,432.34 32.8400006,432.375 32.72,432.445 C32.5999994,432.515 32.5083336,432.608333 32.445,432.725 C32.3816663,432.841667 32.3400001,432.973333 32.32,433.12 C32.2999999,433.266667 32.29,433.419999 32.29,433.58 L32.29,435.25 C32.29,435.664214 31.9542136,436 31.54,436 C31.1257864,436 30.79,435.664214 30.79,435.25 L30.79,431.86 C30.79,431.462355 31.112355,431.14 31.51,431.14 Z M37.28,428.44 C37.6942136,428.44 38.03,428.775786 38.03,429.19 L38.03,433.06 L38.03,433.06 L39.5993554,431.27125 C39.8094574,431.031776 40.167947,430.993086 40.4243063,431.182218 C40.6762836,431.368116 40.7335252,431.721295 40.5531638,431.977265 L39.6,433.33 L39.6,433.33 L40.5161215,434.747485 C40.7175428,435.059137 40.6348299,435.474442 40.3293755,435.685144 C40.0273295,435.893495 39.6135707,435.817541 39.4052195,435.515495 C39.4048964,435.515026 39.4045739,435.514557 39.404252,435.514088 L38.05,433.54 L38.05,433.54 L38.03,433.54 L38.03,435.25 C38.03,435.664214 37.6942136,436 37.28,436 C36.8657864,436 36.53,435.664214 36.53,435.25 L36.53,429.19 C36.53,428.775786 36.8657864,428.44 37.28,428.44 Z M46.0638802,435.703574 C45.9673974,435.772356 45.8727707,435.827832 45.78,435.87 C45.4133315,436.036668 45.0333353,436.12 44.64,436.12 C44.2666648,436.12 43.9150017,436.060001 43.585,435.94 C43.2549984,435.819999 42.9683345,435.648334 42.725,435.425 C42.4816654,435.201666 42.2900007,434.933335 42.15,434.62 C42.0099993,434.306665 41.94,433.956669 41.94,433.57 C41.94,433.183331 42.0099993,432.833335 42.15,432.52 C42.2900007,432.206665 42.4816654,431.938334 42.725,431.715 C42.9683345,431.491666 43.2549984,431.320001 43.585,431.2 C43.9150017,431.079999 44.2666648,431.02 44.64,431.02 C44.9866684,431.02 45.3016652,431.079999 45.585,431.2 C45.8683347,431.320001 46.1083323,431.491666 46.305,431.715 C46.5016677,431.938334 46.6533328,432.206665 46.76,432.52 C46.8666672,432.833335 46.92,433.183331 46.92,433.57 C46.92,433.829574 46.7095738,434.04 46.45,434.04 L43.44,434.04 L43.44,434.04 C43.5000003,434.326668 43.629999,434.554999 43.83,434.725 C44.030001,434.895001 44.2766652,434.98 44.57,434.98 C44.8166679,434.98 45.0249991,434.925001 45.195,434.815 C45.2306805,434.791913 45.2744554,434.761771 45.3263247,434.724575 C45.5892796,434.536029 45.9523438,434.577497 46.1659983,434.820493 C46.3843965,435.068884 46.3600826,435.447291 46.1116916,435.665689 C46.0964109,435.679125 46.0804555,435.691773 46.0638802,435.703574 Z M45.42,433.02 C45.4266667,432.766665 45.3433342,432.550001 45.17,432.37 C44.9966658,432.189999 44.7733347,432.1 44.5,432.1 C44.3333325,432.1 44.1866673,432.126666 44.06,432.18 C43.9333327,432.233334 43.8250004,432.301666 43.735,432.385 C43.6449995,432.468334 43.5750003,432.564999 43.525,432.675 C43.4749997,432.785001 43.4466667,432.899999 43.44,433.02 L45.42,433.02 Z M52.24,436 L52.19,436 C51.8365378,436 51.55,435.713462 51.55,435.36 L51.55,435.36 L51.55,435.36 L51.53,435.36 C51.4699997,435.446667 51.3916671,435.535 51.295,435.625 C51.1983328,435.715 51.0850006,435.796666 50.955,435.87 C50.8249993,435.943334 50.6816674,436.003333 50.525,436.05 C50.3683325,436.096667 50.2066675,436.12 50.04,436.12 C49.6799982,436.12 49.3533348,436.058334 49.06,435.935 C48.7666652,435.811666 48.515001,435.638334 48.305,435.415 C48.0949989,435.191666 47.9333339,434.926668 47.82,434.62 C47.7066661,434.313332 47.65,433.976669 47.65,433.61 C47.65,433.269998 47.7016661,432.945002 47.805,432.635 C47.9083338,432.324998 48.054999,432.050001 48.245,431.81 C48.435001,431.569999 48.6666653,431.378334 48.94,431.235 C49.2133347,431.091666 49.5233316,431.02 49.87,431.02 C50.1833349,431.02 50.4749986,431.068333 50.745,431.165 C51.0150013,431.261667 51.2366658,431.426666 51.41,431.66 L51.43,431.66 L51.43,429.19 C51.43,428.775786 51.7657864,428.44 52.18,428.44 C52.5942136,428.44 52.93,428.775786 52.93,429.19 L52.93,435.31 C52.93,435.691076 52.6210765,436 52.24,436 Z M51.55,433.57 C51.55,433.203331 51.4450011,432.906668 51.235,432.68 C51.0249989,432.453332 50.7300019,432.34 50.35,432.34 C49.9699981,432.34 49.675001,432.453332 49.465,432.68 C49.254999,432.906668 49.15,433.203331 49.15,433.57 C49.15,433.936668 49.254999,434.233332 49.465,434.46 C49.675001,434.686668 49.9699981,434.8 50.35,434.8 C50.7300019,434.8 51.0249989,434.686668 51.235,434.46 C51.4450011,434.233332 51.55,433.936668 51.55,433.57 Z M54.9,431.14 C55.3142136,431.14 55.65,431.475786 55.65,431.89 L55.65,435.25 C55.65,435.664214 55.3142136,436 54.9,436 C54.4857864,436 54.15,435.664214 54.15,435.25 L54.15,431.89 C54.15,431.475786 54.4857864,431.14 54.9,431.14 Z M54.03,429.61 C54.03,429.369999 54.1149991,429.165001 54.285,428.995 C54.4550008,428.824999 54.6599988,428.74 54.9,428.74 C55.1400012,428.74 55.3449991,428.824999 55.515,428.995 C55.6850008,429.165001 55.77,429.369999 55.77,429.61 C55.77,429.850001 55.6850008,430.054999 55.515,430.225 C55.3449991,430.395001 55.1400012,430.48 54.9,430.48 C54.6599988,430.48 54.4550008,430.395001 54.285,430.225 C54.1149991,430.054999 54.03,429.850001 54.03,429.61 Z M57.45,431.14 L57.51,431.14 C57.8745079,431.14 58.17,431.435492 58.17,431.8 L58.17,431.8 L58.17,431.8 L58.19,431.8 C58.2366669,431.706666 58.3033329,431.613334 58.39,431.52 C58.4766671,431.426666 58.5799994,431.343334 58.7,431.27 C58.8200006,431.196666 58.9566659,431.136667 59.11,431.09 C59.2633341,431.043333 59.4299991,431.02 59.61,431.02 C59.9900019,431.02 60.2966655,431.078333 60.53,431.195 C60.7633345,431.311667 60.9449993,431.473332 61.075,431.68 C61.2050006,431.886668 61.2933331,432.129999 61.34,432.41 C61.3866669,432.690001 61.41,432.993332 61.41,433.32 L61.41,435.25 C61.41,435.664214 61.0742136,436 60.66,436 C60.2457864,436 59.91,435.664214 59.91,435.25 L59.91,433.62 L59.91,433.62 C59.91,433.479999 59.905,433.335001 59.895,433.185 C59.8849999,433.034999 59.8550002,432.896667 59.805,432.77 C59.7549997,432.643333 59.6783339,432.54 59.575,432.46 C59.4716661,432.38 59.3233343,432.34 59.13,432.34 C58.9366657,432.34 58.7800006,432.375 58.66,432.445 C58.5399994,432.515 58.4483336,432.608333 58.385,432.725 C58.3216663,432.841667 58.2800001,432.973333 58.26,433.12 C58.2399999,433.266667 58.23,433.419999 58.23,433.58 L58.23,435.25 C58.23,435.664214 57.8942136,436 57.48,436 C57.0657864,436 56.73,435.664214 56.73,435.25 L56.73,431.86 C56.73,431.462355 57.052355,431.14 57.45,431.14 Z" id="linkedin"></path>
        </g>
    </g>
</svg>