<?xml version="1.0" encoding="UTF-8"?>
<svg width="35px" height="6px" viewBox="0 0 35 6" version="1.1" xmlns="http://www.w3.org/2000/svg" xmlns:xlink="http://www.w3.org/1999/xlink">
    <!-- Generator: Sketch 57.1 (83088) - https://sketch.com -->
    <title>resume</title>
    <desc>Created with Sketch.</desc>
    <g id="Page-1" stroke="none" stroke-width="1" fill="none" fill-rule="evenodd">
        <path d="M1.28,0.14 C1.69421356,0.14 2.03,0.475786438 2.03,0.89 L2.03,0.92 L2.03,0.92 L2.05,0.92 C2.2100008,0.6199985 2.3999989,0.39500075 2.62,0.245 C2.8400011,0.09499925 3.116665,0.02 3.45,0.02 C3.45,0.02 3.45,0.02 3.45,0.02 C3.72613658,0.02 3.94998952,0.243852931 3.95,0.519989516 L3.95,0.706399472 C3.95,0.99086434 3.75686418,1.23901713 3.48110831,1.30886671 C3.39916259,1.32962224 3.34212648,1.34 3.31,1.34 C3.0233319,1.34 2.7966675,1.3799996 2.63,1.46 C2.4633325,1.5400004 2.33500045,1.65166595 2.245,1.795 C2.15499955,1.93833405 2.0966668,2.109999 2.07,2.31 C2.0433332,2.510001 2.03,2.7299988 2.03,2.97 L2.03,4.25 C2.03,4.66421356 1.69421356,5 1.28,5 C0.865786438,5 0.53,4.66421356 0.53,4.25 L0.53,0.89 C0.53,0.475786438 0.865786438,0.14 1.28,0.14 Z M8.42840768,4.67952086 C8.31783775,4.76027884 8.21170185,4.82377189 8.11,4.87 C7.7433315,5.0366675 7.3633353,5.12 6.97,5.12 C6.5966648,5.12 6.24500165,5.0600006 5.915,4.94 C5.58499835,4.8199994 5.29833455,4.64833445 5.055,4.425 C4.81166545,4.20166555 4.6200007,3.9333349 4.48,3.62 C4.3399993,3.3066651 4.27,2.9566686 4.27,2.57 C4.27,2.1833314 4.3399993,1.8333349 4.48,1.52 C4.6200007,1.2066651 4.81166545,0.93833445 5.055,0.715 C5.29833455,0.49166555 5.58499835,0.3200006 5.915,0.2 C6.24500165,0.0799994 6.5966648,0.02 6.97,0.02 C7.3166684,0.02 7.63166525,0.0799994 7.915,0.2 C8.19833475,0.3200006 8.43833235,0.49166555 8.635,0.715 C8.83166765,0.93833445 8.9833328,1.2066651 9.09,1.52 C9.1966672,1.8333349 9.25,2.1833314 9.25,2.57 C9.25,2.82957383 9.03957383,3.04 8.78,3.04 L5.77,3.04 L5.77,3.04 C5.8300003,3.3266681 5.959999,3.55499915 6.16,3.725 C6.360001,3.89500085 6.6066652,3.98 6.9,3.98 C7.1466679,3.98 7.35499915,3.92500055 7.525,3.815 C7.56169684,3.79125499 7.60695577,3.75920192 7.66077678,3.7188408 C7.9234764,3.5218104 8.2926986,3.55575096 8.5150921,3.79735642 C8.73731085,4.03877204 8.72174872,4.41462196 8.4803331,4.63684072 C8.46383587,4.65202612 8.44649221,4.66626543 8.42840768,4.67952086 Z M7.75,2.02 C7.7566667,1.7666654 7.6733342,1.5500009 7.5,1.37 C7.3266658,1.1899991 7.1033347,1.1 6.83,1.1 C6.6633325,1.1 6.5166673,1.1266664 6.39,1.18 C6.2633327,1.2333336 6.15500045,1.30166625 6.065,1.385 C5.97499955,1.46833375 5.90500025,1.56499945 5.855,1.675 C5.80499975,1.78500055 5.7766667,1.8999994 5.77,2.02 L7.75,2.02 Z M12.6841077,1.32979881 C12.4110716,1.2165996 12.196369,1.16 12.04,1.16 C11.9133327,1.16 11.7900006,1.1899997 11.67,1.25 C11.5499994,1.3100003 11.49,1.4133326 11.49,1.56 C11.49,1.6800006 11.5516661,1.76833305 11.675,1.825 C11.798334,1.88166695 11.954999,1.93166645 12.145,1.975 C12.3350009,2.01833355 12.5383323,2.06499975 12.755,2.115 C12.9716678,2.16500025 13.1749991,2.2433328 13.365,2.35 C13.5550009,2.4566672 13.7116661,2.60166575 13.835,2.785 C13.9583339,2.96833425 14.02,3.2133318 14.02,3.52 C14.02,3.8333349 13.9516674,4.09166565 13.815,4.295 C13.6783326,4.49833435 13.5033344,4.66166605 13.29,4.785 C13.0766656,4.90833395 12.836668,4.99499975 12.57,5.045 C12.303332,5.09500025 12.0400013,5.12 11.78,5.12 C11.4399983,5.12 11.0966684,5.07166715 10.75,4.975 C10.6869955,4.95743143 10.6223395,4.9332447 10.5560321,4.90243979 C10.2399742,4.7555885 10.1027875,4.38033283 10.2496241,4.06426801 C10.2570589,4.0482646 10.2651617,4.03258009 10.2739112,4.01725584 C10.4362148,3.73298938 10.7908873,3.62289612 11.0856346,3.76528258 C11.152633,3.79765065 11.2057548,3.82422312 11.245,3.845 C11.4150009,3.93500045 11.6133322,3.98 11.84,3.98 C12.0133342,3.98 12.1699993,3.95500025 12.31,3.905 C12.4500007,3.85499975 12.52,3.763334 12.52,3.63 C12.52,3.5033327 12.4583339,3.40833365 12.335,3.345 C12.2116661,3.28166635 12.0550009,3.22833355 11.865,3.185 C11.6749991,3.14166645 11.4716678,3.09500025 11.255,3.045 C11.0383323,2.99499975 10.8350009,2.9200005 10.645,2.82 C10.454999,2.7199995 10.298334,2.57833425 10.175,2.395 C10.0516661,2.21166575 9.99,1.9666682 9.99,1.66 C9.99,1.3733319 10.0483328,1.1266677 10.165,0.92 C10.2816672,0.7133323 10.434999,0.543334 10.625,0.41 C10.815001,0.276666 11.0333321,0.17833365 11.28,0.115 C11.5266679,0.05166635 11.7766654,0.02 12.03,0.02 C12.3500016,0.02 12.6733317,0.0666662 13,0.16 C13,0.16 13,0.16 13,0.16 C13.3345251,0.255578603 13.5282295,0.604246551 13.4326509,0.93877166 C13.4253805,0.964218101 13.4165138,0.9891811 13.4060818,1.01350301 L13.3945521,1.04045046 C13.276986,1.31522755 12.9602017,1.44423803 12.6841077,1.32979881 Z M18.75,5 L18.69,5 C18.3254921,5 18.03,4.70450793 18.03,4.34 L18.03,4.34 L18.03,4.34 L18.01,4.34 C17.9566664,4.4333338 17.8883338,4.5266662 17.805,4.62 C17.7216662,4.7133338 17.6200006,4.7966663 17.5,4.87 C17.3799994,4.9433337 17.2433341,5.0033331 17.09,5.05 C16.9366659,5.0966669 16.7700009,5.12 16.59,5.12 C16.2099981,5.12 15.9016679,5.06166725 15.665,4.945 C15.4283322,4.82833275 15.2450006,4.6666677 15.115,4.46 C14.9849994,4.2533323 14.8983336,4.0100014 14.855,3.73 C14.8116664,3.4499986 14.79,3.1466683 14.79,2.82 L14.79,0.89 C14.79,0.475786438 15.1257864,0.14 15.54,0.14 C15.9542136,0.14 16.29,0.475786438 16.29,0.89 L16.29,2.52 L16.29,2.52 C16.29,2.6600007 16.295,2.80499925 16.305,2.955 C16.315,3.10500075 16.3449998,3.2433327 16.395,3.37 C16.4450002,3.4966673 16.5216661,3.5999996 16.625,3.68 C16.7283339,3.7600004 16.8766657,3.8 17.07,3.8 C17.2633343,3.8 17.4199994,3.76500035 17.54,3.695 C17.6600006,3.62499965 17.7516664,3.53166725 17.815,3.415 C17.8783337,3.29833275 17.9199999,3.1666674 17.94,3.02 C17.9600001,2.8733326 17.97,2.7200008 17.97,2.56 L17.97,0.89 C17.97,0.475786438 18.3057864,0.14 18.72,0.14 C19.1342136,0.14 19.47,0.475786438 19.47,0.89 L19.47,4.28 C19.47,4.67764502 19.147645,5 18.75,5 Z M21.25,0.14 L21.31,0.14 C21.6745079,0.14 21.97,0.435492065 21.97,0.8 L21.97,0.8 L21.97,0.8 L21.99,0.8 C22.0366669,0.7066662 22.1033329,0.6133338 22.19,0.52 C22.2766671,0.4266662 22.3799994,0.3433337 22.5,0.27 C22.6200006,0.1966663 22.7566659,0.1366669 22.91,0.09 C23.0633341,0.0433331 23.2299991,0.02 23.41,0.02 C23.7500017,0.02 24.0516653,0.0899993 24.315,0.23 C24.5783347,0.3700007 24.776666,0.5899985 24.91,0.89 C25.0833342,0.5766651 25.2933321,0.353334 25.54,0.22 C25.7866679,0.086666 26.0899982,0.02 26.45,0.02 C26.7766683,0.02 27.0516656,0.07499945 27.275,0.185 C27.4983345,0.29500055 27.6749993,0.44499905 27.805,0.635 C27.9350006,0.82500095 28.0283331,1.04833205 28.085,1.305 C28.1416669,1.56166795 28.17,1.8366652 28.17,2.13 L28.17,4.25 C28.17,4.66421356 27.8342136,5 27.42,5 C27.0057864,5 26.67,4.66421356 26.67,4.25 L26.67,2.17 L26.67,2.17 C26.67,1.9433322 26.6216672,1.74833415 26.525,1.585 C26.4283329,1.42166585 26.2566679,1.34 26.01,1.34 C25.8366658,1.34 25.6916673,1.36833305 25.575,1.425 C25.4583327,1.48166695 25.3650004,1.5599995 25.295,1.66 C25.2249996,1.7600005 25.1750001,1.876666 25.145,2.01 C25.1149999,2.143334 25.1,2.2833326 25.1,2.43 L25.1,4.25 C25.1,4.66421356 24.7642136,5 24.35,5 C23.9357864,5 23.6,4.66421356 23.6,4.25 L23.6,2.43 L23.6,2.43 C23.6,2.3433329 23.5966667,2.2366673 23.59,2.11 C23.5833333,1.9833327 23.5600002,1.8633339 23.52,1.75 C23.4799998,1.6366661 23.4150005,1.5400004 23.325,1.46 C23.2349995,1.3799996 23.1033342,1.34 22.93,1.34 C22.7366657,1.34 22.5800006,1.37499965 22.46,1.445 C22.3399994,1.51500035 22.2483336,1.60833275 22.185,1.725 C22.1216663,1.84166725 22.0800001,1.9733326 22.06,2.12 C22.0399999,2.2666674 22.03,2.4199992 22.03,2.58 L22.03,4.25 C22.03,4.66421356 21.6942136,5 21.28,5 C20.8657864,5 20.53,4.66421356 20.53,4.25 L20.53,0.86 C20.53,0.46235498 20.852355,0.14 21.25,0.14 Z M33.2725926,4.65678651 C33.151992,4.74690103 33.0344612,4.81797219 32.92,4.87 C32.5533315,5.0366675 32.1733353,5.12 31.78,5.12 C31.4066648,5.12 31.0550017,5.0600006 30.725,4.94 C30.3949984,4.8199994 30.1083346,4.64833445 29.865,4.425 C29.6216654,4.20166555 29.4300007,3.9333349 29.29,3.62 C29.1499993,3.3066651 29.08,2.9566686 29.08,2.57 C29.08,2.1833314 29.1499993,1.8333349 29.29,1.52 C29.4300007,1.2066651 29.6216654,0.93833445 29.865,0.715 C30.1083346,0.49166555 30.3949984,0.3200006 30.725,0.2 C31.0550017,0.0799994 31.4066648,0.02 31.78,0.02 C32.1266684,0.02 32.4416652,0.0799994 32.725,0.2 C33.0083347,0.3200006 33.2483324,0.49166555 33.445,0.715 C33.6416676,0.93833445 33.7933328,1.2066651 33.9,1.52 C34.0066672,1.8333349 34.06,2.1833314 34.06,2.57 C34.06,2.82957383 33.8495738,3.04 33.59,3.04 L30.58,3.04 L30.58,3.04 C30.6400003,3.3266681 30.769999,3.55499915 30.97,3.725 C31.170001,3.89500085 31.4166652,3.98 31.71,3.98 C31.9566679,3.98 32.1649991,3.92500055 32.335,3.815 C32.3937882,3.77696056 32.4910484,3.72478576 32.6267805,3.65847561 C32.898149,3.52592994 33.225606,3.6099285 33.3996437,3.85674843 C33.580923,4.11383832 33.5246081,4.46851661 33.2725926,4.65678651 Z M32.56,2.02 C32.5666667,1.7666654 32.4833342,1.5500009 32.31,1.37 C32.1366658,1.1899991 31.9133347,1.1 31.64,1.1 C31.4733325,1.1 31.3266673,1.1266664 31.2,1.18 C31.0733327,1.2333336 30.9650004,1.30166625 30.875,1.385 C30.7849996,1.46833375 30.7150003,1.56499945 30.665,1.675 C30.6149998,1.78500055 30.5866667,1.8999994 30.58,2.02 L32.56,2.02 Z" id="resume" fill="#323232" fill-rule="nonzero"></path>
    </g>
</svg>