<svg version="1" xmlns="http://www.w3.org/2000/svg" width="453.333" height="453.333" viewBox="0 0 340.000000 340.000000"><path d="M135.2 79.7c-1.7 3.2-60.2 139-60.2 139.7 0 .3 7.8.6 17.3.6h17.3l5.8-15 5.9-15h54.4l6 14.7 5.9 14.8 18.1.3 18.1.2-30.8-70.7-30.8-70.8-13-.3c-11.7-.2-13.2-.1-14 1.5zm21.4 62.5l8 20.3-16 .3c-8.7.1-16.1 0-16.4-.2-.6-.7 15-40.6 15.8-40.6.4 0 4.3 9.1 8.6 20.2zM246.8 184.9c-7.3 2.4-12.8 10-12.8 17.7.1 7.4 5 14.9 11.5 17.4 4.1 1.6 11.8 1.4 15.2-.4 6.6-3.4 10.3-9.6 10.3-17.2 0-12.1-12.6-21.2-24.2-17.5zM15.5 254.5c.2 18.4.5 21.9 2.5 28 8.4 26.6 28.2 46.3 55 54.7l7.5 2.3h179l7.5-2.3c26.8-8.4 46.6-28.1 55-54.7 2-6.1 2.3-9.6 2.5-28 .2-11.6.1-19.2-.1-17-3.5 33.8-27.9 61.7-61.4 70.1-7 1.8-12.6 1.9-93 1.9s-86-.1-93-1.9c-33.5-8.4-57.9-36.3-61.4-70.1-.2-2.2-.3 5.4-.1 17z"/></svg>