<?xml version="1.0" standalone="no"?>
<!DOCTYPE svg PUBLIC "-//W3C//DTD SVG 1.1//EN" "http://www.w3.org/Graphics/SVG/1.1/DTD/svg11.dtd" >
<svg xmlns="http://www.w3.org/2000/svg" xmlns:xlink="http://www.w3.org/1999/xlink" version="1.1">
<metadata>
Created by FontForge 20170910 at Thu Apr  5 23:23:42 2012
 By Jimmy Wärting
(c) 2010 Klim Type Foundry. All rights reserved. wf-rip
</metadata>
<defs>
<font id="TiemposHeadline-Bold" horiz-adv-x="500" >
  <font-face 
    font-family="Tiempos Headline"
    font-weight="700"
    font-stretch="normal"
    units-per-em="1000"
    panose-1="2 2 8 3 6 3 3 6 4 3"
    ascent="783"
    descent="-217"
    x-height="539"
    cap-height="702"
    bbox="-106 -245 1326 1047"
    underline-thickness="30"
    underline-position="-100"
    stemh="62"
    stemv="196"
    unicode-range="U+0020-FB04"
  />
<missing-glyph horiz-adv-x="960" 
d="M90 0v780h780v-780h-780zM480 345l-279 -279h558zM201 714l279 -279l279 279h-558zM435 390l-275 275v-550zM525 390l275 -275v550z" />
    <glyph glyph-name="fi" unicode="fi" horiz-adv-x="670" 
d="M598 549v-471c0 -32 16 -36 56 -39v-39h-294v39c40 3 54 7 54 39v407h-151v-407c0 -32 14 -36 54 -39v-39h-294v39c40 3 56 7 56 39v407h-72v40l72 19v13c0 157 119 226 262 226c119 0 181 -36 181 -98c0 -29 -15 -52 -38 -63h-105c2 14 4 29 4 46c0 36 -11 72 -53 72
c-45 0 -67 -39 -67 -116v-85h257l38 10h40z" />
    <glyph glyph-name="fl" unicode="fl" horiz-adv-x="670" 
d="M598 783v-705c0 -32 16 -36 56 -39v-39h-294v39c40 3 54 7 54 39v591c-15 38 -40 71 -85 71s-66 -32 -66 -102v-99h92v-54h-92v-407c0 -32 14 -36 54 -39v-39h-294v39c40 3 56 7 56 39v407h-72v40l72 19v19c0 152 97 220 233 220c58 0 101 -13 133 -29l122 29h31z" />
    <glyph glyph-name="ff" unicode="ff" horiz-adv-x="713" 
d="M79 544v10c0 154 109 216 237 216c64 0 115 -16 156 -49c43 42 106 62 176 62c107 0 155 -36 155 -97c0 -28 -15 -52 -37 -63h-94c3 14 5 29 5 47c0 35 -5 69 -36 69c-30 0 -43 -25 -43 -70v-130h117v-54h-117v-392c0 -43 22 -47 80 -54v-39h-318v39c40 3 54 7 54 39v407
h-151v-407c0 -32 14 -36 54 -39v-39h-294v39c40 3 56 7 56 39v407h-72v40zM414 563c0 32 5 61 14 86c-16 44 -46 78 -95 78s-70 -35 -70 -106v-82h151v24z" />
    <glyph glyph-name="ffi" unicode="ffi" horiz-adv-x="1005" 
d="M79 544v10c0 154 109 216 237 216c66 0 120 -17 161 -53c49 45 120 66 199 66c119 0 181 -36 181 -98c0 -29 -15 -52 -38 -63h-106c3 14 5 29 5 46c0 36 -11 72 -53 72c-45 0 -67 -39 -67 -116v-85h257l38 10h40v-471c0 -32 16 -36 56 -39v-39h-294v39c40 3 54 7 54 39
v407h-151v-407c0 -32 16 -36 56 -39v-39h-294v39c40 3 54 7 54 39v407h-151v-407c0 -32 14 -36 54 -39v-39h-294v39c40 3 56 7 56 39v407h-72v40zM414 557c0 33 5 62 15 88c-15 46 -45 82 -96 82c-49 0 -70 -35 -70 -106v-82h151v18z" />
    <glyph glyph-name="ffl" unicode="ffl" horiz-adv-x="1005" 
d="M316 770c63 0 114 -16 155 -48c41 41 103 61 176 61c58 0 101 -13 133 -29l122 29h31v-705c0 -32 16 -36 56 -39v-39h-294v39c40 3 54 7 54 39v591c-15 38 -40 71 -85 71s-66 -32 -66 -102v-99h92v-54h-92v-407c0 -32 14 -36 54 -39v-39h-292v39c40 3 54 7 54 39v407
h-151v-407c0 -32 14 -36 54 -39v-39h-294v39c40 3 56 7 56 39v407h-72v40l72 19v10c0 154 109 216 237 216zM414 539v24c0 33 5 62 13 88c-15 43 -45 76 -94 76s-70 -35 -70 -106v-82h151z" />
    <glyph glyph-name="f_b" unicode="fb" horiz-adv-x="989" 
d="M414 59v610c-15 38 -40 71 -85 71s-66 -32 -66 -102v-99h92v-54h-92v-407c0 -32 14 -36 54 -39v-39h-294v39c40 3 56 7 56 39v407h-72v40l72 19v19c0 152 97 220 233 220c58 0 101 -13 133 -29l122 29h31v-331c29 45 83 97 168 97c118 0 202 -82 202 -246
c0 -205 -131 -313 -298 -313c-92 0 -192 18 -256 69zM669 37c73 0 111 92 111 210c0 132 -47 193 -122 193c-22 0 -42 -5 -60 -17v-282c0 -64 18 -104 71 -104z" />
    <glyph glyph-name="f_f_b" unicode="ffb" horiz-adv-x="1324" 
d="M749 59v610c-15 38 -40 71 -85 71s-66 -32 -66 -102v-99h92v-54h-92v-407c0 -32 14 -36 54 -39v-39h-292v39c40 3 54 7 54 39v407h-151v-407c0 -32 14 -36 54 -39v-39h-294v39c40 3 56 7 56 39v407h-72v40l72 19v10c0 154 109 216 237 216c63 0 114 -16 155 -48
c41 41 103 61 176 61c58 0 101 -13 133 -29l122 29h31v-331c29 45 83 97 168 97c118 0 202 -82 202 -246c0 -205 -131 -313 -298 -313c-92 0 -192 18 -256 69zM1004 37c73 0 111 92 111 210c0 132 -47 193 -122 193c-22 0 -42 -5 -60 -17v-282c0 -64 18 -104 71 -104z
M414 563c0 33 5 62 13 88c-15 43 -45 76 -94 76s-70 -35 -70 -106v-82h151v24z" />
    <glyph glyph-name="f_h" unicode="fh" horiz-adv-x="1000" 
d="M414 78v591c-15 38 -40 71 -85 71s-66 -32 -66 -102v-99h84v-54h-84v-407c0 -32 14 -36 54 -39v-39h-294v39c40 3 56 7 56 39v407h-72v40l72 19v19c0 152 97 220 233 220c58 0 101 -13 133 -29l122 29h31v-334c38 48 95 100 186 100c96 0 152 -55 152 -164v-307
c0 -32 16 -36 56 -39v-39h-295v39c40 3 54 7 54 39v292c0 44 -15 70 -67 70c-32 0 -60 -9 -86 -22v-340c0 -32 14 -36 54 -39v-39h-294v39c40 3 56 7 56 39z" />
    <glyph glyph-name="f_f_h" unicode="ffh" horiz-adv-x="1335" 
d="M749 78v591c-15 38 -40 71 -85 71s-66 -32 -66 -102v-99h92v-54h-92v-407c0 -32 14 -36 54 -39v-39h-292v39c40 3 54 7 54 39v407h-151v-407c0 -32 14 -36 54 -39v-39h-294v39c40 3 56 7 56 39v407h-72v40l72 19v10c0 154 109 216 237 216c63 0 114 -16 155 -48
c41 41 103 61 176 61c58 0 101 -13 133 -29l122 29h31v-334c38 48 95 100 186 100c96 0 152 -55 152 -164v-307c0 -32 16 -36 55 -39v-39h-294v39c40 3 54 7 54 39v292c0 44 -15 70 -67 70c-32 0 -60 -9 -86 -22v-340c0 -32 14 -36 54 -39v-39h-294v39c40 3 56 7 56 39z
M414 563c0 33 5 62 13 88c-15 43 -45 76 -94 76s-70 -35 -70 -106v-82h151v24z" />
    <glyph glyph-name="f_idieresis" unicode="f&#xef;" horiz-adv-x="670" 
d="M598 549v-471c0 -32 16 -36 56 -39v-39h-294v39c40 3 54 7 54 39v407h-151v-407c0 -32 14 -36 54 -39v-39h-294v39c40 3 56 7 56 39v407h-72v40l72 19v13c0 156 117 226 257 226c108 0 161 -40 161 -103c0 -28 -16 -54 -38 -65h-104c3 14 5 30 5 49c0 41 -7 76 -40 76
c-37 0 -57 -40 -57 -116v-85h257l38 10h40zM525 687c0 46 39 83 83 83c48 0 86 -37 86 -83c0 -45 -38 -83 -86 -83c-44 0 -83 38 -83 83z" />
    <glyph glyph-name="f_f_idieresis" unicode="ff&#xef;" horiz-adv-x="1005" 
d="M316 770c66 0 119 -18 160 -53c48 45 118 66 195 66c108 0 161 -40 161 -103c0 -28 -16 -54 -38 -65h-104c3 14 5 30 5 49c0 41 -7 76 -40 76c-37 0 -57 -40 -57 -116v-85h257l38 10h40v-471c0 -32 16 -36 56 -39v-39h-294v39c40 3 54 7 54 39v407h-151v-407
c0 -32 16 -36 56 -39v-39h-294v39c40 3 54 7 54 39v407h-151v-407c0 -32 14 -36 54 -39v-39h-294v39c40 3 56 7 56 39v407h-72v40l72 19v10c0 154 109 216 237 216zM414 539v18c0 33 5 63 15 88c-15 46 -46 82 -96 82c-49 0 -70 -35 -70 -106v-82h151zM860 687
c0 46 39 83 83 83c48 0 86 -37 86 -83c0 -45 -38 -83 -86 -83c-44 0 -83 38 -83 83z" />
    <glyph glyph-name="f_j" unicode="fj" horiz-adv-x="653" 
d="M414 485h-151v-407c0 -32 14 -36 54 -39v-39h-294v39c40 3 56 7 56 39v407h-72v40l72 19v13c0 157 119 226 262 226c119 0 181 -36 181 -98c0 -29 -15 -52 -38 -63h-105c2 14 4 29 4 46c0 36 -11 72 -53 72c-45 0 -67 -39 -67 -116v-85h257l38 10h40v-443
c0 -113 -24 -161 -70 -207c-55 -54 -102 -80 -172 -112l-16 20l41 64c32 52 33 114 33 192v422z" />
    <glyph glyph-name="f_f_j" unicode="ffj" horiz-adv-x="988" 
d="M749 485h-151v-407c0 -32 16 -36 56 -39v-39h-294v39c40 3 54 7 54 39v407h-151v-407c0 -32 14 -36 54 -39v-39h-294v39c40 3 56 7 56 39v407h-72v40l72 19v10c0 154 109 216 237 216c66 0 120 -17 161 -53c49 45 120 66 199 66c119 0 181 -36 181 -98
c0 -29 -15 -52 -38 -63h-106c3 14 5 29 5 46c0 36 -11 72 -53 72c-45 0 -67 -39 -67 -116v-85h257l38 10h40v-443c0 -113 -24 -161 -70 -207c-55 -54 -102 -80 -172 -112l-16 20l41 64c32 52 33 114 33 192v422zM414 557c0 33 5 62 15 88c-15 46 -45 82 -96 82
c-49 0 -70 -35 -70 -106v-82h151v18z" />
    <glyph glyph-name="f_k" unicode="fk" horiz-adv-x="977" 
d="M605 283l154 139c25 23 32 35 32 48c0 19 -14 25 -60 30v39h226v-39c-34 -5 -57 -11 -83 -37l-114 -108l217 -328v-27h-191zM414 78v591c-15 38 -40 71 -85 71s-66 -32 -66 -102v-99h92v-54h-92v-407c0 -32 14 -36 54 -39v-39h-294v39c40 3 56 7 56 39v407h-72v40l72 19
v19c0 152 97 220 233 220c58 0 101 -13 133 -29l122 29h31v-705c0 -32 16 -36 56 -39v-39h-296v39c40 3 56 7 56 39z" />
    <glyph glyph-name="f_f_k" unicode="ffk" horiz-adv-x="1312" 
d="M749 78v591c-15 38 -40 71 -85 71s-66 -32 -66 -102v-99h92v-54h-92v-407c0 -32 14 -36 54 -39v-39h-292v39c40 3 54 7 54 39v407h-151v-407c0 -32 14 -36 54 -39v-39h-294v39c40 3 56 7 56 39v407h-72v40l72 19v10c0 154 109 216 237 216c63 0 114 -16 155 -48
c41 41 103 61 176 61c58 0 101 -13 133 -29l122 29h31v-705c0 -32 16 -36 56 -39v-39h-296v39c40 3 56 7 56 39zM940 283l154 139c25 23 32 35 32 48c0 19 -14 25 -60 30v39h226v-39c-34 -5 -57 -11 -83 -37l-114 -108l217 -328v-27h-191zM414 563c0 33 5 62 13 88
c-15 43 -45 76 -94 76s-70 -35 -70 -106v-82h151v24z" />
    <glyph glyph-name=".notdef" horiz-adv-x="960" 
d="M90 0v780h780v-780h-780zM480 345l-279 -279h558zM201 714l279 -279l279 279h-558zM435 390l-275 275v-550zM525 390l275 -275v550z" />
    <glyph glyph-name="space" unicode=" " horiz-adv-x="173" 
 />
    <glyph glyph-name="exclam" unicode="!" horiz-adv-x="293" 
d="M51 87c0 55 43 99 95 99c53 0 96 -44 96 -99c0 -53 -43 -97 -96 -97c-52 0 -95 44 -95 97zM175 234h-58l-81 468h220z" />
    <glyph glyph-name="quotedbl" unicode="&#x22;" horiz-adv-x="363" 
d="M101 455h-15l-45 144c-9 30 -20 71 -20 94c0 39 22 76 72 76c51 0 73 -37 73 -76c0 -23 -11 -64 -21 -94zM277 455h-14l-45 144c-9 30 -21 71 -21 94c0 39 23 76 73 76s73 -37 73 -76c0 -23 -12 -64 -21 -94z" />
    <glyph glyph-name="numbersign" unicode="#" horiz-adv-x="527" 
d="M469 230h-122l-75 -240l-51 17l70 223h-132l-76 -240l-51 17l70 223h-78v47h93l49 153h-108v47h123l74 236l52 -17l-70 -219h133l74 236l51 -17l-69 -219h77v-47h-92l-49 -153h107v-47zM222 430l-48 -153h132l49 153h-133z" />
    <glyph glyph-name="dollar" unicode="$" horiz-adv-x="576" 
d="M272 -10c-11 0 -21 1 -32 1l-18 -104h-43l19 109c-68 10 -126 33 -161 61l-11 174h54c18 -87 62 -155 128 -181l38 213l-10 3c-132 39 -206 99 -206 220c0 139 107 226 254 226c14 0 28 -1 41 -2l19 103h43l-20 -108c55 -10 100 -29 134 -53v-152h-46
c-16 71 -48 123 -98 148l-36 -203c1 -1 3 -1 4 -1c133 -41 221 -89 221 -229c0 -154 -123 -225 -274 -225zM392 134c0 61 -31 88 -106 115l-37 -210c7 -1 15 -1 23 -1c71 0 120 34 120 96zM179 569c0 -60 30 -86 102 -111l36 204c-11 2 -22 3 -33 3c-61 0 -105 -36 -105 -96
z" />
    <glyph glyph-name="percent" unicode="%" horiz-adv-x="791" 
d="M34 539c0 114 81 173 173 173c91 0 172 -59 172 -173c0 -115 -81 -174 -172 -174c-92 0 -173 59 -173 174zM146 539c0 -77 15 -139 61 -139s61 62 61 139c0 76 -15 138 -61 138s-61 -62 -61 -138zM149 -10l439 722h54l-439 -722h-54zM757 163c0 -114 -81 -173 -173 -173
c-91 0 -173 59 -173 173c0 115 82 174 173 174c92 0 173 -59 173 -174zM645 163c0 77 -15 139 -61 139s-61 -62 -61 -139c0 -76 15 -138 61 -138s61 62 61 138z" />
    <glyph glyph-name="ampersand" unicode="&#x26;" horiz-adv-x="736" 
d="M11 183c0 99 61 155 166 184c-27 34 -63 90 -63 159c0 114 87 186 221 186c125 0 211 -60 211 -156c0 -84 -58 -136 -164 -159l159 -190c11 26 18 54 18 84c0 36 -22 48 -63 48v43h221v-43c-70 0 -94 -14 -107 -72c-8 -34 -21 -67 -39 -97l47 -55c39 -47 60 -73 101 -73
v-42h-213c-21 16 -39 30 -56 46c-55 -35 -122 -56 -192 -56c-138 0 -247 69 -247 193zM335 67c27 0 54 6 79 16c-10 11 -20 22 -30 35l-182 218c-24 -27 -33 -63 -33 -106c0 -93 66 -163 166 -163zM268 590c0 -67 46 -112 81 -153l7 -9c41 31 57 79 57 142
c0 52 -21 100 -76 100c-45 0 -69 -33 -69 -80z" />
    <glyph glyph-name="quoteright" unicode="&#x2019;" horiz-adv-x="280" 
d="M153 574h-41c-42 10 -73 36 -73 87c0 56 43 90 96 90c65 0 106 -50 106 -124c0 -107 -71 -172 -203 -176v40c68 10 108 30 115 83z" />
    <glyph glyph-name="parenleft" unicode="(" horiz-adv-x="371" 
d="M60 314c0 171 87 341 233 456h56c-114 -136 -153 -302 -153 -456s39 -320 153 -456h-56c-146 115 -233 285 -233 456z" />
    <glyph glyph-name="parenright" unicode=")" horiz-adv-x="371" 
d="M311 314c0 -171 -87 -341 -234 -456h-55c113 136 153 302 153 456s-40 320 -153 456h55c147 -115 234 -285 234 -456z" />
    <glyph glyph-name="asterisk" unicode="*" horiz-adv-x="443" 
d="M362 595l-127 -34l127 -33c44 -11 59 -43 42 -73c-17 -28 -53 -32 -84 1l-92 93l35 -126c13 -44 -8 -72 -42 -72c-33 0 -54 28 -41 72l35 126l-92 -93c-32 -33 -68 -29 -84 -1c-17 30 -2 62 42 73l126 33l-126 34c-44 10 -59 42 -42 72c16 28 52 32 84 -1l92 -94l-35 127
c-13 44 8 72 41 72c34 0 55 -28 42 -72l-35 -127l92 94c31 33 67 29 84 1c17 -30 2 -62 -42 -72z" />
    <glyph glyph-name="plus" unicode="+" horiz-adv-x="574" 
d="M253 591h67v-187h188v-69h-188v-187h-67v187h-188v69h188v187z" />
    <glyph glyph-name="comma" unicode="," horiz-adv-x="266" 
d="M149 6h-41c-42 10 -72 36 -72 87c0 55 42 90 96 90c65 0 106 -50 106 -124c0 -108 -72 -175 -205 -179v41c68 10 110 30 116 85z" />
    <glyph glyph-name="hyphen" unicode="-" horiz-adv-x="320" 
d="M290 269h-260v78h260v-78z" />
    <glyph glyph-name="period" unicode="." horiz-adv-x="266" 
d="M30 93c0 61 46 104 103 104c58 0 103 -43 103 -104s-45 -103 -103 -103c-57 0 -103 42 -103 103z" />
    <glyph glyph-name="slash" unicode="/" horiz-adv-x="362" 
d="M353 770l-277 -911h-78l277 911h78z" />
    <glyph glyph-name="zero" unicode="0" horiz-adv-x="670" 
d="M335 32c84 0 103 143 103 319s-19 319 -103 319s-103 -143 -103 -319s19 -319 103 -319zM335 -10c-177 0 -309 131 -309 361s132 361 309 361s309 -131 309 -361s-132 -361 -309 -361z" />
    <glyph glyph-name="one" unicode="1" horiz-adv-x="423" 
d="M409 0h-384v42c92 4 96 12 96 73v421h-96v39l46 8c99 17 151 55 203 128h42v-596c0 -61 10 -68 93 -73v-42z" />
    <glyph glyph-name="two" unicode="2" horiz-adv-x="555" 
d="M179 156h175c66 0 89 5 140 100h31l-23 -256h-497v33l192 191c81 80 119 151 119 236c0 73 -41 124 -119 124c-56 0 -102 -27 -134 -65l-30 21c50 94 123 172 259 172c127 0 208 -71 208 -188c0 -150 -169 -261 -321 -368z" />
    <glyph glyph-name="three" unicode="3" horiz-adv-x="544" 
d="M303 403c133 -4 220 -80 220 -195c0 -145 -134 -218 -275 -218c-160 0 -243 65 -243 143c0 41 23 72 46 83h116c-7 -17 -11 -37 -11 -65c0 -67 32 -121 97 -121c58 0 90 50 90 136c0 98 -56 161 -157 161h-19l-11 29c106 43 141 83 141 144c0 54 -32 90 -95 90
c-58 0 -98 -26 -133 -68l-27 21c46 96 121 169 254 169c107 0 182 -53 182 -146c0 -101 -98 -147 -175 -163z" />
    <glyph glyph-name="four" unicode="4" horiz-adv-x="638" 
d="M83 235h226v320zM309 108v74h-303v34l343 486h150v-467h115v-53h-115v-74c0 -52 9 -64 78 -68v-40h-347v40c69 4 79 16 79 68z" />
    <glyph glyph-name="five" unicode="5" horiz-adv-x="541" 
d="M466 542h-323l-14 -77c250 5 387 -70 387 -245c0 -150 -116 -230 -264 -230c-158 0 -242 59 -242 139c0 39 23 71 52 86h109c-4 -15 -9 -35 -9 -59c0 -73 30 -125 101 -125c62 0 101 42 101 113c0 102 -92 157 -305 157l63 401h275c35 0 42 4 60 42h39z" />
    <glyph glyph-name="six" unicode="6" horiz-adv-x="609" 
d="M494 683c-168 -33 -242 -134 -264 -272c33 24 86 47 153 47c117 0 203 -81 203 -211c0 -162 -118 -257 -271 -257c-179 0 -286 130 -286 318c0 221 162 396 449 404zM274 384c-19 0 -35 -3 -49 -7c-2 -23 -3 -47 -3 -72c0 -153 31 -272 105 -272c58 0 84 67 84 157
c0 107 -43 194 -137 194z" />
    <glyph glyph-name="seven" unicode="7" horiz-adv-x="516" 
d="M404 518h-263c-46 0 -69 -25 -92 -91h-39l45 275h460v-39l-282 -663h-117z" />
    <glyph glyph-name="eight" unicode="8" horiz-adv-x="587" 
d="M527 550c0 -75 -66 -119 -148 -127l25 -11c106 -46 158 -107 158 -204c0 -137 -108 -218 -271 -218s-269 63 -269 173c0 79 68 129 156 140l-16 7c-71 32 -120 98 -120 189c0 132 108 213 250 213c148 0 235 -61 235 -162zM331 233l-127 58c-33 -30 -47 -65 -47 -113
c0 -90 53 -147 136 -147c70 0 120 37 120 104c0 52 -30 75 -82 98zM268 476l81 -40c29 24 53 59 53 116c0 69 -38 119 -111 119c-61 0 -102 -36 -102 -92c0 -52 29 -79 79 -103z" />
    <glyph glyph-name="nine" unicode="9" horiz-adv-x="609" 
d="M115 20c167 32 241 133 264 272c-34 -25 -86 -47 -153 -47c-117 0 -203 81 -203 211c0 162 118 257 271 257c179 0 286 -130 286 -318c0 -221 -162 -396 -449 -404zM335 319c18 0 34 2 48 6c3 24 4 48 4 73c0 153 -31 272 -105 272c-58 0 -84 -67 -84 -157
c0 -107 43 -194 137 -194z" />
    <glyph glyph-name="colon" unicode=":" horiz-adv-x="266" 
d="M30 93c0 61 46 104 103 104c58 0 103 -43 103 -104s-45 -103 -103 -103c-57 0 -103 42 -103 103zM30 402c0 61 46 104 103 104c58 0 103 -43 103 -104s-45 -103 -103 -103c-57 0 -103 42 -103 103z" />
    <glyph glyph-name="semicolon" unicode=";" horiz-adv-x="266" 
d="M149 6h-41c-42 10 -72 36 -72 87c0 55 42 90 96 90c65 0 106 -50 106 -124c0 -108 -72 -175 -205 -179v41c68 10 110 30 116 85zM30 402c0 61 46 104 103 104c58 0 103 -43 103 -104s-45 -103 -103 -103c-57 0 -103 42 -103 103z" />
    <glyph glyph-name="less" unicode="&#x3c;" horiz-adv-x="425" 
d="M43 363v9l317 194v-81l-199 -117l199 -119v-80z" />
    <glyph glyph-name="equal" unicode="=" horiz-adv-x="584" 
d="M70 264v65h444v-65h-444zM70 409v67h444v-67h-444z" />
    <glyph glyph-name="greater" unicode="&#x3e;" horiz-adv-x="425" 
d="M382 372v-9l-317 -194v80l200 119l-200 117v81z" />
    <glyph glyph-name="question" unicode="?" horiz-adv-x="467" 
d="M306 596c0 47 -24 77 -70 77c-57 0 -75 -49 -75 -99c0 -25 3 -42 5 -58h-110c-26 13 -40 36 -40 65c0 80 87 131 218 131c141 0 221 -61 221 -170c0 -86 -50 -139 -138 -191c-56 -34 -79 -58 -79 -107v-13h-25c-47 18 -78 56 -78 109c0 46 25 88 78 127
c51 38 93 71 93 129zM129 87c0 55 43 99 95 99c54 0 96 -44 96 -99c0 -53 -42 -97 -96 -97c-52 0 -95 44 -95 97z" />
    <glyph glyph-name="at" unicode="@" horiz-adv-x="885" 
d="M606 77c-106 0 -128 77 -112 162c-50 -92 -99 -162 -175 -162c-58 0 -103 48 -103 128c0 137 112 289 257 289c46 0 81 -21 96 -41l75 33h41l-34 -92l-55 -200c-12 -41 -7 -80 29 -80c75 0 140 106 140 257c0 148 -103 281 -283 281c-220 0 -358 -182 -358 -401
c0 -220 150 -330 336 -330c111 0 185 24 270 75l14 -20c-72 -64 -176 -104 -304 -104c-217 0 -402 131 -402 377c0 242 187 443 444 443c231 0 365 -148 365 -321c0 -200 -131 -294 -241 -294zM381 165c56 0 122 126 152 262c-9 20 -24 32 -45 32c-79 0 -140 -142 -140 -239
c0 -33 10 -55 33 -55z" />
    <glyph glyph-name="A" unicode="A" horiz-adv-x="759" 
d="M471 125l-36 92h-255l-34 -91c-5 -15 -8 -27 -8 -37c0 -33 28 -44 82 -47v-42h-215v42c27 4 47 10 58 37l208 542l-34 83h209l249 -625c10 -26 30 -33 59 -37v-42h-353v42c50 2 78 12 78 46c0 10 -3 22 -8 37zM304 548l-104 -277h213z" />
    <glyph glyph-name="B" unicode="B" horiz-adv-x="700" 
d="M339 335h-44v-220c0 -54 18 -68 70 -68h8c69 0 117 46 117 146c0 91 -50 142 -151 142zM319 655h-24v-266h25c85 0 129 46 129 136c0 89 -50 130 -130 130zM399 0h-373v42c67 7 73 15 73 67v484c0 52 -6 60 -73 67v42h363c155 0 246 -59 246 -175
c0 -101 -91 -152 -188 -162c133 -4 233 -65 233 -175c0 -129 -97 -190 -281 -190z" />
    <glyph glyph-name="C" unicode="C" horiz-adv-x="683" 
d="M404 712c90 0 166 -21 223 -59l3 -175h-49c-25 119 -78 184 -171 184c-125 0 -177 -133 -177 -302c0 -183 64 -317 187 -317c83 0 147 59 187 211h50l-17 -199c-58 -41 -147 -65 -245 -65c-228 0 -369 131 -369 342c0 235 170 380 378 380z" />
    <glyph glyph-name="D" unicode="D" horiz-adv-x="789" 
d="M321 655h-26v-538c0 -59 23 -70 68 -70h9c113 0 187 115 187 293c0 192 -85 315 -238 315zM378 0h-352v42c67 7 73 15 73 67v484c0 52 -6 60 -73 67v42h329c277 0 407 -148 407 -343c0 -226 -150 -359 -384 -359z" />
    <glyph glyph-name="E" unicode="E" horiz-adv-x="655" 
d="M26 0v42c67 7 73 15 73 67v484c0 52 -6 60 -73 67v42h575l5 -193h-38c-53 112 -79 146 -170 146h-103v-265h97c46 0 58 24 67 92h43v-240h-43c-9 68 -21 93 -67 93h-97v-221c0 -54 26 -67 81 -67h35c89 0 111 39 183 171h45l-32 -218h-581z" />
    <glyph glyph-name="F" unicode="F" horiz-adv-x="614" 
d="M295 327v-215c0 -53 27 -65 116 -70v-42h-385v42c67 7 73 15 73 67v484c0 52 -6 60 -73 67v42h565l5 -200h-35c-55 113 -81 153 -172 153h-94v-273h87c47 0 58 25 67 93h43v-241h-43c-9 68 -20 93 -67 93h-87z" />
    <glyph glyph-name="G" unicode="G" horiz-adv-x="742" 
d="M477 53v170c0 52 -6 60 -73 68v42h328v-42c-66 -8 -72 -16 -72 -68v-166c-69 -44 -165 -67 -272 -67c-237 0 -362 147 -362 343c0 234 171 379 382 379c91 0 168 -21 226 -59l3 -175h-49c-25 119 -79 184 -173 184c-128 0 -182 -133 -182 -302c0 -170 58 -319 182 -319
c25 0 43 2 62 12z" />
    <glyph glyph-name="H" unicode="H" horiz-adv-x="844" 
d="M295 593v-206h254v206c0 52 -6 60 -73 67v42h341v-42c-66 -7 -72 -15 -72 -67v-484c0 -52 6 -60 72 -67v-42h-341v42c67 7 73 15 73 67v216h-254v-216c0 -52 6 -60 72 -67v-42h-341v42c67 7 73 15 73 67v484c0 52 -6 60 -73 67v42h341v-42c-66 -7 -72 -15 -72 -67z" />
    <glyph glyph-name="I" unicode="I" horiz-adv-x="394" 
d="M295 593v-484c0 -52 6 -60 72 -67v-42h-341v42c67 7 73 15 73 67v484c0 52 -6 60 -73 67v42h341v-42c-66 -7 -72 -15 -72 -67z" />
    <glyph glyph-name="J" unicode="J" horiz-adv-x="583" 
d="M298 168v425c0 52 -6 60 -73 67v42h341v-42c-66 -7 -72 -15 -72 -67v-368c0 -163 -98 -235 -268 -235c-150 0 -231 53 -231 150c0 40 19 71 50 89h126c-4 -24 -7 -45 -7 -77c0 -66 16 -119 67 -119c57 0 67 52 67 135z" />
    <glyph glyph-name="K" unicode="K" horiz-adv-x="768" 
d="M469 429l208 -321c28 -41 46 -61 91 -66v-42h-233c-33 28 -65 71 -91 115l-140 226l234 244c17 17 28 31 28 47s-16 26 -69 28v42h237v-42c-41 -2 -58 -10 -85 -38zM295 593v-484c0 -52 6 -60 72 -67v-42h-341v42c67 7 73 15 73 67v484c0 52 -6 60 -73 67v42h341v-42
c-66 -7 -72 -15 -72 -67z" />
    <glyph glyph-name="L" unicode="L" horiz-adv-x="644" 
d="M295 593v-479c0 -54 22 -67 77 -67h28c67 0 103 39 192 190h43l-38 -237h-571v42c67 7 73 15 73 67v484c0 52 -6 60 -73 67v42h341v-42c-66 -7 -72 -15 -72 -67z" />
    <glyph glyph-name="M" unicode="M" horiz-adv-x="981" 
d="M694 130l-48 381l-179 -511h-76l-185 511l-50 -381c-1 -7 -2 -21 -2 -24c0 -49 19 -59 96 -64v-42h-247v42c58 3 79 15 85 60l63 485c0 53 -19 70 -85 73v42h278c2 -23 8 -42 16 -64l136 -382l129 382c8 25 15 41 17 64h272v-42c-66 -3 -84 -20 -84 -73l63 -485
c7 -48 28 -57 84 -60v-42h-377v42c71 4 96 15 96 64c0 3 -1 17 -2 24z" />
    <glyph glyph-name="N" unicode="N" horiz-adv-x="754" 
d="M597 306v286c0 52 -20 62 -101 68v42h240v-42c-66 -7 -72 -16 -72 -68v-593h-71l-427 528v-417c0 -52 20 -62 101 -68v-42h-240v42c66 7 72 16 72 68v486c-25 43 -39 62 -73 64v42h252z" />
    <glyph glyph-name="O" unicode="O" horiz-adv-x="747" 
d="M378 38c101 0 135 154 135 301c0 178 -40 325 -145 325c-101 0 -135 -154 -135 -301c0 -178 40 -325 145 -325zM364 -10c-222 0 -338 161 -338 347c0 230 150 375 356 375c222 0 338 -161 338 -347c0 -230 -149 -375 -356 -375z" />
    <glyph glyph-name="P" unicode="P" horiz-adv-x="667" 
d="M295 271v-159c0 -53 27 -65 116 -70v-42h-385v42c67 7 73 15 73 67v484c0 52 -6 60 -73 67v42h346c195 0 285 -91 285 -212c0 -138 -95 -219 -293 -219h-69zM295 655v-332h23c96 0 147 64 147 167s-57 165 -147 165h-23z" />
    <glyph glyph-name="Q" unicode="Q" horiz-adv-x="747" 
d="M353 -69l-46 63c-185 24 -281 173 -281 343c0 230 150 375 356 375c222 0 338 -161 338 -347c0 -195 -107 -329 -266 -365l83 -61c48 -35 78 -55 135 -56v-17c-25 -24 -67 -52 -128 -52c-65 0 -127 33 -191 117zM378 38c101 0 135 154 135 301c0 178 -40 325 -145 325
c-101 0 -135 -154 -135 -301c0 -178 40 -325 145 -325z" />
    <glyph glyph-name="R" unicode="R" horiz-adv-x="759" 
d="M324 653h-29v-310h30c91 0 143 58 143 159c0 93 -51 151 -144 151zM295 293v-184c0 -52 6 -60 72 -67v-42h-341v42c67 7 73 15 73 67v484c0 52 -6 60 -73 67v42h367c163 0 270 -76 270 -199c0 -102 -76 -157 -150 -181l139 -199c41 -60 60 -79 107 -81v-42h-229
c-28 22 -54 56 -84 106l-114 187h-37z" />
    <glyph glyph-name="S" unicode="S" horiz-adv-x="579" 
d="M275 -10c-100 0 -188 30 -235 67l-11 174h53c25 -112 92 -193 193 -193c71 0 117 34 117 96c0 65 -42 93 -153 127c-133 39 -206 104 -206 225c0 139 106 226 254 226c91 0 167 -24 216 -60v-152h-45c-23 101 -78 165 -171 165c-62 0 -103 -36 -103 -93
c0 -65 40 -92 143 -123c133 -41 221 -94 221 -234c0 -154 -123 -225 -273 -225z" />
    <glyph glyph-name="T" unicode="T" horiz-adv-x="708" 
d="M30 702h648l15 -251h-41c-73 157 -100 210 -167 210h-33v-556c0 -52 17 -56 82 -63v-42h-360v42c65 7 82 11 82 63v556h-33c-67 0 -94 -53 -167 -210h-41z" />
    <glyph glyph-name="U" unicode="U" horiz-adv-x="753" 
d="M282 593v-332c0 -115 44 -187 153 -187c92 0 165 51 165 192v326c0 52 -12 62 -93 68v42h232v-42c-66 -7 -72 -16 -72 -68v-345c0 -176 -124 -257 -279 -257c-192 0 -302 85 -302 257v346c0 52 -5 60 -72 67v42h341v-42c-67 -7 -73 -15 -73 -67z" />
    <glyph glyph-name="V" unicode="V" horiz-adv-x="731" 
d="M451 243l129 333c6 15 11 29 11 40c0 30 -12 42 -73 44v42h208v-42c-29 -4 -48 -10 -59 -37l-256 -627h-56l-292 627c-13 28 -29 33 -58 37v42h355v-42c-61 -2 -73 -14 -73 -43c0 -12 4 -27 10 -41z" />
    <glyph glyph-name="W" unicode="W" horiz-adv-x="1008" 
d="M651 -4l-134 391l-144 -391h-71l-239 627c-9 23 -30 33 -58 37v42h328v-42c-40 -3 -54 -16 -54 -39c0 -15 7 -34 14 -54l117 -318l80 218l-53 156c-8 24 -23 33 -51 37v42h327v-42c-53 -1 -70 -14 -70 -43c0 -16 6 -36 13 -61l97 -302l104 305c7 21 13 40 13 55
c0 28 -18 44 -69 46v42h202v-42c-28 -4 -50 -13 -58 -37l-222 -627h-72z" />
    <glyph glyph-name="X" unicode="X" horiz-adv-x="747" 
d="M432 117l-115 168l-140 -178c-9 -12 -14 -22 -14 -31c0 -20 30 -33 81 -34v-42h-239v42c40 5 57 16 71 35l207 259l-196 289c-14 21 -35 31 -62 35v42h348v-42c-38 0 -56 -6 -56 -29c0 -14 8 -26 22 -47l84 -126l105 137c10 13 14 24 14 34c0 20 -25 30 -64 31v42h221
v-42c-40 -5 -57 -16 -72 -35l-171 -216l218 -324c20 -29 38 -39 68 -43v-42h-361v42c53 1 72 6 72 30c0 13 -6 23 -21 45z" />
    <glyph glyph-name="Y" unicode="Y" horiz-adv-x="707" 
d="M457 263v-158c0 -52 17 -56 83 -63v-42h-356v42c66 7 82 11 82 63v153l-203 365c-15 28 -29 33 -58 37v42h345v-42c-54 -2 -68 -11 -68 -36c0 -21 8 -37 23 -64l128 -220l112 218c11 23 23 49 23 66c0 25 -22 34 -70 36v42h204v-42c-27 -4 -45 -12 -58 -37z" />
    <glyph glyph-name="Z" unicode="Z" horiz-adv-x="632" 
d="M243 47h126c84 0 118 35 203 184h43l-36 -231h-563v35l351 620h-119c-93 0 -110 -42 -168 -170h-41l9 217h547v-35z" />
    <glyph glyph-name="bracketleft" unicode="[" horiz-adv-x="336" 
d="M199 671v-713c0 -52 25 -55 105 -60v-39h-219v911h219v-39c-80 -5 -105 -8 -105 -60z" />
    <glyph glyph-name="backslash" unicode="\" horiz-adv-x="362" 
d="M286 -141l-277 911h78l278 -911h-79z" />
    <glyph glyph-name="bracketright" unicode="]" horiz-adv-x="336" 
d="M138 -42v713c0 52 -25 55 -105 60v39h218v-911h-218v39c80 5 105 8 105 60z" />
    <glyph glyph-name="asciicircum" unicode="^" horiz-adv-x="469" 
d="M272 770l165 -290h-72l-131 236l-131 -236h-71l165 290h75z" />
    <glyph glyph-name="underscore" unicode="_" horiz-adv-x="414" 
d="M394 -141h-374v75h374v-75z" />
    <glyph glyph-name="quoteleft" unicode="&#x2018;" horiz-adv-x="280" 
d="M129 633h41c42 -10 73 -36 73 -87c0 -56 -43 -90 -97 -90c-65 0 -106 50 -106 123c0 108 71 173 203 177v-41c-67 -9 -108 -30 -114 -82z" />
    <glyph glyph-name="a" unicode="a" horiz-adv-x="554" 
d="M263 89c16 0 28 5 44 14v185l-55 -21c-35 -13 -58 -32 -58 -89c0 -51 19 -89 69 -89zM489 375v-265c0 -24 3 -45 27 -45c14 0 27 3 34 6l7 -27c-33 -33 -76 -54 -132 -54c-58 0 -100 31 -115 84c-29 -42 -77 -81 -151 -81c-84 0 -143 48 -143 134c0 87 61 123 132 148
l159 56v102c0 46 -13 77 -52 77s-54 -32 -54 -79c0 -23 4 -46 9 -70l-111 -15c-29 10 -49 34 -49 70c0 91 94 133 215 133c140 0 224 -44 224 -174z" />
    <glyph glyph-name="b" unicode="b" horiz-adv-x="630" 
d="M55 679l-55 28v30l209 46h31v-331c28 45 83 97 168 97c118 0 202 -82 202 -246c0 -205 -131 -313 -299 -313c-91 0 -191 18 -256 69v620zM311 37c72 0 111 92 111 210c0 132 -47 193 -123 193c-21 0 -41 -5 -59 -17v-282c0 -64 18 -104 71 -104z" />
    <glyph glyph-name="c" unicode="c" horiz-adv-x="503" 
d="M181 322c0 -128 57 -207 157 -207c59 0 101 20 133 66l22 -14c-33 -122 -114 -177 -226 -177c-139 0 -246 99 -246 263c0 169 108 296 274 296c101 0 183 -39 183 -127c0 -38 -22 -63 -44 -73h-95c3 22 4 39 4 57c0 58 -16 98 -64 98c-62 0 -98 -79 -98 -182z" />
    <glyph glyph-name="d" unicode="d" horiz-adv-x="641" 
d="M314 489c-71 0 -108 -75 -108 -188c0 -123 44 -207 122 -207c20 0 39 4 57 14v278c0 67 -19 103 -71 103zM385 679l-55 28v30l209 46h31v-668c0 -34 2 -49 34 -50l24 -1v-39l-212 -35h-34l3 94c-41 -61 -95 -94 -162 -94c-118 0 -202 92 -202 255c0 195 118 300 265 300
c41 0 76 -11 99 -30v164z" />
    <glyph glyph-name="e" unicode="e" horiz-adv-x="526" 
d="M288 549c145 0 219 -92 219 -219v-25h-319c-2 -119 64 -193 155 -193c64 0 111 23 149 73l19 -12c-27 -110 -104 -183 -230 -183c-148 0 -260 99 -260 267c0 178 123 292 267 292zM276 507c-55 0 -82 -63 -87 -156h160c0 97 -19 156 -73 156z" />
    <glyph glyph-name="f" unicode="f" horiz-adv-x="378" 
d="M263 485v-392c0 -43 22 -47 80 -54v-39h-320v39c40 3 56 7 56 39v407h-72v40l72 19v19c0 152 104 220 234 220c107 0 155 -36 155 -97c0 -28 -15 -52 -37 -63h-94c3 14 5 29 5 47c0 35 -5 69 -36 69c-30 0 -43 -25 -43 -70v-130h117v-54h-117z" />
    <glyph glyph-name="g" unicode="g" horiz-adv-x="557" 
d="M259 188c-37 0 -75 5 -110 17c-16 -14 -29 -30 -29 -50c0 -17 11 -29 30 -29h217c135 0 192 -58 192 -149c0 -129 -124 -200 -305 -200c-158 0 -256 43 -256 122c0 50 48 74 92 81c-42 16 -66 57 -66 100c0 65 46 107 98 135c-55 26 -95 71 -95 144
c0 120 101 190 239 190c40 0 69 -6 95 -14l178 4v-67h-45l-61 2c36 -24 62 -63 62 -113c0 -111 -102 -173 -236 -173zM375 -42h-264c-7 -8 -9 -22 -9 -37c0 -61 63 -97 157 -97c90 0 173 24 173 89c0 32 -20 45 -57 45zM266 227c45 0 59 49 59 136c0 76 -20 144 -67 144
c-45 0 -60 -49 -60 -132c0 -80 22 -148 68 -148z" />
    <glyph glyph-name="h" unicode="h" horiz-adv-x="661" 
d="M74 78v601l-55 28v30l209 46h31v-334c38 48 95 100 186 100c96 0 151 -55 151 -164v-307c0 -32 16 -36 56 -39v-39h-294v39c40 3 53 7 53 39v292c0 44 -15 70 -67 70c-32 0 -60 -9 -85 -22v-340c0 -32 13 -36 53 -39v-39h-294v39c40 3 56 7 56 39z" />
    <glyph glyph-name="i" unicode="i" horiz-adv-x="334" 
d="M262 549v-471c0 -32 16 -36 56 -39v-39h-296v39c40 3 56 7 56 39v351l-55 34v28l208 58h31zM172 593c-62 0 -98 43 -98 93s36 92 98 92c60 0 98 -42 98 -92s-38 -93 -98 -93z" />
    <glyph glyph-name="j" unicode="j" horiz-adv-x="302" 
d="M63 429l-56 34v28l209 58h31v-443c0 -113 -24 -161 -70 -207c-55 -54 -102 -80 -172 -112l-16 20l41 64c32 52 33 114 33 192v366zM154 593c-61 0 -98 43 -98 93s37 92 98 92s98 -42 98 -92s-37 -93 -98 -93z" />
    <glyph glyph-name="k" unicode="k" horiz-adv-x="638" 
d="M266 283l153 139c26 23 33 35 33 48c0 19 -14 25 -61 30v39h227v-39c-34 -5 -57 -11 -83 -37l-115 -108l218 -328v-27h-192zM74 78v601l-55 28v30l209 46h31v-705c0 -32 16 -36 56 -39v-39h-297v39c40 3 56 7 56 39z" />
    <glyph glyph-name="l" unicode="l" horiz-adv-x="330" 
d="M259 783v-705c0 -32 16 -36 56 -39v-39h-297v39c40 3 56 7 56 39v601l-55 28v30l209 46h31z" />
    <glyph glyph-name="m" unicode="m" horiz-adv-x="974" 
d="M725 78v295c0 43 -14 68 -60 68c-30 0 -54 -11 -79 -23v-340c0 -32 10 -36 50 -39v-39h-285v39c40 3 50 7 50 39v295c0 43 -14 68 -59 68c-31 0 -55 -10 -80 -23v-340c0 -32 11 -36 51 -39v-39h-291v39c40 3 56 7 56 39v351l-55 34v28l209 58h34l-4 -102
c38 55 92 102 181 102c77 0 125 -31 139 -104c36 54 97 104 183 104c93 0 145 -54 145 -159v-312c0 -32 16 -36 55 -39v-39h-290v39c40 3 50 7 50 39z" />
    <glyph glyph-name="n" unicode="n" horiz-adv-x="664" 
d="M415 78v292c0 44 -15 70 -67 70c-32 0 -60 -9 -86 -22v-340c0 -32 14 -36 54 -39v-39h-294v39c40 3 56 7 56 39v351l-55 34v28l209 58h34l-4 -100c38 48 96 100 186 100c97 0 152 -54 152 -164v-307c0 -32 16 -36 56 -39v-39h-294v39c40 3 53 7 53 39z" />
    <glyph glyph-name="o" unicode="o" horiz-adv-x="601" 
d="M305 32c60 0 79 77 79 204c0 164 -23 271 -88 271c-60 0 -79 -77 -79 -204c0 -164 24 -271 88 -271zM300 -10c-165 0 -279 105 -279 269c0 168 116 290 280 290c165 0 279 -105 279 -269c0 -168 -116 -290 -280 -290z" />
    <glyph glyph-name="p" unicode="p" horiz-adv-x="645" 
d="M326 37c72 0 111 92 111 210c0 132 -47 193 -123 193c-21 0 -41 -5 -59 -17v-281c0 -65 18 -105 71 -105zM70 -134v563l-55 34v28l209 58h35l-4 -97c28 45 83 97 168 97c118 0 202 -82 202 -246c0 -205 -125 -313 -283 -313c-38 0 -70 7 -87 21v-141c0 -36 18 -38 77 -43
v-39h-318v39c40 3 56 7 56 39z" />
    <glyph glyph-name="q" unicode="q" horiz-adv-x="626" 
d="M314 501c-71 0 -108 -79 -108 -192c0 -123 44 -215 122 -215c20 0 39 4 57 14v290c0 67 -26 103 -71 103zM385 -130v214c-33 -51 -85 -94 -162 -94c-118 0 -202 92 -202 255c0 195 119 304 272 304c76 0 130 -22 171 -61l74 58h37l-5 -120v-560c0 -32 16 -36 56 -39v-39
h-318v39c59 5 77 7 77 43z" />
    <glyph glyph-name="r" unicode="r" horiz-adv-x="457" 
d="M262 357v-264c0 -43 23 -47 80 -54v-39h-320v39c40 3 56 7 56 39v351l-55 34v28l209 58h34l-4 -154c41 117 76 154 139 154c23 0 40 -7 50 -17v-139h-24c-63 0 -119 -2 -165 -36z" />
    <glyph glyph-name="s" unicode="s" horiz-adv-x="477" 
d="M227 -10c-83 0 -147 20 -190 51l-6 135h46c20 -82 72 -144 150 -144c47 0 85 23 85 68c0 51 -39 68 -107 90c-113 35 -174 82 -174 184c0 112 86 175 206 175c68 0 129 -18 172 -46v-120h-43c-12 66 -56 124 -126 124c-43 0 -72 -24 -72 -62c0 -42 30 -59 96 -82
c120 -40 185 -81 185 -190c0 -117 -87 -183 -222 -183z" />
    <glyph glyph-name="t" unicode="t" horiz-adv-x="391" 
d="M247 675v-136h117v-54h-117v-331c0 -48 19 -69 57 -69c26 0 48 9 72 25l15 -22c-38 -62 -94 -98 -174 -98c-92 0 -156 46 -156 164v331h-57v33c80 30 152 88 204 157h39z" />
    <glyph glyph-name="u" unicode="u" horiz-adv-x="647" 
d="M576 421v-306c0 -34 2 -49 34 -50l24 -1v-39l-211 -35h-35l3 97c-36 -46 -89 -97 -178 -97s-151 53 -151 168v245c0 29 -7 50 -39 58l-15 5v36l211 46h33l-6 -127v-245c0 -51 20 -80 68 -80c30 0 50 8 77 20v287c0 29 -7 50 -38 58l-15 5v36l210 46h33z" />
    <glyph glyph-name="v" unicode="v" horiz-adv-x="600" 
d="M595 539v-39c-35 -11 -41 -18 -51 -40l-206 -464h-53l-229 464c-11 22 -16 29 -51 40v39h320v-39c-53 -7 -66 -13 -66 -35c0 -9 2 -14 8 -28l106 -233l97 233c6 14 8 19 8 28c0 22 -13 28 -66 35v39h183z" />
    <glyph glyph-name="w" unicode="w" horiz-adv-x="896" 
d="M679 214l89 223c5 12 7 23 7 31c0 21 -18 27 -57 32v39h173v-39c-35 -11 -42 -18 -51 -40l-197 -464h-60l-118 309l-140 -309h-59l-210 464c-10 22 -16 29 -51 40v39h300v-39c-33 -5 -47 -13 -47 -31c0 -8 3 -19 8 -32l95 -233l75 167l-34 89c-8 22 -19 32 -46 40v39h296
v-39c-42 -5 -62 -9 -62 -34c0 -8 2 -17 6 -29z" />
    <glyph glyph-name="x" unicode="x" horiz-adv-x="613" 
d="M337 103l-88 120l-88 -117c-9 -13 -13 -23 -13 -32c0 -20 22 -33 61 -35v-39h-204v39c34 9 55 24 69 42l142 188l-139 191c-12 17 -21 27 -51 40v39h297v-39c-30 -2 -46 -11 -46 -28c0 -9 5 -21 16 -36l68 -95l69 92c11 15 17 27 17 38c0 16 -16 25 -48 29v39h182v-39
c-34 -10 -52 -24 -65 -42l-123 -160l160 -220c12 -16 25 -28 55 -39v-39h-309v39c35 1 54 10 54 27c0 10 -5 22 -16 37z" />
    <glyph glyph-name="y" unicode="y" horiz-adv-x="599" 
d="M371 182l99 254c5 13 8 20 8 29c0 22 -14 28 -66 35v39h182v-39c-34 -11 -42 -18 -51 -40l-228 -547c-37 -88 -74 -134 -144 -134c-39 0 -70 16 -84 42v71c26 -5 47 -10 78 -10c56 0 85 16 103 58l16 35l-228 485c-10 22 -16 29 -51 40v39h320v-39
c-53 -7 -66 -13 -66 -35c0 -9 3 -16 7 -28z" />
    <glyph glyph-name="z" unicode="z" horiz-adv-x="537" 
d="M18 0v33l284 460h-92c-53 0 -86 -46 -133 -152h-39l14 230h37l20 -33h402v-33l-278 -459h102c66 0 98 42 150 153h37l-22 -199h-482z" />
    <glyph glyph-name="braceleft" unicode="{" horiz-adv-x="367" 
d="M50 305v18c48 10 83 36 83 100v219c0 79 59 128 205 128v-29c-48 -6 -86 -31 -86 -98v-209c0 -76 -47 -105 -117 -120c70 -15 117 -44 117 -120v-208c0 -67 38 -92 86 -98v-29c-146 0 -205 49 -205 128v218c0 64 -35 90 -83 100z" />
    <glyph glyph-name="bar" unicode="|" horiz-adv-x="205" 
d="M139 770v-911h-73v911h73z" />
    <glyph glyph-name="braceright" unicode="}" horiz-adv-x="375" 
d="M325 323v-18c-48 -10 -83 -36 -83 -100v-218c0 -79 -59 -128 -205 -128v29c49 6 86 31 86 98v208c0 76 47 105 117 120c-70 15 -117 44 -117 120v209c0 67 -37 92 -86 98v29c146 0 205 -49 205 -128v-219c0 -64 35 -90 83 -100z" />
    <glyph glyph-name="asciitilde" unicode="~" horiz-adv-x="493" 
d="M431 396l32 -15c-31 -106 -75 -160 -143 -160c-61 0 -113 74 -168 74c-41 0 -67 -31 -90 -69l-32 15c30 105 74 160 143 160c60 0 112 -74 167 -74c41 0 68 31 91 69z" />
    <glyph glyph-name="exclamdown" unicode="&#xa1;" horiz-adv-x="293" 
d="M51 513c0 53 43 97 95 97c53 0 96 -44 96 -97c0 -55 -43 -99 -96 -99c-52 0 -95 44 -95 99zM117 366h58l81 -468h-220z" />
    <glyph glyph-name="cent" unicode="&#xa2;" horiz-adv-x="533" 
d="M186 -115l20 114c-109 27 -182 121 -182 261c0 173 110 303 283 305l19 106h41l-19 -108c86 -9 153 -49 153 -128c0 -40 -23 -65 -47 -75h-76c3 22 4 42 4 60c0 45 -10 80 -43 94l-69 -387c22 -12 48 -17 77 -17c67 0 111 29 145 76l22 -13c-33 -127 -122 -183 -237 -183
c-11 0 -21 1 -31 2l-19 -107h-41zM178 327c0 -80 20 -137 55 -173l66 367c-73 -1 -121 -83 -121 -194z" />
    <glyph glyph-name="sterling" unicode="&#xa3;" horiz-adv-x="695" 
d="M100 348v43h101l3 46c11 183 95 275 261 275c99 0 187 -37 187 -120c0 -39 -24 -69 -52 -79h-97c7 19 13 42 13 76c0 41 -5 87 -44 87c-42 0 -59 -46 -67 -119l-18 -166h153v-43h-157l-1 -8c-8 -82 -26 -149 -45 -184c51 -21 132 -32 189 -32c55 0 93 21 93 68
c0 15 -3 23 -7 35l28 9c14 -17 31 -51 31 -94c0 -97 -59 -152 -163 -152c-97 0 -172 49 -218 87c-33 -50 -90 -87 -164 -87c-71 0 -116 41 -116 104c0 66 48 104 110 104c19 0 45 -3 67 -11l11 161h-98zM114 40c40 0 65 34 68 96c-19 11 -39 21 -65 21
c-36 0 -58 -23 -58 -62c0 -35 23 -55 55 -55z" />
    <glyph glyph-name="fraction" unicode="&#x2044;" horiz-adv-x="283" 
d="M-106 -10l438 722h54l-439 -722h-53z" />
    <glyph glyph-name="yen" unicode="&#xa5;" horiz-adv-x="687" 
d="M445 273v-9h160v-44h-160v-115c0 -52 17 -56 83 -63v-42h-352v42c66 7 82 11 82 63v115h-166v44h166v9l-39 70h-127v45h102l-131 235c-15 28 -29 33 -58 37v42h341v-42c-54 -2 -68 -11 -68 -37c0 -20 8 -36 23 -63l116 -215l108 213c11 24 17 42 17 65
c0 26 -20 35 -68 37v42h208v-42c-28 -4 -46 -12 -58 -37l-120 -235h101v-45h-124z" />
    <glyph glyph-name="florin" unicode="&#x192;" horiz-adv-x="544" 
d="M64 343l4 42h89l2 16c23 204 98 311 248 311c72 0 135 -24 135 -89c0 -31 -18 -55 -51 -66h-52c0 57 -2 122 -43 122c-25 0 -38 -19 -43 -59l-27 -235h114l-4 -42h-115l-23 -207c-23 -204 -97 -310 -248 -310c-72 0 -135 24 -135 89c0 31 19 55 52 65h52
c0 -56 2 -121 43 -121c25 0 38 18 42 59l48 425h-88z" />
    <glyph glyph-name="section" unicode="&#xa7;" horiz-adv-x="529" 
d="M156 630c-42 -43 -61 -86 -61 -157c0 -105 50 -191 115 -281c59 -84 160 -202 163 -313c42 43 61 86 61 157c0 104 -50 191 -115 281c-59 83 -160 201 -163 313zM231 -203c-97 0 -161 45 -161 111c0 34 21 51 43 59h88v-44c0 -41 9 -92 68 -92c43 0 59 29 59 64
c0 83 -86 173 -156 270s-123 192 -123 308c0 145 111 239 249 239c96 0 161 -45 161 -110c0 -35 -21 -52 -44 -60h-87v44c0 41 -9 93 -68 93c-43 0 -60 -30 -60 -64c0 -84 87 -173 157 -271c69 -97 123 -192 123 -308c0 -145 -111 -239 -249 -239z" />
    <glyph glyph-name="currency" unicode="&#xa4;" horiz-adv-x="582" 
d="M66 543l30 30l73 -75c33 28 75 44 122 44c46 0 89 -16 122 -44l73 75l30 -30l-74 -74c26 -34 41 -76 41 -124s-15 -91 -41 -124l74 -74l-30 -30l-73 74c-33 -27 -76 -43 -122 -43c-47 0 -89 16 -122 43l-73 -74l-30 30l74 74c-26 33 -41 76 -41 124s15 90 41 124z
M155 345c0 -85 59 -145 136 -145s136 60 136 145s-59 146 -136 146s-136 -61 -136 -146z" />
    <glyph glyph-name="quotesingle" unicode="'" horiz-adv-x="187" 
d="M101 455h-15l-45 144c-9 30 -20 71 -20 94c0 39 22 76 72 76c51 0 73 -37 73 -76c0 -23 -11 -64 -21 -94z" />
    <glyph glyph-name="quotedblleft" unicode="&#x201c;" horiz-adv-x="510" 
d="M359 633h41c42 -10 73 -36 73 -87c0 -56 -43 -90 -97 -90c-65 0 -106 50 -106 123c0 108 71 173 203 177v-41c-67 -9 -108 -30 -114 -82zM129 633h41c42 -10 73 -36 73 -87c0 -56 -43 -90 -97 -90c-65 0 -106 50 -106 123c0 108 71 173 203 177v-41
c-67 -9 -108 -30 -114 -82z" />
    <glyph glyph-name="guillemotleft" unicode="&#xab;" horiz-adv-x="469" 
d="M23 273v6l187 200h46l-90 -203l90 -204h-46zM213 273v6l187 200h46l-90 -203l90 -204h-46z" />
    <glyph glyph-name="guilsinglleft" unicode="&#x2039;" horiz-adv-x="279" 
d="M23 273v6l187 200h46l-90 -203l90 -204h-46z" />
    <glyph glyph-name="guilsinglright" unicode="&#x203a;" horiz-adv-x="279" 
d="M256 279v-6l-187 -201h-46l90 204l-90 203h46z" />
    <glyph glyph-name="endash" unicode="&#x2013;" horiz-adv-x="540" 
d="M510 274h-480v60h480v-60z" />
    <glyph glyph-name="dagger" unicode="&#x2020;" horiz-adv-x="378" 
d="M200 579c0 -45 30 -80 56 -95v-9c-26 -38 -56 -178 -60 -326h-14c-4 148 -34 288 -60 326v9c26 15 56 50 56 95c-48 0 -71 -42 -112 -42c-24 0 -46 18 -46 52s22 52 46 52c41 0 64 -42 112 -42c0 48 -41 72 -41 113c0 24 18 46 52 46s52 -22 52 -46
c0 -41 -41 -65 -41 -113c48 0 71 42 112 42c24 0 46 -18 46 -52s-22 -52 -46 -52c-41 0 -64 42 -112 42z" />
    <glyph glyph-name="daggerdbl" unicode="&#x2021;" horiz-adv-x="394" 
d="M187 455c0 27 -20 49 -57 53v9c26 15 56 39 56 83c-48 0 -71 -41 -112 -41c-24 0 -46 18 -46 51c0 34 22 52 46 52c41 0 64 -41 112 -41c0 48 -41 50 -41 91c0 24 19 46 52 46c34 0 52 -22 52 -46c0 -41 -41 -43 -41 -91c49 0 71 41 112 41c24 0 46 -18 46 -52
c0 -33 -22 -51 -46 -51c-41 0 -63 41 -112 41c0 -44 30 -68 57 -83v-9c-37 -4 -58 -26 -58 -53s21 -49 58 -53v-9c-27 -15 -57 -39 -57 -83c49 0 71 41 112 41c24 0 46 -18 46 -52c0 -33 -22 -51 -46 -51c-41 0 -63 41 -112 41c0 -48 41 -50 41 -91c0 -24 -18 -46 -52 -46
c-33 0 -52 22 -52 46c0 41 41 43 41 91c-48 0 -71 -41 -112 -41c-24 0 -46 18 -46 51c0 34 22 52 46 52c41 0 64 -41 112 -41c0 44 -30 68 -56 83v9c37 4 57 26 57 53z" />
    <glyph glyph-name="periodcentered" unicode="&#xb7;" horiz-adv-x="262" 
d="M30 304c0 59 45 102 101 102s101 -43 101 -102c0 -58 -45 -100 -101 -100s-101 42 -101 100z" />
    <glyph glyph-name="paragraph" unicode="&#xb6;" horiz-adv-x="616" 
d="M315 -197v397c-178 0 -275 116 -275 252s97 250 275 250h275v-40c-77 -1 -102 -12 -102 -73v-786h-47v858h-79v-858h-47zM315 239v424c-79 -8 -117 -113 -117 -211s38 -206 117 -213z" />
    <glyph glyph-name="bullet" unicode="&#x2022;" horiz-adv-x="368" 
d="M30 308c0 86 70 157 154 157c85 0 154 -71 154 -157c0 -85 -69 -157 -154 -157c-84 0 -154 72 -154 157z" />
    <glyph glyph-name="quotesinglbase" unicode="&#x201a;" horiz-adv-x="280" 
d="M153 0h-41c-42 10 -73 36 -73 87c0 56 43 90 96 90c65 0 106 -50 106 -123c0 -108 -71 -173 -203 -177v41c68 9 108 29 115 82z" />
    <glyph glyph-name="quotedblbase" unicode="&#x201e;" horiz-adv-x="510" 
d="M153 0h-41c-42 10 -73 36 -73 87c0 56 43 90 96 90c65 0 106 -50 106 -123c0 -108 -71 -173 -203 -177v41c68 9 108 29 115 82zM383 0h-41c-42 10 -73 36 -73 87c0 56 43 90 96 90c65 0 106 -50 106 -123c0 -108 -71 -173 -203 -177v41c68 9 108 29 115 82z" />
    <glyph glyph-name="quotedblright" unicode="&#x201d;" horiz-adv-x="510" 
d="M153 574h-41c-42 10 -73 36 -73 87c0 56 43 90 96 90c65 0 106 -50 106 -124c0 -107 -71 -172 -203 -176v40c68 10 108 30 115 83zM383 574h-41c-42 10 -73 36 -73 87c0 56 43 90 96 90c65 0 106 -50 106 -124c0 -107 -71 -172 -203 -176v40c68 10 108 30 115 83z" />
    <glyph glyph-name="guillemotright" unicode="&#xbb;" horiz-adv-x="469" 
d="M446 279v-6l-187 -201h-46l90 204l-90 203h46zM256 279v-6l-187 -201h-46l90 204l-90 203h46z" />
    <glyph glyph-name="ellipsis" unicode="&#x2026;" horiz-adv-x="799" 
d="M30 93c0 61 46 104 103 104c58 0 103 -43 103 -104s-45 -103 -103 -103c-57 0 -103 42 -103 103zM296 93c0 61 46 104 104 104c57 0 103 -43 103 -104s-46 -103 -103 -103c-58 0 -104 42 -104 103zM563 93c0 61 46 104 103 104c58 0 103 -43 103 -104s-45 -103 -103 -103
c-57 0 -103 42 -103 103z" />
    <glyph glyph-name="perthousand" unicode="&#x2030;" horiz-adv-x="1167" 
d="M757 163c0 -114 -81 -173 -173 -173c-91 0 -173 59 -173 173c0 115 82 174 173 174c92 0 173 -59 173 -174zM149 -10l439 722h54l-439 -722h-54zM34 539c0 114 81 173 173 173c91 0 172 -59 172 -173c0 -115 -81 -174 -172 -174c-92 0 -173 59 -173 174zM645 163
c0 77 -15 139 -61 139s-61 -62 -61 -139c0 -76 15 -138 61 -138s61 62 61 138zM146 539c0 -77 15 -139 61 -139s61 62 61 139c0 76 -15 138 -61 138s-61 -62 -61 -138zM1021 163c0 77 -15 139 -61 139s-60 -62 -60 -139c0 -76 14 -138 60 -138s61 62 61 138zM1133 163
c0 -114 -81 -173 -173 -173c-91 0 -172 59 -172 173c0 115 81 174 172 174c92 0 173 -59 173 -174z" />
    <glyph glyph-name="questiondown" unicode="&#xbf;" horiz-adv-x="467" 
d="M166 4c0 -47 24 -77 70 -77c57 0 75 49 75 99c0 25 -3 42 -5 58h110c26 -13 40 -36 40 -65c0 -80 -87 -131 -218 -131c-141 0 -221 61 -221 170c0 86 50 139 138 191c56 34 79 58 79 107v13h25c47 -18 78 -56 78 -109c0 -46 -25 -88 -78 -127c-51 -38 -93 -71 -93 -129z
M343 513c0 -55 -43 -99 -95 -99c-54 0 -96 44 -96 99c0 53 42 97 96 97c52 0 95 -44 95 -97z" />
    <glyph glyph-name="grave" unicode="`" 
d="M124 765h179l50 -164h-51l-178 155v9z" />
    <glyph glyph-name="acute" unicode="&#xb4;" 
d="M174 765h179v-9l-177 -155h-52z" />
    <glyph glyph-name="circumflex" unicode="&#x2c6;" 
d="M312 766l116 -170h-58l-120 85l-120 -85h-58l116 170h124z" />
    <glyph glyph-name="tilde" unicode="&#x2dc;" 
d="M311 602c-63 0 -93 60 -136 60c-28 0 -46 -23 -65 -56l-36 20c33 86 63 135 117 135c63 0 92 -60 136 -60c28 0 46 23 65 55l36 -19c-34 -87 -63 -135 -117 -135z" />
    <glyph glyph-name="macron" unicode="&#xaf;" 
d="M112 625v86h286v-86h-286z" />
    <glyph glyph-name="breve" unicode="&#x2d8;" 
d="M257 598c-94 0 -145 61 -145 168h46c7 -58 48 -75 99 -75c50 0 91 17 98 75h46c0 -107 -51 -168 -144 -168z" />
    <glyph glyph-name="dotaccent" unicode="&#x2d9;" 
d="M251 597c-61 0 -98 42 -98 92s37 93 98 93c60 0 98 -43 98 -93s-38 -92 -98 -92z" />
    <glyph glyph-name="dieresis" unicode="&#xa8;" 
d="M68 687c0 46 37 83 84 83c46 0 84 -37 84 -83c0 -45 -38 -83 -84 -83c-47 0 -84 38 -84 83zM272 687c0 46 39 83 83 83c49 0 86 -37 86 -83c0 -45 -37 -83 -86 -83c-44 0 -83 38 -83 83z" />
    <glyph glyph-name="ring" unicode="&#x2da;" 
d="M209 678c0 -29 18 -51 50 -51s50 22 50 51c0 30 -18 52 -50 52s-50 -22 -50 -52zM155 678c0 57 44 102 104 102s103 -45 103 -102c0 -56 -43 -101 -103 -101s-104 45 -104 101z" />
    <glyph glyph-name="cedilla" unicode="&#xb8;" 
d="M151 -231l-8 35c72 0 105 22 105 48c0 28 -30 33 -79 35l49 121h37l-19 -48c63 0 105 -30 105 -82c0 -75 -90 -109 -190 -109z" />
    <glyph glyph-name="hungarumlaut" unicode="&#x2dd;" 
d="M121 765h150v-9l-147 -155h-53zM301 765h150v-9l-148 -155h-53z" />
    <glyph glyph-name="ogonek" unicode="&#x2db;" 
d="M327 35l8 -16c-61 -30 -93 -65 -93 -114c0 -28 15 -50 46 -50c25 0 41 7 63 24l16 -20c-37 -47 -76 -74 -135 -74c-52 0 -94 31 -94 83c0 87 96 133 189 167z" />
    <glyph glyph-name="caron" unicode="&#x2c7;" 
d="M428 770l-116 -170h-124l-116 170h58l120 -85l120 85h58z" />
    <glyph glyph-name="emdash" unicode="&#x2014;" horiz-adv-x="960" 
d="M930 334v-60h-900v60h900z" />
    <glyph glyph-name="AE" unicode="&#xc6;" horiz-adv-x="1040" 
d="M63 79l344 549c-16 20 -47 29 -94 32v42h673l5 -193h-38c-53 112 -79 146 -170 146h-103v-265h97c46 0 58 24 67 92h43v-240h-43c-9 68 -21 93 -67 93h-97v-221c0 -54 26 -67 81 -67h35c90 0 111 39 183 171h45l-32 -218h-580v42c66 7 72 15 72 67v139h-245l-76 -122
c-10 -17 -15 -28 -15 -41c0 -28 29 -41 89 -43v-42h-232v42c27 4 43 12 58 37zM484 639l-211 -337h211v337z" />
    <glyph glyph-name="ordfeminine" unicode="&#xaa;" horiz-adv-x="414" 
d="M187 413c14 0 23 3 36 12v112l-35 -15c-28 -13 -38 -29 -38 -60c0 -32 14 -49 37 -49zM341 580v-146c0 -24 7 -36 22 -36c8 0 18 1 28 5l5 -19c-22 -23 -55 -39 -89 -39c-42 0 -73 25 -82 63c-23 -38 -58 -60 -105 -60c-53 0 -90 34 -90 88c0 57 41 79 88 95l105 35v50
c0 45 -7 68 -35 68c-25 0 -36 -18 -36 -47c0 -15 3 -32 8 -49l-82 -11c-18 6 -29 25 -29 46c0 59 60 89 147 89c99 0 145 -33 145 -132z" />
    <glyph glyph-name="Lslash" unicode="&#x141;" horiz-adv-x="644" 
d="M295 593v-196l139 48v-60l-139 -49v-222c0 -54 22 -67 77 -67h28c67 0 103 39 192 190h43l-38 -237h-571v42c67 7 73 15 73 67v168l-70 -24v60l70 25v255c0 52 -6 60 -73 67v42h341v-42c-66 -7 -72 -15 -72 -67z" />
    <glyph glyph-name="Oslash" unicode="&#xd8;" horiz-adv-x="747" 
d="M364 -10c-73 0 -135 17 -184 47l-72 -96l-39 30l71 95c-76 64 -114 163 -114 271c0 230 150 375 356 375c80 0 147 -21 199 -57l67 90l39 -29l-69 -92c67 -64 102 -158 102 -259c0 -230 -149 -375 -356 -375zM233 363c0 -56 4 -109 13 -156l245 328
c-22 78 -62 129 -123 129c-101 0 -135 -154 -135 -301zM378 38c101 0 135 154 135 301c0 47 -3 92 -9 132l-243 -325c23 -66 61 -108 117 -108z" />
    <glyph glyph-name="OE" unicode="&#x152;" horiz-adv-x="1049" 
d="M493 655h-40c-138 0 -223 -115 -223 -293c0 -192 88 -315 243 -315h20v608zM1001 0h-562c-280 0 -413 148 -413 343c0 226 161 359 413 359h561v-193h-38c-52 112 -78 146 -169 146h-104v-265h97c47 0 59 24 67 92h44v-240h-44c-8 68 -20 93 -67 93h-97v-221
c0 -54 26 -67 81 -67h35c90 0 112 39 184 171h45z" />
    <glyph glyph-name="ordmasculine" unicode="&#xba;" horiz-adv-x="420" 
d="M215 376c38 0 53 54 53 139c0 94 -20 166 -63 166c-38 0 -53 -53 -53 -138c0 -95 20 -167 63 -167zM205 345c-108 0 -179 72 -179 177c0 116 77 190 189 190c108 0 179 -72 179 -177c0 -116 -77 -190 -189 -190z" />
    <glyph glyph-name="ae" unicode="&#xe6;" horiz-adv-x="794" 
d="M559 549c142 0 216 -93 216 -220v-24h-312c-1 -115 56 -193 153 -193c59 0 106 23 143 73l19 -12c-27 -110 -104 -183 -230 -183c-85 0 -155 32 -200 91c-46 -53 -88 -88 -184 -88c-89 0 -148 48 -148 134c0 87 61 123 132 148l154 54c3 15 8 29 12 43
c3 89 -21 138 -63 138c-35 0 -50 -32 -50 -79c0 -23 4 -46 9 -70l-111 -15c-29 10 -49 34 -49 70c0 91 94 133 213 133c63 0 112 -14 143 -49c43 31 95 49 153 49zM544 507c-55 0 -75 -64 -80 -157h152c0 97 -19 157 -72 157zM273 89c17 0 37 6 58 18c-23 40 -35 91 -35 150
c0 9 0 18 1 26l-35 -13c-45 -16 -68 -35 -68 -92c0 -51 19 -89 79 -89z" />
    <glyph glyph-name="dotlessi" unicode="&#x131;" horiz-adv-x="334" 
d="M262 549v-471c0 -32 16 -36 56 -39v-39h-296v39c40 3 56 7 56 39v351l-55 34v28l208 58h31z" />
    <glyph glyph-name="lslash" unicode="&#x142;" horiz-adv-x="351" 
d="M266 783v-282l79 38v-58l-79 -39v-364c0 -32 16 -36 56 -39v-39h-297v39c40 3 56 7 56 39v292l-74 -35v58l74 36v250l-55 28v30l209 46h31z" />
    <glyph glyph-name="oslash" unicode="&#xf8;" horiz-adv-x="601" 
d="M300 -10c-56 0 -106 12 -148 34l-58 -82l-35 25l57 80c-60 47 -95 120 -95 212c0 168 116 290 280 290c56 0 107 -13 149 -35l55 77l36 -25l-55 -76c59 -47 94 -120 94 -210c0 -168 -116 -290 -280 -290zM217 303c0 -40 1 -76 4 -109l150 210c-13 65 -37 103 -75 103
c-60 0 -79 -77 -79 -204zM305 32c60 0 79 77 79 204c0 38 -1 74 -4 105l-150 -209c13 -63 37 -100 75 -100z" />
    <glyph glyph-name="oe" unicode="&#x153;" horiz-adv-x="894" 
d="M301 549c74 0 140 -30 186 -75c45 45 103 75 172 75c142 0 216 -92 216 -219v-25h-320c-1 -119 64 -193 155 -193c65 0 112 23 149 73l19 -12c-27 -110 -104 -183 -230 -183c-67 0 -129 29 -173 72c-46 -42 -107 -72 -175 -72c-165 0 -279 105 -279 269
c0 168 116 290 280 290zM305 32c60 0 80 77 80 204c0 164 -24 271 -89 271c-59 0 -79 -77 -79 -204c0 -164 24 -271 88 -271zM644 507c-55 0 -83 -63 -88 -156h160c0 97 -19 156 -72 156z" />
    <glyph glyph-name="germandbls" unicode="&#xdf;" horiz-adv-x="720" 
d="M367 783c136 0 222 -56 222 -145c0 -111 -139 -124 -139 -179c0 -25 42 -45 105 -82c87 -51 148 -100 148 -204c0 -114 -90 -183 -213 -183c-70 0 -125 19 -166 52l-6 130h47c19 -78 64 -140 129 -140c47 0 76 27 76 69c0 50 -32 77 -106 121c-82 49 -120 88 -120 152
c0 107 126 136 126 266c0 61 -32 103 -97 103c-77 0 -110 -59 -110 -157v-586h-240v39c40 3 56 7 56 39v407h-72v40l72 19l1 12c15 144 123 227 287 227z" />
    <glyph glyph-name="onesuperior" unicode="&#xb9;" horiz-adv-x="342" 
d="M198 712h32v-331c0 -35 13 -37 68 -41v-34h-258v34c64 4 70 6 70 41v217h-70v31l25 5c66 13 101 36 133 78z" />
    <glyph glyph-name="mu" unicode="&#xb5;" horiz-adv-x="647" 
d="M235 -5l13 -167v-15l-186 -10v600c0 29 -7 50 -39 58l-15 5v36l211 46h33l-6 -127v-245c0 -51 20 -80 68 -80c30 0 50 8 77 20v287c0 29 -7 50 -38 58l-15 5v36l210 46h33l-5 -127v-306c0 -34 2 -49 34 -50l24 -1v-39l-211 -35h-35l3 97c-27 -62 -76 -97 -138 -97
c-10 0 -13 2 -18 5z" />
    <glyph glyph-name="trademark" unicode="&#x2122;" horiz-adv-x="883" 
d="M357 702l6 -113h-27c-21 52 -35 87 -76 87h-11v-246c0 -26 12 -31 44 -33v-27h-183v27c31 2 41 7 41 33v246h-9c-41 0 -57 -35 -77 -87h-28l7 113h313zM603 499l60 170c5 14 7 22 7 33h134v-30c-32 0 -41 -14 -41 -39l30 -206c4 -23 14 -28 41 -30v-27h-179v27
c34 2 46 7 46 31c0 4 -2 21 -3 38l-23 141l-82 -238h-42l-85 238l-20 -140c-3 -18 -4 -35 -4 -39c0 -24 11 -29 46 -31v-27h-125v27c28 2 37 7 41 30l29 206c0 25 -9 39 -39 39v30h138c1 -11 3 -19 7 -32z" />
    <glyph glyph-name="Eth" unicode="&#xd0;" horiz-adv-x="799" 
d="M36 325v62h73v206c0 52 -6 60 -73 67v42h329c277 0 407 -148 407 -343c0 -226 -150 -359 -384 -359h-352v42c67 7 73 15 73 67v216h-73zM331 655h-26v-268h129v-62h-129v-208c0 -59 23 -70 68 -70h9c113 0 187 115 187 293c0 192 -85 315 -238 315z" />
    <glyph glyph-name="onehalf" unicode="&#xbd;" horiz-adv-x="810" 
d="M198 712h32v-331c0 -35 13 -37 68 -41v-34h-258v34c64 4 70 6 70 41v217h-70v31l25 5c66 13 101 36 133 78zM150 -10l438 722h55l-439 -722h-54zM569 94h107c33 0 41 8 64 42h21l-12 -136h-302v25l114 107c48 45 69 80 69 124c0 41 -23 67 -66 67c-40 0 -69 -21 -88 -44
l-21 18c28 57 82 108 164 108c77 0 124 -42 124 -114c0 -86 -81 -139 -174 -197z" />
    <glyph glyph-name="plusminus" unicode="&#xb1;" horiz-adv-x="574" 
d="M253 607h67v-143h188v-66h-188v-141h-67v141h-186v66h186v143zM67 137v67h441v-67h-441z" />
    <glyph glyph-name="Thorn" unicode="&#xde;" horiz-adv-x="667" 
d="M295 593v-19h77c195 0 285 -92 285 -212c0 -138 -95 -220 -293 -220h-69v-30c0 -53 27 -65 116 -70v-42h-385v42c67 7 73 15 73 67v484c0 52 -6 60 -73 67v42h341v-42c-66 -7 -72 -15 -72 -67zM295 527v-332h23c96 0 147 64 147 167s-57 165 -147 165h-23z" />
    <glyph glyph-name="onequarter" unicode="&#xbc;" horiz-adv-x="798" 
d="M431 143h133v167zM198 712h32v-331c0 -35 13 -37 68 -41v-34h-258v34c64 4 70 6 70 41v217h-70v31l25 5c66 13 101 36 133 78zM150 -10l438 722h55l-439 -722h-54zM737 0h-227v34c44 3 54 6 54 41v30h-188v30l204 262h103v-254h78v-38h-78v-30c0 -35 10 -38 54 -41v-34z
" />
    <glyph glyph-name="divide" unicode="&#xf7;" horiz-adv-x="574" 
d="M65 335v69h443v-69h-443zM227 197c0 34 27 61 59 61s60 -27 60 -61c0 -32 -28 -59 -60 -59s-59 27 -59 59zM227 541c0 33 27 59 59 59s60 -26 60 -59c0 -32 -28 -60 -60 -60s-59 28 -59 60z" />
    <glyph glyph-name="brokenbar" unicode="&#xa6;" horiz-adv-x="205" 
d="M139 770v-376h-73v376h73zM139 235v-376h-73v376h73z" />
    <glyph glyph-name="degree" unicode="&#xb0;" horiz-adv-x="285" 
d="M73 591c0 -44 26 -74 71 -74c42 0 68 30 68 74c0 43 -26 74 -68 74c-45 0 -71 -31 -71 -74zM20 591c0 68 54 121 124 121c67 0 121 -53 121 -121c0 -69 -54 -122 -121 -122c-70 0 -124 53 -124 122z" />
    <glyph glyph-name="thorn" unicode="&#xfe;" horiz-adv-x="637" 
d="M428 247c0 132 -47 193 -123 193c-21 0 -41 -5 -59 -17v-281c0 -65 18 -105 71 -105c72 0 111 92 111 210zM61 -134v813l-55 28v30l209 46h31v-331c28 45 83 97 168 97c118 0 202 -82 202 -246c0 -205 -124 -313 -283 -313c-37 0 -70 7 -87 21v-141c0 -36 18 -38 77 -43
v-39h-318v39c40 3 56 7 56 39z" />
    <glyph glyph-name="threequarters" unicode="&#xbe;" horiz-adv-x="821" 
d="M219 529c76 -2 128 -41 128 -107c0 -78 -76 -120 -168 -120c-97 0 -140 38 -140 83c0 26 15 40 28 47h67c-3 -12 -4 -19 -4 -30c0 -43 19 -71 54 -71c33 0 56 24 56 75s-29 82 -86 82h-15l-6 22c58 22 79 42 79 74c0 28 -19 50 -56 50s-60 -21 -77 -43l-24 18
c26 54 78 103 158 103c69 0 111 -35 111 -90c0 -56 -52 -84 -105 -93zM453 143h133v167zM173 -10l438 722h54l-439 -722h-53zM759 0h-226v34c43 3 53 6 53 41v30h-188v30l204 262h103v-254h79v-38h-79v-30c0 -35 10 -38 54 -41v-34z" />
    <glyph glyph-name="registered" unicode="&#xae;" horiz-adv-x="515" 
d="M244 585h-9v-98h9c30 0 47 19 47 50c0 30 -17 48 -47 48zM146 608h114c69 0 98 -33 98 -71c0 -36 -27 -57 -53 -65l44 -60c11 -15 19 -23 34 -24v-18h-69c-10 6 -22 19 -31 33l-41 63h-7v-53c0 -19 3 -25 24 -25v-18h-113v18c23 0 27 6 27 25v151c0 21 -4 23 -27 25v19z
M64 484c0 -105 81 -196 193 -196c113 0 194 91 194 196c0 106 -81 197 -194 197c-112 0 -193 -91 -193 -197zM30 484c0 126 95 228 227 228c133 0 228 -102 228 -228c0 -125 -95 -227 -228 -227c-132 0 -227 102 -227 227z" />
    <glyph glyph-name="minus" unicode="&#x2212;" horiz-adv-x="574" 
d="M65 335v69h443v-69h-443z" />
    <glyph glyph-name="eth" unicode="&#xf0;" horiz-adv-x="600" 
d="M121 588l-13 43l151 48c-38 32 -87 58 -149 74l19 34c92 -12 169 -39 232 -76l129 41l13 -42l-96 -31c118 -90 172 -222 172 -353c0 -201 -100 -336 -283 -336c-166 0 -275 117 -275 273c0 175 125 285 260 285c35 0 69 -12 87 -33c-16 47 -40 90 -73 128zM305 32
c60 0 80 77 80 204c0 164 -24 271 -89 271c-59 0 -79 -77 -79 -204c0 -164 24 -271 88 -271z" />
    <glyph glyph-name="multiply" unicode="&#xd7;" horiz-adv-x="497" 
d="M202 365l-137 137l47 48l136 -139l137 139l48 -48l-138 -137l138 -137l-48 -46l-137 137l-136 -137l-47 46z" />
    <glyph glyph-name="threesuperior" unicode="&#xb3;" horiz-adv-x="387" 
d="M218 528c76 -2 129 -40 129 -107c0 -78 -76 -119 -168 -119c-97 0 -140 38 -140 83c0 26 15 40 28 47h67c-3 -12 -4 -19 -4 -30c0 -43 19 -71 54 -71c33 0 56 24 56 75s-29 82 -86 82h-15l-6 22c58 22 79 42 79 74c0 28 -18 50 -56 50c-37 0 -60 -21 -77 -43l-24 18
c26 54 78 103 158 103c69 0 111 -35 111 -90c0 -56 -52 -85 -106 -94z" />
    <glyph glyph-name="copyright" unicode="&#xa9;" horiz-adv-x="780" 
d="M70 351c0 -179 132 -326 320 -326s320 147 320 326s-132 326 -320 326s-320 -147 -320 -326zM32 351c0 199 149 361 358 361s358 -162 358 -361s-149 -361 -358 -361s-358 162 -358 361zM418 177c53 0 84 43 107 116h36l-9 -114c-36 -23 -84 -38 -144 -38
c-135 0 -213 85 -213 203c0 136 96 220 214 220c59 0 108 -17 138 -42v-104h-35c-12 61 -39 110 -94 110c-72 0 -99 -84 -99 -173c0 -107 33 -178 99 -178z" />
    <glyph glyph-name="Aacute" unicode="&#xc1;" horiz-adv-x="759" 
d="M471 125l-36 92h-255l-34 -91c-5 -15 -8 -27 -8 -37c0 -33 28 -44 82 -47v-42h-215v42c27 4 47 10 58 37l208 542l-34 83h209l249 -625c10 -26 30 -33 59 -37v-42h-353v42c50 2 78 12 78 46c0 10 -3 22 -8 37zM304 548l-104 -277h213zM348 892h180v-9l-173 -140h-56z" />
    <glyph glyph-name="Acircumflex" unicode="&#xc2;" horiz-adv-x="759" 
d="M471 125l-36 92h-255l-34 -91c-5 -15 -8 -27 -8 -37c0 -33 28 -44 82 -47v-42h-215v42c27 4 47 10 58 37l208 542l-34 83h209l249 -625c10 -26 30 -33 59 -37v-42h-353v42c50 2 78 12 78 46c0 10 -3 22 -8 37zM304 548l-104 -277h213zM416 896l120 -153h-57l-125 70
l-125 -70h-57l120 153h124z" />
    <glyph glyph-name="Adieresis" unicode="&#xc4;" horiz-adv-x="759" 
d="M471 125l-36 92h-255l-34 -91c-5 -15 -8 -27 -8 -37c0 -33 28 -44 82 -47v-42h-215v42c27 4 47 10 58 37l208 542l-34 83h209l249 -625c10 -26 30 -33 59 -37v-42h-353v42c50 2 78 12 78 46c0 10 -3 22 -8 37zM304 548l-104 -277h213zM166 823c0 45 38 83 84 83
s85 -38 85 -83c0 -46 -39 -83 -85 -83s-84 37 -84 83zM372 823c0 45 39 83 83 83c48 0 86 -38 86 -83c0 -46 -38 -83 -86 -83c-44 0 -83 37 -83 83z" />
    <glyph glyph-name="Agrave" unicode="&#xc0;" horiz-adv-x="759" 
d="M471 125l-36 92h-255l-34 -91c-5 -15 -8 -27 -8 -37c0 -33 28 -44 82 -47v-42h-215v42c27 4 47 10 58 37l208 542l-34 83h209l249 -625c10 -26 30 -33 59 -37v-42h-353v42c50 2 78 12 78 46c0 10 -3 22 -8 37zM304 548l-104 -277h213zM172 892h180l49 -149h-55l-174 140
v9z" />
    <glyph glyph-name="Aring" unicode="&#xc5;" horiz-adv-x="759" 
d="M471 125l-36 92h-255l-34 -91c-5 -15 -8 -27 -8 -37c0 -33 28 -44 82 -47v-42h-215v42c27 4 47 10 58 37l208 542l-34 83h209l249 -625c10 -26 30 -33 59 -37v-42h-353v42c50 2 78 12 78 46c0 10 -3 22 -8 37zM248 827c0 57 44 102 104 102s103 -45 103 -102
c0 -56 -43 -100 -103 -100s-104 44 -104 100zM304 548l-104 -277h213zM302 827c0 -29 18 -50 50 -50s50 21 50 50c0 30 -18 52 -50 52s-50 -22 -50 -52z" />
    <glyph glyph-name="Atilde" unicode="&#xc3;" horiz-adv-x="759" 
d="M471 125l-36 92h-255l-34 -91c-5 -15 -8 -27 -8 -37c0 -33 28 -44 82 -47v-42h-215v42c27 4 47 10 58 37l208 542l-34 83h209l249 -625c10 -26 30 -33 59 -37v-42h-353v42c50 2 78 12 78 46c0 10 -3 22 -8 37zM423 743c-63 0 -94 60 -138 60c-28 0 -47 -23 -66 -56
l-36 20c34 86 64 135 118 135c63 0 94 -60 138 -60c28 0 47 23 66 55l36 -19c-34 -87 -64 -135 -118 -135zM304 548l-104 -277h213z" />
    <glyph glyph-name="Ccedilla" unicode="&#xc7;" horiz-adv-x="683" 
d="M302 -231l-8 35c72 0 105 22 105 48c0 28 -30 33 -79 35l42 104c-209 12 -336 140 -336 341c0 235 170 380 378 380c90 0 166 -21 223 -59l3 -175h-49c-25 119 -78 184 -171 184c-125 0 -177 -133 -177 -302c0 -183 64 -317 187 -317c83 0 147 59 187 211h50l-17 -199
c-57 -41 -145 -64 -241 -65l-12 -30c63 0 105 -30 105 -82c0 -75 -90 -109 -190 -109z" />
    <glyph glyph-name="Eacute" unicode="&#xc9;" horiz-adv-x="655" 
d="M339 892h180v-9l-173 -140h-56zM26 0v42c67 7 73 15 73 67v484c0 52 -6 60 -73 67v42h575l5 -193h-38c-53 112 -79 146 -170 146h-103v-265h97c46 0 58 24 67 92h43v-240h-43c-9 68 -21 93 -67 93h-97v-221c0 -54 26 -67 81 -67h35c89 0 111 39 183 171h45l-32 -218h-581
z" />
    <glyph glyph-name="Ecircumflex" unicode="&#xca;" horiz-adv-x="655" 
d="M26 0v42c67 7 73 15 73 67v484c0 52 -6 60 -73 67v42h575l5 -193h-38c-53 112 -79 146 -170 146h-103v-265h97c46 0 58 24 67 92h43v-240h-43c-9 68 -21 93 -67 93h-97v-221c0 -54 26 -67 81 -67h35c89 0 111 39 183 171h45l-32 -218h-581zM406 896l120 -153h-57l-125 70
l-125 -70h-57l120 153h124z" />
    <glyph glyph-name="Edieresis" unicode="&#xcb;" horiz-adv-x="655" 
d="M157 823c0 45 38 83 84 83s85 -38 85 -83c0 -46 -39 -83 -85 -83s-84 37 -84 83zM363 823c0 45 39 83 83 83c48 0 86 -38 86 -83c0 -46 -38 -83 -86 -83c-44 0 -83 37 -83 83zM26 0v42c67 7 73 15 73 67v484c0 52 -6 60 -73 67v42h575l5 -193h-38
c-53 112 -79 146 -170 146h-103v-265h97c46 0 58 24 67 92h43v-240h-43c-9 68 -21 93 -67 93h-97v-221c0 -54 26 -67 81 -67h35c89 0 111 39 183 171h45l-32 -218h-581z" />
    <glyph glyph-name="Egrave" unicode="&#xc8;" horiz-adv-x="655" 
d="M167 892h180l49 -149h-55l-174 140v9zM26 0v42c67 7 73 15 73 67v484c0 52 -6 60 -73 67v42h575l5 -193h-38c-53 112 -79 146 -170 146h-103v-265h97c46 0 58 24 67 92h43v-240h-43c-9 68 -21 93 -67 93h-97v-221c0 -54 26 -67 81 -67h35c89 0 111 39 183 171h45
l-32 -218h-581z" />
    <glyph glyph-name="Iacute" unicode="&#xcd;" horiz-adv-x="394" 
d="M295 593v-484c0 -52 6 -60 72 -67v-42h-341v42c67 7 73 15 73 67v484c0 52 -6 60 -73 67v42h341v-42c-66 -7 -72 -15 -72 -67zM191 892h180v-9l-173 -140h-56z" />
    <glyph glyph-name="Icircumflex" unicode="&#xce;" horiz-adv-x="394" 
d="M295 593v-484c0 -52 6 -60 72 -67v-42h-341v42c67 7 73 15 73 67v484c0 52 -6 60 -73 67v42h341v-42c-66 -7 -72 -15 -72 -67zM258 896l118 -153h-56l-123 70l-123 -70h-56l118 153h122z" />
    <glyph glyph-name="Idieresis" unicode="&#xcf;" horiz-adv-x="394" 
d="M295 593v-484c0 -52 6 -60 72 -67v-42h-341v42c67 7 73 15 73 67v484c0 52 -6 60 -73 67v42h341v-42c-66 -7 -72 -15 -72 -67zM9 823c0 45 38 83 84 83s85 -38 85 -83c0 -46 -39 -83 -85 -83s-84 37 -84 83zM215 823c0 45 39 83 83 83c48 0 86 -38 86 -83
c0 -46 -38 -83 -86 -83c-44 0 -83 37 -83 83z" />
    <glyph glyph-name="Igrave" unicode="&#xcc;" horiz-adv-x="394" 
d="M295 593v-484c0 -52 6 -60 72 -67v-42h-341v42c67 7 73 15 73 67v484c0 52 -6 60 -73 67v42h341v-42c-66 -7 -72 -15 -72 -67zM19 892h180l49 -149h-55l-174 140v9z" />
    <glyph glyph-name="Ntilde" unicode="&#xd1;" horiz-adv-x="754" 
d="M460 743c-63 0 -94 60 -138 60c-28 0 -47 -23 -66 -56l-36 20c34 86 64 135 118 135c63 0 94 -60 138 -60c28 0 47 23 66 55l36 -19c-34 -87 -64 -135 -118 -135zM597 306v286c0 52 -20 62 -101 68v42h240v-42c-66 -7 -72 -16 -72 -68v-593h-71l-427 528v-417
c0 -52 20 -62 101 -68v-42h-240v42c66 7 72 16 72 68v486c-25 43 -39 62 -73 64v42h252z" />
    <glyph glyph-name="Oacute" unicode="&#xd3;" horiz-adv-x="747" 
d="M371 892h180v-9l-173 -140h-56zM378 38c101 0 135 154 135 301c0 178 -40 325 -145 325c-101 0 -135 -154 -135 -301c0 -178 40 -325 145 -325zM364 -10c-222 0 -338 161 -338 347c0 230 150 375 356 375c222 0 338 -161 338 -347c0 -230 -149 -375 -356 -375z" />
    <glyph glyph-name="Ocircumflex" unicode="&#xd4;" horiz-adv-x="747" 
d="M378 38c101 0 135 154 135 301c0 178 -40 325 -145 325c-101 0 -135 -154 -135 -301c0 -178 40 -325 145 -325zM364 -10c-222 0 -338 161 -338 347c0 230 150 375 356 375c222 0 338 -161 338 -347c0 -230 -149 -375 -356 -375zM439 896l120 -153h-57l-125 70l-125 -70
h-57l120 153h124z" />
    <glyph glyph-name="Odieresis" unicode="&#xd6;" horiz-adv-x="747" 
d="M189 823c0 45 38 83 84 83s85 -38 85 -83c0 -46 -39 -83 -85 -83s-84 37 -84 83zM395 823c0 45 39 83 83 83c48 0 86 -38 86 -83c0 -46 -38 -83 -86 -83c-44 0 -83 37 -83 83zM378 38c101 0 135 154 135 301c0 178 -40 325 -145 325c-101 0 -135 -154 -135 -301
c0 -178 40 -325 145 -325zM364 -10c-222 0 -338 161 -338 347c0 230 150 375 356 375c222 0 338 -161 338 -347c0 -230 -149 -375 -356 -375z" />
    <glyph glyph-name="Ograve" unicode="&#xd2;" horiz-adv-x="747" 
d="M199 892h180l49 -149h-55l-174 140v9zM378 38c101 0 135 154 135 301c0 178 -40 325 -145 325c-101 0 -135 -154 -135 -301c0 -178 40 -325 145 -325zM364 -10c-222 0 -338 161 -338 347c0 230 150 375 356 375c222 0 338 -161 338 -347c0 -230 -149 -375 -356 -375z" />
    <glyph glyph-name="Otilde" unicode="&#xd5;" horiz-adv-x="747" 
d="M454 743c-63 0 -94 60 -138 60c-28 0 -47 -23 -66 -56l-36 20c34 86 64 135 118 135c63 0 94 -60 138 -60c28 0 47 23 66 55l36 -19c-34 -87 -64 -135 -118 -135zM378 38c101 0 135 154 135 301c0 178 -40 325 -145 325c-101 0 -135 -154 -135 -301
c0 -178 40 -325 145 -325zM364 -10c-222 0 -338 161 -338 347c0 230 150 375 356 375c222 0 338 -161 338 -347c0 -230 -149 -375 -356 -375z" />
    <glyph glyph-name="Scaron" unicode="&#x160;" horiz-adv-x="579" 
d="M275 -10c-100 0 -188 30 -235 67l-11 174h53c25 -112 92 -193 193 -193c71 0 117 34 117 96c0 65 -42 93 -153 127c-133 39 -206 104 -206 225c0 139 106 226 254 226c91 0 167 -24 216 -60v-152h-45c-23 101 -78 165 -171 165c-62 0 -103 -36 -103 -93
c0 -65 40 -92 143 -123c133 -41 221 -94 221 -234c0 -154 -123 -225 -273 -225zM479 897l-120 -153h-124l-120 153h57l125 -70l125 70h57z" />
    <glyph glyph-name="Uacute" unicode="&#xda;" horiz-adv-x="753" 
d="M410 892h180v-9l-173 -140h-56zM282 593v-332c0 -115 44 -187 153 -187c92 0 165 51 165 192v326c0 52 -12 62 -93 68v42h232v-42c-66 -7 -72 -16 -72 -68v-345c0 -176 -124 -257 -279 -257c-192 0 -302 85 -302 257v346c0 52 -5 60 -72 67v42h341v-42
c-67 -7 -73 -15 -73 -67z" />
    <glyph glyph-name="Ucircumflex" unicode="&#xdb;" horiz-adv-x="753" 
d="M282 593v-332c0 -115 44 -187 153 -187c92 0 165 51 165 192v326c0 52 -12 62 -93 68v42h232v-42c-66 -7 -72 -16 -72 -68v-345c0 -176 -124 -257 -279 -257c-192 0 -302 85 -302 257v346c0 52 -5 60 -72 67v42h341v-42c-67 -7 -73 -15 -73 -67zM478 896l120 -153h-57
l-125 70l-125 -70h-57l120 153h124z" />
    <glyph glyph-name="Udieresis" unicode="&#xdc;" horiz-adv-x="753" 
d="M229 823c0 45 38 83 84 83s85 -38 85 -83c0 -46 -39 -83 -85 -83s-84 37 -84 83zM435 823c0 45 39 83 83 83c48 0 86 -38 86 -83c0 -46 -38 -83 -86 -83c-44 0 -83 37 -83 83zM282 593v-332c0 -115 44 -187 153 -187c92 0 165 51 165 192v326c0 52 -12 62 -93 68v42h232
v-42c-66 -7 -72 -16 -72 -68v-345c0 -176 -124 -257 -279 -257c-192 0 -302 85 -302 257v346c0 52 -5 60 -72 67v42h341v-42c-67 -7 -73 -15 -73 -67z" />
    <glyph glyph-name="Ugrave" unicode="&#xd9;" horiz-adv-x="753" 
d="M239 892h180l49 -149h-55l-174 140v9zM282 593v-332c0 -115 44 -187 153 -187c92 0 165 51 165 192v326c0 52 -12 62 -93 68v42h232v-42c-66 -7 -72 -16 -72 -68v-345c0 -176 -124 -257 -279 -257c-192 0 -302 85 -302 257v346c0 52 -5 60 -72 67v42h341v-42
c-67 -7 -73 -15 -73 -67z" />
    <glyph glyph-name="Yacute" unicode="&#xdd;" horiz-adv-x="707" 
d="M457 263v-158c0 -52 17 -56 83 -63v-42h-356v42c66 7 82 11 82 63v153l-203 365c-15 28 -29 33 -58 37v42h345v-42c-54 -2 -68 -11 -68 -36c0 -21 8 -37 23 -64l128 -220l112 218c11 23 23 49 23 66c0 25 -22 34 -70 36v42h204v-42c-27 -4 -45 -12 -58 -37zM392 892h180
v-9l-173 -140h-56z" />
    <glyph glyph-name="Ydieresis" unicode="&#x178;" horiz-adv-x="707" 
d="M457 263v-158c0 -52 17 -56 83 -63v-42h-356v42c66 7 82 11 82 63v153l-203 365c-15 28 -29 33 -58 37v42h345v-42c-54 -2 -68 -11 -68 -36c0 -21 8 -37 23 -64l128 -220l112 218c11 23 23 49 23 66c0 25 -22 34 -70 36v42h204v-42c-27 -4 -45 -12 -58 -37zM211 823
c0 45 38 83 84 83s85 -38 85 -83c0 -46 -39 -83 -85 -83s-84 37 -84 83zM417 823c0 45 39 83 83 83c48 0 86 -38 86 -83c0 -46 -38 -83 -86 -83c-44 0 -83 37 -83 83z" />
    <glyph glyph-name="Zcaron" unicode="&#x17d;" horiz-adv-x="632" 
d="M507 897l-120 -153h-124l-120 153h57l125 -70l125 70h57zM243 47h126c84 0 118 35 203 184h43l-36 -231h-563v35l351 620h-119c-93 0 -110 -42 -168 -170h-41l9 217h547v-35z" />
    <glyph glyph-name="aacute" unicode="&#xe1;" horiz-adv-x="554" 
d="M263 89c16 0 28 5 44 14v185l-55 -21c-35 -13 -58 -32 -58 -89c0 -51 19 -89 69 -89zM489 375v-265c0 -24 3 -45 27 -45c14 0 27 3 34 6l7 -27c-33 -33 -76 -54 -132 -54c-58 0 -100 31 -115 84c-29 -42 -77 -81 -151 -81c-84 0 -143 48 -143 134c0 87 61 123 132 148
l159 56v102c0 46 -13 77 -52 77s-54 -32 -54 -79c0 -23 4 -46 9 -70l-111 -15c-29 10 -49 34 -49 70c0 91 94 133 215 133c140 0 224 -44 224 -174zM267 765h179v-9l-177 -155h-52z" />
    <glyph glyph-name="acircumflex" unicode="&#xe2;" horiz-adv-x="554" 
d="M263 89c16 0 28 5 44 14v185l-55 -21c-35 -13 -58 -32 -58 -89c0 -51 19 -89 69 -89zM489 375v-265c0 -24 3 -45 27 -45c14 0 27 3 34 6l7 -27c-33 -33 -76 -54 -132 -54c-58 0 -100 31 -115 84c-29 -42 -77 -81 -151 -81c-84 0 -143 48 -143 134c0 87 61 123 132 148
l159 56v102c0 46 -13 77 -52 77s-54 -32 -54 -79c0 -23 4 -46 9 -70l-111 -15c-29 10 -49 34 -49 70c0 91 94 133 215 133c140 0 224 -44 224 -174zM335 766l116 -170h-58l-120 85l-120 -85h-58l116 170h124z" />
    <glyph glyph-name="adieresis" unicode="&#xe4;" horiz-adv-x="554" 
d="M263 89c16 0 28 5 44 14v185l-55 -21c-35 -13 -58 -32 -58 -89c0 -51 19 -89 69 -89zM489 375v-265c0 -24 3 -45 27 -45c14 0 27 3 34 6l7 -27c-33 -33 -76 -54 -132 -54c-58 0 -100 31 -115 84c-29 -42 -77 -81 -151 -81c-84 0 -143 48 -143 134c0 87 61 123 132 148
l159 56v102c0 46 -13 77 -52 77s-54 -32 -54 -79c0 -23 4 -46 9 -70l-111 -15c-29 10 -49 34 -49 70c0 91 94 133 215 133c140 0 224 -44 224 -174zM87 687c0 46 37 83 84 83c46 0 84 -37 84 -83c0 -45 -38 -83 -84 -83c-47 0 -84 38 -84 83zM291 687c0 46 39 83 83 83
c49 0 86 -37 86 -83c0 -45 -37 -83 -86 -83c-44 0 -83 38 -83 83z" />
    <glyph glyph-name="agrave" unicode="&#xe0;" horiz-adv-x="554" 
d="M263 89c16 0 28 5 44 14v185l-55 -21c-35 -13 -58 -32 -58 -89c0 -51 19 -89 69 -89zM489 375v-265c0 -24 3 -45 27 -45c14 0 27 3 34 6l7 -27c-33 -33 -76 -54 -132 -54c-58 0 -100 31 -115 84c-29 -42 -77 -81 -151 -81c-84 0 -143 48 -143 134c0 87 61 123 132 148
l159 56v102c0 46 -13 77 -52 77s-54 -32 -54 -79c0 -23 4 -46 9 -70l-111 -15c-29 10 -49 34 -49 70c0 91 94 133 215 133c140 0 224 -44 224 -174zM99 765h179l50 -164h-51l-178 155v9z" />
    <glyph glyph-name="aring" unicode="&#xe5;" horiz-adv-x="554" 
d="M263 89c16 0 28 5 44 14v185l-55 -21c-35 -13 -58 -32 -58 -89c0 -51 19 -89 69 -89zM489 375v-265c0 -24 3 -45 27 -45c14 0 27 3 34 6l7 -27c-33 -33 -76 -54 -132 -54c-58 0 -100 31 -115 84c-29 -42 -77 -81 -151 -81c-84 0 -143 48 -143 134c0 87 61 123 132 148
l159 56v102c0 46 -13 77 -52 77s-54 -32 -54 -79c0 -23 4 -46 9 -70l-111 -15c-29 10 -49 34 -49 70c0 91 94 133 215 133c140 0 224 -44 224 -174zM223 678c0 -29 18 -51 50 -51s50 22 50 51c0 30 -18 52 -50 52s-50 -22 -50 -52zM169 678c0 57 44 102 104 102
s103 -45 103 -102c0 -56 -43 -101 -103 -101s-104 45 -104 101z" />
    <glyph glyph-name="atilde" unicode="&#xe3;" horiz-adv-x="554" 
d="M263 89c16 0 28 5 44 14v185l-55 -21c-35 -13 -58 -32 -58 -89c0 -51 19 -89 69 -89zM489 375v-265c0 -24 3 -45 27 -45c14 0 27 3 34 6l7 -27c-33 -33 -76 -54 -132 -54c-58 0 -100 31 -115 84c-29 -42 -77 -81 -151 -81c-84 0 -143 48 -143 134c0 87 61 123 132 148
l159 56v102c0 46 -13 77 -52 77s-54 -32 -54 -79c0 -23 4 -46 9 -70l-111 -15c-29 10 -49 34 -49 70c0 91 94 133 215 133c140 0 224 -44 224 -174zM338 602c-63 0 -93 60 -136 60c-28 0 -46 -23 -65 -56l-36 20c33 86 63 135 117 135c63 0 92 -60 136 -60c28 0 46 23 65 55
l36 -19c-34 -87 -63 -135 -117 -135z" />
    <glyph glyph-name="ccedilla" unicode="&#xe7;" horiz-adv-x="503" 
d="M156 -231l-8 35c72 0 105 22 105 48c0 28 -30 33 -79 35l43 108c-114 20 -196 114 -196 258c0 169 108 296 274 296c101 0 183 -39 183 -127c0 -38 -22 -63 -44 -73h-95c3 22 4 39 4 57c0 58 -16 98 -64 98c-62 0 -98 -79 -98 -182c0 -128 57 -207 157 -207
c59 0 101 20 133 66l22 -14c-33 -122 -114 -177 -226 -177h-14l-12 -30c63 0 105 -30 105 -82c0 -75 -90 -109 -190 -109z" />
    <glyph glyph-name="eacute" unicode="&#xe9;" horiz-adv-x="526" 
d="M284 765h179v-9l-177 -155h-52zM288 549c145 0 219 -92 219 -219v-25h-319c-2 -119 64 -193 155 -193c64 0 111 23 149 73l19 -12c-27 -110 -104 -183 -230 -183c-148 0 -260 99 -260 267c0 178 123 292 267 292zM276 507c-55 0 -82 -63 -87 -156h160
c0 97 -19 156 -73 156z" />
    <glyph glyph-name="ecircumflex" unicode="&#xea;" horiz-adv-x="526" 
d="M351 766l116 -170h-58l-120 85l-120 -85h-58l116 170h124zM288 549c145 0 219 -92 219 -219v-25h-319c-2 -119 64 -193 155 -193c64 0 111 23 149 73l19 -12c-27 -110 -104 -183 -230 -183c-148 0 -260 99 -260 267c0 178 123 292 267 292zM276 507
c-55 0 -82 -63 -87 -156h160c0 97 -19 156 -73 156z" />
    <glyph glyph-name="edieresis" unicode="&#xeb;" horiz-adv-x="526" 
d="M103 687c0 46 37 83 84 83c46 0 84 -37 84 -83c0 -45 -38 -83 -84 -83c-47 0 -84 38 -84 83zM307 687c0 46 39 83 83 83c49 0 86 -37 86 -83c0 -45 -37 -83 -86 -83c-44 0 -83 38 -83 83zM288 549c145 0 219 -92 219 -219v-25h-319c-2 -119 64 -193 155 -193
c64 0 111 23 149 73l19 -12c-27 -110 -104 -183 -230 -183c-148 0 -260 99 -260 267c0 178 123 292 267 292zM276 507c-55 0 -82 -63 -87 -156h160c0 97 -19 156 -73 156z" />
    <glyph glyph-name="egrave" unicode="&#xe8;" horiz-adv-x="526" 
d="M288 549c145 0 219 -92 219 -219v-25h-319c-2 -119 64 -193 155 -193c64 0 111 23 149 73l19 -12c-27 -110 -104 -183 -230 -183c-148 0 -260 99 -260 267c0 178 123 292 267 292zM276 507c-55 0 -82 -63 -87 -156h160c0 97 -19 156 -73 156zM116 765h179l50 -164h-51
l-178 155v9z" />
    <glyph glyph-name="iacute" unicode="&#xed;" horiz-adv-x="334" 
d="M167 765h179v-9l-177 -155h-52zM262 549v-471c0 -32 16 -36 56 -39v-39h-296v39c40 3 56 7 56 39v351l-55 34v28l208 58h31z" />
    <glyph glyph-name="icircumflex" unicode="&#xee;" horiz-adv-x="334" 
d="M224 766l105 -168h-52l-110 84l-109 -84h-53l106 168h113zM262 549v-471c0 -32 16 -36 56 -39v-39h-296v39c40 3 56 7 56 39v351l-55 34v28l208 58h31z" />
    <glyph glyph-name="idieresis" unicode="&#xef;" horiz-adv-x="334" 
d="M-18 687c0 46 38 83 84 83s85 -37 85 -83c0 -45 -39 -83 -85 -83s-84 38 -84 83zM185 687c0 46 38 83 83 83c48 0 85 -37 85 -83c0 -45 -37 -83 -85 -83c-45 0 -83 38 -83 83zM262 549v-471c0 -32 16 -36 56 -39v-39h-296v39c40 3 56 7 56 39v351l-55 34v28l208 58h31z
" />
    <glyph glyph-name="igrave" unicode="&#xec;" horiz-adv-x="334" 
d="M262 549v-471c0 -32 16 -36 56 -39v-39h-296v39c40 3 56 7 56 39v351l-55 34v28l208 58h31zM-1 765h179l50 -164h-51l-178 155v9z" />
    <glyph glyph-name="ntilde" unicode="&#xf1;" horiz-adv-x="664" 
d="M415 78v292c0 44 -15 70 -67 70c-32 0 -60 -9 -86 -22v-340c0 -32 14 -36 54 -39v-39h-294v39c40 3 56 7 56 39v351l-55 34v28l209 58h34l-4 -100c38 48 96 100 186 100c97 0 152 -54 152 -164v-307c0 -32 16 -36 56 -39v-39h-294v39c40 3 53 7 53 39zM415 602
c-63 0 -93 60 -136 60c-28 0 -46 -23 -65 -56l-36 20c33 86 63 135 117 135c63 0 92 -60 136 -60c28 0 46 23 65 55l36 -19c-34 -87 -63 -135 -117 -135z" />
    <glyph glyph-name="oacute" unicode="&#xf3;" horiz-adv-x="601" 
d="M297 765h179v-9l-177 -155h-52zM305 32c60 0 79 77 79 204c0 164 -23 271 -88 271c-60 0 -79 -77 -79 -204c0 -164 24 -271 88 -271zM300 -10c-165 0 -279 105 -279 269c0 168 116 290 280 290c165 0 279 -105 279 -269c0 -168 -116 -290 -280 -290z" />
    <glyph glyph-name="ocircumflex" unicode="&#xf4;" horiz-adv-x="601" 
d="M366 766l116 -170h-58l-120 85l-120 -85h-58l116 170h124zM305 32c60 0 79 77 79 204c0 164 -23 271 -88 271c-60 0 -79 -77 -79 -204c0 -164 24 -271 88 -271zM300 -10c-165 0 -279 105 -279 269c0 168 116 290 280 290c165 0 279 -105 279 -269
c0 -168 -116 -290 -280 -290z" />
    <glyph glyph-name="odieresis" unicode="&#xf6;" horiz-adv-x="601" 
d="M118 687c0 46 37 83 84 83c46 0 84 -37 84 -83c0 -45 -38 -83 -84 -83c-47 0 -84 38 -84 83zM322 687c0 46 39 83 83 83c49 0 86 -37 86 -83c0 -45 -37 -83 -86 -83c-44 0 -83 38 -83 83zM305 32c60 0 79 77 79 204c0 164 -23 271 -88 271c-60 0 -79 -77 -79 -204
c0 -164 24 -271 88 -271zM300 -10c-165 0 -279 105 -279 269c0 168 116 290 280 290c165 0 279 -105 279 -269c0 -168 -116 -290 -280 -290z" />
    <glyph glyph-name="ograve" unicode="&#xf2;" horiz-adv-x="601" 
d="M305 32c60 0 79 77 79 204c0 164 -23 271 -88 271c-60 0 -79 -77 -79 -204c0 -164 24 -271 88 -271zM300 -10c-165 0 -279 105 -279 269c0 168 116 290 280 290c165 0 279 -105 279 -269c0 -168 -116 -290 -280 -290zM130 765h179l50 -164h-51l-178 155v9z" />
    <glyph glyph-name="otilde" unicode="&#xf5;" horiz-adv-x="601" 
d="M305 32c60 0 79 77 79 204c0 164 -23 271 -88 271c-60 0 -79 -77 -79 -204c0 -164 24 -271 88 -271zM300 -10c-165 0 -279 105 -279 269c0 168 116 290 280 290c165 0 279 -105 279 -269c0 -168 -116 -290 -280 -290zM370 602c-63 0 -93 60 -136 60
c-28 0 -46 -23 -65 -56l-36 20c33 86 63 135 117 135c63 0 92 -60 136 -60c28 0 46 23 65 55l36 -19c-34 -87 -63 -135 -117 -135z" />
    <glyph glyph-name="scaron" unicode="&#x161;" horiz-adv-x="477" 
d="M425 770l-116 -170h-124l-116 170h58l120 -85l120 85h58zM227 -10c-83 0 -147 20 -190 51l-6 135h46c20 -82 72 -144 150 -144c47 0 85 23 85 68c0 51 -39 68 -107 90c-113 35 -174 82 -174 184c0 112 86 175 206 175c68 0 129 -18 172 -46v-120h-43
c-12 66 -56 124 -126 124c-43 0 -72 -24 -72 -62c0 -42 30 -59 96 -82c120 -40 185 -81 185 -190c0 -117 -87 -183 -222 -183z" />
    <glyph glyph-name="uacute" unicode="&#xfa;" horiz-adv-x="647" 
d="M316 765h179v-9l-177 -155h-52zM576 421v-306c0 -34 2 -49 34 -50l24 -1v-39l-211 -35h-35l3 97c-36 -46 -89 -97 -178 -97s-151 53 -151 168v245c0 29 -7 50 -39 58l-15 5v36l211 46h33l-6 -127v-245c0 -51 20 -80 68 -80c30 0 50 8 77 20v287c0 29 -7 50 -38 58l-15 5
v36l210 46h33z" />
    <glyph glyph-name="ucircumflex" unicode="&#xfb;" horiz-adv-x="647" 
d="M385 766l116 -170h-58l-120 85l-120 -85h-58l116 170h124zM576 421v-306c0 -34 2 -49 34 -50l24 -1v-39l-211 -35h-35l3 97c-36 -46 -89 -97 -178 -97s-151 53 -151 168v245c0 29 -7 50 -39 58l-15 5v36l211 46h33l-6 -127v-245c0 -51 20 -80 68 -80c30 0 50 8 77 20v287
c0 29 -7 50 -38 58l-15 5v36l210 46h33z" />
    <glyph glyph-name="udieresis" unicode="&#xfc;" horiz-adv-x="647" 
d="M137 687c0 46 37 83 84 83c46 0 84 -37 84 -83c0 -45 -38 -83 -84 -83c-47 0 -84 38 -84 83zM341 687c0 46 39 83 83 83c49 0 86 -37 86 -83c0 -45 -37 -83 -86 -83c-44 0 -83 38 -83 83zM576 421v-306c0 -34 2 -49 34 -50l24 -1v-39l-211 -35h-35l3 97
c-36 -46 -89 -97 -178 -97s-151 53 -151 168v245c0 29 -7 50 -39 58l-15 5v36l211 46h33l-6 -127v-245c0 -51 20 -80 68 -80c30 0 50 8 77 20v287c0 29 -7 50 -38 58l-15 5v36l210 46h33z" />
    <glyph glyph-name="ugrave" unicode="&#xf9;" horiz-adv-x="647" 
d="M576 421v-306c0 -34 2 -49 34 -50l24 -1v-39l-211 -35h-35l3 97c-36 -46 -89 -97 -178 -97s-151 53 -151 168v245c0 29 -7 50 -39 58l-15 5v36l211 46h33l-6 -127v-245c0 -51 20 -80 68 -80c30 0 50 8 77 20v287c0 29 -7 50 -38 58l-15 5v36l210 46h33zM149 765h179
l50 -164h-51l-178 155v9z" />
    <glyph glyph-name="yacute" unicode="&#xfd;" horiz-adv-x="599" 
d="M371 182l99 254c5 13 8 20 8 29c0 22 -14 28 -66 35v39h182v-39c-34 -11 -42 -18 -51 -40l-228 -547c-37 -88 -74 -134 -144 -134c-39 0 -70 16 -84 42v71c26 -5 47 -10 78 -10c56 0 85 16 103 58l16 35l-228 485c-10 22 -16 29 -51 40v39h320v-39
c-53 -7 -66 -13 -66 -35c0 -9 3 -16 7 -28zM335 765h179v-9l-177 -155h-52z" />
    <glyph glyph-name="ydieresis" unicode="&#xff;" horiz-adv-x="599" 
d="M371 182l99 254c5 13 8 20 8 29c0 22 -14 28 -66 35v39h182v-39c-34 -11 -42 -18 -51 -40l-228 -547c-37 -88 -74 -134 -144 -134c-39 0 -70 16 -84 42v71c26 -5 47 -10 78 -10c56 0 85 16 103 58l16 35l-228 485c-10 22 -16 29 -51 40v39h320v-39
c-53 -7 -66 -13 -66 -35c0 -9 3 -16 7 -28zM155 687c0 46 37 83 84 83c46 0 84 -37 84 -83c0 -45 -38 -83 -84 -83c-47 0 -84 38 -84 83zM359 687c0 46 39 83 83 83c49 0 86 -37 86 -83c0 -45 -37 -83 -86 -83c-44 0 -83 38 -83 83z" />
    <glyph glyph-name="zcaron" unicode="&#x17e;" horiz-adv-x="537" 
d="M470 770l-116 -170h-124l-116 170h58l120 -85l120 85h58zM18 0v33l284 460h-92c-53 0 -86 -46 -133 -152h-39l14 230h37l20 -33h402v-33l-278 -459h102c66 0 98 42 150 153h37l-22 -199h-482z" />
    <glyph glyph-name="Omega" unicode="&#x2126;" horiz-adv-x="729" 
d="M364 671c-95 0 -127 -120 -127 -271c0 -149 43 -245 93 -314v-86h-265l-25 194h32c45 -82 53 -91 143 -91h71c-115 37 -228 153 -228 297c0 174 116 312 306 312c191 0 307 -138 307 -312c0 -144 -113 -260 -228 -297h70c90 0 99 9 144 91h32l-25 -194h-266v86
c51 69 94 165 94 314c0 151 -32 271 -128 271z" />
    <glyph glyph-name="pi" unicode="&#x3c0;" horiz-adv-x="631" 
d="M348 174l31 254h-134c0 -204 -10 -297 -40 -428h-174v40c55 86 117 199 117 388h-120v118h572l-17 -118h-80v-304c0 -37 18 -55 45 -55c13 0 29 2 43 6l8 -27c-34 -33 -85 -58 -137 -58c-73 0 -118 37 -118 123c0 20 1 36 4 61z" />
    <glyph glyph-name="Euro" unicode="&#x20ac;" horiz-adv-x="679" 
d="M21 394v44h87c35 168 159 274 319 274c88 0 152 -21 202 -62v-164h-50c-17 101 -57 181 -142 181c-89 0 -131 -109 -142 -229h189l-9 -44h-183v-29c0 -16 0 -32 1 -47h163l-9 -46h-152c11 -133 50 -233 148 -233c86 0 125 64 166 194h48l-14 -188
c-55 -36 -140 -55 -214 -55c-188 0 -304 109 -327 282h-81v46h77v20c0 19 1 38 3 56h-80z" />
    <glyph glyph-name="partialdiff" unicode="&#x2202;" horiz-adv-x="600" 
d="M281 548c35 0 69 -12 87 -33c-38 107 -110 200 -259 238l20 34c331 -42 450 -248 450 -461c0 -201 -100 -336 -283 -336c-166 0 -275 117 -275 273c0 175 124 285 260 285zM305 32c60 0 79 77 79 204c0 164 -23 271 -88 271c-60 0 -79 -77 -79 -204
c0 -164 24 -271 88 -271z" />
    <glyph glyph-name="product" unicode="&#x220f;" horiz-adv-x="810" 
d="M517 654h-224v-742c0 -52 6 -60 73 -67v-42h-341v42c67 7 72 15 72 67v681c0 52 -5 60 -72 67v42h760v-42c-67 -7 -72 -15 -72 -67v-681c0 -52 5 -60 72 -67v-42h-341v42c67 7 73 15 73 67v742z" />
    <glyph glyph-name="summation" unicode="&#x2211;" horiz-adv-x="607" 
d="M143 -48h226c85 0 122 3 179 97h41l-44 -246h-537v47l274 371l-261 427v54h541v-187h-40c-45 96 -68 141 -160 141h-143l199 -326v-12z" />
    <glyph glyph-name="radical" unicode="&#x221a;" horiz-adv-x="600" 
d="M360 241l180 471h57l-277 -712h-72l-142 444c-13 40 -26 53 -61 57l-25 2v43h251z" />
    <glyph glyph-name="infinity" unicode="&#x221e;" horiz-adv-x="757" 
d="M348 349l-45 53c-29 34 -60 51 -99 51c-52 0 -97 -39 -97 -104c0 -67 45 -105 97 -105c39 0 71 16 99 50zM378 295l-33 -39c-38 -44 -82 -72 -145 -72c-87 0 -159 61 -159 165c0 103 72 165 159 165c63 0 107 -28 145 -73l33 -39l34 39c37 45 82 73 145 73
c87 0 159 -62 159 -165c0 -104 -72 -165 -159 -165c-63 0 -108 28 -145 72zM458 402l-45 -53l45 -55c29 -34 60 -50 99 -50c52 0 97 38 97 105c0 65 -45 104 -97 104c-39 0 -70 -17 -99 -51z" />
    <glyph glyph-name="integral" unicode="&#x222b;" horiz-adv-x="445" 
d="M277 612v-566c0 -176 -89 -242 -216 -242c-85 0 -143 33 -143 93c0 29 16 49 34 61h85v-59c0 -29 4 -57 31 -57c29 0 34 31 34 62v566c0 176 88 242 215 242c85 0 143 -33 143 -93c0 -29 -15 -49 -34 -61h-84v59c0 29 -5 57 -32 57c-28 0 -33 -31 -33 -62z" />
    <glyph glyph-name="approxequal" unicode="&#x2248;" horiz-adv-x="584" 
d="M70 386v69c44 29 84 41 120 41c77 0 127 -40 203 -40c37 0 76 11 121 41v-69c-45 -30 -84 -41 -121 -41c-76 0 -126 40 -203 40c-36 0 -76 -12 -120 -41zM70 248v68c44 30 84 41 120 41c77 0 127 -39 203 -39c37 0 76 10 121 40v-69c-45 -30 -84 -40 -121 -40
c-76 0 -126 38 -203 38c-36 0 -76 -11 -120 -39z" />
    <glyph glyph-name="notequal" unicode="&#x2260;" horiz-adv-x="584" 
d="M70 409v66h263l76 105h72l-76 -105h109v-66h-157l-59 -81h216v-64h-262l-76 -105h-71l76 105h-111v64h157l58 81h-215z" />
    <glyph glyph-name="lessequal" unicode="&#x2264;" horiz-adv-x="445" 
d="M53 401v9l317 171v-78l-188 -97l188 -99v-77zM53 131v67h317v-67h-317z" />
    <glyph glyph-name="greaterequal" unicode="&#x2265;" horiz-adv-x="445" 
d="M392 410v-9l-317 -171v77l189 99l-189 97v78zM392 198v-67h-317v67h317z" />
    <glyph glyph-name="lozenge" unicode="&#x25ca;" horiz-adv-x="568" 
d="M35 351l204 351h89l205 -351l-205 -351h-89zM456 351l-172 299l-172 -299l172 -298z" />
    <glyph glyph-name="uni00A0" unicode="&#xa0;" horiz-adv-x="173" 
 />
    <glyph glyph-name="twosuperior" unicode="&#xb2;" horiz-adv-x="393" 
d="M152 397h108c32 0 41 8 63 42h21l-11 -136h-303v25l114 107c48 46 69 81 69 124c0 41 -22 67 -65 67c-40 0 -69 -21 -89 -44l-21 18c28 57 83 109 164 109c77 0 125 -43 125 -115c0 -86 -81 -139 -175 -197z" />
    <glyph glyph-name="Tcedilla" unicode="&#x162;" horiz-adv-x="708" 
d="M369 -156h-54c-29 7 -48 26 -48 59c0 36 30 62 81 62c58 0 93 -39 93 -92c0 -67 -49 -118 -167 -118v36c64 0 94 26 95 53zM30 702h648l15 -251h-41c-73 157 -100 210 -167 210h-33v-556c0 -52 17 -56 82 -63v-42h-360v42c65 7 82 11 82 63v556h-33
c-67 0 -94 -53 -167 -210h-41z" />
    <glyph glyph-name="tcedilla" unicode="&#x163;" horiz-adv-x="391" 
d="M218 -156h-54c-29 7 -48 26 -48 59c0 36 30 62 81 62c58 0 93 -39 93 -92c0 -67 -49 -118 -167 -118v36c64 0 94 26 95 53zM247 675v-136h117v-54h-117v-331c0 -48 19 -69 57 -69c26 0 48 9 72 25l15 -22c-38 -62 -94 -98 -174 -98c-92 0 -156 46 -156 164v331h-57v33
c80 30 152 88 204 157h39z" />
    <glyph glyph-name="i.dot" horiz-adv-x="334" 
d="M262 549v-471c0 -32 16 -36 56 -39v-39h-296v39c40 3 56 7 56 39v351l-55 34v28l208 58h31zM174 597c-61 0 -98 42 -98 92s37 93 98 93c60 0 98 -43 98 -93s-38 -92 -98 -92z" />
    <glyph glyph-name="uni0237" unicode="&#x237;" horiz-adv-x="302" 
d="M63 429l-56 34v28l209 58h31v-443c0 -113 -24 -161 -70 -207c-55 -54 -102 -80 -172 -112l-16 20l41 64c32 52 33 114 33 192v366z" />
    <glyph glyph-name="space_uni0326" 
d="M260 -156h-54c-29 7 -48 26 -48 59c0 36 30 62 81 62c58 0 93 -39 93 -92c0 -67 -49 -118 -167 -118v36c64 0 94 26 95 53z" />
    <glyph glyph-name="space_uni0326.alt" 
d="M229 714h55c29 -8 48 -26 48 -60c0 -35 -30 -62 -81 -62c-58 0 -93 40 -93 93c0 67 49 118 167 118v-37c-64 0 -94 -25 -96 -52z" />
    <glyph glyph-name="space_dotbelowcomb" 
d="M251 -205c-59 0 -96 41 -96 89s37 89 96 89c58 0 95 -41 95 -89s-37 -89 -95 -89z" />
    <glyph glyph-name="uni2117" unicode="&#x2117;" horiz-adv-x="780" 
d="M432 307h-51v-83c0 -31 12 -37 59 -38v-32h-211v32c38 1 43 7 43 38v258c0 30 -5 36 -43 37v32h202c110 0 157 -60 157 -120c0 -75 -50 -124 -156 -124zM381 516v-178h20c57 0 81 38 81 91c0 47 -26 87 -82 87h-19zM70 351c0 -179 132 -326 320 -326s320 147 320 326
s-132 326 -320 326s-320 -147 -320 -326zM32 351c0 199 149 361 358 361s358 -162 358 -361s-149 -361 -358 -361s-358 162 -358 361z" />
    <glyph glyph-name="Delta" unicode="&#x2206;" horiz-adv-x="671" 
d="M653 0h-635v39l291 663h46l298 -663v-39zM268 471l-183 -417h366z" />
    <glyph glyph-name="Abreve" unicode="&#x102;" horiz-adv-x="759" 
d="M471 125l-36 92h-255l-34 -91c-5 -15 -8 -27 -8 -37c0 -33 28 -44 82 -47v-42h-215v42c27 4 47 10 58 37l208 542l-34 83h209l249 -625c10 -26 30 -33 59 -37v-42h-353v42c50 2 78 12 78 46c0 10 -3 22 -8 37zM304 548l-104 -277h213zM353 740c-94 0 -148 57 -148 156h46
c10 -52 56 -65 102 -65c47 0 93 13 102 65h47c0 -99 -55 -156 -149 -156z" />
    <glyph glyph-name="Amacron" unicode="&#x100;" horiz-adv-x="759" 
d="M471 125l-36 92h-255l-34 -91c-5 -15 -8 -27 -8 -37c0 -33 28 -44 82 -47v-42h-215v42c27 4 47 10 58 37l208 542l-34 83h209l249 -625c10 -26 30 -33 59 -37v-42h-353v42c50 2 78 12 78 46c0 10 -3 22 -8 37zM304 548l-104 -277h213zM208 751v86h292v-86h-292z" />
    <glyph glyph-name="Aogonek" unicode="&#x104;" horiz-adv-x="759" 
d="M304 548l-104 -277h213zM405 26c45 16 76 24 76 58c0 10 -3 22 -8 37l-38 96h-254l-35 -91c-5 -15 -8 -27 -8 -37c0 -33 28 -44 82 -47v-42h-215v42c27 4 47 10 58 37l208 542l-34 83h209l249 -625c10 -26 30 -33 59 -37v-42h-319c-49 -13 -71 -49 -71 -90
c0 -33 17 -55 49 -55c22 0 37 7 60 24l16 -20c-37 -47 -76 -74 -131 -74c-53 0 -98 32 -98 97c0 74 63 115 145 144z" />
    <glyph glyph-name="Aringacute" unicode="&#x1fa;" horiz-adv-x="759" 
d="M471 125l-36 92h-255l-34 -91c-5 -15 -8 -27 -8 -37c0 -33 28 -44 82 -47v-42h-215v42c27 4 47 10 58 37l208 542l-34 83h209l249 -625c10 -26 30 -33 59 -37v-42h-353v42c50 2 78 12 78 46c0 10 -3 22 -8 37zM241 816c0 51 45 91 108 91s108 -40 108 -91
s-45 -91 -108 -91s-108 40 -108 91zM304 548l-104 -277h213zM355 1047h180v-9l-167 -111h-55zM294 816c0 -27 21 -48 55 -48s56 21 56 48s-22 48 -56 48s-55 -21 -55 -48z" />
    <glyph glyph-name="AEacute" unicode="&#x1fc;" horiz-adv-x="1040" 
d="M63 79l344 549c-16 20 -47 29 -94 32v42h673l5 -193h-38c-53 112 -79 146 -170 146h-103v-265h97c46 0 58 24 67 92h43v-240h-43c-9 68 -21 93 -67 93h-97v-221c0 -54 26 -67 81 -67h35c90 0 111 39 183 171h45l-32 -218h-580v42c66 7 72 15 72 67v139h-245l-76 -122
c-10 -17 -15 -28 -15 -41c0 -28 29 -41 89 -43v-42h-232v42c27 4 43 12 58 37zM484 639l-211 -337h211v337zM634 892h180v-9l-173 -140h-56z" />
    <glyph glyph-name="Cacute" unicode="&#x106;" horiz-adv-x="683" 
d="M404 712c90 0 166 -21 223 -59l3 -175h-49c-25 119 -78 184 -171 184c-125 0 -177 -133 -177 -302c0 -183 64 -317 187 -317c83 0 147 59 187 211h50l-17 -199c-58 -41 -147 -65 -245 -65c-228 0 -369 131 -369 342c0 235 170 380 378 380zM403 892h180v-9l-173 -140h-56
z" />
    <glyph glyph-name="Ccaron" unicode="&#x10c;" horiz-adv-x="683" 
d="M404 712c90 0 166 -21 223 -59l3 -175h-49c-25 119 -78 184 -171 184c-125 0 -177 -133 -177 -302c0 -183 64 -317 187 -317c83 0 147 59 187 211h50l-17 -199c-58 -41 -147 -65 -245 -65c-228 0 -369 131 -369 342c0 235 170 380 378 380zM591 897l-120 -153h-124
l-120 153h57l125 -70l125 70h57z" />
    <glyph glyph-name="Ccircumflex" unicode="&#x108;" horiz-adv-x="683" 
d="M404 712c90 0 166 -21 223 -59l3 -175h-49c-25 119 -78 184 -171 184c-125 0 -177 -133 -177 -302c0 -183 64 -317 187 -317c83 0 147 59 187 211h50l-17 -199c-58 -41 -147 -65 -245 -65c-228 0 -369 131 -369 342c0 235 170 380 378 380zM471 896l120 -153h-57l-125 70
l-125 -70h-57l120 153h124z" />
    <glyph glyph-name="Cdotaccent" unicode="&#x10a;" horiz-adv-x="683" 
d="M409 741c-61 0 -98 43 -98 92c0 50 37 93 98 93c60 0 98 -43 98 -93c0 -49 -38 -92 -98 -92zM404 712c90 0 166 -21 223 -59l3 -175h-49c-25 119 -78 184 -171 184c-125 0 -177 -133 -177 -302c0 -183 64 -317 187 -317c83 0 147 59 187 211h50l-17 -199
c-58 -41 -147 -65 -245 -65c-228 0 -369 131 -369 342c0 235 170 380 378 380z" />
    <glyph glyph-name="Dcaron" unicode="&#x10e;" horiz-adv-x="789" 
d="M546 897l-120 -153h-124l-120 153h57l125 -70l125 70h57zM321 655h-26v-538c0 -59 23 -70 68 -70h9c113 0 187 115 187 293c0 192 -85 315 -238 315zM378 0h-352v42c67 7 73 15 73 67v484c0 52 -6 60 -73 67v42h329c277 0 407 -148 407 -343c0 -226 -150 -359 -384 -359z
" />
    <glyph glyph-name="Dcroat" unicode="&#x110;" horiz-adv-x="799" 
d="M36 325v62h73v206c0 52 -6 60 -73 67v42h329c277 0 407 -148 407 -343c0 -226 -150 -359 -384 -359h-352v42c67 7 73 15 73 67v216h-73zM331 655h-26v-268h129v-62h-129v-208c0 -59 23 -70 68 -70h9c113 0 187 115 187 293c0 192 -85 315 -238 315z" />
    <glyph glyph-name="Ebreve" unicode="&#x114;" horiz-adv-x="655" 
d="M344 740c-94 0 -148 57 -148 156h46c10 -52 56 -65 102 -65c47 0 93 13 102 65h47c0 -99 -55 -156 -149 -156zM26 0v42c67 7 73 15 73 67v484c0 52 -6 60 -73 67v42h575l5 -193h-38c-53 112 -79 146 -170 146h-103v-265h97c46 0 58 24 67 92h43v-240h-43
c-9 68 -21 93 -67 93h-97v-221c0 -54 26 -67 81 -67h35c89 0 111 39 183 171h45l-32 -218h-581z" />
    <glyph glyph-name="Ecaron" unicode="&#x11a;" horiz-adv-x="655" 
d="M526 897l-120 -153h-124l-120 153h57l125 -70l125 70h57zM26 0v42c67 7 73 15 73 67v484c0 52 -6 60 -73 67v42h575l5 -193h-38c-53 112 -79 146 -170 146h-103v-265h97c46 0 58 24 67 92h43v-240h-43c-9 68 -21 93 -67 93h-97v-221c0 -54 26 -67 81 -67h35
c89 0 111 39 183 171h45l-32 -218h-581z" />
    <glyph glyph-name="Edotaccent" unicode="&#x116;" horiz-adv-x="655" 
d="M345 741c-61 0 -98 43 -98 92c0 50 37 93 98 93c60 0 98 -43 98 -93c0 -49 -38 -92 -98 -92zM26 0v42c67 7 73 15 73 67v484c0 52 -6 60 -73 67v42h575l5 -193h-38c-53 112 -79 146 -170 146h-103v-265h97c46 0 58 24 67 92h43v-240h-43c-9 68 -21 93 -67 93h-97v-221
c0 -54 26 -67 81 -67h35c89 0 111 39 183 171h45l-32 -218h-581z" />
    <glyph glyph-name="Emacron" unicode="&#x112;" horiz-adv-x="655" 
d="M199 751v86h292v-86h-292zM26 0v42c67 7 73 15 73 67v484c0 52 -6 60 -73 67v42h575l5 -193h-38c-53 112 -79 146 -170 146h-103v-265h97c46 0 58 24 67 92h43v-240h-43c-9 68 -21 93 -67 93h-97v-221c0 -54 26 -67 81 -67h35c89 0 111 39 183 171h45l-32 -218h-581z" />
    <glyph glyph-name="Eogonek" unicode="&#x118;" horiz-adv-x="655" 
d="M26 0v42c67 7 73 15 73 67v484c0 52 -6 60 -73 67v42h575l5 -193h-38c-53 112 -79 146 -170 146h-103v-265h97c46 0 58 24 67 92h43v-240h-43c-9 68 -21 93 -67 93h-97v-221c0 -54 26 -67 81 -67h35c89 0 111 39 183 171h45l-32 -218h-107c-39 -26 -59 -56 -59 -95
c0 -28 15 -50 46 -50c25 0 41 7 63 24l16 -20c-37 -47 -76 -74 -135 -74c-52 0 -94 31 -94 83c0 61 46 102 106 132h-417z" />
    <glyph glyph-name="Gbreve" unicode="&#x11e;" horiz-adv-x="742" 
d="M416 740c-94 0 -148 57 -148 156h46c10 -52 56 -65 102 -65c47 0 93 13 102 65h47c0 -99 -55 -156 -149 -156zM477 53v170c0 52 -6 60 -73 68v42h328v-42c-66 -8 -72 -16 -72 -68v-166c-69 -44 -165 -67 -272 -67c-237 0 -362 147 -362 343c0 234 171 379 382 379
c91 0 168 -21 226 -59l3 -175h-49c-25 119 -79 184 -173 184c-128 0 -182 -133 -182 -302c0 -170 58 -319 182 -319c25 0 43 2 62 12z" />
    <glyph glyph-name="Gcircumflex" unicode="&#x11c;" horiz-adv-x="742" 
d="M477 53v170c0 52 -6 60 -73 68v42h328v-42c-66 -8 -72 -16 -72 -68v-166c-69 -44 -165 -67 -272 -67c-237 0 -362 147 -362 343c0 234 171 379 382 379c91 0 168 -21 226 -59l3 -175h-49c-25 119 -79 184 -173 184c-128 0 -182 -133 -182 -302c0 -170 58 -319 182 -319
c25 0 43 2 62 12zM479 896l120 -153h-57l-125 70l-125 -70h-57l120 153h124z" />
    <glyph glyph-name="Gcommaaccent" unicode="&#x122;" horiz-adv-x="742" 
d="M432 -156h-54c-29 7 -48 26 -48 59c0 36 30 62 81 62c58 0 93 -39 93 -92c0 -67 -49 -118 -167 -118v36c64 0 94 26 95 53zM477 53v170c0 52 -6 60 -73 68v42h328v-42c-66 -8 -72 -16 -72 -68v-166c-69 -44 -165 -67 -272 -67c-237 0 -362 147 -362 343
c0 234 171 379 382 379c91 0 168 -21 226 -59l3 -175h-49c-25 119 -79 184 -173 184c-128 0 -182 -133 -182 -302c0 -170 58 -319 182 -319c25 0 43 2 62 12z" />
    <glyph glyph-name="Gdotaccent" unicode="&#x120;" horiz-adv-x="742" 
d="M417 741c-61 0 -98 43 -98 92c0 50 37 93 98 93c60 0 98 -43 98 -93c0 -49 -38 -92 -98 -92zM477 53v170c0 52 -6 60 -73 68v42h328v-42c-66 -8 -72 -16 -72 -68v-166c-69 -44 -165 -67 -272 -67c-237 0 -362 147 -362 343c0 234 171 379 382 379c91 0 168 -21 226 -59
l3 -175h-49c-25 119 -79 184 -173 184c-128 0 -182 -133 -182 -302c0 -170 58 -319 182 -319c25 0 43 2 62 12z" />
    <glyph glyph-name="Hbar" unicode="&#x126;" horiz-adv-x="864" 
d="M305 593v-42h254v42c0 52 -6 60 -73 67v42h341v-42c-66 -7 -72 -15 -72 -67v-42h72v-62h-72v-380c0 -52 6 -60 72 -67v-42h-341v42c67 7 73 15 73 67v216h-254v-216c0 -52 6 -60 72 -67v-42h-341v42c67 7 73 15 73 67v380h-72v62h72v42c0 52 -6 60 -73 67v42h341v-42
c-66 -7 -72 -15 -72 -67zM305 387h254v102h-254v-102z" />
    <glyph glyph-name="Hcircumflex" unicode="&#x124;" horiz-adv-x="844" 
d="M295 593v-206h254v206c0 52 -6 60 -73 67v42h341v-42c-66 -7 -72 -15 -72 -67v-484c0 -52 6 -60 72 -67v-42h-341v42c67 7 73 15 73 67v216h-254v-216c0 -52 6 -60 72 -67v-42h-341v42c67 7 73 15 73 67v484c0 52 -6 60 -73 67v42h341v-42c-66 -7 -72 -15 -72 -67z
M484 896l120 -153h-57l-125 70l-125 -70h-57l120 153h124z" />
    <glyph glyph-name="Ibreve" unicode="&#x12c;" horiz-adv-x="394" 
d="M295 593v-484c0 -52 6 -60 72 -67v-42h-341v42c67 7 73 15 73 67v484c0 52 -6 60 -73 67v42h341v-42c-66 -7 -72 -15 -72 -67zM197 740c-93 0 -146 57 -146 156h45c10 -52 56 -65 101 -65c46 0 91 13 100 65h46c0 -99 -54 -156 -146 -156z" />
    <glyph glyph-name="Idotaccent" unicode="&#x130;" horiz-adv-x="394" 
d="M295 593v-484c0 -52 6 -60 72 -67v-42h-341v42c67 7 73 15 73 67v484c0 52 -6 60 -73 67v42h341v-42c-66 -7 -72 -15 -72 -67zM197 741c-61 0 -98 43 -98 92c0 50 37 93 98 93c60 0 98 -43 98 -93c0 -49 -38 -92 -98 -92z" />
    <glyph glyph-name="Imacron" unicode="&#x12a;" horiz-adv-x="394" 
d="M295 593v-484c0 -52 6 -60 72 -67v-42h-341v42c67 7 73 15 73 67v484c0 52 -6 60 -73 67v42h341v-42c-66 -7 -72 -15 -72 -67zM51 751v86h292v-86h-292z" />
    <glyph glyph-name="Iogonek" unicode="&#x12e;" horiz-adv-x="394" 
d="M295 593v-484c0 -52 6 -60 72 -67v-42h-122c-39 -26 -59 -56 -59 -95c0 -28 15 -50 46 -50c25 0 41 7 63 24l16 -20c-37 -47 -76 -74 -135 -74c-52 0 -94 31 -94 83c0 61 46 102 106 132h-162v42c67 7 73 15 73 67v484c0 52 -6 60 -73 67v42h341v-42
c-66 -7 -72 -15 -72 -67z" />
    <glyph glyph-name="Itilde" unicode="&#x128;" horiz-adv-x="394" 
d="M295 593v-484c0 -52 6 -60 72 -67v-42h-341v42c67 7 73 15 73 67v484c0 52 -6 60 -73 67v42h341v-42c-66 -7 -72 -15 -72 -67zM266 742c-62 0 -93 60 -136 60c-27 0 -46 -23 -65 -56l-35 20c33 86 63 136 116 136c62 0 92 -61 136 -61c27 0 46 23 64 56l36 -19
c-34 -88 -63 -136 -116 -136z" />
    <glyph glyph-name="IJ" unicode="&#x132;" horiz-adv-x="960" 
d="M295 593v-484c0 -52 6 -60 72 -67v-42h-341v42c67 7 73 15 73 67v484c0 52 -6 60 -73 67v42h341v-42c-66 -7 -72 -15 -72 -67zM676 168v425c0 52 -6 60 -73 67v42h341v-42c-66 -7 -72 -15 -72 -67v-368c0 -163 -98 -235 -268 -235c-150 0 -231 53 -231 150
c0 40 19 71 50 89h126c-4 -24 -7 -45 -7 -77c0 -66 16 -119 67 -119c57 0 67 52 67 135z" />
    <glyph glyph-name="Jcircumflex" unicode="&#x134;" horiz-adv-x="583" 
d="M298 168v425c0 52 -6 60 -73 67v42h341v-42c-66 -7 -72 -15 -72 -67v-368c0 -163 -98 -235 -268 -235c-150 0 -231 53 -231 150c0 40 19 71 50 89h126c-4 -24 -7 -45 -7 -77c0 -66 16 -119 67 -119c57 0 67 52 67 135zM458 896l120 -153h-57l-125 70l-125 -70h-57
l120 153h124z" />
    <glyph glyph-name="Kcommaaccent" unicode="&#x136;" horiz-adv-x="768" 
d="M412 -156h-54c-29 7 -48 26 -48 59c0 36 30 62 81 62c58 0 93 -39 93 -92c0 -67 -49 -118 -167 -118v36c64 0 94 26 95 53zM469 429l208 -321c28 -41 46 -61 91 -66v-42h-233c-33 28 -65 71 -91 115l-140 226l234 244c17 17 28 31 28 47s-16 26 -69 28v42h237v-42
c-41 -2 -58 -10 -85 -38zM295 593v-484c0 -52 6 -60 72 -67v-42h-341v42c67 7 73 15 73 67v484c0 52 -6 60 -73 67v42h341v-42c-66 -7 -72 -15 -72 -67z" />
    <glyph glyph-name="Lacute" unicode="&#x139;" horiz-adv-x="644" 
d="M222 892h180v-9l-173 -140h-56zM295 593v-479c0 -54 22 -67 77 -67h28c67 0 103 39 192 190h43l-38 -237h-571v42c67 7 73 15 73 67v484c0 52 -6 60 -73 67v42h341v-42c-66 -7 -72 -15 -72 -67z" />
    <glyph glyph-name="Lcaron" unicode="&#x13d;" horiz-adv-x="644" 
d="M582 691l-116 -194h-41l13 205h144v-11zM295 593v-479c0 -54 22 -67 77 -67h28c67 0 103 39 192 190h43l-38 -237h-571v42c67 7 73 15 73 67v484c0 52 -6 60 -73 67v42h341v-42c-66 -7 -72 -15 -72 -67z" />
    <glyph glyph-name="Lcommaaccent" unicode="&#x13b;" horiz-adv-x="644" 
d="M346 -156h-54c-29 7 -48 26 -48 59c0 36 30 62 81 62c58 0 93 -39 93 -92c0 -67 -49 -118 -167 -118v36c64 0 94 26 95 53zM295 593v-479c0 -54 22 -67 77 -67h28c67 0 103 39 192 190h43l-38 -237h-571v42c67 7 73 15 73 67v484c0 52 -6 60 -73 67v42h341v-42
c-66 -7 -72 -15 -72 -67z" />
    <glyph glyph-name="Ldot" unicode="&#x13f;" horiz-adv-x="644" 
d="M295 593v-479c0 -54 22 -67 77 -67h28c67 0 103 39 192 190h43l-38 -237h-571v42c67 7 73 15 73 67v484c0 52 -6 60 -73 67v42h341v-42c-66 -7 -72 -15 -72 -67zM434 405c0 58 44 99 98 99c55 0 98 -41 98 -99s-43 -97 -98 -97c-54 0 -98 39 -98 97z" />
    <glyph glyph-name="Nacute" unicode="&#x143;" horiz-adv-x="754" 
d="M383 892h180v-9l-173 -140h-56zM597 306v286c0 52 -20 62 -101 68v42h240v-42c-66 -7 -72 -16 -72 -68v-593h-71l-427 528v-417c0 -52 20 -62 101 -68v-42h-240v42c66 7 72 16 72 68v486c-25 43 -39 62 -73 64v42h252z" />
    <glyph glyph-name="Ncaron" unicode="&#x147;" horiz-adv-x="754" 
d="M572 897l-120 -153h-124l-120 153h57l125 -70l125 70h57zM597 306v286c0 52 -20 62 -101 68v42h240v-42c-66 -7 -72 -16 -72 -68v-593h-71l-427 528v-417c0 -52 20 -62 101 -68v-42h-240v42c66 7 72 16 72 68v486c-25 43 -39 62 -73 64v42h252z" />
    <glyph glyph-name="Ncommaaccent" unicode="&#x145;" horiz-adv-x="754" 
d="M406 -156h-54c-29 7 -48 26 -48 59c0 36 30 62 81 62c58 0 93 -39 93 -92c0 -67 -49 -118 -167 -118v36c64 0 94 26 95 53zM597 306v286c0 52 -20 62 -101 68v42h240v-42c-66 -7 -72 -16 -72 -68v-593h-71l-427 528v-417c0 -52 20 -62 101 -68v-42h-240v42
c66 7 72 16 72 68v486c-25 43 -39 62 -73 64v42h252z" />
    <glyph glyph-name="Eng" unicode="&#x14a;" horiz-adv-x="754" 
d="M526 83l-360 444v-417c0 -52 20 -62 101 -68v-42h-240v42c66 7 72 16 72 68v486c-25 43 -39 62 -73 64v42h253l318 -396v286c0 52 -20 62 -101 68v42h240v-42c-66 -7 -72 -16 -72 -68v-486c0 -108 -17 -156 -62 -204c-53 -57 -92 -80 -161 -111l-17 20l43 57
c49 64 59 132 59 215z" />
    <glyph glyph-name="Obreve" unicode="&#x14e;" horiz-adv-x="747" 
d="M376 740c-94 0 -148 57 -148 156h46c10 -52 56 -65 102 -65c47 0 93 13 102 65h47c0 -99 -55 -156 -149 -156zM378 38c101 0 135 154 135 301c0 178 -40 325 -145 325c-101 0 -135 -154 -135 -301c0 -178 40 -325 145 -325zM364 -10c-222 0 -338 161 -338 347
c0 230 150 375 356 375c222 0 338 -161 338 -347c0 -230 -149 -375 -356 -375z" />
    <glyph glyph-name="Ohungarumlaut" unicode="&#x150;" horiz-adv-x="747" 
d="M378 38c101 0 135 154 135 301c0 178 -40 325 -145 325c-101 0 -135 -154 -135 -301c0 -178 40 -325 145 -325zM364 -10c-222 0 -338 161 -338 347c0 230 150 375 356 375c222 0 338 -161 338 -347c0 -230 -149 -375 -356 -375zM309 892h150v-9l-147 -140h-53zM489 892
h150v-9l-147 -140h-54z" />
    <glyph glyph-name="Omacron" unicode="&#x14c;" horiz-adv-x="747" 
d="M231 751v86h292v-86h-292zM378 38c101 0 135 154 135 301c0 178 -40 325 -145 325c-101 0 -135 -154 -135 -301c0 -178 40 -325 145 -325zM364 -10c-222 0 -338 161 -338 347c0 230 150 375 356 375c222 0 338 -161 338 -347c0 -230 -149 -375 -356 -375z" />
    <glyph glyph-name="Oslashacute" unicode="&#x1fe;" horiz-adv-x="747" 
d="M364 -10c-73 0 -135 17 -184 47l-72 -96l-39 30l71 95c-76 64 -114 163 -114 271c0 230 150 375 356 375c80 0 147 -21 199 -57l67 90l39 -29l-69 -92c67 -64 102 -158 102 -259c0 -230 -149 -375 -356 -375zM233 363c0 -56 4 -109 13 -156l245 328
c-22 78 -62 129 -123 129c-101 0 -135 -154 -135 -301zM378 38c101 0 135 154 135 301c0 47 -3 92 -9 132l-243 -325c23 -66 61 -108 117 -108zM376 892h180v-9l-173 -140h-56z" />
    <glyph glyph-name="Racute" unicode="&#x154;" horiz-adv-x="759" 
d="M324 653h-29v-310h30c91 0 143 58 143 159c0 93 -51 151 -144 151zM295 293v-184c0 -52 6 -60 72 -67v-42h-341v42c67 7 73 15 73 67v484c0 52 -6 60 -73 67v42h367c163 0 270 -76 270 -199c0 -102 -76 -157 -150 -181l139 -199c41 -60 60 -79 107 -81v-42h-229
c-28 22 -54 56 -84 106l-114 187h-37zM356 892h180v-9l-173 -140h-56z" />
    <glyph glyph-name="Rcaron" unicode="&#x158;" horiz-adv-x="759" 
d="M544 897l-120 -153h-124l-120 153h57l125 -70l125 70h57zM324 653h-29v-310h30c91 0 143 58 143 159c0 93 -51 151 -144 151zM295 293v-184c0 -52 6 -60 72 -67v-42h-341v42c67 7 73 15 73 67v484c0 52 -6 60 -73 67v42h367c163 0 270 -76 270 -199
c0 -102 -76 -157 -150 -181l139 -199c41 -60 60 -79 107 -81v-42h-229c-28 22 -54 56 -84 106l-114 187h-37z" />
    <glyph glyph-name="Rcommaaccent" unicode="&#x156;" horiz-adv-x="759" 
d="M401 -156h-54c-29 7 -48 26 -48 59c0 36 30 62 81 62c58 0 93 -39 93 -92c0 -67 -49 -118 -167 -118v36c64 0 94 26 95 53zM324 653h-29v-310h30c91 0 143 58 143 159c0 93 -51 151 -144 151zM295 293v-184c0 -52 6 -60 72 -67v-42h-341v42c67 7 73 15 73 67v484
c0 52 -6 60 -73 67v42h367c163 0 270 -76 270 -199c0 -102 -76 -157 -150 -181l139 -199c41 -60 60 -79 107 -81v-42h-229c-28 22 -54 56 -84 106l-114 187h-37z" />
    <glyph glyph-name="Sacute" unicode="&#x15a;" horiz-adv-x="579" 
d="M275 -10c-100 0 -188 30 -235 67l-11 174h53c25 -112 92 -193 193 -193c71 0 117 34 117 96c0 65 -42 93 -153 127c-133 39 -206 104 -206 225c0 139 106 226 254 226c91 0 167 -24 216 -60v-152h-45c-23 101 -78 165 -171 165c-62 0 -103 -36 -103 -93
c0 -65 40 -92 143 -123c133 -41 221 -94 221 -234c0 -154 -123 -225 -273 -225zM300 892h180v-9l-173 -140h-56z" />
    <glyph glyph-name="Scedilla" unicode="&#x15e;" horiz-adv-x="579" 
d="M177 -231l-8 35c72 0 105 22 105 48c0 28 -30 33 -79 35l42 105c-84 6 -156 32 -197 65l-11 174h53c25 -112 92 -193 193 -193c71 0 117 34 117 96c0 65 -42 93 -153 127c-133 39 -206 104 -206 225c0 139 106 226 254 226c91 0 167 -24 216 -60v-152h-45
c-23 101 -78 165 -171 165c-62 0 -103 -36 -103 -93c0 -65 40 -92 143 -123c133 -41 221 -94 221 -234c0 -154 -123 -225 -273 -225h-1l-12 -30c63 0 105 -30 105 -82c0 -75 -90 -109 -190 -109z" />
    <glyph glyph-name="Scircumflex" unicode="&#x15c;" horiz-adv-x="579" 
d="M275 -10c-100 0 -188 30 -235 67l-11 174h53c25 -112 92 -193 193 -193c71 0 117 34 117 96c0 65 -42 93 -153 127c-133 39 -206 104 -206 225c0 139 106 226 254 226c91 0 167 -24 216 -60v-152h-45c-23 101 -78 165 -171 165c-62 0 -103 -36 -103 -93
c0 -65 40 -92 143 -123c133 -41 221 -94 221 -234c0 -154 -123 -225 -273 -225zM360 896l120 -153h-57l-125 70l-125 -70h-57l120 153h124z" />
    <glyph glyph-name="Scommaaccent" unicode="&#x218;" horiz-adv-x="579" 
d="M299 -156h-54c-29 7 -48 26 -48 59c0 36 30 62 81 62c58 0 93 -39 93 -92c0 -67 -49 -118 -167 -118v36c64 0 94 26 95 53zM275 -10c-100 0 -188 30 -235 67l-11 174h53c25 -112 92 -193 193 -193c71 0 117 34 117 96c0 65 -42 93 -153 127c-133 39 -206 104 -206 225
c0 139 106 226 254 226c91 0 167 -24 216 -60v-152h-45c-23 101 -78 165 -171 165c-62 0 -103 -36 -103 -93c0 -65 40 -92 143 -123c133 -41 221 -94 221 -234c0 -154 -123 -225 -273 -225z" />
    <glyph glyph-name="Tbar" unicode="&#x166;" horiz-adv-x="708" 
d="M30 702h648l15 -251h-41c-73 157 -100 210 -167 210h-33v-274h105v-62h-105v-220c0 -52 17 -56 82 -63v-42h-360v42c65 7 82 11 82 63v220h-105v62h105v274h-33c-67 0 -94 -53 -167 -210h-41z" />
    <glyph glyph-name="Tcaron" unicode="&#x164;" horiz-adv-x="708" 
d="M535 897l-120 -153h-124l-120 153h57l125 -70l125 70h57zM30 702h648l15 -251h-41c-73 157 -100 210 -167 210h-33v-556c0 -52 17 -56 82 -63v-42h-360v42c65 7 82 11 82 63v556h-33c-67 0 -94 -53 -167 -210h-41z" />
    <glyph glyph-name="Ubreve" unicode="&#x16c;" horiz-adv-x="753" 
d="M416 740c-94 0 -148 57 -148 156h46c10 -52 56 -65 102 -65c47 0 93 13 102 65h47c0 -99 -55 -156 -149 -156zM282 593v-332c0 -115 44 -187 153 -187c92 0 165 51 165 192v326c0 52 -12 62 -93 68v42h232v-42c-66 -7 -72 -16 -72 -68v-345c0 -176 -124 -257 -279 -257
c-192 0 -302 85 -302 257v346c0 52 -5 60 -72 67v42h341v-42c-67 -7 -73 -15 -73 -67z" />
    <glyph glyph-name="Uhungarumlaut" unicode="&#x170;" horiz-adv-x="753" 
d="M282 593v-332c0 -115 44 -187 153 -187c92 0 165 51 165 192v326c0 52 -12 62 -93 68v42h232v-42c-66 -7 -72 -16 -72 -68v-345c0 -176 -124 -257 -279 -257c-192 0 -302 85 -302 257v346c0 52 -5 60 -72 67v42h341v-42c-67 -7 -73 -15 -73 -67zM348 892h150v-9
l-147 -140h-53zM528 892h150v-9l-147 -140h-54z" />
    <glyph glyph-name="Umacron" unicode="&#x16a;" horiz-adv-x="753" 
d="M270 751v86h292v-86h-292zM282 593v-332c0 -115 44 -187 153 -187c92 0 165 51 165 192v326c0 52 -12 62 -93 68v42h232v-42c-66 -7 -72 -16 -72 -68v-345c0 -176 -124 -257 -279 -257c-192 0 -302 85 -302 257v346c0 52 -5 60 -72 67v42h341v-42c-67 -7 -73 -15 -73 -67
z" />
    <glyph glyph-name="Uogonek" unicode="&#x172;" horiz-adv-x="753" 
d="M282 593v-332c0 -115 44 -187 153 -187c92 0 165 51 165 192v326c0 52 -12 62 -93 68v42h232v-42c-66 -7 -72 -16 -72 -68v-345c0 -131 -69 -210 -168 -241c-45 -27 -69 -59 -69 -101c0 -28 15 -50 46 -50c25 0 41 7 63 24l16 -20c-37 -47 -76 -74 -135 -74
c-52 0 -94 31 -94 83c0 55 38 94 90 123c-9 0 -19 -1 -28 -1c-192 0 -302 85 -302 257v346c0 52 -5 60 -72 67v42h341v-42c-67 -7 -73 -15 -73 -67z" />
    <glyph glyph-name="Uring" unicode="&#x16e;" horiz-adv-x="753" 
d="M282 593v-332c0 -115 44 -187 153 -187c92 0 165 51 165 192v326c0 52 -12 62 -93 68v42h232v-42c-66 -7 -72 -16 -72 -68v-345c0 -176 -124 -257 -279 -257c-192 0 -302 85 -302 257v346c0 52 -5 60 -72 67v42h341v-42c-67 -7 -73 -15 -73 -67zM366 827
c0 -29 18 -50 50 -50s50 21 50 50c0 30 -18 52 -50 52s-50 -22 -50 -52zM312 827c0 57 44 102 104 102s103 -45 103 -102c0 -56 -43 -100 -103 -100s-104 44 -104 100z" />
    <glyph glyph-name="Utilde" unicode="&#x168;" horiz-adv-x="753" 
d="M485 743c-63 0 -94 60 -138 60c-28 0 -47 -23 -66 -56l-36 20c34 86 64 135 118 135c63 0 94 -60 138 -60c28 0 47 23 66 55l36 -19c-34 -87 -64 -135 -118 -135zM282 593v-332c0 -115 44 -187 153 -187c92 0 165 51 165 192v326c0 52 -12 62 -93 68v42h232v-42
c-66 -7 -72 -16 -72 -68v-345c0 -176 -124 -257 -279 -257c-192 0 -302 85 -302 257v346c0 52 -5 60 -72 67v42h341v-42c-67 -7 -73 -15 -73 -67z" />
    <glyph glyph-name="Wacute" unicode="&#x1e82;" horiz-adv-x="1008" 
d="M651 -4l-134 391l-144 -391h-71l-239 627c-9 23 -30 33 -58 37v42h328v-42c-40 -3 -54 -16 -54 -39c0 -15 7 -34 14 -54l117 -318l80 218l-53 156c-8 24 -23 33 -51 37v42h327v-42c-53 -1 -70 -14 -70 -43c0 -16 6 -36 13 -61l97 -302l104 305c7 21 13 40 13 55
c0 28 -18 44 -69 46v42h202v-42c-28 -4 -50 -13 -58 -37l-222 -627h-72zM537 892h180v-9l-173 -140h-56z" />
    <glyph glyph-name="Wcircumflex" unicode="&#x174;" horiz-adv-x="1008" 
d="M651 -4l-134 391l-144 -391h-71l-239 627c-9 23 -30 33 -58 37v42h328v-42c-40 -3 -54 -16 -54 -39c0 -15 7 -34 14 -54l117 -318l80 218l-53 156c-8 24 -23 33 -51 37v42h327v-42c-53 -1 -70 -14 -70 -43c0 -16 6 -36 13 -61l97 -302l104 305c7 21 13 40 13 55
c0 28 -18 44 -69 46v42h202v-42c-28 -4 -50 -13 -58 -37l-222 -627h-72zM605 896l120 -153h-57l-125 70l-125 -70h-57l120 153h124z" />
    <glyph glyph-name="Wgrave" unicode="&#x1e80;" horiz-adv-x="1008" 
d="M651 -4l-134 391l-144 -391h-71l-239 627c-9 23 -30 33 -58 37v42h328v-42c-40 -3 -54 -16 -54 -39c0 -15 7 -34 14 -54l117 -318l80 218l-53 156c-8 24 -23 33 -51 37v42h327v-42c-53 -1 -70 -14 -70 -43c0 -16 6 -36 13 -61l97 -302l104 305c7 21 13 40 13 55
c0 28 -18 44 -69 46v42h202v-42c-28 -4 -50 -13 -58 -37l-222 -627h-72zM365 892h180l49 -149h-55l-174 140v9z" />
    <glyph glyph-name="Wdieresis" unicode="&#x1e84;" horiz-adv-x="1008" 
d="M651 -4l-134 391l-144 -391h-71l-239 627c-9 23 -30 33 -58 37v42h328v-42c-40 -3 -54 -16 -54 -39c0 -15 7 -34 14 -54l117 -318l80 218l-53 156c-8 24 -23 33 -51 37v42h327v-42c-53 -1 -70 -14 -70 -43c0 -16 6 -36 13 -61l97 -302l104 305c7 21 13 40 13 55
c0 28 -18 44 -69 46v42h202v-42c-28 -4 -50 -13 -58 -37l-222 -627h-72zM356 823c0 45 38 83 84 83s85 -38 85 -83c0 -46 -39 -83 -85 -83s-84 37 -84 83zM562 823c0 45 39 83 83 83c48 0 86 -38 86 -83c0 -46 -38 -83 -86 -83c-44 0 -83 37 -83 83z" />
    <glyph glyph-name="Ycircumflex" unicode="&#x176;" horiz-adv-x="707" 
d="M457 263v-158c0 -52 17 -56 83 -63v-42h-356v42c66 7 82 11 82 63v153l-203 365c-15 28 -29 33 -58 37v42h345v-42c-54 -2 -68 -11 -68 -36c0 -21 8 -37 23 -64l128 -220l112 218c11 23 23 49 23 66c0 25 -22 34 -70 36v42h204v-42c-27 -4 -45 -12 -58 -37zM460 896
l120 -153h-57l-125 70l-125 -70h-57l120 153h124z" />
    <glyph glyph-name="Ygrave" unicode="&#x1ef2;" horiz-adv-x="707" 
d="M457 263v-158c0 -52 17 -56 83 -63v-42h-356v42c66 7 82 11 82 63v153l-203 365c-15 28 -29 33 -58 37v42h345v-42c-54 -2 -68 -11 -68 -36c0 -21 8 -37 23 -64l128 -220l112 218c11 23 23 49 23 66c0 25 -22 34 -70 36v42h204v-42c-27 -4 -45 -12 -58 -37zM221 892h180
l49 -149h-55l-174 140v9z" />
    <glyph glyph-name="Zacute" unicode="&#x179;" horiz-adv-x="632" 
d="M243 47h126c84 0 118 35 203 184h43l-36 -231h-563v35l351 620h-119c-93 0 -110 -42 -168 -170h-41l9 217h547v-35zM319 892h180v-9l-173 -140h-56z" />
    <glyph glyph-name="Zdotaccent" unicode="&#x17b;" horiz-adv-x="632" 
d="M325 741c-61 0 -98 43 -98 92c0 50 37 93 98 93c60 0 98 -43 98 -93c0 -49 -38 -92 -98 -92zM243 47h126c84 0 118 35 203 184h43l-36 -231h-563v35l351 620h-119c-93 0 -110 -42 -168 -170h-41l9 217h547v-35z" />
    <glyph glyph-name="abreve" unicode="&#x103;" horiz-adv-x="554" 
d="M263 89c16 0 28 5 44 14v185l-55 -21c-35 -13 -58 -32 -58 -89c0 -51 19 -89 69 -89zM489 375v-265c0 -24 3 -45 27 -45c14 0 27 3 34 6l7 -27c-33 -33 -76 -54 -132 -54c-58 0 -100 31 -115 84c-29 -42 -77 -81 -151 -81c-84 0 -143 48 -143 134c0 87 61 123 132 148
l159 56v102c0 46 -13 77 -52 77s-54 -32 -54 -79c0 -23 4 -46 9 -70l-111 -15c-29 10 -49 34 -49 70c0 91 94 133 215 133c140 0 224 -44 224 -174zM274 598c-94 0 -145 61 -145 168h46c7 -58 48 -75 99 -75c50 0 91 17 98 75h46c0 -107 -51 -168 -144 -168z" />
    <glyph glyph-name="amacron" unicode="&#x101;" horiz-adv-x="554" 
d="M263 89c16 0 28 5 44 14v185l-55 -21c-35 -13 -58 -32 -58 -89c0 -51 19 -89 69 -89zM489 375v-265c0 -24 3 -45 27 -45c14 0 27 3 34 6l7 -27c-33 -33 -76 -54 -132 -54c-58 0 -100 31 -115 84c-29 -42 -77 -81 -151 -81c-84 0 -143 48 -143 134c0 87 61 123 132 148
l159 56v102c0 46 -13 77 -52 77s-54 -32 -54 -79c0 -23 4 -46 9 -70l-111 -15c-29 10 -49 34 -49 70c0 91 94 133 215 133c140 0 224 -44 224 -174zM131 625v86h286v-86h-286z" />
    <glyph glyph-name="aogonek" unicode="&#x105;" horiz-adv-x="554" 
d="M489 375v-265c0 -24 3 -45 27 -45c14 0 27 3 34 6l7 -27c-52 -46 -147 -61 -147 -139c0 -28 15 -50 46 -50c26 0 41 7 64 24l16 -20c-37 -47 -77 -74 -136 -74c-52 0 -94 31 -94 83c0 56 39 93 97 123c-44 8 -80 38 -93 83c-29 -42 -77 -81 -151 -81
c-84 0 -143 48 -143 134c0 87 61 123 132 148l159 56v102c0 46 -13 77 -52 77s-54 -32 -54 -79c0 -23 4 -46 9 -70l-111 -15c-29 10 -49 34 -49 70c0 91 94 133 215 133c140 0 224 -44 224 -174zM263 89c16 0 28 5 44 14v185l-55 -21c-35 -13 -58 -32 -58 -89
c0 -51 19 -89 69 -89z" />
    <glyph glyph-name="aringacute" unicode="&#x1fb;" horiz-adv-x="554" 
d="M167 658c0 52 45 91 108 91s108 -39 108 -91c0 -51 -45 -91 -108 -91s-108 40 -108 91zM279 892h180v-9l-167 -111h-55zM219 658c0 -27 22 -47 56 -47s56 20 56 47c0 28 -22 48 -56 48s-56 -20 -56 -48zM263 89c16 0 28 5 44 14v185l-55 -21c-35 -13 -58 -32 -58 -89
c0 -51 19 -89 69 -89zM489 375v-265c0 -24 3 -45 27 -45c14 0 27 3 34 6l7 -27c-33 -33 -76 -54 -132 -54c-58 0 -100 31 -115 84c-29 -42 -77 -81 -151 -81c-84 0 -143 48 -143 134c0 87 61 123 132 148l159 56v102c0 46 -13 77 -52 77s-54 -32 -54 -79c0 -23 4 -46 9 -70
l-111 -15c-29 10 -49 34 -49 70c0 91 94 133 215 133c140 0 224 -44 224 -174z" />
    <glyph glyph-name="aeacute" unicode="&#x1fd;" horiz-adv-x="794" 
d="M559 549c142 0 216 -93 216 -220v-24h-312c-1 -115 56 -193 153 -193c59 0 106 23 143 73l19 -12c-27 -110 -104 -183 -230 -183c-85 0 -155 32 -200 91c-46 -53 -88 -88 -184 -88c-89 0 -148 48 -148 134c0 87 61 123 132 148l154 54c3 15 8 29 12 43
c3 89 -21 138 -63 138c-35 0 -50 -32 -50 -79c0 -23 4 -46 9 -70l-111 -15c-29 10 -49 34 -49 70c0 91 94 133 213 133c63 0 112 -14 143 -49c43 31 95 49 153 49zM408 765h179v-9l-177 -155h-52zM544 507c-55 0 -75 -64 -80 -157h152c0 97 -19 157 -72 157zM273 89
c17 0 37 6 58 18c-23 40 -35 91 -35 150c0 9 0 18 1 26l-35 -13c-45 -16 -68 -35 -68 -92c0 -51 19 -89 79 -89z" />
    <glyph glyph-name="cacute" unicode="&#x107;" horiz-adv-x="503" 
d="M287 765h179v-9l-177 -155h-52zM181 322c0 -128 57 -207 157 -207c59 0 101 20 133 66l22 -14c-33 -122 -114 -177 -226 -177c-139 0 -246 99 -246 263c0 169 108 296 274 296c101 0 183 -39 183 -127c0 -38 -22 -63 -44 -73h-95c3 22 4 39 4 57c0 58 -16 98 -64 98
c-62 0 -98 -79 -98 -182z" />
    <glyph glyph-name="ccaron" unicode="&#x10d;" horiz-adv-x="503" 
d="M468 770l-116 -170h-124l-116 170h58l120 -85l120 85h58zM181 322c0 -128 57 -207 157 -207c59 0 101 20 133 66l22 -14c-33 -122 -114 -177 -226 -177c-139 0 -246 99 -246 263c0 169 108 296 274 296c101 0 183 -39 183 -127c0 -38 -22 -63 -44 -73h-95c3 22 4 39 4 57
c0 58 -16 98 -64 98c-62 0 -98 -79 -98 -182z" />
    <glyph glyph-name="ccircumflex" unicode="&#x109;" horiz-adv-x="503" 
d="M347 766l116 -170h-58l-120 85l-120 -85h-58l116 170h124zM181 322c0 -128 57 -207 157 -207c59 0 101 20 133 66l22 -14c-33 -122 -114 -177 -226 -177c-139 0 -246 99 -246 263c0 169 108 296 274 296c101 0 183 -39 183 -127c0 -38 -22 -63 -44 -73h-95
c3 22 4 39 4 57c0 58 -16 98 -64 98c-62 0 -98 -79 -98 -182z" />
    <glyph glyph-name="cdotaccent" unicode="&#x10b;" horiz-adv-x="503" 
d="M181 322c0 -128 57 -207 157 -207c59 0 101 20 133 66l22 -14c-33 -122 -114 -177 -226 -177c-139 0 -246 99 -246 263c0 169 108 296 274 296c101 0 183 -39 183 -127c0 -38 -22 -63 -44 -73h-95c3 22 4 39 4 57c0 58 -16 98 -64 98c-62 0 -98 -79 -98 -182zM290 597
c-61 0 -98 42 -98 92s37 93 98 93c60 0 98 -43 98 -93s-38 -92 -98 -92z" />
    <glyph glyph-name="dcaron" unicode="&#x10f;" horiz-adv-x="641" 
d="M766 772l-116 -194h-41l13 205h144v-11zM314 489c-71 0 -108 -75 -108 -188c0 -123 44 -207 122 -207c20 0 39 4 57 14v278c0 67 -19 103 -71 103zM385 679l-55 28v30l209 46h31v-668c0 -34 2 -49 34 -50l24 -1v-39l-212 -35h-34l3 94c-41 -61 -95 -94 -162 -94
c-118 0 -202 92 -202 255c0 195 118 300 265 300c41 0 76 -11 99 -30v164z" />
    <glyph glyph-name="dcroat" unicode="&#x111;" horiz-adv-x="641" 
d="M385 679l-55 28v30l209 46h31v-143h58v-51h-58v-474c0 -34 2 -49 34 -50l24 -1v-39l-212 -35h-34l3 94c-41 -61 -95 -94 -162 -94c-118 0 -202 92 -202 255c0 195 118 300 265 300c41 0 76 -11 99 -30v74h-118v51h118v39zM314 489c-71 0 -108 -75 -108 -188
c0 -123 44 -207 122 -207c20 0 39 4 57 14v278c0 67 -19 103 -71 103z" />
    <glyph glyph-name="ebreve" unicode="&#x115;" horiz-adv-x="526" 
d="M288 549c145 0 219 -92 219 -219v-25h-319c-2 -119 64 -193 155 -193c64 0 111 23 149 73l19 -12c-27 -110 -104 -183 -230 -183c-148 0 -260 99 -260 267c0 178 123 292 267 292zM276 507c-55 0 -82 -63 -87 -156h160c0 97 -19 156 -73 156zM291 598
c-94 0 -145 61 -145 168h46c7 -58 48 -75 99 -75c50 0 91 17 98 75h46c0 -107 -51 -168 -144 -168z" />
    <glyph glyph-name="ecaron" unicode="&#x11b;" horiz-adv-x="526" 
d="M467 770l-116 -170h-124l-116 170h58l120 -85l120 85h58zM288 549c145 0 219 -92 219 -219v-25h-319c-2 -119 64 -193 155 -193c64 0 111 23 149 73l19 -12c-27 -110 -104 -183 -230 -183c-148 0 -260 99 -260 267c0 178 123 292 267 292zM276 507
c-55 0 -82 -63 -87 -156h160c0 97 -19 156 -73 156z" />
    <glyph glyph-name="edotaccent" unicode="&#x117;" horiz-adv-x="526" 
d="M288 549c145 0 219 -92 219 -219v-25h-319c-2 -119 64 -193 155 -193c64 0 111 23 149 73l19 -12c-27 -110 -104 -183 -230 -183c-148 0 -260 99 -260 267c0 178 123 292 267 292zM276 507c-55 0 -82 -63 -87 -156h160c0 97 -19 156 -73 156zM289 597
c-61 0 -98 42 -98 92s37 93 98 93c60 0 98 -43 98 -93s-38 -92 -98 -92z" />
    <glyph glyph-name="emacron" unicode="&#x113;" horiz-adv-x="526" 
d="M288 549c145 0 219 -92 219 -219v-25h-319c-2 -119 64 -193 155 -193c64 0 111 23 149 73l19 -12c-27 -110 -104 -183 -230 -183c-148 0 -260 99 -260 267c0 178 123 292 267 292zM276 507c-55 0 -82 -63 -87 -156h160c0 97 -19 156 -73 156zM146 625v86h286v-86h-286z
" />
    <glyph glyph-name="eogonek" unicode="&#x119;" horiz-adv-x="526" 
d="M292 549c141 0 215 -92 215 -219v-25h-319c-2 -119 64 -193 155 -193c64 0 111 23 149 73l19 -12c-20 -77 -63 -132 -128 -164c-51 -24 -78 -56 -78 -97c0 -35 17 -57 47 -57c26 0 41 7 64 24l16 -20c-37 -47 -76 -74 -136 -74c-51 0 -94 31 -94 83c0 55 38 93 90 122
h-11c-148 0 -260 99 -260 267c0 178 123 292 271 292zM276 507c-55 0 -82 -63 -87 -156h160c0 97 -19 156 -73 156z" />
    <glyph glyph-name="gbreve" unicode="&#x11f;" horiz-adv-x="557" 
d="M259 188c-37 0 -75 5 -110 17c-16 -14 -29 -30 -29 -50c0 -17 11 -29 30 -29h217c135 0 192 -58 192 -149c0 -129 -124 -200 -305 -200c-158 0 -256 43 -256 122c0 50 48 74 92 81c-42 16 -66 57 -66 100c0 65 46 107 98 135c-55 26 -95 71 -95 144
c0 120 101 190 239 190c40 0 69 -6 95 -14l178 4v-67h-45l-61 2c36 -24 62 -63 62 -113c0 -111 -102 -173 -236 -173zM375 -42h-264c-7 -8 -9 -22 -9 -37c0 -61 63 -97 157 -97c90 0 173 24 173 89c0 32 -20 45 -57 45zM266 227c45 0 59 49 59 136c0 76 -20 144 -67 144
c-45 0 -60 -49 -60 -132c0 -80 22 -148 68 -148zM278 598c-94 0 -145 61 -145 168h46c7 -58 48 -75 99 -75c50 0 91 17 98 75h46c0 -107 -51 -168 -144 -168z" />
    <glyph glyph-name="gcircumflex" unicode="&#x11d;" horiz-adv-x="557" 
d="M259 188c-37 0 -75 5 -110 17c-16 -14 -29 -30 -29 -50c0 -17 11 -29 30 -29h217c135 0 192 -58 192 -149c0 -129 -124 -200 -305 -200c-158 0 -256 43 -256 122c0 50 48 74 92 81c-42 16 -66 57 -66 100c0 65 46 107 98 135c-55 26 -95 71 -95 144
c0 120 101 190 239 190c40 0 69 -6 95 -14l178 4v-67h-45l-61 2c36 -24 62 -63 62 -113c0 -111 -102 -173 -236 -173zM375 -42h-264c-7 -8 -9 -22 -9 -37c0 -61 63 -97 157 -97c90 0 173 24 173 89c0 32 -20 45 -57 45zM340 766l116 -170h-58l-120 85l-120 -85h-58l116 170
h124zM266 227c45 0 59 49 59 136c0 76 -20 144 -67 144c-45 0 -60 -49 -60 -132c0 -80 22 -148 68 -148z" />
    <glyph glyph-name="gcommaaccent" unicode="&#x123;" horiz-adv-x="557" 
d="M259 188c-37 0 -75 5 -110 17c-16 -14 -29 -30 -29 -50c0 -17 11 -29 30 -29h217c135 0 192 -58 192 -149c0 -129 -124 -200 -305 -200c-158 0 -256 43 -256 122c0 50 48 74 92 81c-42 16 -66 57 -66 100c0 65 46 107 98 135c-55 26 -95 71 -95 144
c0 120 101 190 239 190c40 0 69 -6 95 -14l178 4v-67h-45l-61 2c36 -24 62 -63 62 -113c0 -111 -102 -173 -236 -173zM375 -42h-264c-7 -8 -9 -22 -9 -37c0 -61 63 -97 157 -97c90 0 173 24 173 89c0 32 -20 45 -57 45zM266 227c45 0 59 49 59 136c0 76 -20 144 -67 144
c-45 0 -60 -49 -60 -132c0 -80 22 -148 68 -148zM262 714h55c29 -8 48 -26 48 -60c0 -35 -30 -62 -81 -62c-58 0 -93 40 -93 93c0 67 49 118 167 118v-37c-64 0 -94 -25 -96 -52z" />
    <glyph glyph-name="gdotaccent" unicode="&#x121;" horiz-adv-x="557" 
d="M259 188c-37 0 -75 5 -110 17c-16 -14 -29 -30 -29 -50c0 -17 11 -29 30 -29h217c135 0 192 -58 192 -149c0 -129 -124 -200 -305 -200c-158 0 -256 43 -256 122c0 50 48 74 92 81c-42 16 -66 57 -66 100c0 65 46 107 98 135c-55 26 -95 71 -95 144
c0 120 101 190 239 190c40 0 69 -6 95 -14l178 4v-67h-45l-61 2c36 -24 62 -63 62 -113c0 -111 -102 -173 -236 -173zM375 -42h-264c-7 -8 -9 -22 -9 -37c0 -61 63 -97 157 -97c90 0 173 24 173 89c0 32 -20 45 -57 45zM266 227c45 0 59 49 59 136c0 76 -20 144 -67 144
c-45 0 -60 -49 -60 -132c0 -80 22 -148 68 -148zM278 597c-61 0 -98 42 -98 92s37 93 98 93c60 0 98 -43 98 -93s-38 -92 -98 -92z" />
    <glyph glyph-name="hbar" unicode="&#x127;" horiz-adv-x="661" 
d="M74 78v511h-55v51h55v39l-55 28v30l209 46h31v-143h121v-51h-121v-140c38 48 95 100 186 100c96 0 151 -55 151 -164v-307c0 -32 16 -36 56 -39v-39h-294v39c40 3 53 7 53 39v292c0 44 -15 70 -67 70c-32 0 -60 -9 -85 -22v-340c0 -32 13 -36 53 -39v-39h-294v39
c40 3 56 7 56 39z" />
    <glyph glyph-name="hcircumflex" unicode="&#x125;" horiz-adv-x="661" 
d="M74 78v601l-55 28v30l209 46h31v-334c38 48 95 100 186 100c96 0 151 -55 151 -164v-307c0 -32 16 -36 56 -39v-39h-294v39c40 3 53 7 53 39v292c0 44 -15 70 -67 70c-32 0 -60 -9 -85 -22v-340c0 -32 13 -36 53 -39v-39h-294v39c40 3 56 7 56 39zM395 956l120 -153h-57
l-125 70l-125 -70h-57l120 153h124z" />
    <glyph glyph-name="ibreve" unicode="&#x12d;" horiz-adv-x="334" 
d="M262 549v-471c0 -32 16 -36 56 -39v-39h-296v39c40 3 56 7 56 39v351l-55 34v28l208 58h31zM174 598c-93 0 -143 61 -143 168h45c7 -58 48 -75 98 -75c49 0 89 17 96 75h46c0 -107 -51 -168 -142 -168z" />
    <glyph glyph-name="imacron" unicode="&#x12b;" horiz-adv-x="334" 
d="M262 549v-471c0 -32 16 -36 56 -39v-39h-296v39c40 3 56 7 56 39v351l-55 34v28l208 58h31zM34 626v85h277v-85h-277z" />
    <glyph glyph-name="iogonek" unicode="&#x12f;" horiz-adv-x="334" 
d="M262 549v-471c0 -32 16 -36 56 -39v-39h-101c-39 -26 -59 -56 -59 -95c0 -28 15 -50 46 -50c25 0 41 7 63 24l16 -20c-37 -47 -76 -74 -135 -74c-52 0 -94 31 -94 83c0 61 46 102 106 132h-138v39c40 3 56 7 56 39v351l-55 34v28l208 58h31zM172 593c-62 0 -98 43 -98 93
s36 92 98 92c60 0 98 -42 98 -92s-38 -93 -98 -93z" />
    <glyph glyph-name="itilde" unicode="&#x129;" horiz-adv-x="334" 
d="M226 603c-58 0 -86 59 -126 59c-27 0 -43 -22 -62 -55l-35 20c32 86 59 134 111 134c59 0 86 -59 126 -59c27 0 43 22 62 54l35 -19c-32 -86 -59 -134 -111 -134zM262 549v-471c0 -32 16 -36 56 -39v-39h-296v39c40 3 56 7 56 39v351l-55 34v28l208 58h31z" />
    <glyph glyph-name="ij" unicode="&#x133;" horiz-adv-x="636" 
d="M262 549v-471c0 -32 16 -36 56 -39v-39h-296v39c40 3 56 7 56 39v351l-55 34v28l208 58h31zM172 593c-62 0 -98 43 -98 93s36 92 98 92c60 0 98 -42 98 -92s-38 -93 -98 -93zM397 429l-56 34v28l209 58h31v-443c0 -113 -24 -161 -70 -207c-55 -54 -102 -80 -172 -112
l-16 20l41 64c32 52 33 114 33 192v366zM488 593c-61 0 -98 43 -98 93s37 92 98 92s98 -42 98 -92s-37 -93 -98 -93z" />
    <glyph glyph-name="jcircumflex" unicode="&#x135;" horiz-adv-x="302" 
d="M63 429l-56 34v28l209 58h31v-443c0 -113 -24 -161 -70 -207c-55 -54 -102 -80 -172 -112l-16 20l41 64c32 52 33 114 33 192v366zM205 766l105 -168h-52l-110 84l-109 -84h-53l106 168h113z" />
    <glyph glyph-name="kcommaaccent" unicode="&#x137;" horiz-adv-x="638" 
d="M346 -156h-54c-29 7 -48 26 -48 59c0 36 30 62 81 62c58 0 93 -39 93 -92c0 -67 -49 -118 -167 -118v36c64 0 94 26 95 53zM266 283l153 139c26 23 33 35 33 48c0 19 -14 25 -61 30v39h227v-39c-34 -5 -57 -11 -83 -37l-115 -108l218 -328v-27h-192zM74 78v601l-55 28v30
l209 46h31v-705c0 -32 16 -36 56 -39v-39h-297v39c40 3 56 7 56 39z" />
    <glyph glyph-name="kgreenlandic" unicode="&#x138;" horiz-adv-x="641" 
d="M269 283l154 139c25 23 32 35 32 48c0 19 -14 25 -60 30v39h227v-39c-35 -5 -57 -11 -84 -37l-114 -108l217 -328v-27h-191zM78 78v350l-55 36v27l209 58h30v-471c0 -32 16 -36 56 -39v-39h-296v39c40 3 56 7 56 39z" />
    <glyph glyph-name="lacute" unicode="&#x13a;" horiz-adv-x="330" 
d="M161 951h180v-9l-173 -140h-56zM259 783v-705c0 -32 16 -36 56 -39v-39h-297v39c40 3 56 7 56 39v601l-55 28v30l209 46h31z" />
    <glyph glyph-name="lcaron" unicode="&#x13e;" horiz-adv-x="330" 
d="M455 772l-116 -194h-41l13 205h144v-11zM259 783v-705c0 -32 16 -36 56 -39v-39h-297v39c40 3 56 7 56 39v601l-55 28v30l209 46h31z" />
    <glyph glyph-name="lcommaaccent" unicode="&#x13c;" horiz-adv-x="330" 
d="M182 -156h-54c-29 7 -48 26 -48 59c0 36 30 62 81 62c58 0 93 -39 93 -92c0 -67 -49 -118 -167 -118v36c64 0 94 26 95 53zM259 783v-705c0 -32 16 -36 56 -39v-39h-297v39c40 3 56 7 56 39v601l-55 28v30l209 46h31z" />
    <glyph glyph-name="ldot" unicode="&#x140;" horiz-adv-x="455" 
d="M259 783v-705c0 -32 16 -36 56 -39v-39h-297v39c40 3 56 7 56 39v601l-55 28v30l209 46h31zM293 386c0 57 43 98 97 98s96 -41 96 -98s-42 -96 -96 -96s-97 39 -97 96z" />
    <glyph glyph-name="nacute" unicode="&#x144;" horiz-adv-x="664" 
d="M343 765h179v-9l-177 -155h-52zM415 78v292c0 44 -15 70 -67 70c-32 0 -60 -9 -86 -22v-340c0 -32 14 -36 54 -39v-39h-294v39c40 3 56 7 56 39v351l-55 34v28l209 58h34l-4 -100c38 48 96 100 186 100c97 0 152 -54 152 -164v-307c0 -32 16 -36 56 -39v-39h-294v39
c40 3 53 7 53 39z" />
    <glyph glyph-name="ncaron" unicode="&#x148;" horiz-adv-x="664" 
d="M527 770l-116 -170h-124l-116 170h58l120 -85l120 85h58zM415 78v292c0 44 -15 70 -67 70c-32 0 -60 -9 -86 -22v-340c0 -32 14 -36 54 -39v-39h-294v39c40 3 56 7 56 39v351l-55 34v28l209 58h34l-4 -100c38 48 96 100 186 100c97 0 152 -54 152 -164v-307
c0 -32 16 -36 56 -39v-39h-294v39c40 3 53 7 53 39z" />
    <glyph glyph-name="ncommaaccent" unicode="&#x146;" horiz-adv-x="664" 
d="M365 -156h-54c-29 7 -48 26 -48 59c0 36 30 62 81 62c58 0 93 -39 93 -92c0 -67 -49 -118 -167 -118v36c64 0 94 26 95 53zM415 78v292c0 44 -15 70 -67 70c-32 0 -60 -9 -86 -22v-340c0 -32 14 -36 54 -39v-39h-294v39c40 3 56 7 56 39v351l-55 34v28l209 58h34l-4 -100
c38 48 96 100 186 100c97 0 152 -54 152 -164v-307c0 -32 16 -36 56 -39v-39h-294v39c40 3 53 7 53 39z" />
    <glyph glyph-name="eng" unicode="&#x14b;" horiz-adv-x="654" 
d="M415 63v307c0 44 -15 70 -67 70c-32 0 -60 -9 -86 -22v-340c0 -32 14 -36 54 -39v-39h-294v39c40 3 56 7 56 39v351l-55 34v28l209 58h34l-4 -100c38 48 96 100 186 100c97 0 152 -54 152 -164v-279c0 -113 -25 -161 -70 -207c-55 -54 -102 -80 -172 -112l-17 20l41 64
c32 52 33 114 33 192z" />
    <glyph glyph-name="obreve" unicode="&#x14f;" horiz-adv-x="601" 
d="M305 32c60 0 79 77 79 204c0 164 -23 271 -88 271c-60 0 -79 -77 -79 -204c0 -164 24 -271 88 -271zM300 -10c-165 0 -279 105 -279 269c0 168 116 290 280 290c165 0 279 -105 279 -269c0 -168 -116 -290 -280 -290zM304 598c-94 0 -145 61 -145 168h46
c7 -58 48 -75 99 -75c50 0 91 17 98 75h46c0 -107 -51 -168 -144 -168z" />
    <glyph glyph-name="ohungarumlaut" unicode="&#x151;" horiz-adv-x="601" 
d="M225 765h150v-9l-147 -155h-53zM405 765h150v-9l-148 -155h-53zM305 32c60 0 79 77 79 204c0 164 -23 271 -88 271c-60 0 -79 -77 -79 -204c0 -164 24 -271 88 -271zM300 -10c-165 0 -279 105 -279 269c0 168 116 290 280 290c165 0 279 -105 279 -269
c0 -168 -116 -290 -280 -290z" />
    <glyph glyph-name="omacron" unicode="&#x14d;" horiz-adv-x="601" 
d="M161 625v86h286v-86h-286zM305 32c60 0 79 77 79 204c0 164 -23 271 -88 271c-60 0 -79 -77 -79 -204c0 -164 24 -271 88 -271zM300 -10c-165 0 -279 105 -279 269c0 168 116 290 280 290c165 0 279 -105 279 -269c0 -168 -116 -290 -280 -290z" />
    <glyph glyph-name="oslashacute" unicode="&#x1ff;" horiz-adv-x="601" 
d="M300 -10c-56 0 -106 12 -148 34l-58 -82l-35 25l57 80c-60 47 -95 120 -95 212c0 168 116 290 280 290c56 0 107 -13 149 -35l55 77l36 -25l-55 -76c59 -47 94 -120 94 -210c0 -168 -116 -290 -280 -290zM217 303c0 -40 1 -76 4 -109l150 210c-13 65 -37 103 -75 103
c-60 0 -79 -77 -79 -204zM305 32c60 0 79 77 79 204c0 38 -1 74 -4 105l-150 -209c13 -63 37 -100 75 -100zM294 765h179v-9l-177 -155h-52z" />
    <glyph glyph-name="racute" unicode="&#x155;" horiz-adv-x="457" 
d="M255 765h179v-9l-177 -155h-52zM262 357v-264c0 -43 23 -47 80 -54v-39h-320v39c40 3 56 7 56 39v351l-55 34v28l209 58h34l-4 -154c41 117 76 154 139 154c23 0 40 -7 50 -17v-139h-24c-63 0 -119 -2 -165 -36z" />
    <glyph glyph-name="rcaron" unicode="&#x159;" horiz-adv-x="457" 
d="M439 770l-116 -170h-124l-116 170h58l120 -85l120 85h58zM262 357v-264c0 -43 23 -47 80 -54v-39h-320v39c40 3 56 7 56 39v351l-55 34v28l209 58h34l-4 -154c41 117 76 154 139 154c23 0 40 -7 50 -17v-139h-24c-63 0 -119 -2 -165 -36z" />
    <glyph glyph-name="rcommaaccent" unicode="&#x157;" horiz-adv-x="457" 
d="M194 -156h-54c-29 7 -48 26 -48 59c0 36 30 62 81 62c58 0 93 -39 93 -92c0 -67 -49 -118 -167 -118v36c64 0 94 26 95 53zM262 357v-264c0 -43 23 -47 80 -54v-39h-320v39c40 3 56 7 56 39v351l-55 34v28l209 58h34l-4 -154c41 117 76 154 139 154c23 0 40 -7 50 -17
v-139h-24c-63 0 -119 -2 -165 -36z" />
    <glyph glyph-name="sacute" unicode="&#x15b;" horiz-adv-x="477" 
d="M241 765h179v-9l-177 -155h-52zM227 -10c-83 0 -147 20 -190 51l-6 135h46c20 -82 72 -144 150 -144c47 0 85 23 85 68c0 51 -39 68 -107 90c-113 35 -174 82 -174 184c0 112 86 175 206 175c68 0 129 -18 172 -46v-120h-43c-12 66 -56 124 -126 124
c-43 0 -72 -24 -72 -62c0 -42 30 -59 96 -82c120 -40 185 -81 185 -190c0 -117 -87 -183 -222 -183z" />
    <glyph glyph-name="scedilla" unicode="&#x15f;" horiz-adv-x="477" 
d="M126 -231l-8 35c72 0 105 22 105 48c0 28 -30 33 -79 35l42 105c-63 6 -114 23 -149 49l-6 135h46c20 -82 72 -144 150 -144c47 0 85 23 85 68c0 51 -39 68 -107 90c-113 35 -174 82 -174 184c0 112 86 175 206 175c68 0 129 -18 172 -46v-120h-43
c-12 66 -56 124 -126 124c-43 0 -72 -24 -72 -62c0 -42 30 -59 96 -82c120 -40 185 -81 185 -190c0 -117 -87 -183 -222 -183h-4l-12 -30c63 0 105 -30 105 -82c0 -75 -90 -109 -190 -109z" />
    <glyph glyph-name="scircumflex" unicode="&#x15d;" horiz-adv-x="477" 
d="M309 766l116 -170h-58l-120 85l-120 -85h-58l116 170h124zM227 -10c-83 0 -147 20 -190 51l-6 135h46c20 -82 72 -144 150 -144c47 0 85 23 85 68c0 51 -39 68 -107 90c-113 35 -174 82 -174 184c0 112 86 175 206 175c68 0 129 -18 172 -46v-120h-43
c-12 66 -56 124 -126 124c-43 0 -72 -24 -72 -62c0 -42 30 -59 96 -82c120 -40 185 -81 185 -190c0 -117 -87 -183 -222 -183z" />
    <glyph glyph-name="scommaaccent" unicode="&#x219;" horiz-adv-x="477" 
d="M253 -156h-54c-29 7 -48 26 -48 59c0 36 30 62 81 62c58 0 93 -39 93 -92c0 -67 -49 -118 -167 -118v36c64 0 94 26 95 53zM227 -10c-83 0 -147 20 -190 51l-6 135h46c20 -82 72 -144 150 -144c47 0 85 23 85 68c0 51 -39 68 -107 90c-113 35 -174 82 -174 184
c0 112 86 175 206 175c68 0 129 -18 172 -46v-120h-43c-12 66 -56 124 -126 124c-43 0 -72 -24 -72 -62c0 -42 30 -59 96 -82c120 -40 185 -81 185 -190c0 -117 -87 -183 -222 -183z" />
    <glyph glyph-name="tbar" unicode="&#x167;" horiz-adv-x="402" 
d="M252 675v-136h117v-54h-117v-104h118v-54h-118v-173c0 -48 19 -69 57 -69c26 0 48 9 72 25l15 -22c-38 -62 -94 -98 -174 -98c-92 0 -156 46 -156 164v173h-57v54h57v104h-57v33c80 30 152 88 204 157h39z" />
    <glyph glyph-name="tcaron" unicode="&#x165;" horiz-adv-x="391" 
d="M441 772l-116 -194h-41l13 205h144v-11zM247 675v-136h117v-54h-117v-331c0 -48 19 -69 57 -69c26 0 48 9 72 25l15 -22c-38 -62 -94 -98 -174 -98c-92 0 -156 46 -156 164v331h-57v33c80 30 152 88 204 157h39z" />
    <glyph glyph-name="ubreve" unicode="&#x16d;" horiz-adv-x="647" 
d="M576 421v-306c0 -34 2 -49 34 -50l24 -1v-39l-211 -35h-35l3 97c-36 -46 -89 -97 -178 -97s-151 53 -151 168v245c0 29 -7 50 -39 58l-15 5v36l211 46h33l-6 -127v-245c0 -51 20 -80 68 -80c30 0 50 8 77 20v287c0 29 -7 50 -38 58l-15 5v36l210 46h33zM323 598
c-94 0 -145 61 -145 168h46c7 -58 48 -75 99 -75c50 0 91 17 98 75h46c0 -107 -51 -168 -144 -168z" />
    <glyph glyph-name="uhungarumlaut" unicode="&#x171;" horiz-adv-x="647" 
d="M576 421v-306c0 -34 2 -49 34 -50l24 -1v-39l-211 -35h-35l3 97c-36 -46 -89 -97 -178 -97s-151 53 -151 168v245c0 29 -7 50 -39 58l-15 5v36l211 46h33l-6 -127v-245c0 -51 20 -80 68 -80c30 0 50 8 77 20v287c0 29 -7 50 -38 58l-15 5v36l210 46h33zM244 765h150v-9
l-147 -155h-53zM424 765h150v-9l-148 -155h-53z" />
    <glyph glyph-name="umacron" unicode="&#x16b;" horiz-adv-x="647" 
d="M576 421v-306c0 -34 2 -49 34 -50l24 -1v-39l-211 -35h-35l3 97c-36 -46 -89 -97 -178 -97s-151 53 -151 168v245c0 29 -7 50 -39 58l-15 5v36l211 46h33l-6 -127v-245c0 -51 20 -80 68 -80c30 0 50 8 77 20v287c0 29 -7 50 -38 58l-15 5v36l210 46h33zM180 625v86h286
v-86h-286z" />
    <glyph glyph-name="uogonek" unicode="&#x173;" horiz-adv-x="647" 
d="M576 421v-306c0 -34 2 -49 34 -50l24 -1v-39c-186 -28 -236 -51 -236 -122c0 -26 15 -48 46 -48c25 0 41 7 63 24l16 -20c-37 -47 -76 -74 -134 -74c-53 0 -95 31 -95 87c0 54 34 88 94 118l3 97c-36 -46 -89 -97 -178 -97s-151 53 -151 168v245c0 29 -7 50 -39 58l-15 5
v36l211 46h33l-6 -127v-245c0 -51 20 -80 68 -80c30 0 50 8 77 20v287c0 29 -7 50 -38 58l-15 5v36l210 46h33z" />
    <glyph glyph-name="uring" unicode="&#x16f;" horiz-adv-x="647" 
d="M273 678c0 -29 18 -51 50 -51s50 22 50 51c0 30 -18 52 -50 52s-50 -22 -50 -52zM219 678c0 57 44 102 104 102s103 -45 103 -102c0 -56 -43 -101 -103 -101s-104 45 -104 101zM576 421v-306c0 -34 2 -49 34 -50l24 -1v-39l-211 -35h-35l3 97c-36 -46 -89 -97 -178 -97
s-151 53 -151 168v245c0 29 -7 50 -39 58l-15 5v36l211 46h33l-6 -127v-245c0 -51 20 -80 68 -80c30 0 50 8 77 20v287c0 29 -7 50 -38 58l-15 5v36l210 46h33z" />
    <glyph glyph-name="utilde" unicode="&#x169;" horiz-adv-x="647" 
d="M576 421v-306c0 -34 2 -49 34 -50l24 -1v-39l-211 -35h-35l3 97c-36 -46 -89 -97 -178 -97s-151 53 -151 168v245c0 29 -7 50 -39 58l-15 5v36l211 46h33l-6 -127v-245c0 -51 20 -80 68 -80c30 0 50 8 77 20v287c0 29 -7 50 -38 58l-15 5v36l210 46h33zM388 602
c-63 0 -93 60 -136 60c-28 0 -46 -23 -65 -56l-36 20c33 86 63 135 117 135c63 0 92 -60 136 -60c28 0 46 23 65 55l36 -19c-34 -87 -63 -135 -117 -135z" />
    <glyph glyph-name="wacute" unicode="&#x1e83;" horiz-adv-x="896" 
d="M468 765h179v-9l-177 -155h-52zM679 214l89 223c5 12 7 23 7 31c0 21 -18 27 -57 32v39h173v-39c-35 -11 -42 -18 -51 -40l-197 -464h-60l-118 309l-140 -309h-59l-210 464c-10 22 -16 29 -51 40v39h300v-39c-33 -5 -47 -13 -47 -31c0 -8 3 -19 8 -32l95 -233l75 167
l-34 89c-8 22 -19 32 -46 40v39h296v-39c-42 -5 -62 -9 -62 -34c0 -8 2 -17 6 -29z" />
    <glyph glyph-name="wcircumflex" unicode="&#x175;" horiz-adv-x="896" 
d="M537 766l116 -170h-58l-120 85l-120 -85h-58l116 170h124zM679 214l89 223c5 12 7 23 7 31c0 21 -18 27 -57 32v39h173v-39c-35 -11 -42 -18 -51 -40l-197 -464h-60l-118 309l-140 -309h-59l-210 464c-10 22 -16 29 -51 40v39h300v-39c-33 -5 -47 -13 -47 -31
c0 -8 3 -19 8 -32l95 -233l75 167l-34 89c-8 22 -19 32 -46 40v39h296v-39c-42 -5 -62 -9 -62 -34c0 -8 2 -17 6 -29z" />
    <glyph glyph-name="wgrave" unicode="&#x1e81;" horiz-adv-x="896" 
d="M679 214l89 223c5 12 7 23 7 31c0 21 -18 27 -57 32v39h173v-39c-35 -11 -42 -18 -51 -40l-197 -464h-60l-118 309l-140 -309h-59l-210 464c-10 22 -16 29 -51 40v39h300v-39c-33 -5 -47 -13 -47 -31c0 -8 3 -19 8 -32l95 -233l75 167l-34 89c-8 22 -19 32 -46 40v39h296
v-39c-42 -5 -62 -9 -62 -34c0 -8 2 -17 6 -29zM300 765h179l50 -164h-51l-178 155v9z" />
    <glyph glyph-name="wdieresis" unicode="&#x1e85;" horiz-adv-x="896" 
d="M288 687c0 46 37 83 84 83c46 0 84 -37 84 -83c0 -45 -38 -83 -84 -83c-47 0 -84 38 -84 83zM492 687c0 46 39 83 83 83c49 0 86 -37 86 -83c0 -45 -37 -83 -86 -83c-44 0 -83 38 -83 83zM679 214l89 223c5 12 7 23 7 31c0 21 -18 27 -57 32v39h173v-39
c-35 -11 -42 -18 -51 -40l-197 -464h-60l-118 309l-140 -309h-59l-210 464c-10 22 -16 29 -51 40v39h300v-39c-33 -5 -47 -13 -47 -31c0 -8 3 -19 8 -32l95 -233l75 167l-34 89c-8 22 -19 32 -46 40v39h296v-39c-42 -5 -62 -9 -62 -34c0 -8 2 -17 6 -29z" />
    <glyph glyph-name="ycircumflex" unicode="&#x177;" horiz-adv-x="599" 
d="M371 182l99 254c5 13 8 20 8 29c0 22 -14 28 -66 35v39h182v-39c-34 -11 -42 -18 -51 -40l-228 -547c-37 -88 -74 -134 -144 -134c-39 0 -70 16 -84 42v71c26 -5 47 -10 78 -10c56 0 85 16 103 58l16 35l-228 485c-10 22 -16 29 -51 40v39h320v-39
c-53 -7 -66 -13 -66 -35c0 -9 3 -16 7 -28zM403 766l116 -170h-58l-120 85l-120 -85h-58l116 170h124z" />
    <glyph glyph-name="ygrave" unicode="&#x1ef3;" horiz-adv-x="599" 
d="M371 182l99 254c5 13 8 20 8 29c0 22 -14 28 -66 35v39h182v-39c-34 -11 -42 -18 -51 -40l-228 -547c-37 -88 -74 -134 -144 -134c-39 0 -70 16 -84 42v71c26 -5 47 -10 78 -10c56 0 85 16 103 58l16 35l-228 485c-10 22 -16 29 -51 40v39h320v-39
c-53 -7 -66 -13 -66 -35c0 -9 3 -16 7 -28zM167 765h179l50 -164h-51l-178 155v9z" />
    <glyph glyph-name="zacute" unicode="&#x17a;" horiz-adv-x="537" 
d="M285 765h179v-9l-177 -155h-52zM18 0v33l284 460h-92c-53 0 -86 -46 -133 -152h-39l14 230h37l20 -33h402v-33l-278 -459h102c66 0 98 42 150 153h37l-22 -199h-482z" />
    <glyph glyph-name="zdotaccent" unicode="&#x17c;" horiz-adv-x="537" 
d="M18 0v33l284 460h-92c-53 0 -86 -46 -133 -152h-39l14 230h37l20 -33h402v-33l-278 -459h102c66 0 98 42 150 153h37l-22 -199h-482zM292 597c-61 0 -98 42 -98 92s37 93 98 93c60 0 98 -43 98 -93s-38 -92 -98 -92z" />
    <glyph glyph-name="caron.Slovak" 
d="M350 772l-116 -194h-41l13 205h144v-11z" />
    <glyph glyph-name="cedilla.alt" 
d="M151 -231l-8 35c72 0 105 22 105 48c0 28 -30 33 -79 35l30 73h32c68 0 110 -30 110 -82c0 -75 -90 -109 -190 -109z" />
    <glyph glyph-name="grave.cap" 
d="M124 892h180l49 -149h-55l-174 140v9z" />
    <glyph glyph-name="acute.cap" 
d="M173 892h180v-9l-173 -140h-56z" />
    <glyph glyph-name="circumflex.cap" 
d="M312 896l120 -153h-57l-125 70l-125 -70h-57l120 153h124z" />
    <glyph glyph-name="tilde.cap" 
d="M310 743c-63 0 -94 60 -138 60c-28 0 -47 -23 -66 -56l-36 20c34 86 64 135 118 135c63 0 94 -60 138 -60c28 0 47 23 66 55l36 -19c-34 -87 -64 -135 -118 -135z" />
    <glyph glyph-name="macron.cap" 
d="M110 751v86h292v-86h-292z" />
    <glyph glyph-name="breve.cap" 
d="M257 740c-94 0 -148 57 -148 156h46c10 -52 56 -65 102 -65c47 0 93 13 102 65h47c0 -99 -55 -156 -149 -156z" />
    <glyph glyph-name="dotaccent.cap" 
d="M251 741c-61 0 -98 43 -98 92c0 50 37 93 98 93c60 0 98 -43 98 -93c0 -49 -38 -92 -98 -92z" />
    <glyph glyph-name="dieresis.cap" 
d="M67 823c0 45 38 83 84 83s85 -38 85 -83c0 -46 -39 -83 -85 -83s-84 37 -84 83zM273 823c0 45 39 83 83 83c48 0 86 -38 86 -83c0 -46 -38 -83 -86 -83c-44 0 -83 37 -83 83z" />
    <glyph glyph-name="ring.cap" 
d="M209 827c0 -29 18 -50 50 -50s50 21 50 50c0 30 -18 52 -50 52s-50 -22 -50 -52zM155 827c0 57 44 102 104 102s103 -45 103 -102c0 -56 -43 -100 -103 -100s-104 44 -104 100z" />
    <glyph glyph-name="hungarumlaut.cap" 
d="M121 892h150v-9l-147 -140h-53zM301 892h150v-9l-147 -140h-54z" />
    <glyph glyph-name="caron.cap" 
d="M432 897l-120 -153h-124l-120 153h57l125 -70l125 70h57z" />
    <glyph glyph-name="exclamdown.cap" horiz-adv-x="293" 
d="M51 615c0 53 43 97 95 97c53 0 96 -44 96 -97c0 -55 -43 -99 -96 -99c-52 0 -95 44 -95 99zM117 468h58l81 -468h-220z" />
    <glyph glyph-name="questiondown.cap" horiz-adv-x="467" 
d="M161 106c0 -47 24 -77 70 -77c57 0 75 49 75 99c0 25 -3 42 -5 58h110c26 -13 40 -36 40 -65c0 -80 -87 -131 -218 -131c-141 0 -221 61 -221 170c0 86 50 139 138 191c56 34 79 58 79 107v13h25c47 -18 78 -56 78 -109c0 -46 -25 -88 -78 -127c-51 -38 -93 -71 -93 -129
zM338 615c0 -55 -43 -99 -95 -99c-54 0 -96 44 -96 99c0 53 42 97 96 97c52 0 95 -44 95 -97z" />
    <glyph glyph-name="guilsinglleft.cap" horiz-adv-x="279" 
d="M23 349v6l187 201h46l-90 -204l90 -203h-46z" />
    <glyph glyph-name="guilsinglright.cap" horiz-adv-x="279" 
d="M256 355v-6l-187 -200h-46l90 203l-90 204h46z" />
    <glyph glyph-name="guillemotleft.cap" horiz-adv-x="469" 
d="M23 349v6l187 201h46l-90 -204l90 -203h-46zM213 349v6l187 201h46l-90 -204l90 -203h-46z" />
    <glyph glyph-name="guillemotright.cap" horiz-adv-x="469" 
d="M446 355v-6l-187 -200h-46l90 203l-90 204h46zM256 355v-6l-187 -200h-46l90 203l-90 204h46z" />
    <glyph glyph-name="slash.cap" horiz-adv-x="361" 
d="M352 770l-265 -871h-78l265 871h78z" />
    <glyph glyph-name="backslash.cap" horiz-adv-x="361" 
d="M274 -101l-265 871h78l265 -871h-78z" />
    <glyph glyph-name="bar.cap" horiz-adv-x="205" 
d="M139 770v-871h-73v871h73z" />
    <glyph glyph-name="brokenbar.cap" horiz-adv-x="205" 
d="M139 770v-371h-73v371h73zM139 270v-371h-73v371h73z" />
    <glyph glyph-name="periodcentered.cap" horiz-adv-x="262" 
d="M30 348c0 59 45 101 101 101s101 -42 101 -101s-45 -101 -101 -101s-101 42 -101 101z" />
    <glyph glyph-name="bullet.cap" horiz-adv-x="368" 
d="M30 351c0 87 70 157 154 157c85 0 154 -70 154 -157c0 -85 -69 -156 -154 -156c-84 0 -154 71 -154 156z" />
    <glyph glyph-name="hyphen.cap" horiz-adv-x="320" 
d="M290 313h-260v78h260v-78z" />
    <glyph glyph-name="endash.cap" horiz-adv-x="540" 
d="M510 318h-480v60h480v-60z" />
    <glyph glyph-name="emdash.cap" horiz-adv-x="960" 
d="M930 378v-60h-900v60h900z" />
    <glyph glyph-name="parenleft.cap" horiz-adv-x="371" 
d="M195 334c0 -148 41 -305 154 -436h-56c-143 107 -233 272 -233 436s90 329 233 436h56c-113 -131 -154 -288 -154 -436z" />
    <glyph glyph-name="parenright.cap" horiz-adv-x="371" 
d="M175 334c0 148 -41 305 -153 436h55c143 -107 233 -272 233 -436s-90 -329 -233 -436h-55c112 131 153 288 153 436z" />
    <glyph glyph-name="bracketleft.cap" horiz-adv-x="336" 
d="M199 671v-673c0 -52 25 -55 105 -60v-39h-219v871h219v-39c-80 -5 -105 -8 -105 -60z" />
    <glyph glyph-name="bracketright.cap" horiz-adv-x="336" 
d="M138 -2v673c0 52 -25 55 -105 60v39h218v-871h-218v39c80 5 105 8 105 60z" />
    <glyph glyph-name="braceleft.cap" horiz-adv-x="367" 
d="M50 325v18c48 10 83 36 83 100v199c0 79 59 128 205 128v-29c-48 -6 -86 -31 -86 -98v-189c0 -76 -47 -105 -117 -120c70 -15 117 -44 117 -120v-187c0 -67 38 -92 86 -98v-29c-146 0 -205 49 -205 128v197c0 64 -35 90 -83 100z" />
    <glyph glyph-name="braceright.cap" horiz-adv-x="375" 
d="M325 343v-18c-48 -10 -83 -36 -83 -100v-197c0 -79 -59 -128 -205 -128v29c49 6 86 31 86 98v187c0 76 47 105 117 120c-70 15 -117 44 -117 120v189c0 67 -37 92 -86 98v29c146 0 205 -49 205 -128v-199c0 -64 35 -90 83 -100z" />
    <glyph glyph-name="at.cap" horiz-adv-x="885" 
d="M606 138c-106 0 -128 77 -112 162c-50 -92 -99 -162 -175 -162c-58 0 -103 48 -103 128c0 137 112 289 257 289c46 0 81 -21 96 -41l75 33h41l-34 -92l-55 -200c-12 -41 -7 -80 29 -80c75 0 140 106 140 257c0 148 -103 281 -283 281c-220 0 -358 -182 -358 -401
c0 -220 150 -330 336 -330c111 0 185 24 270 75l14 -20c-72 -64 -176 -104 -304 -104c-217 0 -402 131 -402 377c0 242 187 443 444 443c231 0 365 -148 365 -321c0 -200 -131 -294 -241 -294zM381 226c56 0 122 126 152 262c-9 20 -24 32 -45 32c-79 0 -140 -142 -140 -239
c0 -33 10 -55 33 -55z" />
    <glyph glyph-name="uni2153" unicode="&#x2153;" horiz-adv-x="792" 
d="M198 712h32v-331c0 -35 13 -37 68 -41v-34h-258v34c64 4 70 6 70 41v217h-70v31l25 5c66 13 101 36 133 78zM150 -10l438 722h55l-439 -722h-54zM624 218c76 -1 128 -40 128 -106c0 -79 -76 -120 -168 -120c-97 0 -140 38 -140 83c0 26 15 40 28 46h67
c-4 -11 -5 -18 -5 -29c0 -44 20 -71 55 -71c33 0 52 27 52 75c0 51 -25 82 -82 82h-15l-6 21c58 23 75 43 75 76c0 26 -15 49 -52 49s-61 -22 -77 -43l-24 18c26 54 78 103 158 103c69 0 111 -35 111 -90c0 -56 -52 -84 -105 -94z" />
    <glyph glyph-name="uni2154" unicode="&#x2154;" horiz-adv-x="843" 
d="M201 -10l438 722h54l-438 -722h-54zM674 218c77 -1 129 -40 129 -106c0 -79 -76 -120 -168 -120c-97 0 -140 38 -140 83c0 26 15 40 28 46h67c-4 -11 -5 -18 -5 -29c0 -44 19 -71 55 -71c33 0 52 27 52 75c0 51 -25 82 -83 82h-14l-7 21c59 23 75 43 75 76
c0 26 -14 49 -51 49s-61 -22 -77 -43l-25 18c27 54 78 103 159 103c69 0 111 -35 111 -90c0 -56 -52 -84 -106 -94zM152 397h108c32 0 41 8 63 42h21l-11 -136h-303v25l114 107c48 46 69 81 69 124c0 41 -22 67 -65 67c-40 0 -69 -21 -89 -44l-21 18c28 57 83 109 164 109
c77 0 125 -43 125 -115c0 -86 -81 -139 -175 -197z" />
    <glyph glyph-name="uni215B" unicode="&#x215b;" horiz-adv-x="831" 
d="M198 712h37v-331c0 -35 12 -37 67 -41v-34h-262v34c64 4 70 6 70 41v217h-70v31l25 5c66 13 101 36 133 78zM150 -10l438 722h55l-439 -722h-54zM774 313c0 -46 -43 -71 -90 -75c68 -24 106 -69 106 -122c0 -88 -79 -126 -163 -126c-89 0 -167 34 -167 98
c0 47 40 73 92 81c-46 21 -79 57 -79 109c0 80 64 128 154 128s147 -37 147 -93zM648 131l-76 30c-16 -17 -25 -37 -25 -63c0 -48 36 -75 83 -75c40 0 67 21 67 52c0 32 -18 42 -49 56zM609 268l53 -21c18 16 26 35 26 59c0 41 -25 67 -65 67c-36 0 -58 -24 -58 -53
c0 -26 18 -42 44 -52z" />
    <glyph glyph-name="uni215C" unicode="&#x215c;" horiz-adv-x="854" 
d="M796 313c0 -46 -42 -71 -90 -75c69 -24 107 -69 107 -122c0 -88 -79 -126 -163 -126c-90 0 -167 34 -167 98c0 47 39 73 92 81c-47 21 -80 57 -80 109c0 80 64 128 154 128s147 -37 147 -93zM670 131l-76 30c-15 -17 -24 -37 -24 -63c0 -48 36 -75 82 -75
c40 0 67 21 67 52c0 32 -18 42 -49 56zM632 268l52 -21c19 16 26 35 26 59c0 41 -24 67 -64 67c-37 0 -58 -24 -58 -53c0 -26 17 -42 44 -52zM173 -10l438 722h54l-439 -722h-53zM219 529c76 -2 128 -41 128 -107c0 -78 -76 -120 -168 -120c-97 0 -140 38 -140 83
c0 26 15 40 28 47h67c-3 -12 -4 -19 -4 -30c0 -43 19 -71 54 -71c33 0 56 24 56 75s-29 82 -86 82h-15l-6 22c58 22 79 42 79 74c0 28 -19 50 -56 50s-60 -21 -77 -43l-24 18c26 54 78 103 158 103c69 0 111 -35 111 -90c0 -56 -52 -84 -105 -93z" />
    <glyph glyph-name="uni215D" unicode="&#x215d;" horiz-adv-x="848" 
d="M168 -10l438 722h54l-439 -722h-53zM334 726l-22 -124h-181l-7 -40c128 0 215 -30 215 -135c0 -78 -59 -126 -146 -126c-92 0 -150 35 -150 83c0 23 18 42 32 48h63c-4 -12 -5 -19 -5 -30c0 -42 19 -71 61 -71c38 0 59 24 59 59c0 61 -56 89 -175 89l37 223h151
c24 0 29 3 40 24h28zM791 313c0 -46 -43 -71 -90 -75c69 -24 106 -69 106 -122c0 -88 -78 -126 -163 -126c-89 0 -167 34 -167 98c0 47 40 73 93 81c-47 21 -80 57 -80 109c0 80 64 128 154 128s147 -37 147 -93zM665 131l-76 30c-15 -17 -24 -37 -24 -63
c0 -48 36 -75 82 -75c40 0 67 21 67 52c0 32 -18 42 -49 56zM626 268l53 -21c18 16 26 35 26 59c0 41 -24 67 -64 67c-37 0 -58 -24 -58 -53c0 -26 17 -42 43 -52z" />
    <glyph glyph-name="uni215E" unicode="&#x215e;" horiz-adv-x="770" 
d="M273 593h-142c-30 0 -48 -18 -63 -61h-36l32 170h298v-30l-199 -368h-77zM89 -10l438 722h54l-439 -722h-53zM712 313c0 -46 -42 -71 -89 -75c68 -24 106 -69 106 -122c0 -88 -79 -126 -163 -126c-90 0 -167 34 -167 98c0 47 40 73 92 81c-47 21 -79 57 -79 109
c0 80 63 128 153 128s147 -37 147 -93zM586 131l-75 30c-16 -17 -25 -37 -25 -63c0 -48 36 -75 82 -75c40 0 67 21 67 52c0 32 -18 42 -49 56zM548 268l53 -21c18 16 25 35 25 59c0 41 -24 67 -64 67c-36 0 -58 -24 -58 -53c0 -26 17 -42 44 -52z" />
    </font>
</defs>
</svg>
