<?xml version="1.0" encoding="UTF-8"?>
<svg width="2618px" height="3243px" viewBox="0 0 2618 3243" version="1.1" xmlns="http://www.w3.org/2000/svg" xmlns:xlink="http://www.w3.org/1999/xlink">
    <!-- Generator: Sketch 55 (78076) - https://sketchapp.com -->
    <title>Group 7</title>
    <desc>Created with Sketch.</desc>
    <g id="Page-1" stroke="none" stroke-width="1" fill="none" fill-rule="evenodd">
        <g id="Group-11" transform="translate(0.000000, 57.000000)">
            <circle id="Oval" fill="#8DDDFF" fill-rule="nonzero" cx="2488.5" cy="1441.5" r="1153.5"></circle>
            <g id="Group-4" transform="translate(1138.000000, 1968.000000)" fill="#FBF8EE" fill-rule="nonzero">
                <rect id="Rectangle" x="0" y="189" width="493" height="130" rx="65"></rect>
                <rect id="Rectangle" x="411" y="0" width="297" height="153" rx="76.5"></rect>
                <rect id="Rectangle" x="210" y="76" width="339" height="153" rx="76.5"></rect>
            </g>
            <g id="Phone" transform="translate(1846.000000, 1484.000000)" fill-rule="nonzero">
                <path d="M26,0 L124,0 C138.359403,-2.63777963e-15 150,11.6405965 150,26 L150,290 C150,304.359403 138.359403,316 124,316 L26,316 C11.6405965,316 1.75851975e-15,304.359403 0,290 L0,26 C-1.75851975e-15,11.6405965 11.6405965,2.63777963e-15 26,0 Z" id="Rectangle-6" fill="#636363"></path>
                <path d="M24,11 L125,11 C136.045695,11 145,19.954305 145,31 L145,277 C145,288.045695 136.045695,297 125,297 L24,297 C12.954305,297 4,288.045695 4,277 L4,31 C4,19.954305 12.954305,11 24,11 Z" id="Rectangle-6" fill="#585858"></path>
                <rect id="Rectangle-6" fill="#F3F3F3" x="11" y="35" width="129" height="240" rx="16"></rect>
            </g>
            <g id="iPad" transform="translate(256.000000, 2275.000000)" fill-rule="nonzero">
                <path d="M26,0 L406,0 C420.359403,-2.63777963e-15 432,11.6405965 432,26 L432,269 C432,283.359403 420.359403,295 406,295 L26,295 C11.6405965,295 1.75851975e-15,283.359403 0,269 L0,26 C-1.75851975e-15,11.6405965 11.6405965,2.63777963e-15 26,0 Z" id="Rectangle-6" fill="#636363"></path>
                <path d="M50,11 L378,11 C389.045695,11 398,19.954305 398,31 L398,258 C398,269.045695 389.045695,278 378,278 L50,278 C38.954305,278 30,269.045695 30,258 L30,31 C30,19.954305 38.954305,11 50,11 Z" id="Rectangle-6" fill="#585858"></path>
                <path d="M53,14 L382,14 C390.836556,14 398,21.163444 398,30 L398,265 C398,273.836556 390.836556,281 382,281 L53,281 C44.163444,281 37,273.836556 37,265 L37,30 C37,21.163444 44.163444,14 53,14 Z" id="Rectangle-6" fill="#F3F3F3"></path>
            </g>
            <g id="Db" transform="translate(2327.000000, 1968.000000)" fill-rule="nonzero">
                <path d="M20,66 L219,66 C230.045695,66 239,74.954305 239,86 L239,117 C239,128.045695 230.045695,137 219,137 L20,137 C8.954305,137 1.3527075e-15,128.045695 0,117 L0,86 C-1.3527075e-15,74.954305 8.954305,66 20,66 Z" id="Rectangle-6" fill="#585858"></path>
                <path d="M20,203 L219,203 C230.045695,203 239,211.954305 239,223 L239,254 C239,265.045695 230.045695,274 219,274 L20,274 C8.954305,274 1.3527075e-15,265.045695 0,254 L0,223 C-1.3527075e-15,211.954305 8.954305,203 20,203 Z" id="Rectangle-6" fill="#585858"></path>
                <path d="M22,137 L219,137 C227.836556,137 235,144.163444 235,153 L235,187 C235,195.836556 227.836556,203 219,203 L22,203 C13.163444,203 6,195.836556 6,187 L6,153 C6,144.163444 13.163444,137 22,137 Z" id="Rectangle-6" fill="#F3F3F3"></path>
                <path d="M22,270 L219,270 C227.836556,270 235,277.163444 235,286 L235,320 C235,328.836556 227.836556,336 219,336 L22,336 C13.163444,336 6,328.836556 6,320 L6,286 C6,277.163444 13.163444,270 22,270 Z" id="Rectangle-6" fill="#F3F3F3"></path>
                <path d="M22,0 L219,0 C227.836556,-1.623249e-15 235,7.163444 235,16 L235,50 C235,58.836556 227.836556,66 219,66 L22,66 C13.163444,66 6,58.836556 6,50 L6,16 C6,7.163444 13.163444,1.623249e-15 22,0 Z" id="Rectangle-6" fill="#F3F3F3"></path>
            </g>
            <g id="Group-9" transform="translate(880.000000, 0.000000)" fill-rule="nonzero">
                <g id="Group">
                    <path d="M357.484298,350.037549 C421.3326,312.011493 552.206324,354.381185 595.608584,380.056055 C614.060456,390.971372 615.744025,372.763243 579.869367,419.901198 C564.63475,439.918914 576.388403,439.050202 556.67417,464.693545 C545.157388,479.67403 533.854375,484.192342 519.925561,500.122943 C511.072096,510.248787 500.428045,575.889707 487.28826,575.889707 C439.938017,575.889707 442.459663,569.137684 442.459663,575.889707 C442.459663,583.512618 456.608555,521.95907 456.608555,511.522556 C456.608555,493.468072 460.3205,519.576475 451.541626,493.385186 C449.741058,488.013292 348.241373,473.749595 327.749517,419.901198 C318.46355,395.499581 310.05245,391.034267 318.296717,365.464122 C323.068641,350.663678 341.338738,359.653341 357.484298,350.037549 Z" id="Rectangle-10" fill="#D2BDA4" transform="translate(461.699596, 455.704736) scale(-1, 1) translate(-461.699596, -455.704736) "></path>
                    <path d="M31.4667109,155.93243 C27.9514679,83.2642572 356.342104,-85.4212045 545.098594,52.754518 C670.936254,144.871666 695.465042,230.066772 618.684957,308.339835 C587.365174,329.234369 559.000519,337.23003 533.590992,332.326818 C495.4767,324.971998 517.334405,324.007899 491.42694,324.007899 C465.519475,324.007899 495.11749,407.287477 351.703065,407.287477 C321.810371,407.287477 167.753204,383.232724 158.97433,357.041435 C157.173762,351.669541 45.1586837,421.558244 24.6668275,367.709847 C15.3808607,343.30823 -4.31071753,312.237979 0.84762408,271.886754 C3.43181352,251.671883 9.2767999,208.043414 17.5210665,182.473269 C22.2929912,167.672824 32.293448,173.02299 31.4667109,155.93243 Z" id="Rectangle-10" fill="#FFD19C" transform="translate(331.163796, 203.643738) scale(-1, 1) translate(-331.163796, -203.643738) "></path>
                </g>
                <g id="Group-2" transform="translate(42.000000, 175.000000)">
                    <circle id="Oval-5" fill="#D8D8D8" cx="46" cy="46" r="46"></circle>
                    <circle id="Oval-5" fill="#F2F2F2" cx="46" cy="46" r="33.5488722"></circle>
                    <circle id="Oval-5" fill="#9DD8FF" cx="46" cy="46" r="22.481203"></circle>
                </g>
                <g id="Group-2" transform="translate(195.000000, 26.000000)">
                    <circle id="Oval-5" fill="#D8D8D8" cx="46" cy="46" r="46"></circle>
                    <circle id="Oval-5" fill="#F2F2F2" cx="46" cy="46" r="33.5488722"></circle>
                    <circle id="Oval-5" fill="#9DD8FF" cx="46" cy="46" r="22.481203"></circle>
                </g>
                <g id="Group-2" transform="translate(224.000000, 284.000000)">
                    <circle id="Oval-5" fill="#D8D8D8" cx="46" cy="46" r="46"></circle>
                    <circle id="Oval-5" fill="#F2F2F2" cx="46" cy="46" r="33.5488722"></circle>
                    <circle id="Oval-5" fill="#9DD8FF" cx="46" cy="46" r="22.481203"></circle>
                </g>
                <g id="Group-2" transform="translate(539.000000, 268.000000)">
                    <circle id="Oval-5" fill="#D8D8D8" cx="46" cy="46" r="46"></circle>
                    <circle id="Oval-5" fill="#F2F2F2" cx="46" cy="46" r="33.5488722"></circle>
                    <circle id="Oval-5" fill="#9DD8FF" cx="46" cy="46" r="22.481203"></circle>
                </g>
                <g id="Group-2" transform="translate(306.000000, 121.000000)">
                    <circle id="Oval-5" fill="#D8D8D8" cx="73.5" cy="73.5" r="73.5"></circle>
                    <circle id="Oval-5" fill="#F2F2F2" cx="73.8483412" cy="73.8483412" r="53.6445498"></circle>
                    <circle id="Oval-5" fill="#9DD8FF" cx="73.5" cy="73.5" r="35.8791469"></circle>
                </g>
                <path d="M530,94 L548,94 C565.120827,94 579,107.879173 579,125 L579,144 C579,161.120827 565.120827,175 548,175 L530,175 C512.879173,175 499,161.120827 499,144 L499,125 C499,107.879173 512.879173,94 530,94 Z" id="Rectangle-11" fill="#FFFEFE"></path>
                <ellipse id="Oval-5" fill="#9DD8FF" cx="524" cy="120.5" rx="14" ry="14.5"></ellipse>
                <path d="M86.3475336,222.25 L240.652466,222.25" id="Line-5" stroke="#9DD8FF" stroke-width="18" stroke-linecap="square"></path>
                <path d="M271.347953,330.833333 L390,330.833333" id="Line-5" stroke="#9DD8FF" stroke-width="18" stroke-linecap="square"></path>
                <path d="M391.25,195 L391.25,329.478093" id="Line-5" stroke="#9DD8FF" stroke-width="18" stroke-linecap="square"></path>
                <path d="M379.833333,135 L379.833333,209" id="Line-5" stroke="#9DD8FF" stroke-width="18" stroke-linecap="square"></path>
                <path d="M241,74 L241,221.478873" id="Line-5" stroke="#9DD8FF" stroke-width="18" stroke-linecap="square"></path>
                <path d="M416.347737,195.833333 L585,195.833333" id="Line-5" stroke="#9DD8FF" stroke-width="18" stroke-linecap="square"></path>
                <path d="M476,121.201389 L523,121.201389" id="Line-5" stroke="#9DD8FF" stroke-width="13" stroke-linecap="square"></path>
                <path d="M476.333333,192.653846 L476.333333,121.139423" id="Line-5" stroke="#9DD8FF" stroke-width="13" stroke-linecap="square"></path>
                <path d="M240.346535,133.805556 L380,133.805556" id="Line-5" stroke="#9DD8FF" stroke-width="18" stroke-linecap="square"></path>
                <path d="M584,319 L584,195.173184" id="Line-5" stroke="#9DD8FF" stroke-width="18" stroke-linecap="square"></path>
            </g>
            <g id="Group-15" transform="translate(592.000000, 1421.000000)" fill-rule="nonzero">
                <path d="M1.5,0.462184874 L1.5,439.537815" id="Line-6" stroke="#767676" stroke-width="21" stroke-linecap="square"></path>
                <path d="M619.53806,439.5 L1.4619403,439.5" id="Line-6" stroke="#767676" stroke-width="21" stroke-linecap="square"></path>
                <path d="M142.464706,311.536585 L220.535294,160.463415" id="Line-7" stroke="#E1E1E1" stroke-width="10" stroke-linecap="square"></path>
                <path d="M405.463415,219.537736 L519,73" id="Line-7" stroke="#E1E1E1" stroke-width="10" stroke-linecap="square"></path>
                <path d="M394,216 L226,153" id="Line-7" stroke="#E1E1E1" stroke-width="10" stroke-linecap="square"></path>
                <circle id="Oval-6" fill="#FF9393" cx="136.5" cy="316.5" r="35.5"></circle>
                <circle id="Oval-6" fill="#6AC9DF" cx="221" cy="154" r="29"></circle>
                <circle id="Oval-6" fill="#6ADFAB" cx="404.5" cy="220.5" r="37.5"></circle>
                <circle id="Oval-6" fill="#FFDB7B" cx="521.5" cy="64.5" r="46.5"></circle>
            </g>
            <g id="Group-8" transform="translate(1543.000000, 2650.000000)">
                <rect id="Rectangle-12" fill="#6AC9DF" fill-rule="nonzero" transform="translate(165.368832, 164.498155) rotate(-7.000000) translate(-165.368832, -164.498155) " x="16.8688317" y="16.9981549" width="297" height="295" rx="31"></rect>
                <text id="Σ" transform="translate(163.851205, 164.288388) rotate(-7.000000) translate(-163.851205, -164.288388) " font-family="Times-Roman, Times" font-size="144" font-weight="normal" letter-spacing="-0.05344952" fill="#4E91A0">
                    <tspan x="119.897461" y="214.788388">Σ</tspan>
                </text>
                <path d="M194.45557,102.309209 L337.98001,102.777254 L310.172239,270.437272 L210.499183,296.309059 L163.354477,290.327737 L163.354477,133.309044 C163.354477,116.188217 177.23365,102.309044 194.354477,102.309044 C194.388175,102.309044 194.421872,102.309099 194.45557,102.309209 Z" id="Rectangle-12" fill-opacity="0.187981205" fill="#808080" fill-rule="nonzero" transform="translate(250.667243, 199.309052) rotate(-16.000000) translate(-250.667243, -199.309052) "></path>
                <rect id="Rectangle-12" fill="#FFDC9B" fill-rule="nonzero" transform="translate(351.403872, 260.718247) rotate(-16.000000) translate(-351.403872, -260.718247) " x="202.903872" y="113.218247" width="297" height="295" rx="31"></rect>
                <g id="Group-5" transform="translate(461.349461, 333.132722) rotate(10.000000) translate(-461.349461, -333.132722) translate(312.349461, 185.632722)">
                    <g id="Group-4" transform="translate(-0.000000, 0.000000)" fill-rule="nonzero">
                        <path d="M31,0 L266,3.55271368e-15 C283.120827,4.07668736e-16 297,13.8791728 297,31 L297,210.326344 L214.051027,295 L31,295 C13.8791728,295 2.09669663e-15,281.120827 0,264 L0,31 C-2.09669663e-15,13.8791728 13.8791728,3.14504494e-15 31,0 Z" id="Rectangle-12" fill="#FF9393"></path>
                        <path d="M245,210.610696 L297.072312,210.610696 L214,295 L214,241.610696 C214,224.489868 227.879173,210.610696 245,210.610696 Z" id="Rectangle-12" fill="#D47F7F"></path>
                    </g>
                    <text id="Pr" font-family="Montserrat-SemiBold, Montserrat" font-size="144" font-weight="500" letter-spacing="-0.05344952" fill="#D47F7F">
                        <tspan x="67.6214495" y="192">Pr</tspan>
                    </text>
                </g>
            </g>
            <g id="Group-14" transform="translate(2181.000000, 919.000000)" fill-rule="nonzero">
                <g id="Macbook">
                    <path d="M68.7592847,0 L546.240715,-3.55271368e-15 C562.256973,-3.49454415e-14 575.240715,12.9837423 575.240715,29 L575.240715,357.692308 C575.240715,373.708565 562.256973,386.692308 546.240715,386.692308 L68.7592847,386.692308 C52.743027,386.692308 39.7592847,373.708565 39.7592847,357.692308 L39.7592847,29 C39.7592847,12.9837423 52.743027,6.4948525e-15 68.7592847,3.55271368e-15 Z" id="Rectangle-6" fill="#D8D8D8"></path>
                    <path d="M16,379.923077 L599,379.923077 C607.836556,379.923077 615,387.086521 615,395.923077 L615,412 C615,415.313708 612.313708,418 609,418 L6,418 C2.6862915,418 3.9323804e-15,415.313708 -8.8817842e-16,412 L0,395.923077 C-1.082166e-15,387.086521 7.163444,379.923077 16,379.923077 Z" id="Rectangle-6" fill="#D8D8D8" transform="translate(307.500000, 398.961538) scale(1, -1) translate(-307.500000, -398.961538) "></path>
                    <path d="M228.482806,379.923077 L383.979367,379.923077 C387.293076,379.923077 389.979367,382.609368 389.979367,385.923077 L389.979367,394.307692 L222.482806,394.307692 L222.482806,385.923077 C222.482806,382.609368 225.169098,379.923077 228.482806,379.923077 Z" id="Rectangle-6" fill="#B8B8B8" transform="translate(306.231087, 387.115385) scale(1, -1) translate(-306.231087, -387.115385) "></path>
                    <path d="M83.9862448,13.5384615 L531.013755,13.5384615 C547.030013,13.5384615 560.013755,26.5222038 560.013755,42.5384615 L560.013755,334 C560.013755,350.016258 547.030013,363 531.013755,363 L83.9862448,363 C67.9699871,363 54.9862448,350.016258 54.9862448,334 L54.9862448,42.5384615 C54.9862448,26.5222038 67.9699871,13.5384615 83.9862448,13.5384615 Z" id="Rectangle-6" fill="#585858"></path>
                    <path d="M95.829436,26.2307692 L521.708391,26.2307692 C537.724648,26.2307692 550.708391,39.2145115 550.708391,55.2307692 L550.708391,322.153846 C550.708391,338.170104 537.724648,351.153846 521.708391,351.153846 L95.829436,351.153846 C79.8131783,351.153846 66.829436,338.170104 66.829436,322.153846 L66.829436,55.2307692 C66.829436,39.2145115 79.8131783,26.2307692 95.829436,26.2307692 Z" id="Rectangle-6" fill="#F3F3F3"></path>
                </g>
                <g id="Group-6" transform="translate(231.000000, 113.000000)">
                    <circle id="Oval-7" fill="#FFFFFF" cx="77" cy="77" r="77"></circle>
                    <circle id="Oval-7" fill="#D9D9D9" cx="55" cy="49.9230769" r="15.2307692"></circle>
                    <circle id="Oval-7" fill="#D9D9D9" cx="101.538462" cy="49.9230769" r="15.2307692"></circle>
                    <path d="M77.315182,133.692308 C103.191735,133.692308 124.168826,112.715217 124.168826,86.8386641 C124.168826,74.2171838 100.154693,87.1477034 77.315182,86.8386641 C53.3291391,86.5141113 30.4615385,73.5835917 30.4615385,86.8386641 C30.4615385,112.715217 51.4386292,133.692308 77.315182,133.692308 Z" id="Oval-7" fill="#D9D9D9"></path>
                </g>
            </g>
            <g id="Group-13" transform="translate(0.000000, 694.000000)" fill-rule="nonzero">
                <ellipse id="Oval-8" fill="#E8E8E8" cx="213.5" cy="247.5" rx="123.5" ry="118.5"></ellipse>
                <ellipse id="Oval-8" fill="#E8E8E8" cx="566" cy="265" rx="83" ry="80"></ellipse>
                <ellipse id="Oval-8" fill="#E8E8E8" cx="396.5" cy="163.5" rx="170.5" ry="163.5"></ellipse>
                <rect id="Rectangle-13" fill="#E8E8E8" x="129" y="259" width="559" height="109" rx="48"></rect>
                <g id="Group-7" fill="#FCFCFC">
                    <ellipse id="Oval-8" cx="123.537719" cy="247.232198" rx="123.537719" ry="118.489164"></ellipse>
                    <ellipse id="Oval-8" cx="484.472807" cy="254.637771" rx="91.6570175" ry="90.5758514"></ellipse>
                    <ellipse id="Oval-8" cx="305.713158" cy="163.49226" rx="170.220175" ry="163.49226"></ellipse>
                    <path d="M86.7122807,258.625387 L601,258.625387 C627.509668,258.625387 649,280.115719 649,306.625387 L649,320 C649,346.509668 627.509668,368 601,368 L86.7122807,368 C60.2026127,368 38.7122807,346.509668 38.7122807,320 L38.7122807,306.625387 C38.7122807,280.115719 60.2026127,258.625387 86.7122807,258.625387 Z" id="Rectangle-13"></path>
                </g>
                <circle id="Oval" fill="#B2E3FF" cx="308.5" cy="144.5" r="82.5"></circle>
                <circle id="Oval" fill="#FCFCFC" cx="308" cy="145" r="68"></circle>
                <rect id="Rectangle-14" fill="#FCFCFC" transform="translate(354.500000, 90.500000) rotate(56.000000) translate(-354.500000, -90.500000) " x="333" y="71" width="43" height="39"></rect>
                <polygon id="Rectangle-14" fill="#FCFCFC" transform="translate(250.500000, 192.500000) rotate(56.000000) translate(-250.500000, -192.500000) " points="229 173 272 173 272 212 229 212"></polygon>
                <path d="M346.274353,66.57279 L364.780256,90.8838852 C366.118319,92.6416911 365.77805,95.151389 364.020244,96.4894523 C363.32381,97.0195868 362.472717,97.3066631 361.597466,97.3066631 L322.567691,97.3066631 C320.910836,97.3066631 319.567691,95.9635174 319.567691,94.3066631 C319.567691,93.6502251 319.782998,93.0119056 320.180599,92.4895797 L339.908775,66.57279 C341.246838,64.8149841 343.756536,64.4747154 345.514342,65.8127787 C345.800717,66.0307708 346.056361,66.2864152 346.274353,66.57279 Z" id="Triangle-3" fill="#B2E3FF" transform="translate(342.582685, 81.151009) rotate(126.000000) translate(-342.582685, -81.151009) "></path>
                <path d="M269.108528,190.28601 L286.633459,213.60486 C287.960676,215.37087 287.604965,217.878425 285.838956,219.205643 C285.146008,219.726418 284.30264,220.008 283.435816,220.008 L246.383499,220.008 C244.726645,220.008 243.383499,218.664855 243.383499,217.008 C243.383499,216.357882 243.594686,215.725357 243.985267,215.205645 L262.713243,190.28601 C264.040461,188.520001 266.548017,188.16429 268.314026,189.491507 C268.614922,189.717641 268.882394,189.985114 269.108528,190.28601 Z" id="Triangle-3" fill="#B2E3FF" transform="translate(265.409774, 204.348459) rotate(304.000000) translate(-265.409774, -204.348459) "></path>
            </g>
        </g>
    </g>
</svg>