<?xml version="1.0" encoding="UTF-8"?>
<svg width="2618px" height="3243px" viewBox="0 0 2618 3243" version="1.1" xmlns="http://www.w3.org/2000/svg" xmlns:xlink="http://www.w3.org/1999/xlink">
    <!-- Generator: Sketch 55 (78076) - https://sketchapp.com -->
    <title>Group 7</title>
    <desc>Created with Sketch.</desc>
    <g id="Page-1" stroke="none" stroke-width="1" fill="none" fill-rule="evenodd">
        <g id="Group-7" transform="translate(-856.000000, 0.000000)" fill-rule="nonzero">
            <circle id="Oval" fill="#F18686" cx="1153.5" cy="1659.5" r="1153.5"></circle>
            <g id="Group-5" transform="translate(1719.000000, 2457.000000)" fill="#F4EEE0">
                <rect id="Rectangle" x="196" y="151" width="572" height="130" rx="65"></rect>
                <rect id="Rectangle" x="0" y="0" width="493" height="130" rx="65"></rect>
                <rect id="Rectangle" x="264" y="86" width="297" height="130" rx="65"></rect>
            </g>
            <g id="Band-aid" transform="translate(2947.000000, 966.000000)">
                <path d="M75,0 L378,0 C419.421356,-7.6089797e-15 453,33.5786438 453,75 L453,75 C453,116.421356 419.421356,150 378,150 L75,150 C33.5786438,150 5.07265313e-15,116.421356 0,75 L0,75 C-5.07265313e-15,33.5786438 33.5786438,7.6089797e-15 75,0 Z" id="Rectangle" fill="#F1DFD0"></path>
                <rect id="Rectangle" fill="#FFEEDE" x="149" y="31" width="167" height="91" rx="8"></rect>
                <path d="M350,50 L350,50 C352.761424,50 355,52.2385763 355,55 L355,55 C355,57.7614237 352.761424,60 350,60 L350,60 C347.238576,60 345,57.7614237 345,55 L345,55 C345,52.2385763 347.238576,50 350,50 Z" id="Rectangle" fill="#FFEEDE"></path>
                <path d="M393,50 L393,50 C395.761424,50 398,52.2385763 398,55 L398,55 C398,57.7614237 395.761424,60 393,60 L393,60 C390.238576,60 388,57.7614237 388,55 L388,55 C388,52.2385763 390.238576,50 393,50 Z" id="Rectangle" fill="#FFEEDE"></path>
                <path d="M393,91 L393,91 C395.761424,91 398,93.2385763 398,96 L398,96 C398,98.7614237 395.761424,101 393,101 L393,101 C390.238576,101 388,98.7614237 388,96 L388,96 C388,93.2385763 390.238576,91 393,91 Z" id="Rectangle" fill="#FFEEDE"></path>
                <path d="M350,91 L350,91 C352.761424,91 355,93.2385763 355,96 L355,96 C355,98.7614237 352.761424,101 350,101 L350,101 C347.238576,101 345,98.7614237 345,96 L345,96 C345,93.2385763 347.238576,91 350,91 Z" id="Rectangle" fill="#FFEEDE"></path>
                <path d="M66,49 L66,49 C68.7614237,49 71,51.2385763 71,54 L71,54 C71,56.7614237 68.7614237,59 66,59 L66,59 C63.2385763,59 61,56.7614237 61,54 L61,54 C61,51.2385763 63.2385763,49 66,49 Z" id="Rectangle" fill="#FFEEDE"></path>
                <path d="M110,49 L110,49 C112.761424,49 115,51.2385763 115,54 L115,54 C115,56.7614237 112.761424,59 110,59 L110,59 C107.238576,59 105,56.7614237 105,54 L105,54 C105,51.2385763 107.238576,49 110,49 Z" id="Rectangle" fill="#FFEEDE"></path>
                <path d="M110,90 L110,90 C112.761424,90 115,92.2385763 115,95 L115,95 C115,97.7614237 112.761424,100 110,100 L110,100 C107.238576,100 105,97.7614237 105,95 L105,95 C105,92.2385763 107.238576,90 110,90 Z" id="Rectangle" fill="#FFEEDE"></path>
                <path d="M66,90 L66,90 C68.7614237,90 71,92.2385763 71,95 L71,95 C71,97.7614237 68.7614237,100 66,100 L66,100 C63.2385763,100 61,97.7614237 61,95 L61,95 C61,92.2385763 63.2385763,90 66,90 Z" id="Rectangle" fill="#FFEEDE"></path>
            </g>
            <g id="Band-aid" transform="translate(1333.000000, 3093.000000)">
                <path d="M75,0 L378,0 C419.421356,-7.6089797e-15 453,33.5786438 453,75 L453,75 C453,116.421356 419.421356,150 378,150 L75,150 C33.5786438,150 5.07265313e-15,116.421356 0,75 L0,75 C-5.07265313e-15,33.5786438 33.5786438,7.6089797e-15 75,0 Z" id="Rectangle" fill="#F1DFD0"></path>
                <rect id="Rectangle" fill="#FFEEDE" x="149" y="31" width="167" height="91" rx="8"></rect>
                <path d="M350,50 L350,50 C352.761424,50 355,52.2385763 355,55 L355,55 C355,57.7614237 352.761424,60 350,60 L350,60 C347.238576,60 345,57.7614237 345,55 L345,55 C345,52.2385763 347.238576,50 350,50 Z" id="Rectangle" fill="#FFEEDE"></path>
                <path d="M393,50 L393,50 C395.761424,50 398,52.2385763 398,55 L398,55 C398,57.7614237 395.761424,60 393,60 L393,60 C390.238576,60 388,57.7614237 388,55 L388,55 C388,52.2385763 390.238576,50 393,50 Z" id="Rectangle" fill="#FFEEDE"></path>
                <path d="M393,91 L393,91 C395.761424,91 398,93.2385763 398,96 L398,96 C398,98.7614237 395.761424,101 393,101 L393,101 C390.238576,101 388,98.7614237 388,96 L388,96 C388,93.2385763 390.238576,91 393,91 Z" id="Rectangle" fill="#FFEEDE"></path>
                <path d="M350,91 L350,91 C352.761424,91 355,93.2385763 355,96 L355,96 C355,98.7614237 352.761424,101 350,101 L350,101 C347.238576,101 345,98.7614237 345,96 L345,96 C345,93.2385763 347.238576,91 350,91 Z" id="Rectangle" fill="#FFEEDE"></path>
                <path d="M66,49 L66,49 C68.7614237,49 71,51.2385763 71,54 L71,54 C71,56.7614237 68.7614237,59 66,59 L66,59 C63.2385763,59 61,56.7614237 61,54 L61,54 C61,51.2385763 63.2385763,49 66,49 Z" id="Rectangle" fill="#FFEEDE"></path>
                <path d="M110,49 L110,49 C112.761424,49 115,51.2385763 115,54 L115,54 C115,56.7614237 112.761424,59 110,59 L110,59 C107.238576,59 105,56.7614237 105,54 L105,54 C105,51.2385763 107.238576,49 110,49 Z" id="Rectangle" fill="#FFEEDE"></path>
                <path d="M110,90 L110,90 C112.761424,90 115,92.2385763 115,95 L115,95 C115,97.7614237 112.761424,100 110,100 L110,100 C107.238576,100 105,97.7614237 105,95 L105,95 C105,92.2385763 107.238576,90 110,90 Z" id="Rectangle" fill="#FFEEDE"></path>
                <path d="M66,90 L66,90 C68.7614237,90 71,92.2385763 71,95 L71,95 C71,97.7614237 68.7614237,100 66,100 L66,100 C63.2385763,100 61,97.7614237 61,95 L61,95 C61,92.2385763 63.2385763,90 66,90 Z" id="Rectangle" fill="#FFEEDE"></path>
            </g>
            <g id="Pill" transform="translate(1198.000000, 0.000000)">
                <rect id="Rectangle" fill="#FBF8EE" x="0" y="0" width="432" height="177" rx="88.5"></rect>
                <rect id="Rectangle" fill="#FF8B8B" x="216" y="0" width="216" height="177" rx="88.5"></rect>
                <rect id="Rectangle-2" fill="#FF8B8B" x="212" y="0" width="108" height="177"></rect>
                <g id="Group" transform="translate(244.000000, 28.000000)" fill="#E38080">
                    <rect id="Rectangle-2" x="0" y="0" width="69" height="68"></rect>
                    <rect id="Rectangle" x="0" y="0" width="147" height="68" rx="34"></rect>
                </g>
            </g>
            <g id="Green-Med" transform="translate(3326.000000, 1618.000000)">
                <rect id="Rectangle-8" fill="#E9E9E9" x="1" y="41" width="147" height="182" rx="41"></rect>
                <rect id="Rectangle-8" fill="#89B0A4" x="1" y="82" width="147" height="94"></rect>
                <rect id="Rectangle-8" fill="#7E7E7E" x="0" y="82" width="51" height="94"></rect>
                <rect id="Rectangle-8" fill="#FFFFFF" x="8" y="138" width="33" height="29" rx="3"></rect>
                <rect id="Rectangle-8" fill="#E9E9E9" x="21" y="23" width="102" height="29" rx="4"></rect>
                <rect id="Rectangle-8" fill="#696969" x="7" y="0" width="131" height="34" rx="17"></rect>
            </g>
            <g id="First-Aid" transform="translate(1198.000000, 1618.000000)">
                <path d="M137,7 L179,7 C181.761424,7 184,9.23857625 184,12 L184,147 C184,149.761424 181.761424,152 179,152 L137,152 C134.238576,152 132,149.761424 132,147 L132,12 C132,9.23857625 134.238576,7 137,7 Z" id="Rectangle-8" fill="#FF7A7A"></path>
                <path d="M344,7 L380,7 C384.418278,7 388,10.581722 388,15 L388,144 C388,148.418278 384.418278,152 380,152 L344,152 C339.581722,152 336,148.418278 336,144 L336,15 C336,10.581722 339.581722,7 344,7 Z" id="Rectangle-8" fill="#FF7A7A"></path>
                <path d="M140,0 L380,0 C384.418278,-8.11624501e-16 388,3.581722 388,8 L388,39 C388,43.418278 384.418278,47 380,47 L140,47 C135.581722,47 132,43.418278 132,39 L132,8 C132,3.581722 135.581722,2.58798134e-15 140,1.77635684e-15 Z" id="Rectangle-8" fill="#FF7A7A"></path>
                <path d="M22,80 L499,80 C511.150264,80 521,89.8497355 521,102 L521,447 C521,459.150264 511.150264,469 499,469 L22,469 C9.8497355,469 1.48797825e-15,459.150264 0,447 L0,102 C-1.48797825e-15,89.8497355 9.8497355,80 22,80 Z" id="Rectangle-8" fill="#FBF8EE"></path>
                <path d="M243,187 L279,187 C283.418278,187 287,190.581722 287,195 L287,324 C287,328.418278 283.418278,332 279,332 L243,332 C238.581722,332 235,328.418278 235,324 L235,195 C235,190.581722 238.581722,187 243,187 Z" id="Rectangle-8" fill="#FF7A7A"></path>
                <path d="M243,187 L279,187 C283.418278,187 287,190.581722 287,195 L287,324 C287,328.418278 283.418278,332 279,332 L243,332 C238.581722,332 235,328.418278 235,324 L235,195 C235,190.581722 238.581722,187 243,187 Z" id="Rectangle-8" fill="#FF7A7A" transform="translate(261.000000, 259.500000) rotate(90.000000) translate(-261.000000, -259.500000) "></path>
                <rect id="Rectangle-8" fill="#FFFFFF" x="31" y="372" width="69" height="68" rx="8"></rect>
                <path d="M42,416 L88,416 C89.6568542,416 91,417.343146 91,419 L91,427 C91,428.656854 89.6568542,430 88,430 L42,430 C40.3431458,430 39,428.656854 39,427 L39,419 C39,417.343146 40.3431458,416 42,416 Z" id="Rectangle-8" fill="#DFDFDF"></path>
                <path d="M44,389 L88,389 C89.6568542,389 91,390.343146 91,392 L91,407 C91,408.656854 89.6568542,410 88,410 L44,410 C42.3431458,410 41,408.656854 41,407 L41,392 C41,390.343146 42.3431458,389 44,389 Z" id="Rectangle-8" fill="#DFDFDF"></path>
                <path d="M228.5,26 L292.5,26 C298.29899,26 303,30.7010101 303,36.5 L303,44 C303,45.6568542 301.656854,47 300,47 L221,47 C219.343146,47 218,45.6568542 218,44 L218,36.5 C218,30.7010101 222.70101,26 228.5,26 Z" id="Rectangle-8" fill="#DC8F8F"></path>
            </g>
            <g id="X-ray" transform="translate(2224.000000, 0.000000)">
                <rect id="Rectangle-8" fill="#6A6A6A" x="0" y="0" width="429" height="551" rx="22"></rect>
                <g id="Group-3" transform="translate(219.000000, 168.000000)">
                    <path d="M51.5,38.5 L90.5,38.5 C94.0898509,38.5 97,41.4101491 97,45 L97,45 C97,48.5898509 94.0898509,51.5 90.5,51.5 L51.5,51.5 C47.9101491,51.5 45,48.5898509 45,45 L45,45 C45,41.4101491 47.9101491,38.5 51.5,38.5 Z" id="Rectangle-8" fill="#EDEDED"></path>
                    <path d="M6.5,0.5 L45.5,0.5 C49.0898509,0.5 52,3.41014913 52,7 L52,7 C52,10.5898509 49.0898509,13.5 45.5,13.5 L6.5,13.5 C2.91014913,13.5 4.39629938e-16,10.5898509 0,7 L0,7 C-4.39629938e-16,3.41014913 2.91014913,0.5 6.5,0.5 Z" id="Rectangle-8" fill="#EDEDED"></path>
                    <path d="M14,7 C55.5039124,7 85.0096436,7 102.517194,7 C128.778519,7 128.208455,45 102.517194,45 C85.3896858,45 71.1877571,45 59.9114075,45" id="Line" stroke="#EDEDED" stroke-width="13" stroke-linecap="square"></path>
                </g>
                <g id="Group-3" transform="translate(219.000000, 101.000000)">
                    <path d="M44.5,38.5 L74.5,38.5 C78.0898509,38.5 81,41.4101491 81,45 L81,45 C81,48.5898509 78.0898509,51.5 74.5,51.5 L44.5,51.5 C40.9101491,51.5 38,48.5898509 38,45 L38,45 C38,41.4101491 40.9101491,38.5 44.5,38.5 Z" id="Rectangle-8" fill="#EDEDED"></path>
                    <rect id="Rectangle-8" fill="#EDEDED" x="0" y="0.5" width="43" height="13" rx="6.5"></rect>
                    <path d="M12,7 C46.5865936,7 71.174703,7 85.764328,7 C107.648766,7 107.173713,45 85.764328,45 C71.4914049,45 59.6564643,45 50.2595062,45" id="Line" stroke="#EDEDED" stroke-width="13" stroke-linecap="square"></path>
                </g>
                <g id="Group-3" transform="translate(222.000000, 236.000000)">
                    <path d="M36.5,38.5 L66.5,38.5 C70.0898509,38.5 73,41.4101491 73,45 L73,45 C73,48.5898509 70.0898509,51.5 66.5,51.5 L36.5,51.5 C32.9101491,51.5 30,48.5898509 30,45 L30,45 C30,41.4101491 32.9101491,38.5 36.5,38.5 Z" id="Rectangle-8" fill="#EDEDED"></path>
                    <rect id="Rectangle-8" fill="#EDEDED" x="0" y="0.5" width="43" height="13" rx="6.5"></rect>
                    <path d="M18,7 C47.2064568,7 67.9697492,7 80.289877,7 C98.7700687,7 98.3689129,45 80.289877,45 C68.2371863,45 58.2432365,45 50.3080275,45" id="Line" stroke="#EDEDED" stroke-width="13" stroke-linecap="square"></path>
                </g>
                <g id="Group-3" transform="translate(280.000000, 451.000000) scale(1, -1) translate(-280.000000, -451.000000) translate(233.000000, 425.000000)">
                    <path d="M36.5,38.5 L66.5,38.5 C70.0898509,38.5 73,41.4101491 73,45 L73,45 C73,48.5898509 70.0898509,51.5 66.5,51.5 L36.5,51.5 C32.9101491,51.5 30,48.5898509 30,45 L30,45 C30,41.4101491 32.9101491,38.5 36.5,38.5 Z" id="Rectangle-8" fill="#EDEDED"></path>
                    <rect id="Rectangle-8" fill="#EDEDED" x="0" y="0.5" width="43" height="13" rx="6.5"></rect>
                    <path d="M18,7 C47.2064568,7 67.9697492,7 80.289877,7 C98.7700687,7 98.3689129,45 80.289877,45 C68.2371863,45 58.2432365,45 50.3080275,45" id="Line" stroke="#EDEDED" stroke-width="13" stroke-linecap="square"></path>
                </g>
                <g id="Group-3" transform="translate(160.000000, 451.000000) scale(-1, -1) translate(-160.000000, -451.000000) translate(113.000000, 425.000000)">
                    <path d="M36.5,38.5 L66.5,38.5 C70.0898509,38.5 73,41.4101491 73,45 L73,45 C73,48.5898509 70.0898509,51.5 66.5,51.5 L36.5,51.5 C32.9101491,51.5 30,48.5898509 30,45 L30,45 C30,41.4101491 32.9101491,38.5 36.5,38.5 Z" id="Rectangle-8" fill="#EDEDED"></path>
                    <rect id="Rectangle-8" fill="#EDEDED" x="0" y="0.5" width="43" height="13" rx="6.5"></rect>
                    <path d="M18,7 C47.2064568,7 67.9697492,7 80.289877,7 C98.7700687,7 98.3689129,45 80.289877,45 C68.2371863,45 58.2432365,45 50.3080275,45" id="Line" stroke="#EDEDED" stroke-width="13" stroke-linecap="square"></path>
                </g>
                <g id="Group-4" transform="translate(146.000000, 194.500000) scale(-1, 1) translate(-146.000000, -194.500000) translate(85.000000, 101.000000)">
                    <g id="Group-3" transform="translate(0.000000, 67.000000)">
                        <path d="M51.5,38.5 L90.5,38.5 C94.0898509,38.5 97,41.4101491 97,45 L97,45 C97,48.5898509 94.0898509,51.5 90.5,51.5 L51.5,51.5 C47.9101491,51.5 45,48.5898509 45,45 L45,45 C45,41.4101491 47.9101491,38.5 51.5,38.5 Z" id="Rectangle-8" fill="#EDEDED"></path>
                        <path d="M6.5,0.5 L45.5,0.5 C49.0898509,0.5 52,3.41014913 52,7 L52,7 C52,10.5898509 49.0898509,13.5 45.5,13.5 L6.5,13.5 C2.91014913,13.5 4.39629938e-16,10.5898509 0,7 L0,7 C-4.39629938e-16,3.41014913 2.91014913,0.5 6.5,0.5 Z" id="Rectangle-8" fill="#EDEDED"></path>
                        <path d="M14,7 C55.5039124,7 85.0096436,7 102.517194,7 C128.778519,7 128.208455,45 102.517194,45 C85.3896858,45 71.1877571,45 59.9114075,45" id="Line" stroke="#EDEDED" stroke-width="13" stroke-linecap="square"></path>
                    </g>
                    <g id="Group-3">
                        <path d="M44.5,38.5 L74.5,38.5 C78.0898509,38.5 81,41.4101491 81,45 L81,45 C81,48.5898509 78.0898509,51.5 74.5,51.5 L44.5,51.5 C40.9101491,51.5 38,48.5898509 38,45 L38,45 C38,41.4101491 40.9101491,38.5 44.5,38.5 Z" id="Rectangle-8" fill="#EDEDED"></path>
                        <rect id="Rectangle-8" fill="#EDEDED" x="0" y="0.5" width="43" height="13" rx="6.5"></rect>
                        <path d="M12,7 C46.5865936,7 71.174703,7 85.764328,7 C107.648766,7 107.173713,45 85.764328,45 C71.4914049,45 59.6564643,45 50.2595062,45" id="Line" stroke="#EDEDED" stroke-width="13" stroke-linecap="square"></path>
                    </g>
                    <g id="Group-3" transform="translate(3.000000, 135.000000)">
                        <path d="M36.5,38.5 L66.5,38.5 C70.0898509,38.5 73,41.4101491 73,45 L73,45 C73,48.5898509 70.0898509,51.5 66.5,51.5 L36.5,51.5 C32.9101491,51.5 30,48.5898509 30,45 L30,45 C30,41.4101491 32.9101491,38.5 36.5,38.5 Z" id="Rectangle-8" fill="#EDEDED"></path>
                        <rect id="Rectangle-8" fill="#EDEDED" x="0" y="0.5" width="43" height="13" rx="6.5"></rect>
                        <path d="M18,7 C47.2064568,7 67.9697492,7 80.289877,7 C98.7700687,7 98.3689129,45 80.289877,45 C68.2371863,45 58.2432365,45 50.3080275,45" id="Line" stroke="#EDEDED" stroke-width="13" stroke-linecap="square"></path>
                    </g>
                </g>
                <rect id="Rectangle-9" fill="#EDEDED" x="207" y="294" width="15" height="45" rx="7.5"></rect>
                <rect id="Rectangle-9" fill="#EDEDED" x="207" y="354" width="15" height="45" rx="7.5"></rect>
            </g>
            <g id="Stethscope" transform="translate(2438.000000, 1403.000000)">
                <rect id="Rectangle-7" fill="#E9E9E9" x="236" y="6" width="28" height="238" rx="14"></rect>
                <path d="M219.705746,-24.4085449 L219.705746,-24.4085449 C223.847882,-24.4085449 227.205746,-21.0506805 227.205746,-16.9085449 L227.205746,45.2529135 C227.205746,49.3950491 223.847882,52.7529135 219.705746,52.7529135 L219.705746,52.7529135 C215.563611,52.7529135 212.205746,49.3950491 212.205746,45.2529135 L212.205746,-16.9085449 C212.205746,-21.0506805 215.563611,-24.4085449 219.705746,-24.4085449 Z" id="Rectangle-7" fill="#E9E9E9" transform="translate(219.705746, 14.172184) rotate(-91.000000) translate(-219.705746, -14.172184) "></path>
                <rect id="Rectangle-7" fill="#FAFAFA" x="250" y="15.1777027" width="8" height="238" rx="4"></rect>
                <rect id="Rectangle-7" fill="#E5E0D1" x="223" y="142" width="56" height="177" rx="20"></rect>
                <g id="Group-2" transform="translate(59.000000, 163.000000) scale(-1, 1) translate(-59.000000, -163.000000) translate(10.000000, 7.000000)">
                    <rect id="Rectangle-7" fill="#E9E9E9" transform="translate(69.000000, 120.000000) scale(-1, 1) translate(-69.000000, -120.000000) " x="55" y="1" width="28" height="238" rx="14"></rect>
                    <path d="M39.2999572,-30.7352905 L39.2999572,-30.7352905 C43.2616087,-30.7352905 46.4731618,-27.5237373 46.4731618,-23.5620858 L46.4731618,39.2529632 C46.4731618,43.2146148 43.2616087,46.4261679 39.2999572,46.4261679 L39.2999572,46.4261679 C35.3383056,46.4261679 32.1267525,43.2146148 32.1267525,39.2529632 L32.1267525,-23.5620858 C32.1267525,-27.5237373 35.3383056,-30.7352905 39.2999572,-30.7352905 Z" id="Rectangle-7" fill="#E9E9E9" transform="translate(39.299957, 7.845439) scale(1, -1) rotate(-91.000000) translate(-39.299957, -7.845439) "></path>
                    <rect id="Rectangle-7" fill="#FAFAFA" transform="translate(73.000000, 129.000000) scale(-1, 1) translate(-73.000000, -129.000000) " x="69" y="10" width="8" height="238" rx="4"></rect>
                    <rect id="Rectangle-7" fill="#E5E0D1" transform="translate(69.897283, 228.000000) scale(-1, 1) translate(-69.897283, -228.000000) " x="41.8972828" y="144" width="56" height="168" rx="20"></rect>
                </g>
                <path d="M257.39978,260 C261.400559,338.666667 225.450213,378 149.548742,378 C71.4085606,378 33.5983368,338.666667 36.1180709,260" id="Line-2" stroke="#E5E0D1" stroke-width="22" stroke-linecap="square"></path>
                <path d="M158.387804,378 C168.597664,499.43355 168.597664,574.236197 158.387804,602.407939 C146.757162,634.5 130.770747,646.6589 112.074799,650.007568 C75.8704719,656.492197 59.3206597,646.889735 41.6716098,637.43533 C24.5629345,628.270398 13.9489843,615.069213 4.35056653,591.688452 C-15.1494335,544.188452 42.2270484,504.909145 66.994344,534.409145" id="Line-3" stroke="#E5E0D1" stroke-width="20" stroke-linecap="square"></path>
                <circle id="Oval-3" fill="#EEEEEE" cx="77.5" cy="527.5" r="39.5"></circle>
                <circle id="Oval-3" fill="#999999" cx="78" cy="528" r="16"></circle>
                <path d="M113.202349,20.5804866 L97.1807455,28.5912885 C93.3644133,30.4994546 88.7237905,28.9525803 86.8156244,25.1362482 C86.2792463,24.063492 86,22.8805856 86,21.6812078 L86,8.58411677 C86,3.84323999 89.84324,0 94.5841168,0 C95.9167588,0 97.2310992,0.310273688 98.4230505,0.906249321 L113.202349,8.29589869 C116.594645,9.99204633 117.969644,14.1170443 116.273496,17.5093396 C115.608991,18.8383491 114.531359,19.9159819 113.202349,20.5804866 Z" id="Triangle-2" fill="#999999"></path>
                <path d="M203.202349,20.5804866 L187.180745,28.5912885 C183.364413,30.4994546 178.72379,28.9525803 176.815624,25.1362482 C176.279246,24.063492 176,22.8805856 176,21.6812078 L176,8.58411677 C176,3.84323999 179.84324,0 184.584117,0 C185.916759,0 187.231099,0.310273688 188.423051,0.906249321 L203.202349,8.29589869 C206.594645,9.99204633 207.969644,14.1170443 206.273496,17.5093396 C205.608991,18.8383491 204.531359,19.9159819 203.202349,20.5804866 Z" id="Triangle-2" fill="#999999" transform="translate(191.500000, 14.704303) scale(-1, 1) translate(-191.500000, -14.704303) "></path>
            </g>
            <g id="Pill-Strip" transform="translate(1469.000000, 949.000000)">
                <path d="M19,0 L162,0 C172.49341,-1.92760819e-15 181,8.50658975 181,19 L181,314 C181,324.49341 172.49341,333 162,333 L19,333 C8.50658975,333 1.28507213e-15,324.49341 0,314 L0,19 C-1.28507213e-15,8.50658975 8.50658975,1.92760819e-15 19,0 Z" id="Rectangle-8" fill="#DFDFDF"></path>
                <g id="Group-5" transform="translate(31.000000, 35.000000)">
                    <circle id="Oval-4" fill-opacity="0.5" fill="#B7B7B7" cx="23" cy="23" r="23"></circle>
                    <circle id="Oval-4" fill="#FAFAFA" cx="23" cy="23" r="15.5405405"></circle>
                    <path d="M34.1891892,13.0540541 L11.8108108,32.9459459" id="Line-4" stroke="#E8E8E8" stroke-linecap="square"></path>
                </g>
                <g id="Group-5" transform="translate(107.000000, 35.000000)">
                    <circle id="Oval-4" fill-opacity="0.5" fill="#B7B7B7" cx="23" cy="23" r="23"></circle>
                    <circle id="Oval-4" fill="#FAFAFA" cx="23" cy="23" r="15.5405405"></circle>
                    <path d="M34.1891892,13.0540541 L11.8108108,32.9459459" id="Line-4" stroke="#E8E8E8" stroke-linecap="square"></path>
                </g>
                <g id="Group-5" transform="translate(31.000000, 107.000000)">
                    <circle id="Oval-4" fill-opacity="0.5" fill="#B7B7B7" cx="23" cy="23" r="23"></circle>
                    <circle id="Oval-4" fill="#FAFAFA" cx="23" cy="23" r="15.5405405"></circle>
                    <path d="M34.1891892,13.0540541 L11.8108108,32.9459459" id="Line-4" stroke="#E8E8E8" stroke-linecap="square"></path>
                </g>
                <g id="Group-5" transform="translate(107.000000, 107.000000)">
                    <circle id="Oval-4" fill-opacity="0.5" fill="#B7B7B7" cx="23" cy="23" r="23"></circle>
                    <circle id="Oval-4" fill="#FAFAFA" cx="23" cy="23" r="15.5405405"></circle>
                    <path d="M34.1891892,13.0540541 L11.8108108,32.9459459" id="Line-4" stroke="#E8E8E8" stroke-linecap="square"></path>
                </g>
                <g id="Group-5" transform="translate(31.000000, 180.000000)">
                    <circle id="Oval-4" fill-opacity="0.5" fill="#B7B7B7" cx="23" cy="23" r="23"></circle>
                    <circle id="Oval-4" fill="#FAFAFA" cx="23" cy="23" r="15.5405405"></circle>
                    <path d="M34.1891892,13.0540541 L11.8108108,32.9459459" id="Line-4" stroke="#E8E8E8" stroke-linecap="square"></path>
                </g>
                <g id="Group-5" transform="translate(107.000000, 180.000000)">
                    <circle id="Oval-4" fill-opacity="0.5" fill="#B7B7B7" cx="23" cy="23" r="23"></circle>
                    <circle id="Oval-4" fill="#FAFAFA" cx="23" cy="23" r="15.5405405"></circle>
                    <path d="M34.1891892,13.0540541 L11.8108108,32.9459459" id="Line-4" stroke="#E8E8E8" stroke-linecap="square"></path>
                </g>
                <g id="Group-5" transform="translate(31.000000, 255.000000)">
                    <circle id="Oval-4" fill-opacity="0.5" fill="#B7B7B7" cx="23" cy="23" r="23"></circle>
                    <circle id="Oval-4" fill="#FAFAFA" cx="23" cy="23" r="15.5405405"></circle>
                    <path d="M34.1891892,13.0540541 L11.8108108,32.9459459" id="Line-4" stroke="#E8E8E8" stroke-linecap="square"></path>
                </g>
                <g id="Group-5" transform="translate(107.000000, 255.000000)">
                    <circle id="Oval-4" fill-opacity="0.5" fill="#B7B7B7" cx="23" cy="23" r="23"></circle>
                    <circle id="Oval-4" fill="#FAFAFA" cx="23" cy="23" r="15.5405405"></circle>
                    <path d="M34.1891892,13.0540541 L11.8108108,32.9459459" id="Line-4" stroke="#E8E8E8" stroke-linecap="square"></path>
                </g>
            </g>
            <g id="Group-12" transform="translate(2043.000000, 2096.000000)">
                <rect id="Rectangle-8" fill="#FBF8EE" x="0" y="0" width="363" height="244" rx="68"></rect>
                <rect id="Rectangle-8" fill="#FFFFFF" x="32" y="24" width="300" height="146" rx="31"></rect>
                <g id="Group-6" transform="translate(112.553603, 106.553603) rotate(-179.000000) translate(-112.553603, -106.553603) translate(80.553603, 74.553603)" fill="#FF7A7A">
                    <path d="M41.2877819,15.005912 L55.6081383,48.6907564 C56.9045939,51.7403247 55.4834152,55.2634732 52.4338469,56.5599288 C50.8079447,57.2511447 48.9600459,57.1906476 47.3828352,56.3945673 L14.1489274,39.6201044 C10.2046052,37.6292496 8.62100706,32.817838 10.6118619,28.8735158 C11.0672307,27.9713298 11.6894148,27.1635922 12.4454956,26.4930386 L28.6172794,12.1505939 C31.9228354,9.21895969 36.9790772,9.52208323 39.9107115,12.8276393 C40.4844355,13.4745403 40.9494916,14.2101735 41.2877819,15.005912 Z" id="Rectangle-8" transform="translate(31.930420, 32.462482) rotate(45.000000) translate(-31.930420, -32.462482) "></path>
                    <circle id="Oval-9" cx="32.5" cy="19.5" r="19.5"></circle>
                </g>
                <g id="Group-6" transform="translate(144.820204, 75.802599) rotate(-179.000000) translate(-144.820204, -75.802599) translate(127.320204, 57.302599)" fill="#FF7A7A">
                    <path d="M25.2008982,12.3373621 L33.6507426,32.2133825 C34.2989704,33.7381667 33.5883811,35.4997409 32.0635969,36.1479687 C31.2506458,36.4935767 30.3266964,36.4633281 29.5380911,36.0652879 L10.1152374,26.2618083 C6.17091519,24.2709535 4.58731701,19.4595419 6.57817184,15.5152197 C7.03354067,14.6130337 7.6557247,13.8052961 8.41180554,13.1347425 L12.5303956,9.48204398 C15.8359517,6.55040972 20.8921935,6.85353326 23.8238278,10.1590894 C24.3975518,10.8059903 24.8626078,11.5416236 25.2008982,12.3373621 Z" id="Rectangle-8" transform="translate(17.585749, 19.405851) rotate(45.000000) translate(-17.585749, -19.405851) "></path>
                    <circle id="Oval-9" cx="18" cy="12" r="12"></circle>
                </g>
                <path d="M220.924055,52.5 L220.924055,91 L212.014055,91 L212.014055,59.65 L204.314055,59.65 L204.314055,52.5 L220.924055,52.5 Z M245.568018,68.175 C248.941369,68.7250028 251.526343,69.9808235 253.323018,71.9425 C255.119694,73.9041765 256.018018,76.3333189 256.018018,79.23 C256.018018,81.4666778 255.431358,83.5291572 254.258018,85.4175 C253.084679,87.3058428 251.297197,88.8183277 248.895518,89.955 C246.49384,91.0916723 243.551369,91.66 240.068018,91.66 C237.354672,91.66 234.687198,91.3025036 232.065518,90.5875 C229.443839,89.8724964 227.216361,88.8550066 225.383018,87.535 L228.848018,80.715 C230.314692,81.8150055 232.010509,82.667497 233.935518,83.2725 C235.860528,83.877503 237.831342,84.18 239.848018,84.18 C242.084696,84.18 243.844679,83.749171 245.128018,82.8875 C246.411358,82.025829 247.053018,80.8066745 247.053018,79.23 C247.053018,76.0766509 244.651376,74.5 239.848018,74.5 L235.778018,74.5 L235.778018,68.615 L243.698018,59.65 L227.308018,59.65 L227.308018,52.5 L254.258018,52.5 L254.258018,58.275 L245.568018,68.175 Z M272.741982,66.965 C278.168675,66.965 282.174469,68.0466559 284.759482,70.21 C287.344494,72.3733442 288.636982,75.2699818 288.636982,78.9 C288.636982,81.2466784 288.050321,83.3824904 286.876982,85.3075 C285.703642,87.2325096 283.91616,88.7724942 281.514482,89.9275 C279.112803,91.0825058 276.151999,91.66 272.631982,91.66 C269.918635,91.66 267.251161,91.3025036 264.629482,90.5875 C262.007802,89.8724964 259.780324,88.8550066 257.946982,87.535 L261.466982,80.715 C262.933656,81.8150055 264.620305,82.667497 266.526982,83.2725 C268.433658,83.877503 270.395305,84.18 272.411982,84.18 C274.648659,84.18 276.408642,83.7400044 277.691982,82.86 C278.975321,81.9799956 279.616982,80.7516746 279.616982,79.175 C279.616982,77.5249917 278.947822,76.2783376 277.609482,75.435 C276.271142,74.5916625 273.951998,74.17 270.651982,74.17 L260.806982,74.17 L262.786982,52.5 L286.271982,52.5 L286.271982,59.65 L270.211982,59.65 L269.606982,66.965 L272.741982,66.965 Z" id="135" fill="#929292"></path>
                <path d="M239.004541,126.336 C240.76455,127.136004 242.116537,128.215993 243.060541,129.576 C244.004546,130.936007 244.476541,132.527991 244.476541,134.352 C244.476541,136.40001 243.908547,138.191992 242.772541,139.728 C241.636536,141.264008 240.028552,142.439996 237.948541,143.256 C235.868531,144.072004 233.452555,144.48 230.700541,144.48 C227.948528,144.48 225.540552,144.072004 223.476541,143.256 C221.412531,142.439996 219.820547,141.264008 218.700541,139.728 C217.580536,138.191992 217.020541,136.40001 217.020541,134.352 C217.020541,132.527991 217.484537,130.936007 218.412541,129.576 C219.340546,128.215993 220.668533,127.136004 222.396541,126.336 C221.052535,125.599996 220.020545,124.632006 219.300541,123.432 C218.580538,122.231994 218.220541,120.848008 218.220541,119.28 C218.220541,117.391991 218.740536,115.744007 219.780541,114.336 C220.820546,112.927993 222.284532,111.840004 224.172541,111.072 C226.060551,110.303996 228.236529,109.92 230.700541,109.92 C233.196554,109.92 235.388532,110.303996 237.276541,111.072 C239.164551,111.840004 240.636536,112.927993 241.692541,114.336 C242.748547,115.744007 243.276541,117.391991 243.276541,119.28 C243.276541,120.848008 242.908545,122.223994 242.172541,123.408 C241.436538,124.592006 240.380548,125.567996 239.004541,126.336 Z M230.700541,114.816 C228.748532,114.816 227.204547,115.231996 226.068541,116.064 C224.932536,116.896004 224.364541,118.063992 224.364541,119.568 C224.364541,121.008007 224.932536,122.151996 226.068541,123 C227.204547,123.848004 228.748532,124.272 230.700541,124.272 C232.684551,124.272 234.252536,123.848004 235.404541,123 C236.556547,122.151996 237.132541,121.008007 237.132541,119.568 C237.132541,118.063992 236.548547,116.896004 235.380541,116.064 C234.212535,115.231996 232.652551,114.816 230.700541,114.816 Z M230.700541,139.584 C233.004553,139.584 234.828535,139.104005 236.172541,138.144 C237.516548,137.183995 238.188541,135.856008 238.188541,134.16 C238.188541,132.495992 237.516548,131.184005 236.172541,130.224 C234.828535,129.263995 233.004553,128.784 230.700541,128.784 C228.39653,128.784 226.588548,129.263995 225.276541,130.224 C223.964535,131.184005 223.308541,132.495992 223.308541,134.16 C223.308541,135.856008 223.964535,137.183995 225.276541,138.144 C226.588548,139.104005 228.39653,139.584 230.700541,139.584 Z M278.416,136.368 L272.464,136.368 L272.464,144 L266.416,144 L266.416,136.368 L247.984,136.368 L247.984,132.048 L264.544,110.4 L271.216,110.4 L255.616,131.088 L266.608,131.088 L266.608,124.32 L272.464,124.32 L272.464,131.088 L278.416,131.088 L278.416,136.368 Z" id="84" fill="#D4D4D4"></path>
            </g>
            <g id="pharmacy_thing" transform="translate(2947.000000, 2340.000000)">
                <g id="Group-6" transform="translate(238.375282, 80.884084) rotate(-179.000000) translate(-238.375282, -80.884084) translate(158.375282, 1.384084)" fill="#D3D0C6">
                    <path d="M91.5193319,10.8111275 L116.695105,140.194889 C117.960942,146.700296 113.71343,153.000133 107.208024,154.265969 C101.624273,155.352468 96.0449062,152.369297 93.8475003,147.122378 L43.5682538,27.0666587 C41.8615136,22.9913406 43.7816254,18.3040561 47.8569435,16.5973159 C47.9919684,16.5407675 48.1285199,16.487936 48.2664439,16.4388809 L80.9857853,4.80167566 C85.1486047,3.32109624 89.7234833,5.49548133 91.2040627,9.6583007 C91.33775,10.0341778 91.4431338,10.4195285 91.5193319,10.8111275 Z" id="Rectangle-8" transform="translate(79.931730, 79.412483) rotate(45.000000) translate(-79.931730, -79.412483) "></path>
                </g>
                <path d="M150,234.621376 C232.842712,234.621376 300,189.658316 300,134.19357 C300,107.14023 223.119748,120.311465 150,119.649059 C73.2096768,118.953401 0,105.782166 0,134.19357 C0,189.658316 67.1572875,234.621376 150,234.621376 Z" id="Oval-7" fill="#E8E4D8"></path>
                <path d="M134.416219,98.9049308 C142.927148,82.8367356 147.182612,67.5308888 147.182612,52.9873904 C147.182612,38.443892 142.927148,27.4164054 134.416219,19.9049308 C124.217813,32.0747038 119.118611,45.4313395 119.118611,59.9748379 C119.118611,74.5183363 124.217813,87.4950339 134.416219,98.9049308 Z" id="Oval-10" fill="#67C199" transform="translate(133.150611, 59.404931) rotate(35.000000) translate(-133.150611, -59.404931) "></path>
                <path d="M80.4162189,114.904931 C88.9271478,98.8367356 93.1826123,83.5308888 93.1826123,68.9873904 C93.1826123,54.443892 88.9271478,43.4164054 80.4162189,35.9049308 C70.2178133,48.0747038 65.1186106,61.4313395 65.1186106,75.9748379 C65.1186106,90.5183363 70.2178133,103.495034 80.4162189,114.904931 Z" id="Oval-10" fill="#67C199" transform="translate(79.150611, 75.404931) scale(-1, 1) rotate(35.000000) translate(-79.150611, -75.404931) "></path>
            </g>
        </g>
    </g>
</svg>